G04 #@! TF.GenerationSoftware,KiCad,Pcbnew,(5.1.5-0-10_14)*
G04 #@! TF.CreationDate,2020-05-20T11:48:18+12:00*
G04 #@! TF.ProjectId,audio-amplifier,61756469-6f2d-4616-9d70-6c6966696572,B*
G04 #@! TF.SameCoordinates,Original*
G04 #@! TF.FileFunction,Copper,L1,Top*
G04 #@! TF.FilePolarity,Positive*
%FSLAX46Y46*%
G04 Gerber Fmt 4.6, Leading zero omitted, Abs format (unit mm)*
G04 Created by KiCad (PCBNEW (5.1.5-0-10_14)) date 2020-05-20 11:48:18*
%MOMM*%
%LPD*%
G04 APERTURE LIST*
%ADD10C,0.100000*%
%ADD11O,3.800000X4.800000*%
%ADD12O,4.600000X5.600000*%
%ADD13O,5.200000X4.200000*%
%ADD14O,2.000000X2.000000*%
%ADD15O,2.500000X1.500000*%
%ADD16O,2.600000X2.000000*%
%ADD17C,1.700000*%
%ADD18C,1.300000*%
%ADD19O,1.400000X1.400000*%
%ADD20C,2.000000*%
%ADD21C,1.300000*%
%ADD22C,1.000000*%
%ADD23C,0.200000*%
G04 APERTURE END LIST*
D10*
G36*
X86150000Y-82700000D02*
G01*
X86150000Y-80100000D01*
X87450000Y-80100000D01*
X87450000Y-82700000D01*
X86150000Y-82700000D01*
G37*
D11*
X38800000Y-48100000D03*
D12*
X45100000Y-48100000D03*
D13*
X41950000Y-52800000D03*
D14*
X48350000Y-70750000D03*
X48350000Y-68250000D03*
X48350000Y-65750000D03*
X51650000Y-70750000D03*
X51650000Y-68250000D03*
X51650000Y-65750000D03*
D15*
X83800000Y-52320000D03*
X83800000Y-54860000D03*
X83800000Y-59940000D03*
X83800000Y-57400000D03*
X76180000Y-57400000D03*
X76180000Y-59940000D03*
X76180000Y-54860000D03*
X76180000Y-52320000D03*
X76180000Y-62480000D03*
X76180000Y-65020000D03*
X76180000Y-70100000D03*
X76180000Y-67560000D03*
X83800000Y-67560000D03*
X83800000Y-70100000D03*
X83800000Y-65020000D03*
X83800000Y-62480000D03*
X83800000Y-75180000D03*
X83800000Y-72640000D03*
X76180000Y-72640000D03*
X76180000Y-75180000D03*
D16*
X58000000Y-53000000D03*
X58000000Y-55500000D03*
X58000000Y-50500000D03*
D17*
X54250000Y-58580000D03*
X54250000Y-48420000D03*
X69580000Y-45750000D03*
X59420000Y-45750000D03*
X97080000Y-67500000D03*
X86920000Y-67500000D03*
X97080000Y-64750000D03*
X86920000Y-64750000D03*
X97080000Y-59250000D03*
X86920000Y-59250000D03*
X97080000Y-62000000D03*
X86920000Y-62000000D03*
X69580000Y-42750000D03*
X59420000Y-42750000D03*
X73330000Y-58000000D03*
X63170000Y-58000000D03*
X73330000Y-55250000D03*
X63170000Y-55250000D03*
X101000000Y-51170000D03*
X101000000Y-61330000D03*
X101000000Y-74330000D03*
X101000000Y-64170000D03*
D18*
X86800000Y-80100000D03*
X86800000Y-82700000D03*
D19*
X61040000Y-72060000D03*
X58500000Y-72060000D03*
X55960000Y-72060000D03*
X61040000Y-64440000D03*
X58500000Y-64440000D03*
X55960000Y-64440000D03*
D20*
X53500000Y-61750000D03*
X63250000Y-69750000D03*
D21*
X86800000Y-82700000D02*
X86800000Y-83950000D01*
D22*
X78920000Y-75180000D02*
X76180000Y-75180000D01*
X80380000Y-62480000D02*
X83800000Y-62480000D01*
X80200000Y-62300000D02*
X80380000Y-62480000D01*
X80200000Y-62300000D02*
X80200000Y-73900000D01*
X78620000Y-52320000D02*
X76180000Y-52320000D01*
X80200000Y-53900000D02*
X78620000Y-52320000D01*
X80200000Y-62300000D02*
X80200000Y-53900000D01*
X80200000Y-73900000D02*
X78920000Y-75180000D01*
D23*
G36*
X119100001Y-89600000D02*
G01*
X31650000Y-89600000D01*
X31650000Y-85268545D01*
X33400000Y-85268545D01*
X33400000Y-85731455D01*
X33490309Y-86185470D01*
X33667457Y-86613143D01*
X33924636Y-86998038D01*
X34251962Y-87325364D01*
X34636857Y-87582543D01*
X35064530Y-87759691D01*
X35518545Y-87850000D01*
X35981455Y-87850000D01*
X36435470Y-87759691D01*
X36863143Y-87582543D01*
X37248038Y-87325364D01*
X37575364Y-86998038D01*
X37832543Y-86613143D01*
X38009691Y-86185470D01*
X38100000Y-85731455D01*
X38100000Y-85268545D01*
X112650000Y-85268545D01*
X112650000Y-85731455D01*
X112740309Y-86185470D01*
X112917457Y-86613143D01*
X113174636Y-86998038D01*
X113501962Y-87325364D01*
X113886857Y-87582543D01*
X114314530Y-87759691D01*
X114768545Y-87850000D01*
X115231455Y-87850000D01*
X115685470Y-87759691D01*
X116113143Y-87582543D01*
X116498038Y-87325364D01*
X116825364Y-86998038D01*
X117082543Y-86613143D01*
X117259691Y-86185470D01*
X117350000Y-85731455D01*
X117350000Y-85268545D01*
X117259691Y-84814530D01*
X117082543Y-84386857D01*
X116825364Y-84001962D01*
X116498038Y-83674636D01*
X116113143Y-83417457D01*
X115685470Y-83240309D01*
X115231455Y-83150000D01*
X114768545Y-83150000D01*
X114314530Y-83240309D01*
X113886857Y-83417457D01*
X113501962Y-83674636D01*
X113174636Y-84001962D01*
X112917457Y-84386857D01*
X112740309Y-84814530D01*
X112650000Y-85268545D01*
X38100000Y-85268545D01*
X38009691Y-84814530D01*
X37832543Y-84386857D01*
X37575364Y-84001962D01*
X37248038Y-83674636D01*
X36863143Y-83417457D01*
X36435470Y-83240309D01*
X35981455Y-83150000D01*
X35518545Y-83150000D01*
X35064530Y-83240309D01*
X34636857Y-83417457D01*
X34251962Y-83674636D01*
X33924636Y-84001962D01*
X33667457Y-84386857D01*
X33490309Y-84814530D01*
X33400000Y-85268545D01*
X31650000Y-85268545D01*
X31650000Y-82651509D01*
X75750000Y-82651509D01*
X75750000Y-82848491D01*
X75788429Y-83041689D01*
X75863811Y-83223678D01*
X75973249Y-83387463D01*
X76112537Y-83526751D01*
X76276322Y-83636189D01*
X76458311Y-83711571D01*
X76651509Y-83750000D01*
X76848491Y-83750000D01*
X77041689Y-83711571D01*
X77223678Y-83636189D01*
X77387463Y-83526751D01*
X77472705Y-83441509D01*
X82250000Y-83441509D01*
X82250000Y-83638491D01*
X82288429Y-83831689D01*
X82363811Y-84013678D01*
X82473249Y-84177463D01*
X82612537Y-84316751D01*
X82776322Y-84426189D01*
X82958311Y-84501571D01*
X83151509Y-84540000D01*
X83348491Y-84540000D01*
X83541689Y-84501571D01*
X83723678Y-84426189D01*
X83887463Y-84316751D01*
X84026751Y-84177463D01*
X84136189Y-84013678D01*
X84211571Y-83831689D01*
X84250000Y-83638491D01*
X84250000Y-83441509D01*
X84211571Y-83248311D01*
X84136189Y-83066322D01*
X84026751Y-82902537D01*
X83887463Y-82763249D01*
X83723678Y-82653811D01*
X83541689Y-82578429D01*
X83348491Y-82540000D01*
X83151509Y-82540000D01*
X82958311Y-82578429D01*
X82776322Y-82653811D01*
X82612537Y-82763249D01*
X82473249Y-82902537D01*
X82363811Y-83066322D01*
X82288429Y-83248311D01*
X82250000Y-83441509D01*
X77472705Y-83441509D01*
X77526751Y-83387463D01*
X77636189Y-83223678D01*
X77711571Y-83041689D01*
X77750000Y-82848491D01*
X77750000Y-82651509D01*
X77711571Y-82458311D01*
X77636189Y-82276322D01*
X77526751Y-82112537D01*
X77387463Y-81973249D01*
X77223678Y-81863811D01*
X77041689Y-81788429D01*
X76848491Y-81750000D01*
X76651509Y-81750000D01*
X76458311Y-81788429D01*
X76276322Y-81863811D01*
X76112537Y-81973249D01*
X75973249Y-82112537D01*
X75863811Y-82276322D01*
X75788429Y-82458311D01*
X75750000Y-82651509D01*
X31650000Y-82651509D01*
X31650000Y-79636735D01*
X41350000Y-79636735D01*
X41350000Y-79863265D01*
X41394194Y-80085443D01*
X41480884Y-80294729D01*
X41606737Y-80483082D01*
X41766918Y-80643263D01*
X41955271Y-80769116D01*
X42164557Y-80855806D01*
X42386735Y-80900000D01*
X42613265Y-80900000D01*
X42835443Y-80855806D01*
X43044729Y-80769116D01*
X43233082Y-80643263D01*
X43393263Y-80483082D01*
X43519116Y-80294729D01*
X43605806Y-80085443D01*
X43650000Y-79863265D01*
X43650000Y-79636735D01*
X43605806Y-79414557D01*
X43519116Y-79205271D01*
X43483194Y-79151509D01*
X75750000Y-79151509D01*
X75750000Y-79348491D01*
X75788429Y-79541689D01*
X75863811Y-79723678D01*
X75973249Y-79887463D01*
X76112537Y-80026751D01*
X76276322Y-80136189D01*
X76458311Y-80211571D01*
X76651509Y-80250000D01*
X76848491Y-80250000D01*
X77041689Y-80211571D01*
X77223678Y-80136189D01*
X77387463Y-80026751D01*
X77437328Y-79976886D01*
X85550000Y-79976886D01*
X85550000Y-82700000D01*
X85555515Y-82756244D01*
X85560628Y-82812429D01*
X85561222Y-82814446D01*
X85561427Y-82816541D01*
X85577765Y-82870656D01*
X85593690Y-82924764D01*
X85594663Y-82926626D01*
X85595272Y-82928642D01*
X85621792Y-82978519D01*
X85647941Y-83028538D01*
X85649260Y-83030178D01*
X85650247Y-83032035D01*
X85685914Y-83075767D01*
X85721316Y-83119798D01*
X85722929Y-83121151D01*
X85724258Y-83122781D01*
X85767795Y-83158799D01*
X85811020Y-83195068D01*
X85812860Y-83196080D01*
X85814484Y-83197423D01*
X85864211Y-83224310D01*
X85913635Y-83251481D01*
X85915639Y-83252117D01*
X85917491Y-83253118D01*
X85971413Y-83269809D01*
X86025253Y-83286889D01*
X86027346Y-83287124D01*
X86029353Y-83287745D01*
X86085413Y-83293637D01*
X86141623Y-83299942D01*
X86145668Y-83299970D01*
X86145811Y-83299985D01*
X86145954Y-83299972D01*
X86150000Y-83300000D01*
X87450000Y-83300000D01*
X87506244Y-83294485D01*
X87562429Y-83289372D01*
X87564446Y-83288778D01*
X87566541Y-83288573D01*
X87620656Y-83272235D01*
X87674764Y-83256310D01*
X87676626Y-83255337D01*
X87678642Y-83254728D01*
X87728519Y-83228208D01*
X87778538Y-83202059D01*
X87780178Y-83200740D01*
X87782035Y-83199753D01*
X87825767Y-83164086D01*
X87869798Y-83128684D01*
X87871151Y-83127071D01*
X87872781Y-83125742D01*
X87908799Y-83082205D01*
X87945068Y-83038980D01*
X87946080Y-83037140D01*
X87947423Y-83035516D01*
X87974310Y-82985789D01*
X88001481Y-82936365D01*
X88002117Y-82934361D01*
X88003118Y-82932509D01*
X88019809Y-82878587D01*
X88036889Y-82824747D01*
X88037124Y-82822654D01*
X88037745Y-82820647D01*
X88043637Y-82764587D01*
X88049942Y-82708377D01*
X88049970Y-82704332D01*
X88049985Y-82704189D01*
X88049972Y-82704046D01*
X88050000Y-82700000D01*
X88050000Y-79976886D01*
X88001963Y-79735389D01*
X87907735Y-79507903D01*
X87770938Y-79303172D01*
X87596828Y-79129062D01*
X87392097Y-78992265D01*
X87164611Y-78898037D01*
X86923114Y-78850000D01*
X86676886Y-78850000D01*
X86435389Y-78898037D01*
X86207903Y-78992265D01*
X86003172Y-79129062D01*
X85829062Y-79303172D01*
X85692265Y-79507903D01*
X85598037Y-79735389D01*
X85550000Y-79976886D01*
X77437328Y-79976886D01*
X77526751Y-79887463D01*
X77636189Y-79723678D01*
X77711571Y-79541689D01*
X77750000Y-79348491D01*
X77750000Y-79151509D01*
X77711571Y-78958311D01*
X77636189Y-78776322D01*
X77526751Y-78612537D01*
X77387463Y-78473249D01*
X77223678Y-78363811D01*
X77218121Y-78361509D01*
X82250000Y-78361509D01*
X82250000Y-78558491D01*
X82288429Y-78751689D01*
X82363811Y-78933678D01*
X82473249Y-79097463D01*
X82612537Y-79236751D01*
X82776322Y-79346189D01*
X82958311Y-79421571D01*
X83151509Y-79460000D01*
X83348491Y-79460000D01*
X83541689Y-79421571D01*
X83723678Y-79346189D01*
X83887463Y-79236751D01*
X84026751Y-79097463D01*
X84136189Y-78933678D01*
X84211571Y-78751689D01*
X84250000Y-78558491D01*
X84250000Y-78361509D01*
X84211571Y-78168311D01*
X84136189Y-77986322D01*
X84026751Y-77822537D01*
X83887463Y-77683249D01*
X83723678Y-77573811D01*
X83541689Y-77498429D01*
X83348491Y-77460000D01*
X83151509Y-77460000D01*
X82958311Y-77498429D01*
X82776322Y-77573811D01*
X82612537Y-77683249D01*
X82473249Y-77822537D01*
X82363811Y-77986322D01*
X82288429Y-78168311D01*
X82250000Y-78361509D01*
X77218121Y-78361509D01*
X77041689Y-78288429D01*
X76848491Y-78250000D01*
X76651509Y-78250000D01*
X76458311Y-78288429D01*
X76276322Y-78363811D01*
X76112537Y-78473249D01*
X75973249Y-78612537D01*
X75863811Y-78776322D01*
X75788429Y-78958311D01*
X75750000Y-79151509D01*
X43483194Y-79151509D01*
X43393263Y-79016918D01*
X43233082Y-78856737D01*
X43044729Y-78730884D01*
X42835443Y-78644194D01*
X42613265Y-78600000D01*
X42386735Y-78600000D01*
X42164557Y-78644194D01*
X41955271Y-78730884D01*
X41766918Y-78856737D01*
X41606737Y-79016918D01*
X41480884Y-79205271D01*
X41394194Y-79414557D01*
X41350000Y-79636735D01*
X31650000Y-79636735D01*
X31650000Y-77136735D01*
X41350000Y-77136735D01*
X41350000Y-77363265D01*
X41394194Y-77585443D01*
X41480884Y-77794729D01*
X41606737Y-77983082D01*
X41766918Y-78143263D01*
X41955271Y-78269116D01*
X42164557Y-78355806D01*
X42386735Y-78400000D01*
X42613265Y-78400000D01*
X42835443Y-78355806D01*
X43044729Y-78269116D01*
X43233082Y-78143263D01*
X43393263Y-77983082D01*
X43519116Y-77794729D01*
X43605806Y-77585443D01*
X43650000Y-77363265D01*
X43650000Y-77136735D01*
X43605806Y-76914557D01*
X43519116Y-76705271D01*
X43393263Y-76516918D01*
X43233082Y-76356737D01*
X43044729Y-76230884D01*
X42835443Y-76144194D01*
X42613265Y-76100000D01*
X42386735Y-76100000D01*
X42164557Y-76144194D01*
X41955271Y-76230884D01*
X41766918Y-76356737D01*
X41606737Y-76516918D01*
X41480884Y-76705271D01*
X41394194Y-76914557D01*
X41350000Y-77136735D01*
X31650000Y-77136735D01*
X31650000Y-75916282D01*
X70400000Y-75916282D01*
X70400000Y-76083718D01*
X70432665Y-76247936D01*
X70496740Y-76402626D01*
X70589762Y-76541844D01*
X70708156Y-76660238D01*
X70842495Y-76750000D01*
X70708156Y-76839762D01*
X70589762Y-76958156D01*
X70496740Y-77097374D01*
X70432665Y-77252064D01*
X70400000Y-77416282D01*
X70400000Y-77583718D01*
X70432665Y-77747936D01*
X70496740Y-77902626D01*
X70589762Y-78041844D01*
X70708156Y-78160238D01*
X70847374Y-78253260D01*
X71002064Y-78317335D01*
X71166282Y-78350000D01*
X71333718Y-78350000D01*
X71497936Y-78317335D01*
X71652626Y-78253260D01*
X71791844Y-78160238D01*
X71910238Y-78041844D01*
X72003260Y-77902626D01*
X72067335Y-77747936D01*
X72100000Y-77583718D01*
X72100000Y-77416282D01*
X72067335Y-77252064D01*
X72003260Y-77097374D01*
X71910238Y-76958156D01*
X71791844Y-76839762D01*
X71657505Y-76750000D01*
X71791844Y-76660238D01*
X71910238Y-76541844D01*
X72003260Y-76402626D01*
X72067335Y-76247936D01*
X72100000Y-76083718D01*
X72100000Y-75916282D01*
X72067335Y-75752064D01*
X72003260Y-75597374D01*
X71910238Y-75458156D01*
X71791844Y-75339762D01*
X71652626Y-75246740D01*
X71497936Y-75182665D01*
X71333718Y-75150000D01*
X71166282Y-75150000D01*
X71002064Y-75182665D01*
X70847374Y-75246740D01*
X70708156Y-75339762D01*
X70589762Y-75458156D01*
X70496740Y-75597374D01*
X70432665Y-75752064D01*
X70400000Y-75916282D01*
X31650000Y-75916282D01*
X31650000Y-74636735D01*
X36350000Y-74636735D01*
X36350000Y-74863265D01*
X36394194Y-75085443D01*
X36480884Y-75294729D01*
X36606737Y-75483082D01*
X36766918Y-75643263D01*
X36955271Y-75769116D01*
X37164557Y-75855806D01*
X37386735Y-75900000D01*
X37613265Y-75900000D01*
X37835443Y-75855806D01*
X38044729Y-75769116D01*
X38233082Y-75643263D01*
X38393263Y-75483082D01*
X38519116Y-75294729D01*
X38605806Y-75085443D01*
X38650000Y-74863265D01*
X38650000Y-74636735D01*
X38605806Y-74414557D01*
X38519116Y-74205271D01*
X38393263Y-74016918D01*
X38233082Y-73856737D01*
X38044729Y-73730884D01*
X37835443Y-73644194D01*
X37613265Y-73600000D01*
X37386735Y-73600000D01*
X37164557Y-73644194D01*
X36955271Y-73730884D01*
X36766918Y-73856737D01*
X36606737Y-74016918D01*
X36480884Y-74205271D01*
X36394194Y-74414557D01*
X36350000Y-74636735D01*
X31650000Y-74636735D01*
X31650000Y-72136735D01*
X41350000Y-72136735D01*
X41350000Y-72363265D01*
X41394194Y-72585443D01*
X41480884Y-72794729D01*
X41606737Y-72983082D01*
X41766918Y-73143263D01*
X41955271Y-73269116D01*
X42164557Y-73355806D01*
X42386735Y-73400000D01*
X42613265Y-73400000D01*
X42835443Y-73355806D01*
X43044729Y-73269116D01*
X43233082Y-73143263D01*
X43393263Y-72983082D01*
X43519116Y-72794729D01*
X43605806Y-72585443D01*
X43640671Y-72410160D01*
X54708046Y-72410160D01*
X54724494Y-72464403D01*
X54827129Y-72697668D01*
X54973300Y-72906427D01*
X55157389Y-73082659D01*
X55372322Y-73219591D01*
X55609839Y-73311960D01*
X55810000Y-73201324D01*
X55810000Y-72210000D01*
X54819825Y-72210000D01*
X54708046Y-72410160D01*
X43640671Y-72410160D01*
X43650000Y-72363265D01*
X43650000Y-72136735D01*
X43605806Y-71914557D01*
X43519116Y-71705271D01*
X43393263Y-71516918D01*
X43233082Y-71356737D01*
X43044729Y-71230884D01*
X42835443Y-71144194D01*
X42613265Y-71100000D01*
X42386735Y-71100000D01*
X42164557Y-71144194D01*
X41955271Y-71230884D01*
X41766918Y-71356737D01*
X41606737Y-71516918D01*
X41480884Y-71705271D01*
X41394194Y-71914557D01*
X41350000Y-72136735D01*
X31650000Y-72136735D01*
X31650000Y-69636735D01*
X41350000Y-69636735D01*
X41350000Y-69863265D01*
X41394194Y-70085443D01*
X41480884Y-70294729D01*
X41606737Y-70483082D01*
X41766918Y-70643263D01*
X41955271Y-70769116D01*
X42164557Y-70855806D01*
X42386735Y-70900000D01*
X42613265Y-70900000D01*
X42835443Y-70855806D01*
X43044729Y-70769116D01*
X43233082Y-70643263D01*
X43393263Y-70483082D01*
X43519116Y-70294729D01*
X43605806Y-70085443D01*
X43650000Y-69863265D01*
X43650000Y-69636735D01*
X43605806Y-69414557D01*
X43519116Y-69205271D01*
X43393263Y-69016918D01*
X43233082Y-68856737D01*
X43044729Y-68730884D01*
X42835443Y-68644194D01*
X42613265Y-68600000D01*
X42386735Y-68600000D01*
X42164557Y-68644194D01*
X41955271Y-68730884D01*
X41766918Y-68856737D01*
X41606737Y-69016918D01*
X41480884Y-69205271D01*
X41394194Y-69414557D01*
X41350000Y-69636735D01*
X31650000Y-69636735D01*
X31650000Y-66636735D01*
X41350000Y-66636735D01*
X41350000Y-66863265D01*
X41394194Y-67085443D01*
X41480884Y-67294729D01*
X41606737Y-67483082D01*
X41766918Y-67643263D01*
X41955271Y-67769116D01*
X42164557Y-67855806D01*
X42386735Y-67900000D01*
X42613265Y-67900000D01*
X42835443Y-67855806D01*
X43044729Y-67769116D01*
X43233082Y-67643263D01*
X43393263Y-67483082D01*
X43519116Y-67294729D01*
X43605806Y-67085443D01*
X43650000Y-66863265D01*
X43650000Y-66636735D01*
X43605806Y-66414557D01*
X43519116Y-66205271D01*
X43393263Y-66016918D01*
X43233082Y-65856737D01*
X43044729Y-65730884D01*
X42835443Y-65644194D01*
X42613265Y-65600000D01*
X42386735Y-65600000D01*
X42164557Y-65644194D01*
X41955271Y-65730884D01*
X41766918Y-65856737D01*
X41606737Y-66016918D01*
X41480884Y-66205271D01*
X41394194Y-66414557D01*
X41350000Y-66636735D01*
X31650000Y-66636735D01*
X31650000Y-65592414D01*
X46750000Y-65592414D01*
X46750000Y-65907586D01*
X46811487Y-66216703D01*
X46932098Y-66507884D01*
X47107199Y-66769941D01*
X47330059Y-66992801D01*
X47340833Y-67000000D01*
X47330059Y-67007199D01*
X47107199Y-67230059D01*
X46932098Y-67492116D01*
X46811487Y-67783297D01*
X46750000Y-68092414D01*
X46750000Y-68407586D01*
X46811487Y-68716703D01*
X46932098Y-69007884D01*
X47107199Y-69269941D01*
X47330059Y-69492801D01*
X47340833Y-69500000D01*
X47330059Y-69507199D01*
X47107199Y-69730059D01*
X46932098Y-69992116D01*
X46811487Y-70283297D01*
X46750000Y-70592414D01*
X46750000Y-70907586D01*
X46811487Y-71216703D01*
X46932098Y-71507884D01*
X47107199Y-71769941D01*
X47330059Y-71992801D01*
X47592116Y-72167902D01*
X47883297Y-72288513D01*
X48192414Y-72350000D01*
X48507586Y-72350000D01*
X48816703Y-72288513D01*
X49107884Y-72167902D01*
X49369941Y-71992801D01*
X49592801Y-71769941D01*
X49767902Y-71507884D01*
X49888513Y-71216703D01*
X49950000Y-70907586D01*
X49950000Y-70592414D01*
X49888513Y-70283297D01*
X49767902Y-69992116D01*
X49592801Y-69730059D01*
X49369941Y-69507199D01*
X49359167Y-69500000D01*
X49369941Y-69492801D01*
X49592801Y-69269941D01*
X49767902Y-69007884D01*
X49888513Y-68716703D01*
X49950000Y-68407586D01*
X49950000Y-68092414D01*
X49888513Y-67783297D01*
X49767902Y-67492116D01*
X49592801Y-67230059D01*
X49369941Y-67007199D01*
X49359167Y-67000000D01*
X49369941Y-66992801D01*
X49592801Y-66769941D01*
X49767902Y-66507884D01*
X49888513Y-66216703D01*
X49950000Y-65907586D01*
X49950000Y-65592414D01*
X50050000Y-65592414D01*
X50050000Y-65907586D01*
X50111487Y-66216703D01*
X50232098Y-66507884D01*
X50407199Y-66769941D01*
X50630059Y-66992801D01*
X50640833Y-67000000D01*
X50630059Y-67007199D01*
X50407199Y-67230059D01*
X50232098Y-67492116D01*
X50111487Y-67783297D01*
X50050000Y-68092414D01*
X50050000Y-68407586D01*
X50111487Y-68716703D01*
X50232098Y-69007884D01*
X50407199Y-69269941D01*
X50630059Y-69492801D01*
X50640833Y-69500000D01*
X50630059Y-69507199D01*
X50407199Y-69730059D01*
X50232098Y-69992116D01*
X50111487Y-70283297D01*
X50050000Y-70592414D01*
X50050000Y-70907586D01*
X50111487Y-71216703D01*
X50232098Y-71507884D01*
X50407199Y-71769941D01*
X50630059Y-71992801D01*
X50892116Y-72167902D01*
X51183297Y-72288513D01*
X51492414Y-72350000D01*
X51807586Y-72350000D01*
X52116703Y-72288513D01*
X52407884Y-72167902D01*
X52669941Y-71992801D01*
X52892801Y-71769941D01*
X52932959Y-71709840D01*
X54708046Y-71709840D01*
X54819825Y-71910000D01*
X55810000Y-71910000D01*
X55810000Y-70918676D01*
X56110000Y-70918676D01*
X56110000Y-71910000D01*
X56130000Y-71910000D01*
X56130000Y-72210000D01*
X56110000Y-72210000D01*
X56110000Y-73201324D01*
X56310161Y-73311960D01*
X56547678Y-73219591D01*
X56762611Y-73082659D01*
X56946700Y-72906427D01*
X57092871Y-72697668D01*
X57195506Y-72464403D01*
X57211954Y-72410160D01*
X57100176Y-72210002D01*
X57204369Y-72210002D01*
X57249958Y-72439196D01*
X57347955Y-72675781D01*
X57490224Y-72888702D01*
X57671298Y-73069776D01*
X57884219Y-73212045D01*
X58120804Y-73310042D01*
X58371961Y-73360000D01*
X58628039Y-73360000D01*
X58879196Y-73310042D01*
X59115781Y-73212045D01*
X59328702Y-73069776D01*
X59509776Y-72888702D01*
X59652045Y-72675781D01*
X59750042Y-72439196D01*
X59770000Y-72338860D01*
X59789958Y-72439196D01*
X59887955Y-72675781D01*
X60030224Y-72888702D01*
X60211298Y-73069776D01*
X60424219Y-73212045D01*
X60660804Y-73310042D01*
X60911961Y-73360000D01*
X61168039Y-73360000D01*
X61419196Y-73310042D01*
X61655781Y-73212045D01*
X61868702Y-73069776D01*
X62049776Y-72888702D01*
X62192045Y-72675781D01*
X62290042Y-72439196D01*
X62297538Y-72401509D01*
X64710000Y-72401509D01*
X64710000Y-72598491D01*
X64748429Y-72791689D01*
X64823811Y-72973678D01*
X64933249Y-73137463D01*
X65072537Y-73276751D01*
X65236322Y-73386189D01*
X65418311Y-73461571D01*
X65611509Y-73500000D01*
X65808491Y-73500000D01*
X66001689Y-73461571D01*
X66183678Y-73386189D01*
X66347463Y-73276751D01*
X66486751Y-73137463D01*
X66596189Y-72973678D01*
X66671571Y-72791689D01*
X66710000Y-72598491D01*
X66710000Y-72401509D01*
X69790000Y-72401509D01*
X69790000Y-72598491D01*
X69828429Y-72791689D01*
X69903811Y-72973678D01*
X70013249Y-73137463D01*
X70152537Y-73276751D01*
X70316322Y-73386189D01*
X70498311Y-73461571D01*
X70691509Y-73500000D01*
X70888491Y-73500000D01*
X71081689Y-73461571D01*
X71263678Y-73386189D01*
X71427463Y-73276751D01*
X71566751Y-73137463D01*
X71676189Y-72973678D01*
X71751571Y-72791689D01*
X71790000Y-72598491D01*
X71790000Y-72401509D01*
X71751571Y-72208311D01*
X71676189Y-72026322D01*
X71566751Y-71862537D01*
X71427463Y-71723249D01*
X71263678Y-71613811D01*
X71081689Y-71538429D01*
X70888491Y-71500000D01*
X70691509Y-71500000D01*
X70498311Y-71538429D01*
X70316322Y-71613811D01*
X70152537Y-71723249D01*
X70013249Y-71862537D01*
X69903811Y-72026322D01*
X69828429Y-72208311D01*
X69790000Y-72401509D01*
X66710000Y-72401509D01*
X66671571Y-72208311D01*
X66596189Y-72026322D01*
X66486751Y-71862537D01*
X66347463Y-71723249D01*
X66183678Y-71613811D01*
X66001689Y-71538429D01*
X65808491Y-71500000D01*
X65611509Y-71500000D01*
X65418311Y-71538429D01*
X65236322Y-71613811D01*
X65072537Y-71723249D01*
X64933249Y-71862537D01*
X64823811Y-72026322D01*
X64748429Y-72208311D01*
X64710000Y-72401509D01*
X62297538Y-72401509D01*
X62340000Y-72188039D01*
X62340000Y-71931961D01*
X62290042Y-71680804D01*
X62192045Y-71444219D01*
X62049776Y-71231298D01*
X61868702Y-71050224D01*
X61655781Y-70907955D01*
X61419196Y-70809958D01*
X61168039Y-70760000D01*
X60911961Y-70760000D01*
X60660804Y-70809958D01*
X60424219Y-70907955D01*
X60211298Y-71050224D01*
X60030224Y-71231298D01*
X59887955Y-71444219D01*
X59789958Y-71680804D01*
X59770000Y-71781140D01*
X59750042Y-71680804D01*
X59652045Y-71444219D01*
X59509776Y-71231298D01*
X59328702Y-71050224D01*
X59115781Y-70907955D01*
X58879196Y-70809958D01*
X58628039Y-70760000D01*
X58371961Y-70760000D01*
X58120804Y-70809958D01*
X57884219Y-70907955D01*
X57671298Y-71050224D01*
X57490224Y-71231298D01*
X57347955Y-71444219D01*
X57249958Y-71680804D01*
X57204369Y-71909998D01*
X57100176Y-71909998D01*
X57211954Y-71709840D01*
X57195506Y-71655597D01*
X57092871Y-71422332D01*
X56946700Y-71213573D01*
X56762611Y-71037341D01*
X56547678Y-70900409D01*
X56310161Y-70808040D01*
X56110000Y-70918676D01*
X55810000Y-70918676D01*
X55609839Y-70808040D01*
X55372322Y-70900409D01*
X55157389Y-71037341D01*
X54973300Y-71213573D01*
X54827129Y-71422332D01*
X54724494Y-71655597D01*
X54708046Y-71709840D01*
X52932959Y-71709840D01*
X53067902Y-71507884D01*
X53188513Y-71216703D01*
X53250000Y-70907586D01*
X53250000Y-70592414D01*
X53188513Y-70283297D01*
X53067902Y-69992116D01*
X52892801Y-69730059D01*
X52669941Y-69507199D01*
X52659167Y-69500000D01*
X52669941Y-69492801D01*
X52892801Y-69269941D01*
X53067902Y-69007884D01*
X53111963Y-68901509D01*
X64710000Y-68901509D01*
X64710000Y-69098491D01*
X64748429Y-69291689D01*
X64823811Y-69473678D01*
X64933249Y-69637463D01*
X65072537Y-69776751D01*
X65236322Y-69886189D01*
X65418311Y-69961571D01*
X65611509Y-70000000D01*
X65808491Y-70000000D01*
X66001689Y-69961571D01*
X66183678Y-69886189D01*
X66347463Y-69776751D01*
X66486751Y-69637463D01*
X66596189Y-69473678D01*
X66671571Y-69291689D01*
X66710000Y-69098491D01*
X66710000Y-68901509D01*
X69790000Y-68901509D01*
X69790000Y-69098491D01*
X69828429Y-69291689D01*
X69903811Y-69473678D01*
X70013249Y-69637463D01*
X70152537Y-69776751D01*
X70316322Y-69886189D01*
X70498311Y-69961571D01*
X70691509Y-70000000D01*
X70888491Y-70000000D01*
X71081689Y-69961571D01*
X71263678Y-69886189D01*
X71427463Y-69776751D01*
X71566751Y-69637463D01*
X71676189Y-69473678D01*
X71751571Y-69291689D01*
X71790000Y-69098491D01*
X71790000Y-68901509D01*
X71751571Y-68708311D01*
X71676189Y-68526322D01*
X71566751Y-68362537D01*
X71427463Y-68223249D01*
X71263678Y-68113811D01*
X71081689Y-68038429D01*
X70888491Y-68000000D01*
X70691509Y-68000000D01*
X70498311Y-68038429D01*
X70316322Y-68113811D01*
X70152537Y-68223249D01*
X70013249Y-68362537D01*
X69903811Y-68526322D01*
X69828429Y-68708311D01*
X69790000Y-68901509D01*
X66710000Y-68901509D01*
X66671571Y-68708311D01*
X66596189Y-68526322D01*
X66486751Y-68362537D01*
X66347463Y-68223249D01*
X66183678Y-68113811D01*
X66001689Y-68038429D01*
X65808491Y-68000000D01*
X65611509Y-68000000D01*
X65418311Y-68038429D01*
X65236322Y-68113811D01*
X65072537Y-68223249D01*
X64933249Y-68362537D01*
X64823811Y-68526322D01*
X64748429Y-68708311D01*
X64710000Y-68901509D01*
X53111963Y-68901509D01*
X53188513Y-68716703D01*
X53250000Y-68407586D01*
X53250000Y-68092414D01*
X53215314Y-67918032D01*
X74378342Y-67918032D01*
X74474180Y-68185299D01*
X74619339Y-68408528D01*
X74805259Y-68599148D01*
X75024795Y-68749835D01*
X75211697Y-68830000D01*
X75024795Y-68910165D01*
X74805259Y-69060852D01*
X74619339Y-69251472D01*
X74474180Y-69474701D01*
X74378342Y-69741968D01*
X74489412Y-69950000D01*
X76030000Y-69950000D01*
X76030000Y-67710000D01*
X76330000Y-67710000D01*
X76330000Y-69950000D01*
X77870588Y-69950000D01*
X77981658Y-69741968D01*
X77885820Y-69474701D01*
X77740661Y-69251472D01*
X77554741Y-69060852D01*
X77335205Y-68910165D01*
X77148303Y-68830000D01*
X77335205Y-68749835D01*
X77554741Y-68599148D01*
X77740661Y-68408528D01*
X77885820Y-68185299D01*
X77981658Y-67918032D01*
X77870588Y-67710000D01*
X76330000Y-67710000D01*
X76030000Y-67710000D01*
X74489412Y-67710000D01*
X74378342Y-67918032D01*
X53215314Y-67918032D01*
X53188513Y-67783297D01*
X53067902Y-67492116D01*
X52892801Y-67230059D01*
X52669941Y-67007199D01*
X52659167Y-67000000D01*
X52669941Y-66992801D01*
X52892801Y-66769941D01*
X53067902Y-66507884D01*
X53188513Y-66216703D01*
X53250000Y-65907586D01*
X53250000Y-65592414D01*
X53188513Y-65283297D01*
X53067902Y-64992116D01*
X52932960Y-64790160D01*
X54708046Y-64790160D01*
X54724494Y-64844403D01*
X54827129Y-65077668D01*
X54973300Y-65286427D01*
X55157389Y-65462659D01*
X55372322Y-65599591D01*
X55609839Y-65691960D01*
X55810000Y-65581324D01*
X55810000Y-64590000D01*
X54819825Y-64590000D01*
X54708046Y-64790160D01*
X52932960Y-64790160D01*
X52892801Y-64730059D01*
X52669941Y-64507199D01*
X52407884Y-64332098D01*
X52116703Y-64211487D01*
X51807586Y-64150000D01*
X51492414Y-64150000D01*
X51183297Y-64211487D01*
X50892116Y-64332098D01*
X50630059Y-64507199D01*
X50407199Y-64730059D01*
X50232098Y-64992116D01*
X50111487Y-65283297D01*
X50050000Y-65592414D01*
X49950000Y-65592414D01*
X49888513Y-65283297D01*
X49767902Y-64992116D01*
X49592801Y-64730059D01*
X49369941Y-64507199D01*
X49107884Y-64332098D01*
X48816703Y-64211487D01*
X48507586Y-64150000D01*
X48192414Y-64150000D01*
X47883297Y-64211487D01*
X47592116Y-64332098D01*
X47330059Y-64507199D01*
X47107199Y-64730059D01*
X46932098Y-64992116D01*
X46811487Y-65283297D01*
X46750000Y-65592414D01*
X31650000Y-65592414D01*
X31650000Y-64136735D01*
X41350000Y-64136735D01*
X41350000Y-64363265D01*
X41394194Y-64585443D01*
X41480884Y-64794729D01*
X41606737Y-64983082D01*
X41766918Y-65143263D01*
X41955271Y-65269116D01*
X42164557Y-65355806D01*
X42386735Y-65400000D01*
X42613265Y-65400000D01*
X42835443Y-65355806D01*
X43044729Y-65269116D01*
X43233082Y-65143263D01*
X43393263Y-64983082D01*
X43519116Y-64794729D01*
X43605806Y-64585443D01*
X43650000Y-64363265D01*
X43650000Y-64136735D01*
X43640672Y-64089840D01*
X54708046Y-64089840D01*
X54819825Y-64290000D01*
X55810000Y-64290000D01*
X55810000Y-63298676D01*
X56110000Y-63298676D01*
X56110000Y-64290000D01*
X56130000Y-64290000D01*
X56130000Y-64590000D01*
X56110000Y-64590000D01*
X56110000Y-65581324D01*
X56310161Y-65691960D01*
X56547678Y-65599591D01*
X56762611Y-65462659D01*
X56946700Y-65286427D01*
X57092871Y-65077668D01*
X57195506Y-64844403D01*
X57211954Y-64790160D01*
X57100176Y-64590002D01*
X57204369Y-64590002D01*
X57249958Y-64819196D01*
X57347955Y-65055781D01*
X57490224Y-65268702D01*
X57671298Y-65449776D01*
X57884219Y-65592045D01*
X58120804Y-65690042D01*
X58371961Y-65740000D01*
X58628039Y-65740000D01*
X58879196Y-65690042D01*
X59115781Y-65592045D01*
X59328702Y-65449776D01*
X59509776Y-65268702D01*
X59652045Y-65055781D01*
X59750042Y-64819196D01*
X59770000Y-64718860D01*
X59789958Y-64819196D01*
X59887955Y-65055781D01*
X60030224Y-65268702D01*
X60211298Y-65449776D01*
X60424219Y-65592045D01*
X60660804Y-65690042D01*
X60911961Y-65740000D01*
X61168039Y-65740000D01*
X61419196Y-65690042D01*
X61655781Y-65592045D01*
X61868702Y-65449776D01*
X61916969Y-65401509D01*
X64710000Y-65401509D01*
X64710000Y-65598491D01*
X64748429Y-65791689D01*
X64823811Y-65973678D01*
X64933249Y-66137463D01*
X65072537Y-66276751D01*
X65236322Y-66386189D01*
X65418311Y-66461571D01*
X65611509Y-66500000D01*
X65808491Y-66500000D01*
X66001689Y-66461571D01*
X66183678Y-66386189D01*
X66347463Y-66276751D01*
X66486751Y-66137463D01*
X66596189Y-65973678D01*
X66671571Y-65791689D01*
X66710000Y-65598491D01*
X66710000Y-65401509D01*
X69790000Y-65401509D01*
X69790000Y-65598491D01*
X69828429Y-65791689D01*
X69903811Y-65973678D01*
X70013249Y-66137463D01*
X70152537Y-66276751D01*
X70316322Y-66386189D01*
X70498311Y-66461571D01*
X70691509Y-66500000D01*
X70888491Y-66500000D01*
X71081689Y-66461571D01*
X71263678Y-66386189D01*
X71427463Y-66276751D01*
X71566751Y-66137463D01*
X71676189Y-65973678D01*
X71751571Y-65791689D01*
X71790000Y-65598491D01*
X71790000Y-65401509D01*
X71751571Y-65208311D01*
X71676189Y-65026322D01*
X71566751Y-64862537D01*
X71427463Y-64723249D01*
X71263678Y-64613811D01*
X71081689Y-64538429D01*
X70888491Y-64500000D01*
X70691509Y-64500000D01*
X70498311Y-64538429D01*
X70316322Y-64613811D01*
X70152537Y-64723249D01*
X70013249Y-64862537D01*
X69903811Y-65026322D01*
X69828429Y-65208311D01*
X69790000Y-65401509D01*
X66710000Y-65401509D01*
X66671571Y-65208311D01*
X66596189Y-65026322D01*
X66486751Y-64862537D01*
X66347463Y-64723249D01*
X66183678Y-64613811D01*
X66001689Y-64538429D01*
X65808491Y-64500000D01*
X65611509Y-64500000D01*
X65418311Y-64538429D01*
X65236322Y-64613811D01*
X65072537Y-64723249D01*
X64933249Y-64862537D01*
X64823811Y-65026322D01*
X64748429Y-65208311D01*
X64710000Y-65401509D01*
X61916969Y-65401509D01*
X62049776Y-65268702D01*
X62192045Y-65055781D01*
X62290042Y-64819196D01*
X62340000Y-64568039D01*
X62340000Y-64311961D01*
X62290042Y-64060804D01*
X62192045Y-63824219D01*
X62049776Y-63611298D01*
X61868702Y-63430224D01*
X61655781Y-63287955D01*
X61419196Y-63189958D01*
X61168039Y-63140000D01*
X60911961Y-63140000D01*
X60660804Y-63189958D01*
X60424219Y-63287955D01*
X60211298Y-63430224D01*
X60030224Y-63611298D01*
X59887955Y-63824219D01*
X59789958Y-64060804D01*
X59770000Y-64161140D01*
X59750042Y-64060804D01*
X59652045Y-63824219D01*
X59509776Y-63611298D01*
X59328702Y-63430224D01*
X59115781Y-63287955D01*
X58879196Y-63189958D01*
X58628039Y-63140000D01*
X58371961Y-63140000D01*
X58120804Y-63189958D01*
X57884219Y-63287955D01*
X57671298Y-63430224D01*
X57490224Y-63611298D01*
X57347955Y-63824219D01*
X57249958Y-64060804D01*
X57204369Y-64289998D01*
X57100176Y-64289998D01*
X57211954Y-64089840D01*
X57195506Y-64035597D01*
X57092871Y-63802332D01*
X56946700Y-63593573D01*
X56762611Y-63417341D01*
X56547678Y-63280409D01*
X56310161Y-63188040D01*
X56110000Y-63298676D01*
X55810000Y-63298676D01*
X55609839Y-63188040D01*
X55372322Y-63280409D01*
X55157389Y-63417341D01*
X54973300Y-63593573D01*
X54827129Y-63802332D01*
X54724494Y-64035597D01*
X54708046Y-64089840D01*
X43640672Y-64089840D01*
X43605806Y-63914557D01*
X43519116Y-63705271D01*
X43393263Y-63516918D01*
X43233082Y-63356737D01*
X43044729Y-63230884D01*
X42835443Y-63144194D01*
X42613265Y-63100000D01*
X42386735Y-63100000D01*
X42164557Y-63144194D01*
X41955271Y-63230884D01*
X41766918Y-63356737D01*
X41606737Y-63516918D01*
X41480884Y-63705271D01*
X41394194Y-63914557D01*
X41350000Y-64136735D01*
X31650000Y-64136735D01*
X31650000Y-61636735D01*
X36350000Y-61636735D01*
X36350000Y-61863265D01*
X36394194Y-62085443D01*
X36480884Y-62294729D01*
X36606737Y-62483082D01*
X36766918Y-62643263D01*
X36955271Y-62769116D01*
X37164557Y-62855806D01*
X37386735Y-62900000D01*
X37613265Y-62900000D01*
X37835443Y-62855806D01*
X38044729Y-62769116D01*
X38233082Y-62643263D01*
X38393263Y-62483082D01*
X38519116Y-62294729D01*
X38605806Y-62085443D01*
X38642392Y-61901509D01*
X64710000Y-61901509D01*
X64710000Y-62098491D01*
X64748429Y-62291689D01*
X64823811Y-62473678D01*
X64933249Y-62637463D01*
X65072537Y-62776751D01*
X65236322Y-62886189D01*
X65418311Y-62961571D01*
X65611509Y-63000000D01*
X65808491Y-63000000D01*
X66001689Y-62961571D01*
X66183678Y-62886189D01*
X66347463Y-62776751D01*
X66486751Y-62637463D01*
X66596189Y-62473678D01*
X66671571Y-62291689D01*
X66710000Y-62098491D01*
X66710000Y-61901509D01*
X69790000Y-61901509D01*
X69790000Y-62098491D01*
X69828429Y-62291689D01*
X69903811Y-62473678D01*
X70013249Y-62637463D01*
X70152537Y-62776751D01*
X70316322Y-62886189D01*
X70498311Y-62961571D01*
X70691509Y-63000000D01*
X70888491Y-63000000D01*
X71081689Y-62961571D01*
X71263678Y-62886189D01*
X71427463Y-62776751D01*
X71566751Y-62637463D01*
X71676189Y-62473678D01*
X71751571Y-62291689D01*
X71790000Y-62098491D01*
X71790000Y-61901509D01*
X71751571Y-61708311D01*
X71676189Y-61526322D01*
X71566751Y-61362537D01*
X71427463Y-61223249D01*
X71263678Y-61113811D01*
X71081689Y-61038429D01*
X70888491Y-61000000D01*
X70691509Y-61000000D01*
X70498311Y-61038429D01*
X70316322Y-61113811D01*
X70152537Y-61223249D01*
X70013249Y-61362537D01*
X69903811Y-61526322D01*
X69828429Y-61708311D01*
X69790000Y-61901509D01*
X66710000Y-61901509D01*
X66671571Y-61708311D01*
X66596189Y-61526322D01*
X66486751Y-61362537D01*
X66347463Y-61223249D01*
X66183678Y-61113811D01*
X66001689Y-61038429D01*
X65808491Y-61000000D01*
X65611509Y-61000000D01*
X65418311Y-61038429D01*
X65236322Y-61113811D01*
X65072537Y-61223249D01*
X64933249Y-61362537D01*
X64823811Y-61526322D01*
X64748429Y-61708311D01*
X64710000Y-61901509D01*
X38642392Y-61901509D01*
X38650000Y-61863265D01*
X38650000Y-61636735D01*
X38605806Y-61414557D01*
X38519116Y-61205271D01*
X38393263Y-61016918D01*
X38233082Y-60856737D01*
X38044729Y-60730884D01*
X37835443Y-60644194D01*
X37613265Y-60600000D01*
X37386735Y-60600000D01*
X37164557Y-60644194D01*
X36955271Y-60730884D01*
X36766918Y-60856737D01*
X36606737Y-61016918D01*
X36480884Y-61205271D01*
X36394194Y-61414557D01*
X36350000Y-61636735D01*
X31650000Y-61636735D01*
X31650000Y-59136735D01*
X41350000Y-59136735D01*
X41350000Y-59363265D01*
X41394194Y-59585443D01*
X41480884Y-59794729D01*
X41606737Y-59983082D01*
X41766918Y-60143263D01*
X41955271Y-60269116D01*
X42164557Y-60355806D01*
X42386735Y-60400000D01*
X42613265Y-60400000D01*
X42835443Y-60355806D01*
X43044729Y-60269116D01*
X43233082Y-60143263D01*
X43393263Y-59983082D01*
X43519116Y-59794729D01*
X43605806Y-59585443D01*
X43650000Y-59363265D01*
X43650000Y-59136735D01*
X43605806Y-58914557D01*
X43519116Y-58705271D01*
X43393263Y-58516918D01*
X43313532Y-58437187D01*
X52800000Y-58437187D01*
X52800000Y-58722813D01*
X52855723Y-59002949D01*
X52965027Y-59266833D01*
X53123711Y-59504321D01*
X53325679Y-59706289D01*
X53563167Y-59864973D01*
X53827051Y-59974277D01*
X54107187Y-60030000D01*
X54392813Y-60030000D01*
X54672949Y-59974277D01*
X54936833Y-59864973D01*
X55174321Y-59706289D01*
X55376289Y-59504321D01*
X55534973Y-59266833D01*
X55644277Y-59002949D01*
X55700000Y-58722813D01*
X55700000Y-58437187D01*
X55644277Y-58157051D01*
X55534973Y-57893167D01*
X55376289Y-57655679D01*
X55174321Y-57453711D01*
X54936833Y-57295027D01*
X54672949Y-57185723D01*
X54392813Y-57130000D01*
X54107187Y-57130000D01*
X53827051Y-57185723D01*
X53563167Y-57295027D01*
X53325679Y-57453711D01*
X53123711Y-57655679D01*
X52965027Y-57893167D01*
X52855723Y-58157051D01*
X52800000Y-58437187D01*
X43313532Y-58437187D01*
X43233082Y-58356737D01*
X43044729Y-58230884D01*
X42835443Y-58144194D01*
X42613265Y-58100000D01*
X42386735Y-58100000D01*
X42164557Y-58144194D01*
X41955271Y-58230884D01*
X41766918Y-58356737D01*
X41606737Y-58516918D01*
X41480884Y-58705271D01*
X41394194Y-58914557D01*
X41350000Y-59136735D01*
X31650000Y-59136735D01*
X31650000Y-56636735D01*
X41350000Y-56636735D01*
X41350000Y-56863265D01*
X41394194Y-57085443D01*
X41480884Y-57294729D01*
X41606737Y-57483082D01*
X41766918Y-57643263D01*
X41955271Y-57769116D01*
X42164557Y-57855806D01*
X42386735Y-57900000D01*
X42613265Y-57900000D01*
X42835443Y-57855806D01*
X43044729Y-57769116D01*
X43233082Y-57643263D01*
X43393263Y-57483082D01*
X43519116Y-57294729D01*
X43605806Y-57085443D01*
X43650000Y-56863265D01*
X43650000Y-56636735D01*
X43605806Y-56414557D01*
X43519116Y-56205271D01*
X43393263Y-56016918D01*
X43233082Y-55856737D01*
X43044729Y-55730884D01*
X42835443Y-55644194D01*
X42613265Y-55600000D01*
X42386735Y-55600000D01*
X42164557Y-55644194D01*
X41955271Y-55730884D01*
X41766918Y-55856737D01*
X41606737Y-56016918D01*
X41480884Y-56205271D01*
X41394194Y-56414557D01*
X41350000Y-56636735D01*
X31650000Y-56636735D01*
X31650000Y-53369874D01*
X38810825Y-53369874D01*
X38898122Y-53694663D01*
X39121696Y-54175319D01*
X39434745Y-54603122D01*
X39825239Y-54961632D01*
X40278172Y-55237072D01*
X40776138Y-55418857D01*
X41300000Y-55500000D01*
X41800000Y-55500000D01*
X41800000Y-52950000D01*
X42100000Y-52950000D01*
X42100000Y-55500000D01*
X42600000Y-55500000D01*
X43123862Y-55418857D01*
X43621828Y-55237072D01*
X44074761Y-54961632D01*
X44465255Y-54603122D01*
X44778304Y-54175319D01*
X44898793Y-53916282D01*
X48900000Y-53916282D01*
X48900000Y-54083718D01*
X48932665Y-54247936D01*
X48996740Y-54402626D01*
X49089762Y-54541844D01*
X49208156Y-54660238D01*
X49342495Y-54750000D01*
X49208156Y-54839762D01*
X49089762Y-54958156D01*
X48996740Y-55097374D01*
X48932665Y-55252064D01*
X48900000Y-55416282D01*
X48900000Y-55583718D01*
X48932665Y-55747936D01*
X48996740Y-55902626D01*
X49089762Y-56041844D01*
X49208156Y-56160238D01*
X49347374Y-56253260D01*
X49502064Y-56317335D01*
X49666282Y-56350000D01*
X49833718Y-56350000D01*
X49997936Y-56317335D01*
X50152626Y-56253260D01*
X50291844Y-56160238D01*
X50410238Y-56041844D01*
X50503260Y-55902626D01*
X50567335Y-55747936D01*
X50600000Y-55583718D01*
X50600000Y-55416282D01*
X50567335Y-55252064D01*
X50503260Y-55097374D01*
X50410238Y-54958156D01*
X50291844Y-54839762D01*
X50157505Y-54750000D01*
X50291844Y-54660238D01*
X50410238Y-54541844D01*
X50503260Y-54402626D01*
X50567335Y-54247936D01*
X50600000Y-54083718D01*
X50600000Y-53916282D01*
X50567335Y-53752064D01*
X50503260Y-53597374D01*
X50410238Y-53458156D01*
X50291844Y-53339762D01*
X50152626Y-53246740D01*
X49997936Y-53182665D01*
X49833718Y-53150000D01*
X49666282Y-53150000D01*
X49502064Y-53182665D01*
X49347374Y-53246740D01*
X49208156Y-53339762D01*
X49089762Y-53458156D01*
X48996740Y-53597374D01*
X48932665Y-53752064D01*
X48900000Y-53916282D01*
X44898793Y-53916282D01*
X45001878Y-53694663D01*
X45089175Y-53369874D01*
X44995584Y-52950000D01*
X42100000Y-52950000D01*
X41800000Y-52950000D01*
X38904416Y-52950000D01*
X38810825Y-53369874D01*
X31650000Y-53369874D01*
X31650000Y-52230126D01*
X38810825Y-52230126D01*
X38904416Y-52650000D01*
X41800000Y-52650000D01*
X41800000Y-50100000D01*
X42100000Y-50100000D01*
X42100000Y-52650000D01*
X44995584Y-52650000D01*
X45089175Y-52230126D01*
X45001878Y-51905337D01*
X44806415Y-51485115D01*
X45100000Y-51514031D01*
X45668499Y-51458039D01*
X46215151Y-51292214D01*
X46718949Y-51022928D01*
X47160531Y-50660531D01*
X47292275Y-50500000D01*
X56092259Y-50500000D01*
X56123151Y-50813655D01*
X56214641Y-51115256D01*
X56363212Y-51393213D01*
X56563155Y-51636845D01*
X56701035Y-51750000D01*
X56563155Y-51863155D01*
X56363212Y-52106787D01*
X56214641Y-52384744D01*
X56123151Y-52686345D01*
X56092259Y-53000000D01*
X56123151Y-53313655D01*
X56214641Y-53615256D01*
X56363212Y-53893213D01*
X56563155Y-54136845D01*
X56701035Y-54250000D01*
X56563155Y-54363155D01*
X56363212Y-54606787D01*
X56214641Y-54884744D01*
X56123151Y-55186345D01*
X56092259Y-55500000D01*
X56123151Y-55813655D01*
X56214641Y-56115256D01*
X56363212Y-56393213D01*
X56563155Y-56636845D01*
X56806787Y-56836788D01*
X57084744Y-56985359D01*
X57386345Y-57076849D01*
X57621403Y-57100000D01*
X58378597Y-57100000D01*
X58613655Y-57076849D01*
X58915256Y-56985359D01*
X59193213Y-56836788D01*
X59436845Y-56636845D01*
X59636788Y-56393213D01*
X59785359Y-56115256D01*
X59876849Y-55813655D01*
X59907741Y-55500000D01*
X59876849Y-55186345D01*
X59852837Y-55107187D01*
X61720000Y-55107187D01*
X61720000Y-55392813D01*
X61775723Y-55672949D01*
X61885027Y-55936833D01*
X62043711Y-56174321D01*
X62245679Y-56376289D01*
X62483167Y-56534973D01*
X62700512Y-56625000D01*
X62483167Y-56715027D01*
X62245679Y-56873711D01*
X62043711Y-57075679D01*
X61885027Y-57313167D01*
X61775723Y-57577051D01*
X61720000Y-57857187D01*
X61720000Y-58142813D01*
X61775723Y-58422949D01*
X61885027Y-58686833D01*
X62043711Y-58924321D01*
X62245679Y-59126289D01*
X62483167Y-59284973D01*
X62747051Y-59394277D01*
X63027187Y-59450000D01*
X63312813Y-59450000D01*
X63592949Y-59394277D01*
X63856833Y-59284973D01*
X64094321Y-59126289D01*
X64296289Y-58924321D01*
X64454973Y-58686833D01*
X64564277Y-58422949D01*
X64620000Y-58142813D01*
X64620000Y-57857187D01*
X71880000Y-57857187D01*
X71880000Y-58142813D01*
X71935723Y-58422949D01*
X72045027Y-58686833D01*
X72203711Y-58924321D01*
X72405679Y-59126289D01*
X72643167Y-59284973D01*
X72907051Y-59394277D01*
X73187187Y-59450000D01*
X73472813Y-59450000D01*
X73752949Y-59394277D01*
X74016833Y-59284973D01*
X74254321Y-59126289D01*
X74456289Y-58924321D01*
X74614973Y-58686833D01*
X74724277Y-58422949D01*
X74735319Y-58367440D01*
X74805259Y-58439148D01*
X75024795Y-58589835D01*
X75213489Y-58670769D01*
X75160878Y-58686728D01*
X74926351Y-58812085D01*
X74720787Y-58980787D01*
X74552085Y-59186351D01*
X74426728Y-59420878D01*
X74349533Y-59675354D01*
X74323468Y-59940000D01*
X74349533Y-60204646D01*
X74426728Y-60459122D01*
X74552085Y-60693649D01*
X74720787Y-60899213D01*
X74926351Y-61067915D01*
X75160878Y-61193272D01*
X75216022Y-61210000D01*
X75160878Y-61226728D01*
X74926351Y-61352085D01*
X74720787Y-61520787D01*
X74552085Y-61726351D01*
X74426728Y-61960878D01*
X74349533Y-62215354D01*
X74323468Y-62480000D01*
X74349533Y-62744646D01*
X74426728Y-62999122D01*
X74552085Y-63233649D01*
X74720787Y-63439213D01*
X74926351Y-63607915D01*
X75160878Y-63733272D01*
X75216022Y-63750000D01*
X75160878Y-63766728D01*
X74926351Y-63892085D01*
X74720787Y-64060787D01*
X74552085Y-64266351D01*
X74426728Y-64500878D01*
X74349533Y-64755354D01*
X74323468Y-65020000D01*
X74349533Y-65284646D01*
X74426728Y-65539122D01*
X74552085Y-65773649D01*
X74720787Y-65979213D01*
X74926351Y-66147915D01*
X75160878Y-66273272D01*
X75213489Y-66289231D01*
X75024795Y-66370165D01*
X74805259Y-66520852D01*
X74619339Y-66711472D01*
X74474180Y-66934701D01*
X74378342Y-67201968D01*
X74489412Y-67410000D01*
X76030000Y-67410000D01*
X76030000Y-67390000D01*
X76330000Y-67390000D01*
X76330000Y-67410000D01*
X77870588Y-67410000D01*
X77981658Y-67201968D01*
X77885820Y-66934701D01*
X77740661Y-66711472D01*
X77554741Y-66520852D01*
X77335205Y-66370165D01*
X77146511Y-66289231D01*
X77199122Y-66273272D01*
X77433649Y-66147915D01*
X77639213Y-65979213D01*
X77807915Y-65773649D01*
X77933272Y-65539122D01*
X78010467Y-65284646D01*
X78036532Y-65020000D01*
X78010467Y-64755354D01*
X77933272Y-64500878D01*
X77807915Y-64266351D01*
X77639213Y-64060787D01*
X77433649Y-63892085D01*
X77199122Y-63766728D01*
X77143978Y-63750000D01*
X77199122Y-63733272D01*
X77433649Y-63607915D01*
X77639213Y-63439213D01*
X77807915Y-63233649D01*
X77933272Y-62999122D01*
X78010467Y-62744646D01*
X78036532Y-62480000D01*
X78010467Y-62215354D01*
X77933272Y-61960878D01*
X77807915Y-61726351D01*
X77639213Y-61520787D01*
X77433649Y-61352085D01*
X77199122Y-61226728D01*
X77143978Y-61210000D01*
X77199122Y-61193272D01*
X77433649Y-61067915D01*
X77639213Y-60899213D01*
X77807915Y-60693649D01*
X77933272Y-60459122D01*
X78010467Y-60204646D01*
X78036532Y-59940000D01*
X78010467Y-59675354D01*
X77933272Y-59420878D01*
X77807915Y-59186351D01*
X77639213Y-58980787D01*
X77433649Y-58812085D01*
X77199122Y-58686728D01*
X77146511Y-58670769D01*
X77335205Y-58589835D01*
X77554741Y-58439148D01*
X77740661Y-58248528D01*
X77885820Y-58025299D01*
X77981658Y-57758032D01*
X77870588Y-57550000D01*
X76330000Y-57550000D01*
X76330000Y-57570000D01*
X76030000Y-57570000D01*
X76030000Y-57550000D01*
X76010000Y-57550000D01*
X76010000Y-57250000D01*
X76030000Y-57250000D01*
X76030000Y-57230000D01*
X76330000Y-57230000D01*
X76330000Y-57250000D01*
X77870588Y-57250000D01*
X77981658Y-57041968D01*
X77885820Y-56774701D01*
X77740661Y-56551472D01*
X77554741Y-56360852D01*
X77335205Y-56210165D01*
X77146511Y-56129231D01*
X77199122Y-56113272D01*
X77433649Y-55987915D01*
X77639213Y-55819213D01*
X77807915Y-55613649D01*
X77933272Y-55379122D01*
X78010467Y-55124646D01*
X78036532Y-54860000D01*
X78010467Y-54595354D01*
X77933272Y-54340878D01*
X77807915Y-54106351D01*
X77639213Y-53900787D01*
X77433649Y-53732085D01*
X77199122Y-53606728D01*
X77143978Y-53590000D01*
X77199122Y-53573272D01*
X77433649Y-53447915D01*
X77467664Y-53420000D01*
X78164366Y-53420000D01*
X79100001Y-54355636D01*
X79100000Y-62245964D01*
X79094678Y-62300000D01*
X79100000Y-62354034D01*
X79100001Y-73444364D01*
X78464366Y-74080000D01*
X77467664Y-74080000D01*
X77433649Y-74052085D01*
X77199122Y-73926728D01*
X77143978Y-73910000D01*
X77199122Y-73893272D01*
X77433649Y-73767915D01*
X77639213Y-73599213D01*
X77807915Y-73393649D01*
X77933272Y-73159122D01*
X78010467Y-72904646D01*
X78036532Y-72640000D01*
X78010467Y-72375354D01*
X77933272Y-72120878D01*
X77807915Y-71886351D01*
X77639213Y-71680787D01*
X77433649Y-71512085D01*
X77199122Y-71386728D01*
X77146511Y-71370769D01*
X77335205Y-71289835D01*
X77554741Y-71139148D01*
X77740661Y-70948528D01*
X77885820Y-70725299D01*
X77981658Y-70458032D01*
X77870588Y-70250000D01*
X76330000Y-70250000D01*
X76330000Y-70270000D01*
X76030000Y-70270000D01*
X76030000Y-70250000D01*
X74489412Y-70250000D01*
X74378342Y-70458032D01*
X74474180Y-70725299D01*
X74619339Y-70948528D01*
X74805259Y-71139148D01*
X75024795Y-71289835D01*
X75213489Y-71370769D01*
X75160878Y-71386728D01*
X74926351Y-71512085D01*
X74720787Y-71680787D01*
X74552085Y-71886351D01*
X74426728Y-72120878D01*
X74349533Y-72375354D01*
X74323468Y-72640000D01*
X74349533Y-72904646D01*
X74426728Y-73159122D01*
X74552085Y-73393649D01*
X74720787Y-73599213D01*
X74926351Y-73767915D01*
X75160878Y-73893272D01*
X75216022Y-73910000D01*
X75160878Y-73926728D01*
X74926351Y-74052085D01*
X74720787Y-74220787D01*
X74552085Y-74426351D01*
X74426728Y-74660878D01*
X74349533Y-74915354D01*
X74323468Y-75180000D01*
X74349533Y-75444646D01*
X74426728Y-75699122D01*
X74552085Y-75933649D01*
X74720787Y-76139213D01*
X74926351Y-76307915D01*
X75160878Y-76433272D01*
X75415354Y-76510467D01*
X75613679Y-76530000D01*
X76746321Y-76530000D01*
X76944646Y-76510467D01*
X77199122Y-76433272D01*
X77433649Y-76307915D01*
X77467664Y-76280000D01*
X78865966Y-76280000D01*
X78920000Y-76285322D01*
X78974034Y-76280000D01*
X78974036Y-76280000D01*
X79135638Y-76264084D01*
X79342988Y-76201184D01*
X79534084Y-76099042D01*
X79701581Y-75961581D01*
X79736033Y-75919601D01*
X80939606Y-74716029D01*
X80981581Y-74681581D01*
X81119042Y-74514084D01*
X81221184Y-74322988D01*
X81284084Y-74115638D01*
X81300000Y-73954036D01*
X81300000Y-73954035D01*
X81305322Y-73900001D01*
X81300000Y-73845967D01*
X81300000Y-63580000D01*
X82512336Y-63580000D01*
X82546351Y-63607915D01*
X82780878Y-63733272D01*
X82836022Y-63750000D01*
X82780878Y-63766728D01*
X82546351Y-63892085D01*
X82340787Y-64060787D01*
X82172085Y-64266351D01*
X82046728Y-64500878D01*
X81969533Y-64755354D01*
X81943468Y-65020000D01*
X81969533Y-65284646D01*
X82046728Y-65539122D01*
X82172085Y-65773649D01*
X82340787Y-65979213D01*
X82546351Y-66147915D01*
X82780878Y-66273272D01*
X82836022Y-66290000D01*
X82780878Y-66306728D01*
X82546351Y-66432085D01*
X82340787Y-66600787D01*
X82172085Y-66806351D01*
X82046728Y-67040878D01*
X81969533Y-67295354D01*
X81943468Y-67560000D01*
X81969533Y-67824646D01*
X82046728Y-68079122D01*
X82172085Y-68313649D01*
X82340787Y-68519213D01*
X82546351Y-68687915D01*
X82780878Y-68813272D01*
X82836022Y-68830000D01*
X82780878Y-68846728D01*
X82546351Y-68972085D01*
X82340787Y-69140787D01*
X82172085Y-69346351D01*
X82046728Y-69580878D01*
X81969533Y-69835354D01*
X81943468Y-70100000D01*
X81969533Y-70364646D01*
X82046728Y-70619122D01*
X82172085Y-70853649D01*
X82340787Y-71059213D01*
X82546351Y-71227915D01*
X82780878Y-71353272D01*
X82836022Y-71370000D01*
X82780878Y-71386728D01*
X82546351Y-71512085D01*
X82340787Y-71680787D01*
X82172085Y-71886351D01*
X82046728Y-72120878D01*
X81969533Y-72375354D01*
X81943468Y-72640000D01*
X81969533Y-72904646D01*
X82046728Y-73159122D01*
X82172085Y-73393649D01*
X82340787Y-73599213D01*
X82546351Y-73767915D01*
X82780878Y-73893272D01*
X82836022Y-73910000D01*
X82780878Y-73926728D01*
X82546351Y-74052085D01*
X82340787Y-74220787D01*
X82172085Y-74426351D01*
X82046728Y-74660878D01*
X81969533Y-74915354D01*
X81943468Y-75180000D01*
X81969533Y-75444646D01*
X82046728Y-75699122D01*
X82172085Y-75933649D01*
X82340787Y-76139213D01*
X82546351Y-76307915D01*
X82780878Y-76433272D01*
X83035354Y-76510467D01*
X83233679Y-76530000D01*
X84366321Y-76530000D01*
X84564646Y-76510467D01*
X84819122Y-76433272D01*
X85053649Y-76307915D01*
X85259213Y-76139213D01*
X85427915Y-75933649D01*
X85553272Y-75699122D01*
X85619284Y-75481509D01*
X87250000Y-75481509D01*
X87250000Y-75678491D01*
X87288429Y-75871689D01*
X87363811Y-76053678D01*
X87473249Y-76217463D01*
X87612537Y-76356751D01*
X87776322Y-76466189D01*
X87958311Y-76541571D01*
X88151509Y-76580000D01*
X88348491Y-76580000D01*
X88541689Y-76541571D01*
X88723678Y-76466189D01*
X88887463Y-76356751D01*
X89026751Y-76217463D01*
X89136189Y-76053678D01*
X89211571Y-75871689D01*
X89250000Y-75678491D01*
X89250000Y-75481509D01*
X89211571Y-75288311D01*
X89136189Y-75106322D01*
X89026751Y-74942537D01*
X88887463Y-74803249D01*
X88723678Y-74693811D01*
X88541689Y-74618429D01*
X88348491Y-74580000D01*
X88151509Y-74580000D01*
X87958311Y-74618429D01*
X87776322Y-74693811D01*
X87612537Y-74803249D01*
X87473249Y-74942537D01*
X87363811Y-75106322D01*
X87288429Y-75288311D01*
X87250000Y-75481509D01*
X85619284Y-75481509D01*
X85630467Y-75444646D01*
X85656532Y-75180000D01*
X85630467Y-74915354D01*
X85553272Y-74660878D01*
X85427915Y-74426351D01*
X85259213Y-74220787D01*
X85053649Y-74052085D01*
X84819122Y-73926728D01*
X84763978Y-73910000D01*
X84819122Y-73893272D01*
X85053649Y-73767915D01*
X85259213Y-73599213D01*
X85427915Y-73393649D01*
X85553272Y-73159122D01*
X85555581Y-73151509D01*
X91250000Y-73151509D01*
X91250000Y-73348491D01*
X91288429Y-73541689D01*
X91363811Y-73723678D01*
X91473249Y-73887463D01*
X91612537Y-74026751D01*
X91776322Y-74136189D01*
X91958311Y-74211571D01*
X92151509Y-74250000D01*
X92348491Y-74250000D01*
X92541689Y-74211571D01*
X92723678Y-74136189D01*
X92887463Y-74026751D01*
X93026751Y-73887463D01*
X93136189Y-73723678D01*
X93211571Y-73541689D01*
X93250000Y-73348491D01*
X93250000Y-73151509D01*
X96250000Y-73151509D01*
X96250000Y-73348491D01*
X96288429Y-73541689D01*
X96363811Y-73723678D01*
X96473249Y-73887463D01*
X96612537Y-74026751D01*
X96776322Y-74136189D01*
X96958311Y-74211571D01*
X97151509Y-74250000D01*
X97348491Y-74250000D01*
X97541689Y-74211571D01*
X97600557Y-74187187D01*
X99550000Y-74187187D01*
X99550000Y-74472813D01*
X99605723Y-74752949D01*
X99715027Y-75016833D01*
X99873711Y-75254321D01*
X100075679Y-75456289D01*
X100313167Y-75614973D01*
X100577051Y-75724277D01*
X100857187Y-75780000D01*
X101142813Y-75780000D01*
X101422949Y-75724277D01*
X101686833Y-75614973D01*
X101924321Y-75456289D01*
X102126289Y-75254321D01*
X102284973Y-75016833D01*
X102394277Y-74752949D01*
X102450000Y-74472813D01*
X102450000Y-74187187D01*
X102394277Y-73907051D01*
X102288429Y-73651509D01*
X114400000Y-73651509D01*
X114400000Y-73848491D01*
X114438429Y-74041689D01*
X114513811Y-74223678D01*
X114623249Y-74387463D01*
X114762537Y-74526751D01*
X114926322Y-74636189D01*
X115108311Y-74711571D01*
X115301509Y-74750000D01*
X115498491Y-74750000D01*
X115691689Y-74711571D01*
X115873678Y-74636189D01*
X116037463Y-74526751D01*
X116176751Y-74387463D01*
X116286189Y-74223678D01*
X116361571Y-74041689D01*
X116400000Y-73848491D01*
X116400000Y-73651509D01*
X116361571Y-73458311D01*
X116286189Y-73276322D01*
X116176751Y-73112537D01*
X116037463Y-72973249D01*
X115873678Y-72863811D01*
X115691689Y-72788429D01*
X115498491Y-72750000D01*
X115301509Y-72750000D01*
X115108311Y-72788429D01*
X114926322Y-72863811D01*
X114762537Y-72973249D01*
X114623249Y-73112537D01*
X114513811Y-73276322D01*
X114438429Y-73458311D01*
X114400000Y-73651509D01*
X102288429Y-73651509D01*
X102284973Y-73643167D01*
X102126289Y-73405679D01*
X101924321Y-73203711D01*
X101686833Y-73045027D01*
X101422949Y-72935723D01*
X101142813Y-72880000D01*
X100857187Y-72880000D01*
X100577051Y-72935723D01*
X100313167Y-73045027D01*
X100075679Y-73203711D01*
X99873711Y-73405679D01*
X99715027Y-73643167D01*
X99605723Y-73907051D01*
X99550000Y-74187187D01*
X97600557Y-74187187D01*
X97723678Y-74136189D01*
X97887463Y-74026751D01*
X98026751Y-73887463D01*
X98136189Y-73723678D01*
X98211571Y-73541689D01*
X98250000Y-73348491D01*
X98250000Y-73151509D01*
X98211571Y-72958311D01*
X98136189Y-72776322D01*
X98026751Y-72612537D01*
X97887463Y-72473249D01*
X97723678Y-72363811D01*
X97541689Y-72288429D01*
X97348491Y-72250000D01*
X97151509Y-72250000D01*
X96958311Y-72288429D01*
X96776322Y-72363811D01*
X96612537Y-72473249D01*
X96473249Y-72612537D01*
X96363811Y-72776322D01*
X96288429Y-72958311D01*
X96250000Y-73151509D01*
X93250000Y-73151509D01*
X93211571Y-72958311D01*
X93136189Y-72776322D01*
X93026751Y-72612537D01*
X92887463Y-72473249D01*
X92723678Y-72363811D01*
X92541689Y-72288429D01*
X92348491Y-72250000D01*
X92151509Y-72250000D01*
X91958311Y-72288429D01*
X91776322Y-72363811D01*
X91612537Y-72473249D01*
X91473249Y-72612537D01*
X91363811Y-72776322D01*
X91288429Y-72958311D01*
X91250000Y-73151509D01*
X85555581Y-73151509D01*
X85630467Y-72904646D01*
X85656532Y-72640000D01*
X85630467Y-72375354D01*
X85553272Y-72120878D01*
X85427915Y-71886351D01*
X85259213Y-71680787D01*
X85053649Y-71512085D01*
X84819122Y-71386728D01*
X84763978Y-71370000D01*
X84819122Y-71353272D01*
X85053649Y-71227915D01*
X85259213Y-71059213D01*
X85427915Y-70853649D01*
X85553272Y-70619122D01*
X85619284Y-70401509D01*
X87250000Y-70401509D01*
X87250000Y-70598491D01*
X87288429Y-70791689D01*
X87363811Y-70973678D01*
X87473249Y-71137463D01*
X87612537Y-71276751D01*
X87776322Y-71386189D01*
X87958311Y-71461571D01*
X88151509Y-71500000D01*
X88348491Y-71500000D01*
X88541689Y-71461571D01*
X88723678Y-71386189D01*
X88887463Y-71276751D01*
X89012705Y-71151509D01*
X104250000Y-71151509D01*
X104250000Y-71348491D01*
X104288429Y-71541689D01*
X104363811Y-71723678D01*
X104473249Y-71887463D01*
X104612537Y-72026751D01*
X104776322Y-72136189D01*
X104958311Y-72211571D01*
X105151509Y-72250000D01*
X105348491Y-72250000D01*
X105541689Y-72211571D01*
X105723678Y-72136189D01*
X105887463Y-72026751D01*
X106026751Y-71887463D01*
X106136189Y-71723678D01*
X106211571Y-71541689D01*
X106250000Y-71348491D01*
X106250000Y-71151509D01*
X107750000Y-71151509D01*
X107750000Y-71348491D01*
X107788429Y-71541689D01*
X107863811Y-71723678D01*
X107973249Y-71887463D01*
X108112537Y-72026751D01*
X108276322Y-72136189D01*
X108458311Y-72211571D01*
X108651509Y-72250000D01*
X108848491Y-72250000D01*
X109041689Y-72211571D01*
X109223678Y-72136189D01*
X109387463Y-72026751D01*
X109526751Y-71887463D01*
X109636189Y-71723678D01*
X109711571Y-71541689D01*
X109750000Y-71348491D01*
X109750000Y-71151509D01*
X109711571Y-70958311D01*
X109636189Y-70776322D01*
X109526751Y-70612537D01*
X109387463Y-70473249D01*
X109223678Y-70363811D01*
X109041689Y-70288429D01*
X108848491Y-70250000D01*
X108651509Y-70250000D01*
X108458311Y-70288429D01*
X108276322Y-70363811D01*
X108112537Y-70473249D01*
X107973249Y-70612537D01*
X107863811Y-70776322D01*
X107788429Y-70958311D01*
X107750000Y-71151509D01*
X106250000Y-71151509D01*
X106211571Y-70958311D01*
X106136189Y-70776322D01*
X106026751Y-70612537D01*
X105887463Y-70473249D01*
X105723678Y-70363811D01*
X105541689Y-70288429D01*
X105348491Y-70250000D01*
X105151509Y-70250000D01*
X104958311Y-70288429D01*
X104776322Y-70363811D01*
X104612537Y-70473249D01*
X104473249Y-70612537D01*
X104363811Y-70776322D01*
X104288429Y-70958311D01*
X104250000Y-71151509D01*
X89012705Y-71151509D01*
X89026751Y-71137463D01*
X89136189Y-70973678D01*
X89211571Y-70791689D01*
X89250000Y-70598491D01*
X89250000Y-70401509D01*
X89211571Y-70208311D01*
X89136189Y-70026322D01*
X89026751Y-69862537D01*
X88887463Y-69723249D01*
X88723678Y-69613811D01*
X88541689Y-69538429D01*
X88348491Y-69500000D01*
X88151509Y-69500000D01*
X87958311Y-69538429D01*
X87776322Y-69613811D01*
X87612537Y-69723249D01*
X87473249Y-69862537D01*
X87363811Y-70026322D01*
X87288429Y-70208311D01*
X87250000Y-70401509D01*
X85619284Y-70401509D01*
X85630467Y-70364646D01*
X85656532Y-70100000D01*
X85630467Y-69835354D01*
X85553272Y-69580878D01*
X85427915Y-69346351D01*
X85259213Y-69140787D01*
X85053649Y-68972085D01*
X84819122Y-68846728D01*
X84763978Y-68830000D01*
X84819122Y-68813272D01*
X85053649Y-68687915D01*
X85259213Y-68519213D01*
X85427915Y-68313649D01*
X85553272Y-68079122D01*
X85568973Y-68027364D01*
X85635027Y-68186833D01*
X85793711Y-68424321D01*
X85995679Y-68626289D01*
X86233167Y-68784973D01*
X86497051Y-68894277D01*
X86777187Y-68950000D01*
X87062813Y-68950000D01*
X87342949Y-68894277D01*
X87606833Y-68784973D01*
X87844321Y-68626289D01*
X88046289Y-68424321D01*
X88204973Y-68186833D01*
X88314277Y-67922949D01*
X88370000Y-67642813D01*
X88370000Y-67357187D01*
X95630000Y-67357187D01*
X95630000Y-67642813D01*
X95685723Y-67922949D01*
X95795027Y-68186833D01*
X95953711Y-68424321D01*
X96155679Y-68626289D01*
X96393167Y-68784973D01*
X96657051Y-68894277D01*
X96937187Y-68950000D01*
X97222813Y-68950000D01*
X97502949Y-68894277D01*
X97766833Y-68784973D01*
X97966576Y-68651509D01*
X114400000Y-68651509D01*
X114400000Y-68848491D01*
X114438429Y-69041689D01*
X114513811Y-69223678D01*
X114623249Y-69387463D01*
X114762537Y-69526751D01*
X114926322Y-69636189D01*
X115108311Y-69711571D01*
X115301509Y-69750000D01*
X115498491Y-69750000D01*
X115691689Y-69711571D01*
X115873678Y-69636189D01*
X116037463Y-69526751D01*
X116176751Y-69387463D01*
X116286189Y-69223678D01*
X116361571Y-69041689D01*
X116400000Y-68848491D01*
X116400000Y-68651509D01*
X116361571Y-68458311D01*
X116286189Y-68276322D01*
X116176751Y-68112537D01*
X116037463Y-67973249D01*
X115873678Y-67863811D01*
X115691689Y-67788429D01*
X115498491Y-67750000D01*
X115301509Y-67750000D01*
X115108311Y-67788429D01*
X114926322Y-67863811D01*
X114762537Y-67973249D01*
X114623249Y-68112537D01*
X114513811Y-68276322D01*
X114438429Y-68458311D01*
X114400000Y-68651509D01*
X97966576Y-68651509D01*
X98004321Y-68626289D01*
X98206289Y-68424321D01*
X98364973Y-68186833D01*
X98474277Y-67922949D01*
X98530000Y-67642813D01*
X98530000Y-67357187D01*
X98474277Y-67077051D01*
X98364973Y-66813167D01*
X98206289Y-66575679D01*
X98004321Y-66373711D01*
X97766833Y-66215027D01*
X97546352Y-66123701D01*
X97722347Y-66057780D01*
X97810509Y-66010655D01*
X97892027Y-65774159D01*
X97080000Y-64962132D01*
X96267973Y-65774159D01*
X96349491Y-66010655D01*
X96605424Y-66127108D01*
X96393167Y-66215027D01*
X96155679Y-66373711D01*
X95953711Y-66575679D01*
X95795027Y-66813167D01*
X95685723Y-67077051D01*
X95630000Y-67357187D01*
X88370000Y-67357187D01*
X88314277Y-67077051D01*
X88204973Y-66813167D01*
X88046289Y-66575679D01*
X87844321Y-66373711D01*
X87606833Y-66215027D01*
X87389488Y-66125000D01*
X87606833Y-66034973D01*
X87844321Y-65876289D01*
X88046289Y-65674321D01*
X88204973Y-65436833D01*
X88314277Y-65172949D01*
X88370000Y-64892813D01*
X88370000Y-64842986D01*
X95625954Y-64842986D01*
X95672033Y-65124870D01*
X95772220Y-65392347D01*
X95819345Y-65480509D01*
X96055841Y-65562027D01*
X96867868Y-64750000D01*
X97292132Y-64750000D01*
X98104159Y-65562027D01*
X98340655Y-65480509D01*
X98458948Y-65220531D01*
X98524248Y-64942471D01*
X98534046Y-64657014D01*
X98487967Y-64375130D01*
X98387780Y-64107653D01*
X98340655Y-64019491D01*
X98104159Y-63937973D01*
X97292132Y-64750000D01*
X96867868Y-64750000D01*
X96055841Y-63937973D01*
X95819345Y-64019491D01*
X95701052Y-64279469D01*
X95635752Y-64557529D01*
X95625954Y-64842986D01*
X88370000Y-64842986D01*
X88370000Y-64607187D01*
X88314277Y-64327051D01*
X88204973Y-64063167D01*
X88046289Y-63825679D01*
X87844321Y-63623711D01*
X87606833Y-63465027D01*
X87389488Y-63375000D01*
X87606833Y-63284973D01*
X87844321Y-63126289D01*
X87946451Y-63024159D01*
X96267973Y-63024159D01*
X96349491Y-63260655D01*
X96608162Y-63378353D01*
X96437653Y-63442220D01*
X96349491Y-63489345D01*
X96267973Y-63725841D01*
X97080000Y-64537868D01*
X97892027Y-63725841D01*
X97810509Y-63489345D01*
X97551838Y-63371647D01*
X97722347Y-63307780D01*
X97810509Y-63260655D01*
X97892027Y-63024159D01*
X97080000Y-62212132D01*
X96267973Y-63024159D01*
X87946451Y-63024159D01*
X88046289Y-62924321D01*
X88204973Y-62686833D01*
X88314277Y-62422949D01*
X88370000Y-62142813D01*
X88370000Y-62092986D01*
X95625954Y-62092986D01*
X95672033Y-62374870D01*
X95772220Y-62642347D01*
X95819345Y-62730509D01*
X96055841Y-62812027D01*
X96867868Y-62000000D01*
X97292132Y-62000000D01*
X98104159Y-62812027D01*
X98340655Y-62730509D01*
X98458948Y-62470531D01*
X98524248Y-62192471D01*
X98534046Y-61907014D01*
X98487967Y-61625130D01*
X98387780Y-61357653D01*
X98340655Y-61269491D01*
X98104159Y-61187973D01*
X97292132Y-62000000D01*
X96867868Y-62000000D01*
X96055841Y-61187973D01*
X95819345Y-61269491D01*
X95701052Y-61529469D01*
X95635752Y-61807529D01*
X95625954Y-62092986D01*
X88370000Y-62092986D01*
X88370000Y-61857187D01*
X88314277Y-61577051D01*
X88204973Y-61313167D01*
X88046289Y-61075679D01*
X87844321Y-60873711D01*
X87606833Y-60715027D01*
X87389488Y-60625000D01*
X87606833Y-60534973D01*
X87844321Y-60376289D01*
X88046289Y-60174321D01*
X88204973Y-59936833D01*
X88314277Y-59672949D01*
X88370000Y-59392813D01*
X88370000Y-59107187D01*
X95630000Y-59107187D01*
X95630000Y-59392813D01*
X95685723Y-59672949D01*
X95795027Y-59936833D01*
X95953711Y-60174321D01*
X96155679Y-60376289D01*
X96393167Y-60534973D01*
X96613648Y-60626299D01*
X96437653Y-60692220D01*
X96349491Y-60739345D01*
X96267973Y-60975841D01*
X97080000Y-61787868D01*
X97680681Y-61187187D01*
X99550000Y-61187187D01*
X99550000Y-61472813D01*
X99605723Y-61752949D01*
X99715027Y-62016833D01*
X99873711Y-62254321D01*
X100075679Y-62456289D01*
X100313167Y-62614973D01*
X100577051Y-62724277D01*
X100706368Y-62750000D01*
X100577051Y-62775723D01*
X100313167Y-62885027D01*
X100075679Y-63043711D01*
X99873711Y-63245679D01*
X99715027Y-63483167D01*
X99605723Y-63747051D01*
X99550000Y-64027187D01*
X99550000Y-64312813D01*
X99605723Y-64592949D01*
X99715027Y-64856833D01*
X99873711Y-65094321D01*
X100075679Y-65296289D01*
X100313167Y-65454973D01*
X100577051Y-65564277D01*
X100857187Y-65620000D01*
X101142813Y-65620000D01*
X101422949Y-65564277D01*
X101686833Y-65454973D01*
X101924321Y-65296289D01*
X102126289Y-65094321D01*
X102284973Y-64856833D01*
X102370020Y-64651509D01*
X103460000Y-64651509D01*
X103460000Y-64848491D01*
X103498429Y-65041689D01*
X103573811Y-65223678D01*
X103683249Y-65387463D01*
X103822537Y-65526751D01*
X103986322Y-65636189D01*
X104168311Y-65711571D01*
X104361509Y-65750000D01*
X104558491Y-65750000D01*
X104751689Y-65711571D01*
X104933678Y-65636189D01*
X105097463Y-65526751D01*
X105236751Y-65387463D01*
X105346189Y-65223678D01*
X105421571Y-65041689D01*
X105460000Y-64848491D01*
X105460000Y-64651509D01*
X108540000Y-64651509D01*
X108540000Y-64848491D01*
X108578429Y-65041689D01*
X108653811Y-65223678D01*
X108763249Y-65387463D01*
X108902537Y-65526751D01*
X109066322Y-65636189D01*
X109248311Y-65711571D01*
X109441509Y-65750000D01*
X109638491Y-65750000D01*
X109831689Y-65711571D01*
X110013678Y-65636189D01*
X110177463Y-65526751D01*
X110316751Y-65387463D01*
X110426189Y-65223678D01*
X110501571Y-65041689D01*
X110540000Y-64848491D01*
X110540000Y-64651509D01*
X110501571Y-64458311D01*
X110426189Y-64276322D01*
X110316751Y-64112537D01*
X110177463Y-63973249D01*
X110013678Y-63863811D01*
X109831689Y-63788429D01*
X109638491Y-63750000D01*
X109441509Y-63750000D01*
X109248311Y-63788429D01*
X109066322Y-63863811D01*
X108902537Y-63973249D01*
X108763249Y-64112537D01*
X108653811Y-64276322D01*
X108578429Y-64458311D01*
X108540000Y-64651509D01*
X105460000Y-64651509D01*
X105421571Y-64458311D01*
X105346189Y-64276322D01*
X105236751Y-64112537D01*
X105097463Y-63973249D01*
X104933678Y-63863811D01*
X104751689Y-63788429D01*
X104558491Y-63750000D01*
X104361509Y-63750000D01*
X104168311Y-63788429D01*
X103986322Y-63863811D01*
X103822537Y-63973249D01*
X103683249Y-64112537D01*
X103573811Y-64276322D01*
X103498429Y-64458311D01*
X103460000Y-64651509D01*
X102370020Y-64651509D01*
X102394277Y-64592949D01*
X102450000Y-64312813D01*
X102450000Y-64027187D01*
X102394277Y-63747051D01*
X102284973Y-63483167D01*
X102126289Y-63245679D01*
X101924321Y-63043711D01*
X101686833Y-62885027D01*
X101422949Y-62775723D01*
X101293632Y-62750000D01*
X101422949Y-62724277D01*
X101686833Y-62614973D01*
X101924321Y-62456289D01*
X102126289Y-62254321D01*
X102284973Y-62016833D01*
X102394277Y-61752949D01*
X102450000Y-61472813D01*
X102450000Y-61187187D01*
X102394277Y-60907051D01*
X102288429Y-60651509D01*
X103460000Y-60651509D01*
X103460000Y-60848491D01*
X103498429Y-61041689D01*
X103573811Y-61223678D01*
X103683249Y-61387463D01*
X103822537Y-61526751D01*
X103986322Y-61636189D01*
X104168311Y-61711571D01*
X104361509Y-61750000D01*
X104558491Y-61750000D01*
X104751689Y-61711571D01*
X104933678Y-61636189D01*
X105097463Y-61526751D01*
X105236751Y-61387463D01*
X105346189Y-61223678D01*
X105421571Y-61041689D01*
X105460000Y-60848491D01*
X105460000Y-60651509D01*
X108540000Y-60651509D01*
X108540000Y-60848491D01*
X108578429Y-61041689D01*
X108653811Y-61223678D01*
X108763249Y-61387463D01*
X108902537Y-61526751D01*
X109066322Y-61636189D01*
X109248311Y-61711571D01*
X109441509Y-61750000D01*
X109638491Y-61750000D01*
X109831689Y-61711571D01*
X110013678Y-61636189D01*
X110177463Y-61526751D01*
X110316751Y-61387463D01*
X110426189Y-61223678D01*
X110501571Y-61041689D01*
X110540000Y-60848491D01*
X110540000Y-60651509D01*
X110501571Y-60458311D01*
X110426189Y-60276322D01*
X110316751Y-60112537D01*
X110177463Y-59973249D01*
X110013678Y-59863811D01*
X109831689Y-59788429D01*
X109638491Y-59750000D01*
X109441509Y-59750000D01*
X109248311Y-59788429D01*
X109066322Y-59863811D01*
X108902537Y-59973249D01*
X108763249Y-60112537D01*
X108653811Y-60276322D01*
X108578429Y-60458311D01*
X108540000Y-60651509D01*
X105460000Y-60651509D01*
X105421571Y-60458311D01*
X105346189Y-60276322D01*
X105236751Y-60112537D01*
X105097463Y-59973249D01*
X104933678Y-59863811D01*
X104751689Y-59788429D01*
X104558491Y-59750000D01*
X104361509Y-59750000D01*
X104168311Y-59788429D01*
X103986322Y-59863811D01*
X103822537Y-59973249D01*
X103683249Y-60112537D01*
X103573811Y-60276322D01*
X103498429Y-60458311D01*
X103460000Y-60651509D01*
X102288429Y-60651509D01*
X102284973Y-60643167D01*
X102126289Y-60405679D01*
X101924321Y-60203711D01*
X101686833Y-60045027D01*
X101422949Y-59935723D01*
X101142813Y-59880000D01*
X100857187Y-59880000D01*
X100577051Y-59935723D01*
X100313167Y-60045027D01*
X100075679Y-60203711D01*
X99873711Y-60405679D01*
X99715027Y-60643167D01*
X99605723Y-60907051D01*
X99550000Y-61187187D01*
X97680681Y-61187187D01*
X97892027Y-60975841D01*
X97810509Y-60739345D01*
X97554576Y-60622892D01*
X97766833Y-60534973D01*
X98004321Y-60376289D01*
X98206289Y-60174321D01*
X98364973Y-59936833D01*
X98474277Y-59672949D01*
X98530000Y-59392813D01*
X98530000Y-59107187D01*
X98474277Y-58827051D01*
X98364973Y-58563167D01*
X98206289Y-58325679D01*
X98004321Y-58123711D01*
X97766833Y-57965027D01*
X97502949Y-57855723D01*
X97222813Y-57800000D01*
X96937187Y-57800000D01*
X96657051Y-57855723D01*
X96393167Y-57965027D01*
X96155679Y-58123711D01*
X95953711Y-58325679D01*
X95795027Y-58563167D01*
X95685723Y-58827051D01*
X95630000Y-59107187D01*
X88370000Y-59107187D01*
X88314277Y-58827051D01*
X88204973Y-58563167D01*
X88046289Y-58325679D01*
X87844321Y-58123711D01*
X87606833Y-57965027D01*
X87342949Y-57855723D01*
X87062813Y-57800000D01*
X86777187Y-57800000D01*
X86497051Y-57855723D01*
X86233167Y-57965027D01*
X85995679Y-58123711D01*
X85793711Y-58325679D01*
X85635027Y-58563167D01*
X85525723Y-58827051D01*
X85470000Y-59107187D01*
X85470000Y-59265087D01*
X85427915Y-59186351D01*
X85259213Y-58980787D01*
X85053649Y-58812085D01*
X84819122Y-58686728D01*
X84763978Y-58670000D01*
X84819122Y-58653272D01*
X85053649Y-58527915D01*
X85259213Y-58359213D01*
X85427915Y-58153649D01*
X85553272Y-57919122D01*
X85630467Y-57664646D01*
X85656532Y-57400000D01*
X85630467Y-57135354D01*
X85553272Y-56880878D01*
X85430673Y-56651509D01*
X114400000Y-56651509D01*
X114400000Y-56848491D01*
X114438429Y-57041689D01*
X114513811Y-57223678D01*
X114623249Y-57387463D01*
X114762537Y-57526751D01*
X114926322Y-57636189D01*
X115108311Y-57711571D01*
X115301509Y-57750000D01*
X115498491Y-57750000D01*
X115691689Y-57711571D01*
X115873678Y-57636189D01*
X116037463Y-57526751D01*
X116176751Y-57387463D01*
X116286189Y-57223678D01*
X116361571Y-57041689D01*
X116400000Y-56848491D01*
X116400000Y-56651509D01*
X116361571Y-56458311D01*
X116286189Y-56276322D01*
X116176751Y-56112537D01*
X116037463Y-55973249D01*
X115873678Y-55863811D01*
X115691689Y-55788429D01*
X115498491Y-55750000D01*
X115301509Y-55750000D01*
X115108311Y-55788429D01*
X114926322Y-55863811D01*
X114762537Y-55973249D01*
X114623249Y-56112537D01*
X114513811Y-56276322D01*
X114438429Y-56458311D01*
X114400000Y-56651509D01*
X85430673Y-56651509D01*
X85427915Y-56646351D01*
X85259213Y-56440787D01*
X85053649Y-56272085D01*
X84819122Y-56146728D01*
X84763978Y-56130000D01*
X84819122Y-56113272D01*
X85053649Y-55987915D01*
X85259213Y-55819213D01*
X85427915Y-55613649D01*
X85553272Y-55379122D01*
X85630467Y-55124646D01*
X85648504Y-54941509D01*
X87250000Y-54941509D01*
X87250000Y-55138491D01*
X87288429Y-55331689D01*
X87363811Y-55513678D01*
X87473249Y-55677463D01*
X87612537Y-55816751D01*
X87776322Y-55926189D01*
X87958311Y-56001571D01*
X88151509Y-56040000D01*
X88348491Y-56040000D01*
X88541689Y-56001571D01*
X88723678Y-55926189D01*
X88887463Y-55816751D01*
X89026751Y-55677463D01*
X89136189Y-55513678D01*
X89211571Y-55331689D01*
X89250000Y-55138491D01*
X89250000Y-54941509D01*
X89211571Y-54748311D01*
X89136189Y-54566322D01*
X89026751Y-54402537D01*
X88887463Y-54263249D01*
X88723678Y-54153811D01*
X88718121Y-54151509D01*
X104250000Y-54151509D01*
X104250000Y-54348491D01*
X104288429Y-54541689D01*
X104363811Y-54723678D01*
X104473249Y-54887463D01*
X104612537Y-55026751D01*
X104776322Y-55136189D01*
X104958311Y-55211571D01*
X105151509Y-55250000D01*
X105348491Y-55250000D01*
X105541689Y-55211571D01*
X105723678Y-55136189D01*
X105887463Y-55026751D01*
X106026751Y-54887463D01*
X106136189Y-54723678D01*
X106211571Y-54541689D01*
X106250000Y-54348491D01*
X106250000Y-54151509D01*
X107750000Y-54151509D01*
X107750000Y-54348491D01*
X107788429Y-54541689D01*
X107863811Y-54723678D01*
X107973249Y-54887463D01*
X108112537Y-55026751D01*
X108276322Y-55136189D01*
X108458311Y-55211571D01*
X108651509Y-55250000D01*
X108848491Y-55250000D01*
X109041689Y-55211571D01*
X109223678Y-55136189D01*
X109387463Y-55026751D01*
X109526751Y-54887463D01*
X109636189Y-54723678D01*
X109711571Y-54541689D01*
X109750000Y-54348491D01*
X109750000Y-54151509D01*
X109711571Y-53958311D01*
X109636189Y-53776322D01*
X109526751Y-53612537D01*
X109387463Y-53473249D01*
X109223678Y-53363811D01*
X109041689Y-53288429D01*
X108848491Y-53250000D01*
X108651509Y-53250000D01*
X108458311Y-53288429D01*
X108276322Y-53363811D01*
X108112537Y-53473249D01*
X107973249Y-53612537D01*
X107863811Y-53776322D01*
X107788429Y-53958311D01*
X107750000Y-54151509D01*
X106250000Y-54151509D01*
X106211571Y-53958311D01*
X106136189Y-53776322D01*
X106026751Y-53612537D01*
X105887463Y-53473249D01*
X105723678Y-53363811D01*
X105541689Y-53288429D01*
X105348491Y-53250000D01*
X105151509Y-53250000D01*
X104958311Y-53288429D01*
X104776322Y-53363811D01*
X104612537Y-53473249D01*
X104473249Y-53612537D01*
X104363811Y-53776322D01*
X104288429Y-53958311D01*
X104250000Y-54151509D01*
X88718121Y-54151509D01*
X88541689Y-54078429D01*
X88348491Y-54040000D01*
X88151509Y-54040000D01*
X87958311Y-54078429D01*
X87776322Y-54153811D01*
X87612537Y-54263249D01*
X87473249Y-54402537D01*
X87363811Y-54566322D01*
X87288429Y-54748311D01*
X87250000Y-54941509D01*
X85648504Y-54941509D01*
X85656532Y-54860000D01*
X85630467Y-54595354D01*
X85553272Y-54340878D01*
X85427915Y-54106351D01*
X85259213Y-53900787D01*
X85053649Y-53732085D01*
X84819122Y-53606728D01*
X84763978Y-53590000D01*
X84819122Y-53573272D01*
X85053649Y-53447915D01*
X85259213Y-53279213D01*
X85427915Y-53073649D01*
X85553272Y-52839122D01*
X85630467Y-52584646D01*
X85648504Y-52401509D01*
X91250000Y-52401509D01*
X91250000Y-52598491D01*
X91288429Y-52791689D01*
X91363811Y-52973678D01*
X91473249Y-53137463D01*
X91612537Y-53276751D01*
X91776322Y-53386189D01*
X91958311Y-53461571D01*
X92151509Y-53500000D01*
X92348491Y-53500000D01*
X92541689Y-53461571D01*
X92723678Y-53386189D01*
X92887463Y-53276751D01*
X93026751Y-53137463D01*
X93136189Y-52973678D01*
X93211571Y-52791689D01*
X93250000Y-52598491D01*
X93250000Y-52401509D01*
X96250000Y-52401509D01*
X96250000Y-52598491D01*
X96288429Y-52791689D01*
X96363811Y-52973678D01*
X96473249Y-53137463D01*
X96612537Y-53276751D01*
X96776322Y-53386189D01*
X96958311Y-53461571D01*
X97151509Y-53500000D01*
X97348491Y-53500000D01*
X97541689Y-53461571D01*
X97723678Y-53386189D01*
X97887463Y-53276751D01*
X98026751Y-53137463D01*
X98136189Y-52973678D01*
X98211571Y-52791689D01*
X98250000Y-52598491D01*
X98250000Y-52401509D01*
X98211571Y-52208311D01*
X98136189Y-52026322D01*
X98026751Y-51862537D01*
X97887463Y-51723249D01*
X97723678Y-51613811D01*
X97541689Y-51538429D01*
X97348491Y-51500000D01*
X97151509Y-51500000D01*
X96958311Y-51538429D01*
X96776322Y-51613811D01*
X96612537Y-51723249D01*
X96473249Y-51862537D01*
X96363811Y-52026322D01*
X96288429Y-52208311D01*
X96250000Y-52401509D01*
X93250000Y-52401509D01*
X93211571Y-52208311D01*
X93136189Y-52026322D01*
X93026751Y-51862537D01*
X92887463Y-51723249D01*
X92723678Y-51613811D01*
X92541689Y-51538429D01*
X92348491Y-51500000D01*
X92151509Y-51500000D01*
X91958311Y-51538429D01*
X91776322Y-51613811D01*
X91612537Y-51723249D01*
X91473249Y-51862537D01*
X91363811Y-52026322D01*
X91288429Y-52208311D01*
X91250000Y-52401509D01*
X85648504Y-52401509D01*
X85656532Y-52320000D01*
X85630467Y-52055354D01*
X85553272Y-51800878D01*
X85427915Y-51566351D01*
X85259213Y-51360787D01*
X85053649Y-51192085D01*
X84819122Y-51066728D01*
X84688774Y-51027187D01*
X99550000Y-51027187D01*
X99550000Y-51312813D01*
X99605723Y-51592949D01*
X99715027Y-51856833D01*
X99873711Y-52094321D01*
X100075679Y-52296289D01*
X100313167Y-52454973D01*
X100577051Y-52564277D01*
X100857187Y-52620000D01*
X101142813Y-52620000D01*
X101422949Y-52564277D01*
X101686833Y-52454973D01*
X101924321Y-52296289D01*
X102126289Y-52094321D01*
X102284973Y-51856833D01*
X102370020Y-51651509D01*
X114400000Y-51651509D01*
X114400000Y-51848491D01*
X114438429Y-52041689D01*
X114513811Y-52223678D01*
X114623249Y-52387463D01*
X114762537Y-52526751D01*
X114926322Y-52636189D01*
X115108311Y-52711571D01*
X115301509Y-52750000D01*
X115498491Y-52750000D01*
X115691689Y-52711571D01*
X115873678Y-52636189D01*
X116037463Y-52526751D01*
X116176751Y-52387463D01*
X116286189Y-52223678D01*
X116361571Y-52041689D01*
X116400000Y-51848491D01*
X116400000Y-51651509D01*
X116361571Y-51458311D01*
X116286189Y-51276322D01*
X116176751Y-51112537D01*
X116037463Y-50973249D01*
X115873678Y-50863811D01*
X115691689Y-50788429D01*
X115498491Y-50750000D01*
X115301509Y-50750000D01*
X115108311Y-50788429D01*
X114926322Y-50863811D01*
X114762537Y-50973249D01*
X114623249Y-51112537D01*
X114513811Y-51276322D01*
X114438429Y-51458311D01*
X114400000Y-51651509D01*
X102370020Y-51651509D01*
X102394277Y-51592949D01*
X102450000Y-51312813D01*
X102450000Y-51027187D01*
X102394277Y-50747051D01*
X102284973Y-50483167D01*
X102126289Y-50245679D01*
X101924321Y-50043711D01*
X101686833Y-49885027D01*
X101422949Y-49775723D01*
X101142813Y-49720000D01*
X100857187Y-49720000D01*
X100577051Y-49775723D01*
X100313167Y-49885027D01*
X100075679Y-50043711D01*
X99873711Y-50245679D01*
X99715027Y-50483167D01*
X99605723Y-50747051D01*
X99550000Y-51027187D01*
X84688774Y-51027187D01*
X84564646Y-50989533D01*
X84366321Y-50970000D01*
X83233679Y-50970000D01*
X83035354Y-50989533D01*
X82780878Y-51066728D01*
X82546351Y-51192085D01*
X82340787Y-51360787D01*
X82172085Y-51566351D01*
X82046728Y-51800878D01*
X81969533Y-52055354D01*
X81943468Y-52320000D01*
X81969533Y-52584646D01*
X82046728Y-52839122D01*
X82172085Y-53073649D01*
X82340787Y-53279213D01*
X82546351Y-53447915D01*
X82780878Y-53573272D01*
X82836022Y-53590000D01*
X82780878Y-53606728D01*
X82546351Y-53732085D01*
X82340787Y-53900787D01*
X82172085Y-54106351D01*
X82046728Y-54340878D01*
X81969533Y-54595354D01*
X81943468Y-54860000D01*
X81969533Y-55124646D01*
X82046728Y-55379122D01*
X82172085Y-55613649D01*
X82340787Y-55819213D01*
X82546351Y-55987915D01*
X82780878Y-56113272D01*
X82836022Y-56130000D01*
X82780878Y-56146728D01*
X82546351Y-56272085D01*
X82340787Y-56440787D01*
X82172085Y-56646351D01*
X82046728Y-56880878D01*
X81969533Y-57135354D01*
X81943468Y-57400000D01*
X81969533Y-57664646D01*
X82046728Y-57919122D01*
X82172085Y-58153649D01*
X82340787Y-58359213D01*
X82546351Y-58527915D01*
X82780878Y-58653272D01*
X82836022Y-58670000D01*
X82780878Y-58686728D01*
X82546351Y-58812085D01*
X82340787Y-58980787D01*
X82172085Y-59186351D01*
X82046728Y-59420878D01*
X81969533Y-59675354D01*
X81943468Y-59940000D01*
X81969533Y-60204646D01*
X82046728Y-60459122D01*
X82172085Y-60693649D01*
X82340787Y-60899213D01*
X82546351Y-61067915D01*
X82780878Y-61193272D01*
X82836022Y-61210000D01*
X82780878Y-61226728D01*
X82546351Y-61352085D01*
X82512336Y-61380000D01*
X81300000Y-61380000D01*
X81300000Y-53954033D01*
X81305322Y-53899999D01*
X81299613Y-53842033D01*
X81284084Y-53684362D01*
X81221184Y-53477012D01*
X81119042Y-53285916D01*
X80981581Y-53118419D01*
X80939606Y-53083971D01*
X79436033Y-51580399D01*
X79401581Y-51538419D01*
X79234084Y-51400958D01*
X79042988Y-51298816D01*
X78835638Y-51235916D01*
X78674036Y-51220000D01*
X78674034Y-51220000D01*
X78620000Y-51214678D01*
X78565966Y-51220000D01*
X77467664Y-51220000D01*
X77433649Y-51192085D01*
X77199122Y-51066728D01*
X76944646Y-50989533D01*
X76746321Y-50970000D01*
X75613679Y-50970000D01*
X75415354Y-50989533D01*
X75160878Y-51066728D01*
X74926351Y-51192085D01*
X74720787Y-51360787D01*
X74552085Y-51566351D01*
X74426728Y-51800878D01*
X74349533Y-52055354D01*
X74323468Y-52320000D01*
X74349533Y-52584646D01*
X74426728Y-52839122D01*
X74552085Y-53073649D01*
X74720787Y-53279213D01*
X74926351Y-53447915D01*
X75160878Y-53573272D01*
X75216022Y-53590000D01*
X75160878Y-53606728D01*
X74926351Y-53732085D01*
X74720787Y-53900787D01*
X74552085Y-54106351D01*
X74426728Y-54340878D01*
X74393193Y-54451428D01*
X74354159Y-54437973D01*
X73542132Y-55250000D01*
X74354159Y-56062027D01*
X74590655Y-55980509D01*
X74684285Y-55774735D01*
X74720787Y-55819213D01*
X74926351Y-55987915D01*
X75160878Y-56113272D01*
X75213489Y-56129231D01*
X75024795Y-56210165D01*
X74805259Y-56360852D01*
X74619339Y-56551472D01*
X74474180Y-56774701D01*
X74390018Y-57009408D01*
X74254321Y-56873711D01*
X74016833Y-56715027D01*
X73796352Y-56623701D01*
X73972347Y-56557780D01*
X74060509Y-56510655D01*
X74142027Y-56274159D01*
X73330000Y-55462132D01*
X72517973Y-56274159D01*
X72599491Y-56510655D01*
X72855424Y-56627108D01*
X72643167Y-56715027D01*
X72405679Y-56873711D01*
X72203711Y-57075679D01*
X72045027Y-57313167D01*
X71935723Y-57577051D01*
X71880000Y-57857187D01*
X64620000Y-57857187D01*
X64564277Y-57577051D01*
X64454973Y-57313167D01*
X64296289Y-57075679D01*
X64094321Y-56873711D01*
X63856833Y-56715027D01*
X63639488Y-56625000D01*
X63856833Y-56534973D01*
X64094321Y-56376289D01*
X64296289Y-56174321D01*
X64454973Y-55936833D01*
X64564277Y-55672949D01*
X64620000Y-55392813D01*
X64620000Y-55342986D01*
X71875954Y-55342986D01*
X71922033Y-55624870D01*
X72022220Y-55892347D01*
X72069345Y-55980509D01*
X72305841Y-56062027D01*
X73117868Y-55250000D01*
X72305841Y-54437973D01*
X72069345Y-54519491D01*
X71951052Y-54779469D01*
X71885752Y-55057529D01*
X71875954Y-55342986D01*
X64620000Y-55342986D01*
X64620000Y-55107187D01*
X64564277Y-54827051D01*
X64454973Y-54563167D01*
X64296289Y-54325679D01*
X64196451Y-54225841D01*
X72517973Y-54225841D01*
X73330000Y-55037868D01*
X74142027Y-54225841D01*
X74060509Y-53989345D01*
X73800531Y-53871052D01*
X73522471Y-53805752D01*
X73237014Y-53795954D01*
X72955130Y-53842033D01*
X72687653Y-53942220D01*
X72599491Y-53989345D01*
X72517973Y-54225841D01*
X64196451Y-54225841D01*
X64094321Y-54123711D01*
X63856833Y-53965027D01*
X63592949Y-53855723D01*
X63312813Y-53800000D01*
X63027187Y-53800000D01*
X62747051Y-53855723D01*
X62483167Y-53965027D01*
X62245679Y-54123711D01*
X62043711Y-54325679D01*
X61885027Y-54563167D01*
X61775723Y-54827051D01*
X61720000Y-55107187D01*
X59852837Y-55107187D01*
X59785359Y-54884744D01*
X59636788Y-54606787D01*
X59436845Y-54363155D01*
X59298965Y-54250000D01*
X59436845Y-54136845D01*
X59636788Y-53893213D01*
X59785359Y-53615256D01*
X59876849Y-53313655D01*
X59907741Y-53000000D01*
X59876849Y-52686345D01*
X59785359Y-52384744D01*
X59636788Y-52106787D01*
X59436845Y-51863155D01*
X59298965Y-51750000D01*
X59436845Y-51636845D01*
X59636788Y-51393213D01*
X59785359Y-51115256D01*
X59876849Y-50813655D01*
X59907741Y-50500000D01*
X59876849Y-50186345D01*
X59785359Y-49884744D01*
X59668589Y-49666282D01*
X65900000Y-49666282D01*
X65900000Y-49833718D01*
X65932665Y-49997936D01*
X65996740Y-50152626D01*
X66089762Y-50291844D01*
X66208156Y-50410238D01*
X66342495Y-50500000D01*
X66208156Y-50589762D01*
X66089762Y-50708156D01*
X65996740Y-50847374D01*
X65932665Y-51002064D01*
X65900000Y-51166282D01*
X65900000Y-51333718D01*
X65932665Y-51497936D01*
X65996740Y-51652626D01*
X66089762Y-51791844D01*
X66208156Y-51910238D01*
X66347374Y-52003260D01*
X66502064Y-52067335D01*
X66666282Y-52100000D01*
X66833718Y-52100000D01*
X66997936Y-52067335D01*
X67152626Y-52003260D01*
X67291844Y-51910238D01*
X67410238Y-51791844D01*
X67503260Y-51652626D01*
X67567335Y-51497936D01*
X67600000Y-51333718D01*
X67600000Y-51166282D01*
X67567335Y-51002064D01*
X67503260Y-50847374D01*
X67410238Y-50708156D01*
X67291844Y-50589762D01*
X67157505Y-50500000D01*
X67291844Y-50410238D01*
X67410238Y-50291844D01*
X67503260Y-50152626D01*
X67567335Y-49997936D01*
X67600000Y-49833718D01*
X67600000Y-49666282D01*
X71400000Y-49666282D01*
X71400000Y-49833718D01*
X71432665Y-49997936D01*
X71496740Y-50152626D01*
X71589762Y-50291844D01*
X71708156Y-50410238D01*
X71842495Y-50500000D01*
X71708156Y-50589762D01*
X71589762Y-50708156D01*
X71496740Y-50847374D01*
X71432665Y-51002064D01*
X71400000Y-51166282D01*
X71400000Y-51333718D01*
X71432665Y-51497936D01*
X71496740Y-51652626D01*
X71589762Y-51791844D01*
X71708156Y-51910238D01*
X71847374Y-52003260D01*
X72002064Y-52067335D01*
X72166282Y-52100000D01*
X72333718Y-52100000D01*
X72497936Y-52067335D01*
X72652626Y-52003260D01*
X72791844Y-51910238D01*
X72910238Y-51791844D01*
X73003260Y-51652626D01*
X73067335Y-51497936D01*
X73100000Y-51333718D01*
X73100000Y-51166282D01*
X73067335Y-51002064D01*
X73003260Y-50847374D01*
X72910238Y-50708156D01*
X72791844Y-50589762D01*
X72657505Y-50500000D01*
X72791844Y-50410238D01*
X72910238Y-50291844D01*
X73003260Y-50152626D01*
X73067335Y-49997936D01*
X73094472Y-49861509D01*
X87250000Y-49861509D01*
X87250000Y-50058491D01*
X87288429Y-50251689D01*
X87363811Y-50433678D01*
X87473249Y-50597463D01*
X87612537Y-50736751D01*
X87776322Y-50846189D01*
X87958311Y-50921571D01*
X88151509Y-50960000D01*
X88348491Y-50960000D01*
X88541689Y-50921571D01*
X88723678Y-50846189D01*
X88887463Y-50736751D01*
X89026751Y-50597463D01*
X89136189Y-50433678D01*
X89211571Y-50251689D01*
X89250000Y-50058491D01*
X89250000Y-49861509D01*
X89211571Y-49668311D01*
X89136189Y-49486322D01*
X89026751Y-49322537D01*
X88887463Y-49183249D01*
X88723678Y-49073811D01*
X88541689Y-48998429D01*
X88348491Y-48960000D01*
X88151509Y-48960000D01*
X87958311Y-48998429D01*
X87776322Y-49073811D01*
X87612537Y-49183249D01*
X87473249Y-49322537D01*
X87363811Y-49486322D01*
X87288429Y-49668311D01*
X87250000Y-49861509D01*
X73094472Y-49861509D01*
X73100000Y-49833718D01*
X73100000Y-49666282D01*
X73067335Y-49502064D01*
X73003260Y-49347374D01*
X72910238Y-49208156D01*
X72791844Y-49089762D01*
X72652626Y-48996740D01*
X72497936Y-48932665D01*
X72333718Y-48900000D01*
X72166282Y-48900000D01*
X72002064Y-48932665D01*
X71847374Y-48996740D01*
X71708156Y-49089762D01*
X71589762Y-49208156D01*
X71496740Y-49347374D01*
X71432665Y-49502064D01*
X71400000Y-49666282D01*
X67600000Y-49666282D01*
X67567335Y-49502064D01*
X67503260Y-49347374D01*
X67410238Y-49208156D01*
X67291844Y-49089762D01*
X67152626Y-48996740D01*
X66997936Y-48932665D01*
X66833718Y-48900000D01*
X66666282Y-48900000D01*
X66502064Y-48932665D01*
X66347374Y-48996740D01*
X66208156Y-49089762D01*
X66089762Y-49208156D01*
X65996740Y-49347374D01*
X65932665Y-49502064D01*
X65900000Y-49666282D01*
X59668589Y-49666282D01*
X59636788Y-49606787D01*
X59436845Y-49363155D01*
X59193213Y-49163212D01*
X58915256Y-49014641D01*
X58613655Y-48923151D01*
X58378597Y-48900000D01*
X57621403Y-48900000D01*
X57386345Y-48923151D01*
X57084744Y-49014641D01*
X56806787Y-49163212D01*
X56563155Y-49363155D01*
X56363212Y-49606787D01*
X56214641Y-49884744D01*
X56123151Y-50186345D01*
X56092259Y-50500000D01*
X47292275Y-50500000D01*
X47522928Y-50218949D01*
X47792214Y-49715151D01*
X47958039Y-49168498D01*
X48000000Y-48742459D01*
X48000000Y-48277187D01*
X52800000Y-48277187D01*
X52800000Y-48562813D01*
X52855723Y-48842949D01*
X52965027Y-49106833D01*
X53123711Y-49344321D01*
X53325679Y-49546289D01*
X53563167Y-49704973D01*
X53827051Y-49814277D01*
X54107187Y-49870000D01*
X54392813Y-49870000D01*
X54672949Y-49814277D01*
X54936833Y-49704973D01*
X55174321Y-49546289D01*
X55376289Y-49344321D01*
X55534973Y-49106833D01*
X55644277Y-48842949D01*
X55700000Y-48562813D01*
X55700000Y-48277187D01*
X55644277Y-47997051D01*
X55534973Y-47733167D01*
X55480412Y-47651509D01*
X76000000Y-47651509D01*
X76000000Y-47848491D01*
X76038429Y-48041689D01*
X76113811Y-48223678D01*
X76223249Y-48387463D01*
X76362537Y-48526751D01*
X76526322Y-48636189D01*
X76708311Y-48711571D01*
X76901509Y-48750000D01*
X77098491Y-48750000D01*
X77291689Y-48711571D01*
X77473678Y-48636189D01*
X77637463Y-48526751D01*
X77722705Y-48441509D01*
X82500000Y-48441509D01*
X82500000Y-48638491D01*
X82538429Y-48831689D01*
X82613811Y-49013678D01*
X82723249Y-49177463D01*
X82862537Y-49316751D01*
X83026322Y-49426189D01*
X83208311Y-49501571D01*
X83401509Y-49540000D01*
X83598491Y-49540000D01*
X83791689Y-49501571D01*
X83973678Y-49426189D01*
X84137463Y-49316751D01*
X84276751Y-49177463D01*
X84386189Y-49013678D01*
X84461571Y-48831689D01*
X84500000Y-48638491D01*
X84500000Y-48441509D01*
X84461571Y-48248311D01*
X84386189Y-48066322D01*
X84276751Y-47902537D01*
X84137463Y-47763249D01*
X83973678Y-47653811D01*
X83791689Y-47578429D01*
X83598491Y-47540000D01*
X83401509Y-47540000D01*
X83208311Y-47578429D01*
X83026322Y-47653811D01*
X82862537Y-47763249D01*
X82723249Y-47902537D01*
X82613811Y-48066322D01*
X82538429Y-48248311D01*
X82500000Y-48441509D01*
X77722705Y-48441509D01*
X77776751Y-48387463D01*
X77886189Y-48223678D01*
X77961571Y-48041689D01*
X78000000Y-47848491D01*
X78000000Y-47651509D01*
X77961571Y-47458311D01*
X77886189Y-47276322D01*
X77776751Y-47112537D01*
X77637463Y-46973249D01*
X77473678Y-46863811D01*
X77291689Y-46788429D01*
X77098491Y-46750000D01*
X76901509Y-46750000D01*
X76708311Y-46788429D01*
X76526322Y-46863811D01*
X76362537Y-46973249D01*
X76223249Y-47112537D01*
X76113811Y-47276322D01*
X76038429Y-47458311D01*
X76000000Y-47651509D01*
X55480412Y-47651509D01*
X55376289Y-47495679D01*
X55174321Y-47293711D01*
X54936833Y-47135027D01*
X54672949Y-47025723D01*
X54392813Y-46970000D01*
X54107187Y-46970000D01*
X53827051Y-47025723D01*
X53563167Y-47135027D01*
X53325679Y-47293711D01*
X53123711Y-47495679D01*
X52965027Y-47733167D01*
X52855723Y-47997051D01*
X52800000Y-48277187D01*
X48000000Y-48277187D01*
X48000000Y-47457540D01*
X47958039Y-47031501D01*
X47792214Y-46484849D01*
X47522928Y-45981051D01*
X47252480Y-45651509D01*
X47980000Y-45651509D01*
X47980000Y-45848491D01*
X48018429Y-46041689D01*
X48093811Y-46223678D01*
X48203249Y-46387463D01*
X48342537Y-46526751D01*
X48506322Y-46636189D01*
X48688311Y-46711571D01*
X48881509Y-46750000D01*
X49078491Y-46750000D01*
X49271689Y-46711571D01*
X49453678Y-46636189D01*
X49617463Y-46526751D01*
X49756751Y-46387463D01*
X49866189Y-46223678D01*
X49941571Y-46041689D01*
X49980000Y-45848491D01*
X49980000Y-45651509D01*
X50520000Y-45651509D01*
X50520000Y-45848491D01*
X50558429Y-46041689D01*
X50633811Y-46223678D01*
X50743249Y-46387463D01*
X50882537Y-46526751D01*
X51046322Y-46636189D01*
X51228311Y-46711571D01*
X51421509Y-46750000D01*
X51618491Y-46750000D01*
X51811689Y-46711571D01*
X51993678Y-46636189D01*
X52157463Y-46526751D01*
X52296751Y-46387463D01*
X52406189Y-46223678D01*
X52481571Y-46041689D01*
X52520000Y-45848491D01*
X52520000Y-45651509D01*
X52511184Y-45607187D01*
X57970000Y-45607187D01*
X57970000Y-45892813D01*
X58025723Y-46172949D01*
X58135027Y-46436833D01*
X58293711Y-46674321D01*
X58495679Y-46876289D01*
X58733167Y-47034973D01*
X58997051Y-47144277D01*
X59277187Y-47200000D01*
X59562813Y-47200000D01*
X59842949Y-47144277D01*
X60106833Y-47034973D01*
X60344321Y-46876289D01*
X60446451Y-46774159D01*
X68767973Y-46774159D01*
X68849491Y-47010655D01*
X69109469Y-47128948D01*
X69387529Y-47194248D01*
X69672986Y-47204046D01*
X69954870Y-47157967D01*
X70222347Y-47057780D01*
X70310509Y-47010655D01*
X70392027Y-46774159D01*
X69580000Y-45962132D01*
X68767973Y-46774159D01*
X60446451Y-46774159D01*
X60546289Y-46674321D01*
X60704973Y-46436833D01*
X60814277Y-46172949D01*
X60870000Y-45892813D01*
X60870000Y-45842986D01*
X68125954Y-45842986D01*
X68172033Y-46124870D01*
X68272220Y-46392347D01*
X68319345Y-46480509D01*
X68555841Y-46562027D01*
X69367868Y-45750000D01*
X69792132Y-45750000D01*
X70604159Y-46562027D01*
X70840655Y-46480509D01*
X70958948Y-46220531D01*
X71024248Y-45942471D01*
X71034046Y-45657014D01*
X70987967Y-45375130D01*
X70887780Y-45107653D01*
X70840655Y-45019491D01*
X70604159Y-44937973D01*
X69792132Y-45750000D01*
X69367868Y-45750000D01*
X68555841Y-44937973D01*
X68319345Y-45019491D01*
X68201052Y-45279469D01*
X68135752Y-45557529D01*
X68125954Y-45842986D01*
X60870000Y-45842986D01*
X60870000Y-45607187D01*
X60814277Y-45327051D01*
X60704973Y-45063167D01*
X60546289Y-44825679D01*
X60446451Y-44725841D01*
X68767973Y-44725841D01*
X69580000Y-45537868D01*
X70392027Y-44725841D01*
X70310509Y-44489345D01*
X70050531Y-44371052D01*
X69772471Y-44305752D01*
X69487014Y-44295954D01*
X69205130Y-44342033D01*
X68937653Y-44442220D01*
X68849491Y-44489345D01*
X68767973Y-44725841D01*
X60446451Y-44725841D01*
X60344321Y-44623711D01*
X60106833Y-44465027D01*
X59842949Y-44355723D01*
X59562813Y-44300000D01*
X59277187Y-44300000D01*
X58997051Y-44355723D01*
X58733167Y-44465027D01*
X58495679Y-44623711D01*
X58293711Y-44825679D01*
X58135027Y-45063167D01*
X58025723Y-45327051D01*
X57970000Y-45607187D01*
X52511184Y-45607187D01*
X52481571Y-45458311D01*
X52406189Y-45276322D01*
X52296751Y-45112537D01*
X52157463Y-44973249D01*
X51993678Y-44863811D01*
X51811689Y-44788429D01*
X51618491Y-44750000D01*
X51421509Y-44750000D01*
X51228311Y-44788429D01*
X51046322Y-44863811D01*
X50882537Y-44973249D01*
X50743249Y-45112537D01*
X50633811Y-45276322D01*
X50558429Y-45458311D01*
X50520000Y-45651509D01*
X49980000Y-45651509D01*
X49941571Y-45458311D01*
X49866189Y-45276322D01*
X49756751Y-45112537D01*
X49617463Y-44973249D01*
X49453678Y-44863811D01*
X49271689Y-44788429D01*
X49078491Y-44750000D01*
X48881509Y-44750000D01*
X48688311Y-44788429D01*
X48506322Y-44863811D01*
X48342537Y-44973249D01*
X48203249Y-45112537D01*
X48093811Y-45276322D01*
X48018429Y-45458311D01*
X47980000Y-45651509D01*
X47252480Y-45651509D01*
X47160530Y-45539469D01*
X46718948Y-45177072D01*
X46215150Y-44907786D01*
X45668498Y-44741961D01*
X45100000Y-44685969D01*
X44531501Y-44741961D01*
X43984849Y-44907786D01*
X43481051Y-45177072D01*
X43039469Y-45539470D01*
X42677072Y-45981052D01*
X42407786Y-46484850D01*
X42241961Y-47031502D01*
X42200000Y-47457541D01*
X42200000Y-48742460D01*
X42241961Y-49168499D01*
X42407786Y-49715151D01*
X42614710Y-50102279D01*
X42600000Y-50100000D01*
X42100000Y-50100000D01*
X41800000Y-50100000D01*
X41300000Y-50100000D01*
X40776138Y-50181143D01*
X40710685Y-50205037D01*
X40795339Y-50113647D01*
X41052297Y-49695291D01*
X41222700Y-49234844D01*
X41300000Y-48750000D01*
X41300000Y-48250000D01*
X38950000Y-48250000D01*
X38950000Y-50945208D01*
X39338535Y-51041307D01*
X39417586Y-51020327D01*
X39121696Y-51424681D01*
X38898122Y-51905337D01*
X38810825Y-52230126D01*
X31650000Y-52230126D01*
X31650000Y-48250000D01*
X36300000Y-48250000D01*
X36300000Y-48750000D01*
X36377300Y-49234844D01*
X36547703Y-49695291D01*
X36804661Y-50113647D01*
X37138299Y-50473834D01*
X37535795Y-50762011D01*
X37981874Y-50967103D01*
X38261465Y-51041307D01*
X38650000Y-50945208D01*
X38650000Y-48250000D01*
X36300000Y-48250000D01*
X31650000Y-48250000D01*
X31650000Y-47450000D01*
X36300000Y-47450000D01*
X36300000Y-47950000D01*
X38650000Y-47950000D01*
X38650000Y-45254792D01*
X38950000Y-45254792D01*
X38950000Y-47950000D01*
X41300000Y-47950000D01*
X41300000Y-47450000D01*
X41222700Y-46965156D01*
X41052297Y-46504709D01*
X40795339Y-46086353D01*
X40461701Y-45726166D01*
X40064205Y-45437989D01*
X39618126Y-45232897D01*
X39338535Y-45158693D01*
X38950000Y-45254792D01*
X38650000Y-45254792D01*
X38261465Y-45158693D01*
X37981874Y-45232897D01*
X37535795Y-45437989D01*
X37138299Y-45726166D01*
X36804661Y-46086353D01*
X36547703Y-46504709D01*
X36377300Y-46965156D01*
X36300000Y-47450000D01*
X31650000Y-47450000D01*
X31650000Y-40768545D01*
X33400000Y-40768545D01*
X33400000Y-41231455D01*
X33490309Y-41685470D01*
X33667457Y-42113143D01*
X33924636Y-42498038D01*
X34251962Y-42825364D01*
X34636857Y-43082543D01*
X35064530Y-43259691D01*
X35518545Y-43350000D01*
X35981455Y-43350000D01*
X36435470Y-43259691D01*
X36863143Y-43082543D01*
X37248038Y-42825364D01*
X37466215Y-42607187D01*
X57970000Y-42607187D01*
X57970000Y-42892813D01*
X58025723Y-43172949D01*
X58135027Y-43436833D01*
X58293711Y-43674321D01*
X58495679Y-43876289D01*
X58733167Y-44034973D01*
X58997051Y-44144277D01*
X59277187Y-44200000D01*
X59562813Y-44200000D01*
X59842949Y-44144277D01*
X60106833Y-44034973D01*
X60344321Y-43876289D01*
X60546289Y-43674321D01*
X60704973Y-43436833D01*
X60814277Y-43172949D01*
X60870000Y-42892813D01*
X60870000Y-42607187D01*
X68130000Y-42607187D01*
X68130000Y-42892813D01*
X68185723Y-43172949D01*
X68295027Y-43436833D01*
X68453711Y-43674321D01*
X68655679Y-43876289D01*
X68893167Y-44034973D01*
X69157051Y-44144277D01*
X69437187Y-44200000D01*
X69722813Y-44200000D01*
X69966591Y-44151509D01*
X76000000Y-44151509D01*
X76000000Y-44348491D01*
X76038429Y-44541689D01*
X76113811Y-44723678D01*
X76223249Y-44887463D01*
X76362537Y-45026751D01*
X76526322Y-45136189D01*
X76708311Y-45211571D01*
X76901509Y-45250000D01*
X77098491Y-45250000D01*
X77291689Y-45211571D01*
X77473678Y-45136189D01*
X77637463Y-45026751D01*
X77776751Y-44887463D01*
X77886189Y-44723678D01*
X77961571Y-44541689D01*
X78000000Y-44348491D01*
X78000000Y-44151509D01*
X77961571Y-43958311D01*
X77886189Y-43776322D01*
X77776751Y-43612537D01*
X77637463Y-43473249D01*
X77473678Y-43363811D01*
X77468121Y-43361509D01*
X82500000Y-43361509D01*
X82500000Y-43558491D01*
X82538429Y-43751689D01*
X82613811Y-43933678D01*
X82723249Y-44097463D01*
X82862537Y-44236751D01*
X83026322Y-44346189D01*
X83208311Y-44421571D01*
X83401509Y-44460000D01*
X83598491Y-44460000D01*
X83791689Y-44421571D01*
X83973678Y-44346189D01*
X84137463Y-44236751D01*
X84276751Y-44097463D01*
X84386189Y-43933678D01*
X84461571Y-43751689D01*
X84500000Y-43558491D01*
X84500000Y-43361509D01*
X84461571Y-43168311D01*
X84386189Y-42986322D01*
X84276751Y-42822537D01*
X84137463Y-42683249D01*
X83973678Y-42573811D01*
X83791689Y-42498429D01*
X83598491Y-42460000D01*
X83401509Y-42460000D01*
X83208311Y-42498429D01*
X83026322Y-42573811D01*
X82862537Y-42683249D01*
X82723249Y-42822537D01*
X82613811Y-42986322D01*
X82538429Y-43168311D01*
X82500000Y-43361509D01*
X77468121Y-43361509D01*
X77291689Y-43288429D01*
X77098491Y-43250000D01*
X76901509Y-43250000D01*
X76708311Y-43288429D01*
X76526322Y-43363811D01*
X76362537Y-43473249D01*
X76223249Y-43612537D01*
X76113811Y-43776322D01*
X76038429Y-43958311D01*
X76000000Y-44151509D01*
X69966591Y-44151509D01*
X70002949Y-44144277D01*
X70266833Y-44034973D01*
X70504321Y-43876289D01*
X70706289Y-43674321D01*
X70864973Y-43436833D01*
X70974277Y-43172949D01*
X71030000Y-42892813D01*
X71030000Y-42607187D01*
X70974277Y-42327051D01*
X70864973Y-42063167D01*
X70706289Y-41825679D01*
X70504321Y-41623711D01*
X70266833Y-41465027D01*
X70002949Y-41355723D01*
X69722813Y-41300000D01*
X69437187Y-41300000D01*
X69157051Y-41355723D01*
X68893167Y-41465027D01*
X68655679Y-41623711D01*
X68453711Y-41825679D01*
X68295027Y-42063167D01*
X68185723Y-42327051D01*
X68130000Y-42607187D01*
X60870000Y-42607187D01*
X60814277Y-42327051D01*
X60704973Y-42063167D01*
X60546289Y-41825679D01*
X60344321Y-41623711D01*
X60106833Y-41465027D01*
X59842949Y-41355723D01*
X59562813Y-41300000D01*
X59277187Y-41300000D01*
X58997051Y-41355723D01*
X58733167Y-41465027D01*
X58495679Y-41623711D01*
X58293711Y-41825679D01*
X58135027Y-42063167D01*
X58025723Y-42327051D01*
X57970000Y-42607187D01*
X37466215Y-42607187D01*
X37575364Y-42498038D01*
X37832543Y-42113143D01*
X38009691Y-41685470D01*
X38100000Y-41231455D01*
X38100000Y-40768545D01*
X112650000Y-40768545D01*
X112650000Y-41231455D01*
X112740309Y-41685470D01*
X112917457Y-42113143D01*
X113174636Y-42498038D01*
X113501962Y-42825364D01*
X113886857Y-43082543D01*
X114314530Y-43259691D01*
X114768545Y-43350000D01*
X115231455Y-43350000D01*
X115685470Y-43259691D01*
X116113143Y-43082543D01*
X116498038Y-42825364D01*
X116825364Y-42498038D01*
X117082543Y-42113143D01*
X117259691Y-41685470D01*
X117350000Y-41231455D01*
X117350000Y-40768545D01*
X117259691Y-40314530D01*
X117082543Y-39886857D01*
X116825364Y-39501962D01*
X116498038Y-39174636D01*
X116113143Y-38917457D01*
X115685470Y-38740309D01*
X115231455Y-38650000D01*
X114768545Y-38650000D01*
X114314530Y-38740309D01*
X113886857Y-38917457D01*
X113501962Y-39174636D01*
X113174636Y-39501962D01*
X112917457Y-39886857D01*
X112740309Y-40314530D01*
X112650000Y-40768545D01*
X38100000Y-40768545D01*
X38009691Y-40314530D01*
X37832543Y-39886857D01*
X37575364Y-39501962D01*
X37248038Y-39174636D01*
X36863143Y-38917457D01*
X36435470Y-38740309D01*
X35981455Y-38650000D01*
X35518545Y-38650000D01*
X35064530Y-38740309D01*
X34636857Y-38917457D01*
X34251962Y-39174636D01*
X33924636Y-39501962D01*
X33667457Y-39886857D01*
X33490309Y-40314530D01*
X33400000Y-40768545D01*
X31650000Y-40768545D01*
X31650000Y-36900000D01*
X119100000Y-36900000D01*
X119100001Y-89600000D01*
G37*
X119100001Y-89600000D02*
X31650000Y-89600000D01*
X31650000Y-85268545D01*
X33400000Y-85268545D01*
X33400000Y-85731455D01*
X33490309Y-86185470D01*
X33667457Y-86613143D01*
X33924636Y-86998038D01*
X34251962Y-87325364D01*
X34636857Y-87582543D01*
X35064530Y-87759691D01*
X35518545Y-87850000D01*
X35981455Y-87850000D01*
X36435470Y-87759691D01*
X36863143Y-87582543D01*
X37248038Y-87325364D01*
X37575364Y-86998038D01*
X37832543Y-86613143D01*
X38009691Y-86185470D01*
X38100000Y-85731455D01*
X38100000Y-85268545D01*
X112650000Y-85268545D01*
X112650000Y-85731455D01*
X112740309Y-86185470D01*
X112917457Y-86613143D01*
X113174636Y-86998038D01*
X113501962Y-87325364D01*
X113886857Y-87582543D01*
X114314530Y-87759691D01*
X114768545Y-87850000D01*
X115231455Y-87850000D01*
X115685470Y-87759691D01*
X116113143Y-87582543D01*
X116498038Y-87325364D01*
X116825364Y-86998038D01*
X117082543Y-86613143D01*
X117259691Y-86185470D01*
X117350000Y-85731455D01*
X117350000Y-85268545D01*
X117259691Y-84814530D01*
X117082543Y-84386857D01*
X116825364Y-84001962D01*
X116498038Y-83674636D01*
X116113143Y-83417457D01*
X115685470Y-83240309D01*
X115231455Y-83150000D01*
X114768545Y-83150000D01*
X114314530Y-83240309D01*
X113886857Y-83417457D01*
X113501962Y-83674636D01*
X113174636Y-84001962D01*
X112917457Y-84386857D01*
X112740309Y-84814530D01*
X112650000Y-85268545D01*
X38100000Y-85268545D01*
X38009691Y-84814530D01*
X37832543Y-84386857D01*
X37575364Y-84001962D01*
X37248038Y-83674636D01*
X36863143Y-83417457D01*
X36435470Y-83240309D01*
X35981455Y-83150000D01*
X35518545Y-83150000D01*
X35064530Y-83240309D01*
X34636857Y-83417457D01*
X34251962Y-83674636D01*
X33924636Y-84001962D01*
X33667457Y-84386857D01*
X33490309Y-84814530D01*
X33400000Y-85268545D01*
X31650000Y-85268545D01*
X31650000Y-82651509D01*
X75750000Y-82651509D01*
X75750000Y-82848491D01*
X75788429Y-83041689D01*
X75863811Y-83223678D01*
X75973249Y-83387463D01*
X76112537Y-83526751D01*
X76276322Y-83636189D01*
X76458311Y-83711571D01*
X76651509Y-83750000D01*
X76848491Y-83750000D01*
X77041689Y-83711571D01*
X77223678Y-83636189D01*
X77387463Y-83526751D01*
X77472705Y-83441509D01*
X82250000Y-83441509D01*
X82250000Y-83638491D01*
X82288429Y-83831689D01*
X82363811Y-84013678D01*
X82473249Y-84177463D01*
X82612537Y-84316751D01*
X82776322Y-84426189D01*
X82958311Y-84501571D01*
X83151509Y-84540000D01*
X83348491Y-84540000D01*
X83541689Y-84501571D01*
X83723678Y-84426189D01*
X83887463Y-84316751D01*
X84026751Y-84177463D01*
X84136189Y-84013678D01*
X84211571Y-83831689D01*
X84250000Y-83638491D01*
X84250000Y-83441509D01*
X84211571Y-83248311D01*
X84136189Y-83066322D01*
X84026751Y-82902537D01*
X83887463Y-82763249D01*
X83723678Y-82653811D01*
X83541689Y-82578429D01*
X83348491Y-82540000D01*
X83151509Y-82540000D01*
X82958311Y-82578429D01*
X82776322Y-82653811D01*
X82612537Y-82763249D01*
X82473249Y-82902537D01*
X82363811Y-83066322D01*
X82288429Y-83248311D01*
X82250000Y-83441509D01*
X77472705Y-83441509D01*
X77526751Y-83387463D01*
X77636189Y-83223678D01*
X77711571Y-83041689D01*
X77750000Y-82848491D01*
X77750000Y-82651509D01*
X77711571Y-82458311D01*
X77636189Y-82276322D01*
X77526751Y-82112537D01*
X77387463Y-81973249D01*
X77223678Y-81863811D01*
X77041689Y-81788429D01*
X76848491Y-81750000D01*
X76651509Y-81750000D01*
X76458311Y-81788429D01*
X76276322Y-81863811D01*
X76112537Y-81973249D01*
X75973249Y-82112537D01*
X75863811Y-82276322D01*
X75788429Y-82458311D01*
X75750000Y-82651509D01*
X31650000Y-82651509D01*
X31650000Y-79636735D01*
X41350000Y-79636735D01*
X41350000Y-79863265D01*
X41394194Y-80085443D01*
X41480884Y-80294729D01*
X41606737Y-80483082D01*
X41766918Y-80643263D01*
X41955271Y-80769116D01*
X42164557Y-80855806D01*
X42386735Y-80900000D01*
X42613265Y-80900000D01*
X42835443Y-80855806D01*
X43044729Y-80769116D01*
X43233082Y-80643263D01*
X43393263Y-80483082D01*
X43519116Y-80294729D01*
X43605806Y-80085443D01*
X43650000Y-79863265D01*
X43650000Y-79636735D01*
X43605806Y-79414557D01*
X43519116Y-79205271D01*
X43483194Y-79151509D01*
X75750000Y-79151509D01*
X75750000Y-79348491D01*
X75788429Y-79541689D01*
X75863811Y-79723678D01*
X75973249Y-79887463D01*
X76112537Y-80026751D01*
X76276322Y-80136189D01*
X76458311Y-80211571D01*
X76651509Y-80250000D01*
X76848491Y-80250000D01*
X77041689Y-80211571D01*
X77223678Y-80136189D01*
X77387463Y-80026751D01*
X77437328Y-79976886D01*
X85550000Y-79976886D01*
X85550000Y-82700000D01*
X85555515Y-82756244D01*
X85560628Y-82812429D01*
X85561222Y-82814446D01*
X85561427Y-82816541D01*
X85577765Y-82870656D01*
X85593690Y-82924764D01*
X85594663Y-82926626D01*
X85595272Y-82928642D01*
X85621792Y-82978519D01*
X85647941Y-83028538D01*
X85649260Y-83030178D01*
X85650247Y-83032035D01*
X85685914Y-83075767D01*
X85721316Y-83119798D01*
X85722929Y-83121151D01*
X85724258Y-83122781D01*
X85767795Y-83158799D01*
X85811020Y-83195068D01*
X85812860Y-83196080D01*
X85814484Y-83197423D01*
X85864211Y-83224310D01*
X85913635Y-83251481D01*
X85915639Y-83252117D01*
X85917491Y-83253118D01*
X85971413Y-83269809D01*
X86025253Y-83286889D01*
X86027346Y-83287124D01*
X86029353Y-83287745D01*
X86085413Y-83293637D01*
X86141623Y-83299942D01*
X86145668Y-83299970D01*
X86145811Y-83299985D01*
X86145954Y-83299972D01*
X86150000Y-83300000D01*
X87450000Y-83300000D01*
X87506244Y-83294485D01*
X87562429Y-83289372D01*
X87564446Y-83288778D01*
X87566541Y-83288573D01*
X87620656Y-83272235D01*
X87674764Y-83256310D01*
X87676626Y-83255337D01*
X87678642Y-83254728D01*
X87728519Y-83228208D01*
X87778538Y-83202059D01*
X87780178Y-83200740D01*
X87782035Y-83199753D01*
X87825767Y-83164086D01*
X87869798Y-83128684D01*
X87871151Y-83127071D01*
X87872781Y-83125742D01*
X87908799Y-83082205D01*
X87945068Y-83038980D01*
X87946080Y-83037140D01*
X87947423Y-83035516D01*
X87974310Y-82985789D01*
X88001481Y-82936365D01*
X88002117Y-82934361D01*
X88003118Y-82932509D01*
X88019809Y-82878587D01*
X88036889Y-82824747D01*
X88037124Y-82822654D01*
X88037745Y-82820647D01*
X88043637Y-82764587D01*
X88049942Y-82708377D01*
X88049970Y-82704332D01*
X88049985Y-82704189D01*
X88049972Y-82704046D01*
X88050000Y-82700000D01*
X88050000Y-79976886D01*
X88001963Y-79735389D01*
X87907735Y-79507903D01*
X87770938Y-79303172D01*
X87596828Y-79129062D01*
X87392097Y-78992265D01*
X87164611Y-78898037D01*
X86923114Y-78850000D01*
X86676886Y-78850000D01*
X86435389Y-78898037D01*
X86207903Y-78992265D01*
X86003172Y-79129062D01*
X85829062Y-79303172D01*
X85692265Y-79507903D01*
X85598037Y-79735389D01*
X85550000Y-79976886D01*
X77437328Y-79976886D01*
X77526751Y-79887463D01*
X77636189Y-79723678D01*
X77711571Y-79541689D01*
X77750000Y-79348491D01*
X77750000Y-79151509D01*
X77711571Y-78958311D01*
X77636189Y-78776322D01*
X77526751Y-78612537D01*
X77387463Y-78473249D01*
X77223678Y-78363811D01*
X77218121Y-78361509D01*
X82250000Y-78361509D01*
X82250000Y-78558491D01*
X82288429Y-78751689D01*
X82363811Y-78933678D01*
X82473249Y-79097463D01*
X82612537Y-79236751D01*
X82776322Y-79346189D01*
X82958311Y-79421571D01*
X83151509Y-79460000D01*
X83348491Y-79460000D01*
X83541689Y-79421571D01*
X83723678Y-79346189D01*
X83887463Y-79236751D01*
X84026751Y-79097463D01*
X84136189Y-78933678D01*
X84211571Y-78751689D01*
X84250000Y-78558491D01*
X84250000Y-78361509D01*
X84211571Y-78168311D01*
X84136189Y-77986322D01*
X84026751Y-77822537D01*
X83887463Y-77683249D01*
X83723678Y-77573811D01*
X83541689Y-77498429D01*
X83348491Y-77460000D01*
X83151509Y-77460000D01*
X82958311Y-77498429D01*
X82776322Y-77573811D01*
X82612537Y-77683249D01*
X82473249Y-77822537D01*
X82363811Y-77986322D01*
X82288429Y-78168311D01*
X82250000Y-78361509D01*
X77218121Y-78361509D01*
X77041689Y-78288429D01*
X76848491Y-78250000D01*
X76651509Y-78250000D01*
X76458311Y-78288429D01*
X76276322Y-78363811D01*
X76112537Y-78473249D01*
X75973249Y-78612537D01*
X75863811Y-78776322D01*
X75788429Y-78958311D01*
X75750000Y-79151509D01*
X43483194Y-79151509D01*
X43393263Y-79016918D01*
X43233082Y-78856737D01*
X43044729Y-78730884D01*
X42835443Y-78644194D01*
X42613265Y-78600000D01*
X42386735Y-78600000D01*
X42164557Y-78644194D01*
X41955271Y-78730884D01*
X41766918Y-78856737D01*
X41606737Y-79016918D01*
X41480884Y-79205271D01*
X41394194Y-79414557D01*
X41350000Y-79636735D01*
X31650000Y-79636735D01*
X31650000Y-77136735D01*
X41350000Y-77136735D01*
X41350000Y-77363265D01*
X41394194Y-77585443D01*
X41480884Y-77794729D01*
X41606737Y-77983082D01*
X41766918Y-78143263D01*
X41955271Y-78269116D01*
X42164557Y-78355806D01*
X42386735Y-78400000D01*
X42613265Y-78400000D01*
X42835443Y-78355806D01*
X43044729Y-78269116D01*
X43233082Y-78143263D01*
X43393263Y-77983082D01*
X43519116Y-77794729D01*
X43605806Y-77585443D01*
X43650000Y-77363265D01*
X43650000Y-77136735D01*
X43605806Y-76914557D01*
X43519116Y-76705271D01*
X43393263Y-76516918D01*
X43233082Y-76356737D01*
X43044729Y-76230884D01*
X42835443Y-76144194D01*
X42613265Y-76100000D01*
X42386735Y-76100000D01*
X42164557Y-76144194D01*
X41955271Y-76230884D01*
X41766918Y-76356737D01*
X41606737Y-76516918D01*
X41480884Y-76705271D01*
X41394194Y-76914557D01*
X41350000Y-77136735D01*
X31650000Y-77136735D01*
X31650000Y-75916282D01*
X70400000Y-75916282D01*
X70400000Y-76083718D01*
X70432665Y-76247936D01*
X70496740Y-76402626D01*
X70589762Y-76541844D01*
X70708156Y-76660238D01*
X70842495Y-76750000D01*
X70708156Y-76839762D01*
X70589762Y-76958156D01*
X70496740Y-77097374D01*
X70432665Y-77252064D01*
X70400000Y-77416282D01*
X70400000Y-77583718D01*
X70432665Y-77747936D01*
X70496740Y-77902626D01*
X70589762Y-78041844D01*
X70708156Y-78160238D01*
X70847374Y-78253260D01*
X71002064Y-78317335D01*
X71166282Y-78350000D01*
X71333718Y-78350000D01*
X71497936Y-78317335D01*
X71652626Y-78253260D01*
X71791844Y-78160238D01*
X71910238Y-78041844D01*
X72003260Y-77902626D01*
X72067335Y-77747936D01*
X72100000Y-77583718D01*
X72100000Y-77416282D01*
X72067335Y-77252064D01*
X72003260Y-77097374D01*
X71910238Y-76958156D01*
X71791844Y-76839762D01*
X71657505Y-76750000D01*
X71791844Y-76660238D01*
X71910238Y-76541844D01*
X72003260Y-76402626D01*
X72067335Y-76247936D01*
X72100000Y-76083718D01*
X72100000Y-75916282D01*
X72067335Y-75752064D01*
X72003260Y-75597374D01*
X71910238Y-75458156D01*
X71791844Y-75339762D01*
X71652626Y-75246740D01*
X71497936Y-75182665D01*
X71333718Y-75150000D01*
X71166282Y-75150000D01*
X71002064Y-75182665D01*
X70847374Y-75246740D01*
X70708156Y-75339762D01*
X70589762Y-75458156D01*
X70496740Y-75597374D01*
X70432665Y-75752064D01*
X70400000Y-75916282D01*
X31650000Y-75916282D01*
X31650000Y-74636735D01*
X36350000Y-74636735D01*
X36350000Y-74863265D01*
X36394194Y-75085443D01*
X36480884Y-75294729D01*
X36606737Y-75483082D01*
X36766918Y-75643263D01*
X36955271Y-75769116D01*
X37164557Y-75855806D01*
X37386735Y-75900000D01*
X37613265Y-75900000D01*
X37835443Y-75855806D01*
X38044729Y-75769116D01*
X38233082Y-75643263D01*
X38393263Y-75483082D01*
X38519116Y-75294729D01*
X38605806Y-75085443D01*
X38650000Y-74863265D01*
X38650000Y-74636735D01*
X38605806Y-74414557D01*
X38519116Y-74205271D01*
X38393263Y-74016918D01*
X38233082Y-73856737D01*
X38044729Y-73730884D01*
X37835443Y-73644194D01*
X37613265Y-73600000D01*
X37386735Y-73600000D01*
X37164557Y-73644194D01*
X36955271Y-73730884D01*
X36766918Y-73856737D01*
X36606737Y-74016918D01*
X36480884Y-74205271D01*
X36394194Y-74414557D01*
X36350000Y-74636735D01*
X31650000Y-74636735D01*
X31650000Y-72136735D01*
X41350000Y-72136735D01*
X41350000Y-72363265D01*
X41394194Y-72585443D01*
X41480884Y-72794729D01*
X41606737Y-72983082D01*
X41766918Y-73143263D01*
X41955271Y-73269116D01*
X42164557Y-73355806D01*
X42386735Y-73400000D01*
X42613265Y-73400000D01*
X42835443Y-73355806D01*
X43044729Y-73269116D01*
X43233082Y-73143263D01*
X43393263Y-72983082D01*
X43519116Y-72794729D01*
X43605806Y-72585443D01*
X43640671Y-72410160D01*
X54708046Y-72410160D01*
X54724494Y-72464403D01*
X54827129Y-72697668D01*
X54973300Y-72906427D01*
X55157389Y-73082659D01*
X55372322Y-73219591D01*
X55609839Y-73311960D01*
X55810000Y-73201324D01*
X55810000Y-72210000D01*
X54819825Y-72210000D01*
X54708046Y-72410160D01*
X43640671Y-72410160D01*
X43650000Y-72363265D01*
X43650000Y-72136735D01*
X43605806Y-71914557D01*
X43519116Y-71705271D01*
X43393263Y-71516918D01*
X43233082Y-71356737D01*
X43044729Y-71230884D01*
X42835443Y-71144194D01*
X42613265Y-71100000D01*
X42386735Y-71100000D01*
X42164557Y-71144194D01*
X41955271Y-71230884D01*
X41766918Y-71356737D01*
X41606737Y-71516918D01*
X41480884Y-71705271D01*
X41394194Y-71914557D01*
X41350000Y-72136735D01*
X31650000Y-72136735D01*
X31650000Y-69636735D01*
X41350000Y-69636735D01*
X41350000Y-69863265D01*
X41394194Y-70085443D01*
X41480884Y-70294729D01*
X41606737Y-70483082D01*
X41766918Y-70643263D01*
X41955271Y-70769116D01*
X42164557Y-70855806D01*
X42386735Y-70900000D01*
X42613265Y-70900000D01*
X42835443Y-70855806D01*
X43044729Y-70769116D01*
X43233082Y-70643263D01*
X43393263Y-70483082D01*
X43519116Y-70294729D01*
X43605806Y-70085443D01*
X43650000Y-69863265D01*
X43650000Y-69636735D01*
X43605806Y-69414557D01*
X43519116Y-69205271D01*
X43393263Y-69016918D01*
X43233082Y-68856737D01*
X43044729Y-68730884D01*
X42835443Y-68644194D01*
X42613265Y-68600000D01*
X42386735Y-68600000D01*
X42164557Y-68644194D01*
X41955271Y-68730884D01*
X41766918Y-68856737D01*
X41606737Y-69016918D01*
X41480884Y-69205271D01*
X41394194Y-69414557D01*
X41350000Y-69636735D01*
X31650000Y-69636735D01*
X31650000Y-66636735D01*
X41350000Y-66636735D01*
X41350000Y-66863265D01*
X41394194Y-67085443D01*
X41480884Y-67294729D01*
X41606737Y-67483082D01*
X41766918Y-67643263D01*
X41955271Y-67769116D01*
X42164557Y-67855806D01*
X42386735Y-67900000D01*
X42613265Y-67900000D01*
X42835443Y-67855806D01*
X43044729Y-67769116D01*
X43233082Y-67643263D01*
X43393263Y-67483082D01*
X43519116Y-67294729D01*
X43605806Y-67085443D01*
X43650000Y-66863265D01*
X43650000Y-66636735D01*
X43605806Y-66414557D01*
X43519116Y-66205271D01*
X43393263Y-66016918D01*
X43233082Y-65856737D01*
X43044729Y-65730884D01*
X42835443Y-65644194D01*
X42613265Y-65600000D01*
X42386735Y-65600000D01*
X42164557Y-65644194D01*
X41955271Y-65730884D01*
X41766918Y-65856737D01*
X41606737Y-66016918D01*
X41480884Y-66205271D01*
X41394194Y-66414557D01*
X41350000Y-66636735D01*
X31650000Y-66636735D01*
X31650000Y-65592414D01*
X46750000Y-65592414D01*
X46750000Y-65907586D01*
X46811487Y-66216703D01*
X46932098Y-66507884D01*
X47107199Y-66769941D01*
X47330059Y-66992801D01*
X47340833Y-67000000D01*
X47330059Y-67007199D01*
X47107199Y-67230059D01*
X46932098Y-67492116D01*
X46811487Y-67783297D01*
X46750000Y-68092414D01*
X46750000Y-68407586D01*
X46811487Y-68716703D01*
X46932098Y-69007884D01*
X47107199Y-69269941D01*
X47330059Y-69492801D01*
X47340833Y-69500000D01*
X47330059Y-69507199D01*
X47107199Y-69730059D01*
X46932098Y-69992116D01*
X46811487Y-70283297D01*
X46750000Y-70592414D01*
X46750000Y-70907586D01*
X46811487Y-71216703D01*
X46932098Y-71507884D01*
X47107199Y-71769941D01*
X47330059Y-71992801D01*
X47592116Y-72167902D01*
X47883297Y-72288513D01*
X48192414Y-72350000D01*
X48507586Y-72350000D01*
X48816703Y-72288513D01*
X49107884Y-72167902D01*
X49369941Y-71992801D01*
X49592801Y-71769941D01*
X49767902Y-71507884D01*
X49888513Y-71216703D01*
X49950000Y-70907586D01*
X49950000Y-70592414D01*
X49888513Y-70283297D01*
X49767902Y-69992116D01*
X49592801Y-69730059D01*
X49369941Y-69507199D01*
X49359167Y-69500000D01*
X49369941Y-69492801D01*
X49592801Y-69269941D01*
X49767902Y-69007884D01*
X49888513Y-68716703D01*
X49950000Y-68407586D01*
X49950000Y-68092414D01*
X49888513Y-67783297D01*
X49767902Y-67492116D01*
X49592801Y-67230059D01*
X49369941Y-67007199D01*
X49359167Y-67000000D01*
X49369941Y-66992801D01*
X49592801Y-66769941D01*
X49767902Y-66507884D01*
X49888513Y-66216703D01*
X49950000Y-65907586D01*
X49950000Y-65592414D01*
X50050000Y-65592414D01*
X50050000Y-65907586D01*
X50111487Y-66216703D01*
X50232098Y-66507884D01*
X50407199Y-66769941D01*
X50630059Y-66992801D01*
X50640833Y-67000000D01*
X50630059Y-67007199D01*
X50407199Y-67230059D01*
X50232098Y-67492116D01*
X50111487Y-67783297D01*
X50050000Y-68092414D01*
X50050000Y-68407586D01*
X50111487Y-68716703D01*
X50232098Y-69007884D01*
X50407199Y-69269941D01*
X50630059Y-69492801D01*
X50640833Y-69500000D01*
X50630059Y-69507199D01*
X50407199Y-69730059D01*
X50232098Y-69992116D01*
X50111487Y-70283297D01*
X50050000Y-70592414D01*
X50050000Y-70907586D01*
X50111487Y-71216703D01*
X50232098Y-71507884D01*
X50407199Y-71769941D01*
X50630059Y-71992801D01*
X50892116Y-72167902D01*
X51183297Y-72288513D01*
X51492414Y-72350000D01*
X51807586Y-72350000D01*
X52116703Y-72288513D01*
X52407884Y-72167902D01*
X52669941Y-71992801D01*
X52892801Y-71769941D01*
X52932959Y-71709840D01*
X54708046Y-71709840D01*
X54819825Y-71910000D01*
X55810000Y-71910000D01*
X55810000Y-70918676D01*
X56110000Y-70918676D01*
X56110000Y-71910000D01*
X56130000Y-71910000D01*
X56130000Y-72210000D01*
X56110000Y-72210000D01*
X56110000Y-73201324D01*
X56310161Y-73311960D01*
X56547678Y-73219591D01*
X56762611Y-73082659D01*
X56946700Y-72906427D01*
X57092871Y-72697668D01*
X57195506Y-72464403D01*
X57211954Y-72410160D01*
X57100176Y-72210002D01*
X57204369Y-72210002D01*
X57249958Y-72439196D01*
X57347955Y-72675781D01*
X57490224Y-72888702D01*
X57671298Y-73069776D01*
X57884219Y-73212045D01*
X58120804Y-73310042D01*
X58371961Y-73360000D01*
X58628039Y-73360000D01*
X58879196Y-73310042D01*
X59115781Y-73212045D01*
X59328702Y-73069776D01*
X59509776Y-72888702D01*
X59652045Y-72675781D01*
X59750042Y-72439196D01*
X59770000Y-72338860D01*
X59789958Y-72439196D01*
X59887955Y-72675781D01*
X60030224Y-72888702D01*
X60211298Y-73069776D01*
X60424219Y-73212045D01*
X60660804Y-73310042D01*
X60911961Y-73360000D01*
X61168039Y-73360000D01*
X61419196Y-73310042D01*
X61655781Y-73212045D01*
X61868702Y-73069776D01*
X62049776Y-72888702D01*
X62192045Y-72675781D01*
X62290042Y-72439196D01*
X62297538Y-72401509D01*
X64710000Y-72401509D01*
X64710000Y-72598491D01*
X64748429Y-72791689D01*
X64823811Y-72973678D01*
X64933249Y-73137463D01*
X65072537Y-73276751D01*
X65236322Y-73386189D01*
X65418311Y-73461571D01*
X65611509Y-73500000D01*
X65808491Y-73500000D01*
X66001689Y-73461571D01*
X66183678Y-73386189D01*
X66347463Y-73276751D01*
X66486751Y-73137463D01*
X66596189Y-72973678D01*
X66671571Y-72791689D01*
X66710000Y-72598491D01*
X66710000Y-72401509D01*
X69790000Y-72401509D01*
X69790000Y-72598491D01*
X69828429Y-72791689D01*
X69903811Y-72973678D01*
X70013249Y-73137463D01*
X70152537Y-73276751D01*
X70316322Y-73386189D01*
X70498311Y-73461571D01*
X70691509Y-73500000D01*
X70888491Y-73500000D01*
X71081689Y-73461571D01*
X71263678Y-73386189D01*
X71427463Y-73276751D01*
X71566751Y-73137463D01*
X71676189Y-72973678D01*
X71751571Y-72791689D01*
X71790000Y-72598491D01*
X71790000Y-72401509D01*
X71751571Y-72208311D01*
X71676189Y-72026322D01*
X71566751Y-71862537D01*
X71427463Y-71723249D01*
X71263678Y-71613811D01*
X71081689Y-71538429D01*
X70888491Y-71500000D01*
X70691509Y-71500000D01*
X70498311Y-71538429D01*
X70316322Y-71613811D01*
X70152537Y-71723249D01*
X70013249Y-71862537D01*
X69903811Y-72026322D01*
X69828429Y-72208311D01*
X69790000Y-72401509D01*
X66710000Y-72401509D01*
X66671571Y-72208311D01*
X66596189Y-72026322D01*
X66486751Y-71862537D01*
X66347463Y-71723249D01*
X66183678Y-71613811D01*
X66001689Y-71538429D01*
X65808491Y-71500000D01*
X65611509Y-71500000D01*
X65418311Y-71538429D01*
X65236322Y-71613811D01*
X65072537Y-71723249D01*
X64933249Y-71862537D01*
X64823811Y-72026322D01*
X64748429Y-72208311D01*
X64710000Y-72401509D01*
X62297538Y-72401509D01*
X62340000Y-72188039D01*
X62340000Y-71931961D01*
X62290042Y-71680804D01*
X62192045Y-71444219D01*
X62049776Y-71231298D01*
X61868702Y-71050224D01*
X61655781Y-70907955D01*
X61419196Y-70809958D01*
X61168039Y-70760000D01*
X60911961Y-70760000D01*
X60660804Y-70809958D01*
X60424219Y-70907955D01*
X60211298Y-71050224D01*
X60030224Y-71231298D01*
X59887955Y-71444219D01*
X59789958Y-71680804D01*
X59770000Y-71781140D01*
X59750042Y-71680804D01*
X59652045Y-71444219D01*
X59509776Y-71231298D01*
X59328702Y-71050224D01*
X59115781Y-70907955D01*
X58879196Y-70809958D01*
X58628039Y-70760000D01*
X58371961Y-70760000D01*
X58120804Y-70809958D01*
X57884219Y-70907955D01*
X57671298Y-71050224D01*
X57490224Y-71231298D01*
X57347955Y-71444219D01*
X57249958Y-71680804D01*
X57204369Y-71909998D01*
X57100176Y-71909998D01*
X57211954Y-71709840D01*
X57195506Y-71655597D01*
X57092871Y-71422332D01*
X56946700Y-71213573D01*
X56762611Y-71037341D01*
X56547678Y-70900409D01*
X56310161Y-70808040D01*
X56110000Y-70918676D01*
X55810000Y-70918676D01*
X55609839Y-70808040D01*
X55372322Y-70900409D01*
X55157389Y-71037341D01*
X54973300Y-71213573D01*
X54827129Y-71422332D01*
X54724494Y-71655597D01*
X54708046Y-71709840D01*
X52932959Y-71709840D01*
X53067902Y-71507884D01*
X53188513Y-71216703D01*
X53250000Y-70907586D01*
X53250000Y-70592414D01*
X53188513Y-70283297D01*
X53067902Y-69992116D01*
X52892801Y-69730059D01*
X52669941Y-69507199D01*
X52659167Y-69500000D01*
X52669941Y-69492801D01*
X52892801Y-69269941D01*
X53067902Y-69007884D01*
X53111963Y-68901509D01*
X64710000Y-68901509D01*
X64710000Y-69098491D01*
X64748429Y-69291689D01*
X64823811Y-69473678D01*
X64933249Y-69637463D01*
X65072537Y-69776751D01*
X65236322Y-69886189D01*
X65418311Y-69961571D01*
X65611509Y-70000000D01*
X65808491Y-70000000D01*
X66001689Y-69961571D01*
X66183678Y-69886189D01*
X66347463Y-69776751D01*
X66486751Y-69637463D01*
X66596189Y-69473678D01*
X66671571Y-69291689D01*
X66710000Y-69098491D01*
X66710000Y-68901509D01*
X69790000Y-68901509D01*
X69790000Y-69098491D01*
X69828429Y-69291689D01*
X69903811Y-69473678D01*
X70013249Y-69637463D01*
X70152537Y-69776751D01*
X70316322Y-69886189D01*
X70498311Y-69961571D01*
X70691509Y-70000000D01*
X70888491Y-70000000D01*
X71081689Y-69961571D01*
X71263678Y-69886189D01*
X71427463Y-69776751D01*
X71566751Y-69637463D01*
X71676189Y-69473678D01*
X71751571Y-69291689D01*
X71790000Y-69098491D01*
X71790000Y-68901509D01*
X71751571Y-68708311D01*
X71676189Y-68526322D01*
X71566751Y-68362537D01*
X71427463Y-68223249D01*
X71263678Y-68113811D01*
X71081689Y-68038429D01*
X70888491Y-68000000D01*
X70691509Y-68000000D01*
X70498311Y-68038429D01*
X70316322Y-68113811D01*
X70152537Y-68223249D01*
X70013249Y-68362537D01*
X69903811Y-68526322D01*
X69828429Y-68708311D01*
X69790000Y-68901509D01*
X66710000Y-68901509D01*
X66671571Y-68708311D01*
X66596189Y-68526322D01*
X66486751Y-68362537D01*
X66347463Y-68223249D01*
X66183678Y-68113811D01*
X66001689Y-68038429D01*
X65808491Y-68000000D01*
X65611509Y-68000000D01*
X65418311Y-68038429D01*
X65236322Y-68113811D01*
X65072537Y-68223249D01*
X64933249Y-68362537D01*
X64823811Y-68526322D01*
X64748429Y-68708311D01*
X64710000Y-68901509D01*
X53111963Y-68901509D01*
X53188513Y-68716703D01*
X53250000Y-68407586D01*
X53250000Y-68092414D01*
X53215314Y-67918032D01*
X74378342Y-67918032D01*
X74474180Y-68185299D01*
X74619339Y-68408528D01*
X74805259Y-68599148D01*
X75024795Y-68749835D01*
X75211697Y-68830000D01*
X75024795Y-68910165D01*
X74805259Y-69060852D01*
X74619339Y-69251472D01*
X74474180Y-69474701D01*
X74378342Y-69741968D01*
X74489412Y-69950000D01*
X76030000Y-69950000D01*
X76030000Y-67710000D01*
X76330000Y-67710000D01*
X76330000Y-69950000D01*
X77870588Y-69950000D01*
X77981658Y-69741968D01*
X77885820Y-69474701D01*
X77740661Y-69251472D01*
X77554741Y-69060852D01*
X77335205Y-68910165D01*
X77148303Y-68830000D01*
X77335205Y-68749835D01*
X77554741Y-68599148D01*
X77740661Y-68408528D01*
X77885820Y-68185299D01*
X77981658Y-67918032D01*
X77870588Y-67710000D01*
X76330000Y-67710000D01*
X76030000Y-67710000D01*
X74489412Y-67710000D01*
X74378342Y-67918032D01*
X53215314Y-67918032D01*
X53188513Y-67783297D01*
X53067902Y-67492116D01*
X52892801Y-67230059D01*
X52669941Y-67007199D01*
X52659167Y-67000000D01*
X52669941Y-66992801D01*
X52892801Y-66769941D01*
X53067902Y-66507884D01*
X53188513Y-66216703D01*
X53250000Y-65907586D01*
X53250000Y-65592414D01*
X53188513Y-65283297D01*
X53067902Y-64992116D01*
X52932960Y-64790160D01*
X54708046Y-64790160D01*
X54724494Y-64844403D01*
X54827129Y-65077668D01*
X54973300Y-65286427D01*
X55157389Y-65462659D01*
X55372322Y-65599591D01*
X55609839Y-65691960D01*
X55810000Y-65581324D01*
X55810000Y-64590000D01*
X54819825Y-64590000D01*
X54708046Y-64790160D01*
X52932960Y-64790160D01*
X52892801Y-64730059D01*
X52669941Y-64507199D01*
X52407884Y-64332098D01*
X52116703Y-64211487D01*
X51807586Y-64150000D01*
X51492414Y-64150000D01*
X51183297Y-64211487D01*
X50892116Y-64332098D01*
X50630059Y-64507199D01*
X50407199Y-64730059D01*
X50232098Y-64992116D01*
X50111487Y-65283297D01*
X50050000Y-65592414D01*
X49950000Y-65592414D01*
X49888513Y-65283297D01*
X49767902Y-64992116D01*
X49592801Y-64730059D01*
X49369941Y-64507199D01*
X49107884Y-64332098D01*
X48816703Y-64211487D01*
X48507586Y-64150000D01*
X48192414Y-64150000D01*
X47883297Y-64211487D01*
X47592116Y-64332098D01*
X47330059Y-64507199D01*
X47107199Y-64730059D01*
X46932098Y-64992116D01*
X46811487Y-65283297D01*
X46750000Y-65592414D01*
X31650000Y-65592414D01*
X31650000Y-64136735D01*
X41350000Y-64136735D01*
X41350000Y-64363265D01*
X41394194Y-64585443D01*
X41480884Y-64794729D01*
X41606737Y-64983082D01*
X41766918Y-65143263D01*
X41955271Y-65269116D01*
X42164557Y-65355806D01*
X42386735Y-65400000D01*
X42613265Y-65400000D01*
X42835443Y-65355806D01*
X43044729Y-65269116D01*
X43233082Y-65143263D01*
X43393263Y-64983082D01*
X43519116Y-64794729D01*
X43605806Y-64585443D01*
X43650000Y-64363265D01*
X43650000Y-64136735D01*
X43640672Y-64089840D01*
X54708046Y-64089840D01*
X54819825Y-64290000D01*
X55810000Y-64290000D01*
X55810000Y-63298676D01*
X56110000Y-63298676D01*
X56110000Y-64290000D01*
X56130000Y-64290000D01*
X56130000Y-64590000D01*
X56110000Y-64590000D01*
X56110000Y-65581324D01*
X56310161Y-65691960D01*
X56547678Y-65599591D01*
X56762611Y-65462659D01*
X56946700Y-65286427D01*
X57092871Y-65077668D01*
X57195506Y-64844403D01*
X57211954Y-64790160D01*
X57100176Y-64590002D01*
X57204369Y-64590002D01*
X57249958Y-64819196D01*
X57347955Y-65055781D01*
X57490224Y-65268702D01*
X57671298Y-65449776D01*
X57884219Y-65592045D01*
X58120804Y-65690042D01*
X58371961Y-65740000D01*
X58628039Y-65740000D01*
X58879196Y-65690042D01*
X59115781Y-65592045D01*
X59328702Y-65449776D01*
X59509776Y-65268702D01*
X59652045Y-65055781D01*
X59750042Y-64819196D01*
X59770000Y-64718860D01*
X59789958Y-64819196D01*
X59887955Y-65055781D01*
X60030224Y-65268702D01*
X60211298Y-65449776D01*
X60424219Y-65592045D01*
X60660804Y-65690042D01*
X60911961Y-65740000D01*
X61168039Y-65740000D01*
X61419196Y-65690042D01*
X61655781Y-65592045D01*
X61868702Y-65449776D01*
X61916969Y-65401509D01*
X64710000Y-65401509D01*
X64710000Y-65598491D01*
X64748429Y-65791689D01*
X64823811Y-65973678D01*
X64933249Y-66137463D01*
X65072537Y-66276751D01*
X65236322Y-66386189D01*
X65418311Y-66461571D01*
X65611509Y-66500000D01*
X65808491Y-66500000D01*
X66001689Y-66461571D01*
X66183678Y-66386189D01*
X66347463Y-66276751D01*
X66486751Y-66137463D01*
X66596189Y-65973678D01*
X66671571Y-65791689D01*
X66710000Y-65598491D01*
X66710000Y-65401509D01*
X69790000Y-65401509D01*
X69790000Y-65598491D01*
X69828429Y-65791689D01*
X69903811Y-65973678D01*
X70013249Y-66137463D01*
X70152537Y-66276751D01*
X70316322Y-66386189D01*
X70498311Y-66461571D01*
X70691509Y-66500000D01*
X70888491Y-66500000D01*
X71081689Y-66461571D01*
X71263678Y-66386189D01*
X71427463Y-66276751D01*
X71566751Y-66137463D01*
X71676189Y-65973678D01*
X71751571Y-65791689D01*
X71790000Y-65598491D01*
X71790000Y-65401509D01*
X71751571Y-65208311D01*
X71676189Y-65026322D01*
X71566751Y-64862537D01*
X71427463Y-64723249D01*
X71263678Y-64613811D01*
X71081689Y-64538429D01*
X70888491Y-64500000D01*
X70691509Y-64500000D01*
X70498311Y-64538429D01*
X70316322Y-64613811D01*
X70152537Y-64723249D01*
X70013249Y-64862537D01*
X69903811Y-65026322D01*
X69828429Y-65208311D01*
X69790000Y-65401509D01*
X66710000Y-65401509D01*
X66671571Y-65208311D01*
X66596189Y-65026322D01*
X66486751Y-64862537D01*
X66347463Y-64723249D01*
X66183678Y-64613811D01*
X66001689Y-64538429D01*
X65808491Y-64500000D01*
X65611509Y-64500000D01*
X65418311Y-64538429D01*
X65236322Y-64613811D01*
X65072537Y-64723249D01*
X64933249Y-64862537D01*
X64823811Y-65026322D01*
X64748429Y-65208311D01*
X64710000Y-65401509D01*
X61916969Y-65401509D01*
X62049776Y-65268702D01*
X62192045Y-65055781D01*
X62290042Y-64819196D01*
X62340000Y-64568039D01*
X62340000Y-64311961D01*
X62290042Y-64060804D01*
X62192045Y-63824219D01*
X62049776Y-63611298D01*
X61868702Y-63430224D01*
X61655781Y-63287955D01*
X61419196Y-63189958D01*
X61168039Y-63140000D01*
X60911961Y-63140000D01*
X60660804Y-63189958D01*
X60424219Y-63287955D01*
X60211298Y-63430224D01*
X60030224Y-63611298D01*
X59887955Y-63824219D01*
X59789958Y-64060804D01*
X59770000Y-64161140D01*
X59750042Y-64060804D01*
X59652045Y-63824219D01*
X59509776Y-63611298D01*
X59328702Y-63430224D01*
X59115781Y-63287955D01*
X58879196Y-63189958D01*
X58628039Y-63140000D01*
X58371961Y-63140000D01*
X58120804Y-63189958D01*
X57884219Y-63287955D01*
X57671298Y-63430224D01*
X57490224Y-63611298D01*
X57347955Y-63824219D01*
X57249958Y-64060804D01*
X57204369Y-64289998D01*
X57100176Y-64289998D01*
X57211954Y-64089840D01*
X57195506Y-64035597D01*
X57092871Y-63802332D01*
X56946700Y-63593573D01*
X56762611Y-63417341D01*
X56547678Y-63280409D01*
X56310161Y-63188040D01*
X56110000Y-63298676D01*
X55810000Y-63298676D01*
X55609839Y-63188040D01*
X55372322Y-63280409D01*
X55157389Y-63417341D01*
X54973300Y-63593573D01*
X54827129Y-63802332D01*
X54724494Y-64035597D01*
X54708046Y-64089840D01*
X43640672Y-64089840D01*
X43605806Y-63914557D01*
X43519116Y-63705271D01*
X43393263Y-63516918D01*
X43233082Y-63356737D01*
X43044729Y-63230884D01*
X42835443Y-63144194D01*
X42613265Y-63100000D01*
X42386735Y-63100000D01*
X42164557Y-63144194D01*
X41955271Y-63230884D01*
X41766918Y-63356737D01*
X41606737Y-63516918D01*
X41480884Y-63705271D01*
X41394194Y-63914557D01*
X41350000Y-64136735D01*
X31650000Y-64136735D01*
X31650000Y-61636735D01*
X36350000Y-61636735D01*
X36350000Y-61863265D01*
X36394194Y-62085443D01*
X36480884Y-62294729D01*
X36606737Y-62483082D01*
X36766918Y-62643263D01*
X36955271Y-62769116D01*
X37164557Y-62855806D01*
X37386735Y-62900000D01*
X37613265Y-62900000D01*
X37835443Y-62855806D01*
X38044729Y-62769116D01*
X38233082Y-62643263D01*
X38393263Y-62483082D01*
X38519116Y-62294729D01*
X38605806Y-62085443D01*
X38642392Y-61901509D01*
X64710000Y-61901509D01*
X64710000Y-62098491D01*
X64748429Y-62291689D01*
X64823811Y-62473678D01*
X64933249Y-62637463D01*
X65072537Y-62776751D01*
X65236322Y-62886189D01*
X65418311Y-62961571D01*
X65611509Y-63000000D01*
X65808491Y-63000000D01*
X66001689Y-62961571D01*
X66183678Y-62886189D01*
X66347463Y-62776751D01*
X66486751Y-62637463D01*
X66596189Y-62473678D01*
X66671571Y-62291689D01*
X66710000Y-62098491D01*
X66710000Y-61901509D01*
X69790000Y-61901509D01*
X69790000Y-62098491D01*
X69828429Y-62291689D01*
X69903811Y-62473678D01*
X70013249Y-62637463D01*
X70152537Y-62776751D01*
X70316322Y-62886189D01*
X70498311Y-62961571D01*
X70691509Y-63000000D01*
X70888491Y-63000000D01*
X71081689Y-62961571D01*
X71263678Y-62886189D01*
X71427463Y-62776751D01*
X71566751Y-62637463D01*
X71676189Y-62473678D01*
X71751571Y-62291689D01*
X71790000Y-62098491D01*
X71790000Y-61901509D01*
X71751571Y-61708311D01*
X71676189Y-61526322D01*
X71566751Y-61362537D01*
X71427463Y-61223249D01*
X71263678Y-61113811D01*
X71081689Y-61038429D01*
X70888491Y-61000000D01*
X70691509Y-61000000D01*
X70498311Y-61038429D01*
X70316322Y-61113811D01*
X70152537Y-61223249D01*
X70013249Y-61362537D01*
X69903811Y-61526322D01*
X69828429Y-61708311D01*
X69790000Y-61901509D01*
X66710000Y-61901509D01*
X66671571Y-61708311D01*
X66596189Y-61526322D01*
X66486751Y-61362537D01*
X66347463Y-61223249D01*
X66183678Y-61113811D01*
X66001689Y-61038429D01*
X65808491Y-61000000D01*
X65611509Y-61000000D01*
X65418311Y-61038429D01*
X65236322Y-61113811D01*
X65072537Y-61223249D01*
X64933249Y-61362537D01*
X64823811Y-61526322D01*
X64748429Y-61708311D01*
X64710000Y-61901509D01*
X38642392Y-61901509D01*
X38650000Y-61863265D01*
X38650000Y-61636735D01*
X38605806Y-61414557D01*
X38519116Y-61205271D01*
X38393263Y-61016918D01*
X38233082Y-60856737D01*
X38044729Y-60730884D01*
X37835443Y-60644194D01*
X37613265Y-60600000D01*
X37386735Y-60600000D01*
X37164557Y-60644194D01*
X36955271Y-60730884D01*
X36766918Y-60856737D01*
X36606737Y-61016918D01*
X36480884Y-61205271D01*
X36394194Y-61414557D01*
X36350000Y-61636735D01*
X31650000Y-61636735D01*
X31650000Y-59136735D01*
X41350000Y-59136735D01*
X41350000Y-59363265D01*
X41394194Y-59585443D01*
X41480884Y-59794729D01*
X41606737Y-59983082D01*
X41766918Y-60143263D01*
X41955271Y-60269116D01*
X42164557Y-60355806D01*
X42386735Y-60400000D01*
X42613265Y-60400000D01*
X42835443Y-60355806D01*
X43044729Y-60269116D01*
X43233082Y-60143263D01*
X43393263Y-59983082D01*
X43519116Y-59794729D01*
X43605806Y-59585443D01*
X43650000Y-59363265D01*
X43650000Y-59136735D01*
X43605806Y-58914557D01*
X43519116Y-58705271D01*
X43393263Y-58516918D01*
X43313532Y-58437187D01*
X52800000Y-58437187D01*
X52800000Y-58722813D01*
X52855723Y-59002949D01*
X52965027Y-59266833D01*
X53123711Y-59504321D01*
X53325679Y-59706289D01*
X53563167Y-59864973D01*
X53827051Y-59974277D01*
X54107187Y-60030000D01*
X54392813Y-60030000D01*
X54672949Y-59974277D01*
X54936833Y-59864973D01*
X55174321Y-59706289D01*
X55376289Y-59504321D01*
X55534973Y-59266833D01*
X55644277Y-59002949D01*
X55700000Y-58722813D01*
X55700000Y-58437187D01*
X55644277Y-58157051D01*
X55534973Y-57893167D01*
X55376289Y-57655679D01*
X55174321Y-57453711D01*
X54936833Y-57295027D01*
X54672949Y-57185723D01*
X54392813Y-57130000D01*
X54107187Y-57130000D01*
X53827051Y-57185723D01*
X53563167Y-57295027D01*
X53325679Y-57453711D01*
X53123711Y-57655679D01*
X52965027Y-57893167D01*
X52855723Y-58157051D01*
X52800000Y-58437187D01*
X43313532Y-58437187D01*
X43233082Y-58356737D01*
X43044729Y-58230884D01*
X42835443Y-58144194D01*
X42613265Y-58100000D01*
X42386735Y-58100000D01*
X42164557Y-58144194D01*
X41955271Y-58230884D01*
X41766918Y-58356737D01*
X41606737Y-58516918D01*
X41480884Y-58705271D01*
X41394194Y-58914557D01*
X41350000Y-59136735D01*
X31650000Y-59136735D01*
X31650000Y-56636735D01*
X41350000Y-56636735D01*
X41350000Y-56863265D01*
X41394194Y-57085443D01*
X41480884Y-57294729D01*
X41606737Y-57483082D01*
X41766918Y-57643263D01*
X41955271Y-57769116D01*
X42164557Y-57855806D01*
X42386735Y-57900000D01*
X42613265Y-57900000D01*
X42835443Y-57855806D01*
X43044729Y-57769116D01*
X43233082Y-57643263D01*
X43393263Y-57483082D01*
X43519116Y-57294729D01*
X43605806Y-57085443D01*
X43650000Y-56863265D01*
X43650000Y-56636735D01*
X43605806Y-56414557D01*
X43519116Y-56205271D01*
X43393263Y-56016918D01*
X43233082Y-55856737D01*
X43044729Y-55730884D01*
X42835443Y-55644194D01*
X42613265Y-55600000D01*
X42386735Y-55600000D01*
X42164557Y-55644194D01*
X41955271Y-55730884D01*
X41766918Y-55856737D01*
X41606737Y-56016918D01*
X41480884Y-56205271D01*
X41394194Y-56414557D01*
X41350000Y-56636735D01*
X31650000Y-56636735D01*
X31650000Y-53369874D01*
X38810825Y-53369874D01*
X38898122Y-53694663D01*
X39121696Y-54175319D01*
X39434745Y-54603122D01*
X39825239Y-54961632D01*
X40278172Y-55237072D01*
X40776138Y-55418857D01*
X41300000Y-55500000D01*
X41800000Y-55500000D01*
X41800000Y-52950000D01*
X42100000Y-52950000D01*
X42100000Y-55500000D01*
X42600000Y-55500000D01*
X43123862Y-55418857D01*
X43621828Y-55237072D01*
X44074761Y-54961632D01*
X44465255Y-54603122D01*
X44778304Y-54175319D01*
X44898793Y-53916282D01*
X48900000Y-53916282D01*
X48900000Y-54083718D01*
X48932665Y-54247936D01*
X48996740Y-54402626D01*
X49089762Y-54541844D01*
X49208156Y-54660238D01*
X49342495Y-54750000D01*
X49208156Y-54839762D01*
X49089762Y-54958156D01*
X48996740Y-55097374D01*
X48932665Y-55252064D01*
X48900000Y-55416282D01*
X48900000Y-55583718D01*
X48932665Y-55747936D01*
X48996740Y-55902626D01*
X49089762Y-56041844D01*
X49208156Y-56160238D01*
X49347374Y-56253260D01*
X49502064Y-56317335D01*
X49666282Y-56350000D01*
X49833718Y-56350000D01*
X49997936Y-56317335D01*
X50152626Y-56253260D01*
X50291844Y-56160238D01*
X50410238Y-56041844D01*
X50503260Y-55902626D01*
X50567335Y-55747936D01*
X50600000Y-55583718D01*
X50600000Y-55416282D01*
X50567335Y-55252064D01*
X50503260Y-55097374D01*
X50410238Y-54958156D01*
X50291844Y-54839762D01*
X50157505Y-54750000D01*
X50291844Y-54660238D01*
X50410238Y-54541844D01*
X50503260Y-54402626D01*
X50567335Y-54247936D01*
X50600000Y-54083718D01*
X50600000Y-53916282D01*
X50567335Y-53752064D01*
X50503260Y-53597374D01*
X50410238Y-53458156D01*
X50291844Y-53339762D01*
X50152626Y-53246740D01*
X49997936Y-53182665D01*
X49833718Y-53150000D01*
X49666282Y-53150000D01*
X49502064Y-53182665D01*
X49347374Y-53246740D01*
X49208156Y-53339762D01*
X49089762Y-53458156D01*
X48996740Y-53597374D01*
X48932665Y-53752064D01*
X48900000Y-53916282D01*
X44898793Y-53916282D01*
X45001878Y-53694663D01*
X45089175Y-53369874D01*
X44995584Y-52950000D01*
X42100000Y-52950000D01*
X41800000Y-52950000D01*
X38904416Y-52950000D01*
X38810825Y-53369874D01*
X31650000Y-53369874D01*
X31650000Y-52230126D01*
X38810825Y-52230126D01*
X38904416Y-52650000D01*
X41800000Y-52650000D01*
X41800000Y-50100000D01*
X42100000Y-50100000D01*
X42100000Y-52650000D01*
X44995584Y-52650000D01*
X45089175Y-52230126D01*
X45001878Y-51905337D01*
X44806415Y-51485115D01*
X45100000Y-51514031D01*
X45668499Y-51458039D01*
X46215151Y-51292214D01*
X46718949Y-51022928D01*
X47160531Y-50660531D01*
X47292275Y-50500000D01*
X56092259Y-50500000D01*
X56123151Y-50813655D01*
X56214641Y-51115256D01*
X56363212Y-51393213D01*
X56563155Y-51636845D01*
X56701035Y-51750000D01*
X56563155Y-51863155D01*
X56363212Y-52106787D01*
X56214641Y-52384744D01*
X56123151Y-52686345D01*
X56092259Y-53000000D01*
X56123151Y-53313655D01*
X56214641Y-53615256D01*
X56363212Y-53893213D01*
X56563155Y-54136845D01*
X56701035Y-54250000D01*
X56563155Y-54363155D01*
X56363212Y-54606787D01*
X56214641Y-54884744D01*
X56123151Y-55186345D01*
X56092259Y-55500000D01*
X56123151Y-55813655D01*
X56214641Y-56115256D01*
X56363212Y-56393213D01*
X56563155Y-56636845D01*
X56806787Y-56836788D01*
X57084744Y-56985359D01*
X57386345Y-57076849D01*
X57621403Y-57100000D01*
X58378597Y-57100000D01*
X58613655Y-57076849D01*
X58915256Y-56985359D01*
X59193213Y-56836788D01*
X59436845Y-56636845D01*
X59636788Y-56393213D01*
X59785359Y-56115256D01*
X59876849Y-55813655D01*
X59907741Y-55500000D01*
X59876849Y-55186345D01*
X59852837Y-55107187D01*
X61720000Y-55107187D01*
X61720000Y-55392813D01*
X61775723Y-55672949D01*
X61885027Y-55936833D01*
X62043711Y-56174321D01*
X62245679Y-56376289D01*
X62483167Y-56534973D01*
X62700512Y-56625000D01*
X62483167Y-56715027D01*
X62245679Y-56873711D01*
X62043711Y-57075679D01*
X61885027Y-57313167D01*
X61775723Y-57577051D01*
X61720000Y-57857187D01*
X61720000Y-58142813D01*
X61775723Y-58422949D01*
X61885027Y-58686833D01*
X62043711Y-58924321D01*
X62245679Y-59126289D01*
X62483167Y-59284973D01*
X62747051Y-59394277D01*
X63027187Y-59450000D01*
X63312813Y-59450000D01*
X63592949Y-59394277D01*
X63856833Y-59284973D01*
X64094321Y-59126289D01*
X64296289Y-58924321D01*
X64454973Y-58686833D01*
X64564277Y-58422949D01*
X64620000Y-58142813D01*
X64620000Y-57857187D01*
X71880000Y-57857187D01*
X71880000Y-58142813D01*
X71935723Y-58422949D01*
X72045027Y-58686833D01*
X72203711Y-58924321D01*
X72405679Y-59126289D01*
X72643167Y-59284973D01*
X72907051Y-59394277D01*
X73187187Y-59450000D01*
X73472813Y-59450000D01*
X73752949Y-59394277D01*
X74016833Y-59284973D01*
X74254321Y-59126289D01*
X74456289Y-58924321D01*
X74614973Y-58686833D01*
X74724277Y-58422949D01*
X74735319Y-58367440D01*
X74805259Y-58439148D01*
X75024795Y-58589835D01*
X75213489Y-58670769D01*
X75160878Y-58686728D01*
X74926351Y-58812085D01*
X74720787Y-58980787D01*
X74552085Y-59186351D01*
X74426728Y-59420878D01*
X74349533Y-59675354D01*
X74323468Y-59940000D01*
X74349533Y-60204646D01*
X74426728Y-60459122D01*
X74552085Y-60693649D01*
X74720787Y-60899213D01*
X74926351Y-61067915D01*
X75160878Y-61193272D01*
X75216022Y-61210000D01*
X75160878Y-61226728D01*
X74926351Y-61352085D01*
X74720787Y-61520787D01*
X74552085Y-61726351D01*
X74426728Y-61960878D01*
X74349533Y-62215354D01*
X74323468Y-62480000D01*
X74349533Y-62744646D01*
X74426728Y-62999122D01*
X74552085Y-63233649D01*
X74720787Y-63439213D01*
X74926351Y-63607915D01*
X75160878Y-63733272D01*
X75216022Y-63750000D01*
X75160878Y-63766728D01*
X74926351Y-63892085D01*
X74720787Y-64060787D01*
X74552085Y-64266351D01*
X74426728Y-64500878D01*
X74349533Y-64755354D01*
X74323468Y-65020000D01*
X74349533Y-65284646D01*
X74426728Y-65539122D01*
X74552085Y-65773649D01*
X74720787Y-65979213D01*
X74926351Y-66147915D01*
X75160878Y-66273272D01*
X75213489Y-66289231D01*
X75024795Y-66370165D01*
X74805259Y-66520852D01*
X74619339Y-66711472D01*
X74474180Y-66934701D01*
X74378342Y-67201968D01*
X74489412Y-67410000D01*
X76030000Y-67410000D01*
X76030000Y-67390000D01*
X76330000Y-67390000D01*
X76330000Y-67410000D01*
X77870588Y-67410000D01*
X77981658Y-67201968D01*
X77885820Y-66934701D01*
X77740661Y-66711472D01*
X77554741Y-66520852D01*
X77335205Y-66370165D01*
X77146511Y-66289231D01*
X77199122Y-66273272D01*
X77433649Y-66147915D01*
X77639213Y-65979213D01*
X77807915Y-65773649D01*
X77933272Y-65539122D01*
X78010467Y-65284646D01*
X78036532Y-65020000D01*
X78010467Y-64755354D01*
X77933272Y-64500878D01*
X77807915Y-64266351D01*
X77639213Y-64060787D01*
X77433649Y-63892085D01*
X77199122Y-63766728D01*
X77143978Y-63750000D01*
X77199122Y-63733272D01*
X77433649Y-63607915D01*
X77639213Y-63439213D01*
X77807915Y-63233649D01*
X77933272Y-62999122D01*
X78010467Y-62744646D01*
X78036532Y-62480000D01*
X78010467Y-62215354D01*
X77933272Y-61960878D01*
X77807915Y-61726351D01*
X77639213Y-61520787D01*
X77433649Y-61352085D01*
X77199122Y-61226728D01*
X77143978Y-61210000D01*
X77199122Y-61193272D01*
X77433649Y-61067915D01*
X77639213Y-60899213D01*
X77807915Y-60693649D01*
X77933272Y-60459122D01*
X78010467Y-60204646D01*
X78036532Y-59940000D01*
X78010467Y-59675354D01*
X77933272Y-59420878D01*
X77807915Y-59186351D01*
X77639213Y-58980787D01*
X77433649Y-58812085D01*
X77199122Y-58686728D01*
X77146511Y-58670769D01*
X77335205Y-58589835D01*
X77554741Y-58439148D01*
X77740661Y-58248528D01*
X77885820Y-58025299D01*
X77981658Y-57758032D01*
X77870588Y-57550000D01*
X76330000Y-57550000D01*
X76330000Y-57570000D01*
X76030000Y-57570000D01*
X76030000Y-57550000D01*
X76010000Y-57550000D01*
X76010000Y-57250000D01*
X76030000Y-57250000D01*
X76030000Y-57230000D01*
X76330000Y-57230000D01*
X76330000Y-57250000D01*
X77870588Y-57250000D01*
X77981658Y-57041968D01*
X77885820Y-56774701D01*
X77740661Y-56551472D01*
X77554741Y-56360852D01*
X77335205Y-56210165D01*
X77146511Y-56129231D01*
X77199122Y-56113272D01*
X77433649Y-55987915D01*
X77639213Y-55819213D01*
X77807915Y-55613649D01*
X77933272Y-55379122D01*
X78010467Y-55124646D01*
X78036532Y-54860000D01*
X78010467Y-54595354D01*
X77933272Y-54340878D01*
X77807915Y-54106351D01*
X77639213Y-53900787D01*
X77433649Y-53732085D01*
X77199122Y-53606728D01*
X77143978Y-53590000D01*
X77199122Y-53573272D01*
X77433649Y-53447915D01*
X77467664Y-53420000D01*
X78164366Y-53420000D01*
X79100001Y-54355636D01*
X79100000Y-62245964D01*
X79094678Y-62300000D01*
X79100000Y-62354034D01*
X79100001Y-73444364D01*
X78464366Y-74080000D01*
X77467664Y-74080000D01*
X77433649Y-74052085D01*
X77199122Y-73926728D01*
X77143978Y-73910000D01*
X77199122Y-73893272D01*
X77433649Y-73767915D01*
X77639213Y-73599213D01*
X77807915Y-73393649D01*
X77933272Y-73159122D01*
X78010467Y-72904646D01*
X78036532Y-72640000D01*
X78010467Y-72375354D01*
X77933272Y-72120878D01*
X77807915Y-71886351D01*
X77639213Y-71680787D01*
X77433649Y-71512085D01*
X77199122Y-71386728D01*
X77146511Y-71370769D01*
X77335205Y-71289835D01*
X77554741Y-71139148D01*
X77740661Y-70948528D01*
X77885820Y-70725299D01*
X77981658Y-70458032D01*
X77870588Y-70250000D01*
X76330000Y-70250000D01*
X76330000Y-70270000D01*
X76030000Y-70270000D01*
X76030000Y-70250000D01*
X74489412Y-70250000D01*
X74378342Y-70458032D01*
X74474180Y-70725299D01*
X74619339Y-70948528D01*
X74805259Y-71139148D01*
X75024795Y-71289835D01*
X75213489Y-71370769D01*
X75160878Y-71386728D01*
X74926351Y-71512085D01*
X74720787Y-71680787D01*
X74552085Y-71886351D01*
X74426728Y-72120878D01*
X74349533Y-72375354D01*
X74323468Y-72640000D01*
X74349533Y-72904646D01*
X74426728Y-73159122D01*
X74552085Y-73393649D01*
X74720787Y-73599213D01*
X74926351Y-73767915D01*
X75160878Y-73893272D01*
X75216022Y-73910000D01*
X75160878Y-73926728D01*
X74926351Y-74052085D01*
X74720787Y-74220787D01*
X74552085Y-74426351D01*
X74426728Y-74660878D01*
X74349533Y-74915354D01*
X74323468Y-75180000D01*
X74349533Y-75444646D01*
X74426728Y-75699122D01*
X74552085Y-75933649D01*
X74720787Y-76139213D01*
X74926351Y-76307915D01*
X75160878Y-76433272D01*
X75415354Y-76510467D01*
X75613679Y-76530000D01*
X76746321Y-76530000D01*
X76944646Y-76510467D01*
X77199122Y-76433272D01*
X77433649Y-76307915D01*
X77467664Y-76280000D01*
X78865966Y-76280000D01*
X78920000Y-76285322D01*
X78974034Y-76280000D01*
X78974036Y-76280000D01*
X79135638Y-76264084D01*
X79342988Y-76201184D01*
X79534084Y-76099042D01*
X79701581Y-75961581D01*
X79736033Y-75919601D01*
X80939606Y-74716029D01*
X80981581Y-74681581D01*
X81119042Y-74514084D01*
X81221184Y-74322988D01*
X81284084Y-74115638D01*
X81300000Y-73954036D01*
X81300000Y-73954035D01*
X81305322Y-73900001D01*
X81300000Y-73845967D01*
X81300000Y-63580000D01*
X82512336Y-63580000D01*
X82546351Y-63607915D01*
X82780878Y-63733272D01*
X82836022Y-63750000D01*
X82780878Y-63766728D01*
X82546351Y-63892085D01*
X82340787Y-64060787D01*
X82172085Y-64266351D01*
X82046728Y-64500878D01*
X81969533Y-64755354D01*
X81943468Y-65020000D01*
X81969533Y-65284646D01*
X82046728Y-65539122D01*
X82172085Y-65773649D01*
X82340787Y-65979213D01*
X82546351Y-66147915D01*
X82780878Y-66273272D01*
X82836022Y-66290000D01*
X82780878Y-66306728D01*
X82546351Y-66432085D01*
X82340787Y-66600787D01*
X82172085Y-66806351D01*
X82046728Y-67040878D01*
X81969533Y-67295354D01*
X81943468Y-67560000D01*
X81969533Y-67824646D01*
X82046728Y-68079122D01*
X82172085Y-68313649D01*
X82340787Y-68519213D01*
X82546351Y-68687915D01*
X82780878Y-68813272D01*
X82836022Y-68830000D01*
X82780878Y-68846728D01*
X82546351Y-68972085D01*
X82340787Y-69140787D01*
X82172085Y-69346351D01*
X82046728Y-69580878D01*
X81969533Y-69835354D01*
X81943468Y-70100000D01*
X81969533Y-70364646D01*
X82046728Y-70619122D01*
X82172085Y-70853649D01*
X82340787Y-71059213D01*
X82546351Y-71227915D01*
X82780878Y-71353272D01*
X82836022Y-71370000D01*
X82780878Y-71386728D01*
X82546351Y-71512085D01*
X82340787Y-71680787D01*
X82172085Y-71886351D01*
X82046728Y-72120878D01*
X81969533Y-72375354D01*
X81943468Y-72640000D01*
X81969533Y-72904646D01*
X82046728Y-73159122D01*
X82172085Y-73393649D01*
X82340787Y-73599213D01*
X82546351Y-73767915D01*
X82780878Y-73893272D01*
X82836022Y-73910000D01*
X82780878Y-73926728D01*
X82546351Y-74052085D01*
X82340787Y-74220787D01*
X82172085Y-74426351D01*
X82046728Y-74660878D01*
X81969533Y-74915354D01*
X81943468Y-75180000D01*
X81969533Y-75444646D01*
X82046728Y-75699122D01*
X82172085Y-75933649D01*
X82340787Y-76139213D01*
X82546351Y-76307915D01*
X82780878Y-76433272D01*
X83035354Y-76510467D01*
X83233679Y-76530000D01*
X84366321Y-76530000D01*
X84564646Y-76510467D01*
X84819122Y-76433272D01*
X85053649Y-76307915D01*
X85259213Y-76139213D01*
X85427915Y-75933649D01*
X85553272Y-75699122D01*
X85619284Y-75481509D01*
X87250000Y-75481509D01*
X87250000Y-75678491D01*
X87288429Y-75871689D01*
X87363811Y-76053678D01*
X87473249Y-76217463D01*
X87612537Y-76356751D01*
X87776322Y-76466189D01*
X87958311Y-76541571D01*
X88151509Y-76580000D01*
X88348491Y-76580000D01*
X88541689Y-76541571D01*
X88723678Y-76466189D01*
X88887463Y-76356751D01*
X89026751Y-76217463D01*
X89136189Y-76053678D01*
X89211571Y-75871689D01*
X89250000Y-75678491D01*
X89250000Y-75481509D01*
X89211571Y-75288311D01*
X89136189Y-75106322D01*
X89026751Y-74942537D01*
X88887463Y-74803249D01*
X88723678Y-74693811D01*
X88541689Y-74618429D01*
X88348491Y-74580000D01*
X88151509Y-74580000D01*
X87958311Y-74618429D01*
X87776322Y-74693811D01*
X87612537Y-74803249D01*
X87473249Y-74942537D01*
X87363811Y-75106322D01*
X87288429Y-75288311D01*
X87250000Y-75481509D01*
X85619284Y-75481509D01*
X85630467Y-75444646D01*
X85656532Y-75180000D01*
X85630467Y-74915354D01*
X85553272Y-74660878D01*
X85427915Y-74426351D01*
X85259213Y-74220787D01*
X85053649Y-74052085D01*
X84819122Y-73926728D01*
X84763978Y-73910000D01*
X84819122Y-73893272D01*
X85053649Y-73767915D01*
X85259213Y-73599213D01*
X85427915Y-73393649D01*
X85553272Y-73159122D01*
X85555581Y-73151509D01*
X91250000Y-73151509D01*
X91250000Y-73348491D01*
X91288429Y-73541689D01*
X91363811Y-73723678D01*
X91473249Y-73887463D01*
X91612537Y-74026751D01*
X91776322Y-74136189D01*
X91958311Y-74211571D01*
X92151509Y-74250000D01*
X92348491Y-74250000D01*
X92541689Y-74211571D01*
X92723678Y-74136189D01*
X92887463Y-74026751D01*
X93026751Y-73887463D01*
X93136189Y-73723678D01*
X93211571Y-73541689D01*
X93250000Y-73348491D01*
X93250000Y-73151509D01*
X96250000Y-73151509D01*
X96250000Y-73348491D01*
X96288429Y-73541689D01*
X96363811Y-73723678D01*
X96473249Y-73887463D01*
X96612537Y-74026751D01*
X96776322Y-74136189D01*
X96958311Y-74211571D01*
X97151509Y-74250000D01*
X97348491Y-74250000D01*
X97541689Y-74211571D01*
X97600557Y-74187187D01*
X99550000Y-74187187D01*
X99550000Y-74472813D01*
X99605723Y-74752949D01*
X99715027Y-75016833D01*
X99873711Y-75254321D01*
X100075679Y-75456289D01*
X100313167Y-75614973D01*
X100577051Y-75724277D01*
X100857187Y-75780000D01*
X101142813Y-75780000D01*
X101422949Y-75724277D01*
X101686833Y-75614973D01*
X101924321Y-75456289D01*
X102126289Y-75254321D01*
X102284973Y-75016833D01*
X102394277Y-74752949D01*
X102450000Y-74472813D01*
X102450000Y-74187187D01*
X102394277Y-73907051D01*
X102288429Y-73651509D01*
X114400000Y-73651509D01*
X114400000Y-73848491D01*
X114438429Y-74041689D01*
X114513811Y-74223678D01*
X114623249Y-74387463D01*
X114762537Y-74526751D01*
X114926322Y-74636189D01*
X115108311Y-74711571D01*
X115301509Y-74750000D01*
X115498491Y-74750000D01*
X115691689Y-74711571D01*
X115873678Y-74636189D01*
X116037463Y-74526751D01*
X116176751Y-74387463D01*
X116286189Y-74223678D01*
X116361571Y-74041689D01*
X116400000Y-73848491D01*
X116400000Y-73651509D01*
X116361571Y-73458311D01*
X116286189Y-73276322D01*
X116176751Y-73112537D01*
X116037463Y-72973249D01*
X115873678Y-72863811D01*
X115691689Y-72788429D01*
X115498491Y-72750000D01*
X115301509Y-72750000D01*
X115108311Y-72788429D01*
X114926322Y-72863811D01*
X114762537Y-72973249D01*
X114623249Y-73112537D01*
X114513811Y-73276322D01*
X114438429Y-73458311D01*
X114400000Y-73651509D01*
X102288429Y-73651509D01*
X102284973Y-73643167D01*
X102126289Y-73405679D01*
X101924321Y-73203711D01*
X101686833Y-73045027D01*
X101422949Y-72935723D01*
X101142813Y-72880000D01*
X100857187Y-72880000D01*
X100577051Y-72935723D01*
X100313167Y-73045027D01*
X100075679Y-73203711D01*
X99873711Y-73405679D01*
X99715027Y-73643167D01*
X99605723Y-73907051D01*
X99550000Y-74187187D01*
X97600557Y-74187187D01*
X97723678Y-74136189D01*
X97887463Y-74026751D01*
X98026751Y-73887463D01*
X98136189Y-73723678D01*
X98211571Y-73541689D01*
X98250000Y-73348491D01*
X98250000Y-73151509D01*
X98211571Y-72958311D01*
X98136189Y-72776322D01*
X98026751Y-72612537D01*
X97887463Y-72473249D01*
X97723678Y-72363811D01*
X97541689Y-72288429D01*
X97348491Y-72250000D01*
X97151509Y-72250000D01*
X96958311Y-72288429D01*
X96776322Y-72363811D01*
X96612537Y-72473249D01*
X96473249Y-72612537D01*
X96363811Y-72776322D01*
X96288429Y-72958311D01*
X96250000Y-73151509D01*
X93250000Y-73151509D01*
X93211571Y-72958311D01*
X93136189Y-72776322D01*
X93026751Y-72612537D01*
X92887463Y-72473249D01*
X92723678Y-72363811D01*
X92541689Y-72288429D01*
X92348491Y-72250000D01*
X92151509Y-72250000D01*
X91958311Y-72288429D01*
X91776322Y-72363811D01*
X91612537Y-72473249D01*
X91473249Y-72612537D01*
X91363811Y-72776322D01*
X91288429Y-72958311D01*
X91250000Y-73151509D01*
X85555581Y-73151509D01*
X85630467Y-72904646D01*
X85656532Y-72640000D01*
X85630467Y-72375354D01*
X85553272Y-72120878D01*
X85427915Y-71886351D01*
X85259213Y-71680787D01*
X85053649Y-71512085D01*
X84819122Y-71386728D01*
X84763978Y-71370000D01*
X84819122Y-71353272D01*
X85053649Y-71227915D01*
X85259213Y-71059213D01*
X85427915Y-70853649D01*
X85553272Y-70619122D01*
X85619284Y-70401509D01*
X87250000Y-70401509D01*
X87250000Y-70598491D01*
X87288429Y-70791689D01*
X87363811Y-70973678D01*
X87473249Y-71137463D01*
X87612537Y-71276751D01*
X87776322Y-71386189D01*
X87958311Y-71461571D01*
X88151509Y-71500000D01*
X88348491Y-71500000D01*
X88541689Y-71461571D01*
X88723678Y-71386189D01*
X88887463Y-71276751D01*
X89012705Y-71151509D01*
X104250000Y-71151509D01*
X104250000Y-71348491D01*
X104288429Y-71541689D01*
X104363811Y-71723678D01*
X104473249Y-71887463D01*
X104612537Y-72026751D01*
X104776322Y-72136189D01*
X104958311Y-72211571D01*
X105151509Y-72250000D01*
X105348491Y-72250000D01*
X105541689Y-72211571D01*
X105723678Y-72136189D01*
X105887463Y-72026751D01*
X106026751Y-71887463D01*
X106136189Y-71723678D01*
X106211571Y-71541689D01*
X106250000Y-71348491D01*
X106250000Y-71151509D01*
X107750000Y-71151509D01*
X107750000Y-71348491D01*
X107788429Y-71541689D01*
X107863811Y-71723678D01*
X107973249Y-71887463D01*
X108112537Y-72026751D01*
X108276322Y-72136189D01*
X108458311Y-72211571D01*
X108651509Y-72250000D01*
X108848491Y-72250000D01*
X109041689Y-72211571D01*
X109223678Y-72136189D01*
X109387463Y-72026751D01*
X109526751Y-71887463D01*
X109636189Y-71723678D01*
X109711571Y-71541689D01*
X109750000Y-71348491D01*
X109750000Y-71151509D01*
X109711571Y-70958311D01*
X109636189Y-70776322D01*
X109526751Y-70612537D01*
X109387463Y-70473249D01*
X109223678Y-70363811D01*
X109041689Y-70288429D01*
X108848491Y-70250000D01*
X108651509Y-70250000D01*
X108458311Y-70288429D01*
X108276322Y-70363811D01*
X108112537Y-70473249D01*
X107973249Y-70612537D01*
X107863811Y-70776322D01*
X107788429Y-70958311D01*
X107750000Y-71151509D01*
X106250000Y-71151509D01*
X106211571Y-70958311D01*
X106136189Y-70776322D01*
X106026751Y-70612537D01*
X105887463Y-70473249D01*
X105723678Y-70363811D01*
X105541689Y-70288429D01*
X105348491Y-70250000D01*
X105151509Y-70250000D01*
X104958311Y-70288429D01*
X104776322Y-70363811D01*
X104612537Y-70473249D01*
X104473249Y-70612537D01*
X104363811Y-70776322D01*
X104288429Y-70958311D01*
X104250000Y-71151509D01*
X89012705Y-71151509D01*
X89026751Y-71137463D01*
X89136189Y-70973678D01*
X89211571Y-70791689D01*
X89250000Y-70598491D01*
X89250000Y-70401509D01*
X89211571Y-70208311D01*
X89136189Y-70026322D01*
X89026751Y-69862537D01*
X88887463Y-69723249D01*
X88723678Y-69613811D01*
X88541689Y-69538429D01*
X88348491Y-69500000D01*
X88151509Y-69500000D01*
X87958311Y-69538429D01*
X87776322Y-69613811D01*
X87612537Y-69723249D01*
X87473249Y-69862537D01*
X87363811Y-70026322D01*
X87288429Y-70208311D01*
X87250000Y-70401509D01*
X85619284Y-70401509D01*
X85630467Y-70364646D01*
X85656532Y-70100000D01*
X85630467Y-69835354D01*
X85553272Y-69580878D01*
X85427915Y-69346351D01*
X85259213Y-69140787D01*
X85053649Y-68972085D01*
X84819122Y-68846728D01*
X84763978Y-68830000D01*
X84819122Y-68813272D01*
X85053649Y-68687915D01*
X85259213Y-68519213D01*
X85427915Y-68313649D01*
X85553272Y-68079122D01*
X85568973Y-68027364D01*
X85635027Y-68186833D01*
X85793711Y-68424321D01*
X85995679Y-68626289D01*
X86233167Y-68784973D01*
X86497051Y-68894277D01*
X86777187Y-68950000D01*
X87062813Y-68950000D01*
X87342949Y-68894277D01*
X87606833Y-68784973D01*
X87844321Y-68626289D01*
X88046289Y-68424321D01*
X88204973Y-68186833D01*
X88314277Y-67922949D01*
X88370000Y-67642813D01*
X88370000Y-67357187D01*
X95630000Y-67357187D01*
X95630000Y-67642813D01*
X95685723Y-67922949D01*
X95795027Y-68186833D01*
X95953711Y-68424321D01*
X96155679Y-68626289D01*
X96393167Y-68784973D01*
X96657051Y-68894277D01*
X96937187Y-68950000D01*
X97222813Y-68950000D01*
X97502949Y-68894277D01*
X97766833Y-68784973D01*
X97966576Y-68651509D01*
X114400000Y-68651509D01*
X114400000Y-68848491D01*
X114438429Y-69041689D01*
X114513811Y-69223678D01*
X114623249Y-69387463D01*
X114762537Y-69526751D01*
X114926322Y-69636189D01*
X115108311Y-69711571D01*
X115301509Y-69750000D01*
X115498491Y-69750000D01*
X115691689Y-69711571D01*
X115873678Y-69636189D01*
X116037463Y-69526751D01*
X116176751Y-69387463D01*
X116286189Y-69223678D01*
X116361571Y-69041689D01*
X116400000Y-68848491D01*
X116400000Y-68651509D01*
X116361571Y-68458311D01*
X116286189Y-68276322D01*
X116176751Y-68112537D01*
X116037463Y-67973249D01*
X115873678Y-67863811D01*
X115691689Y-67788429D01*
X115498491Y-67750000D01*
X115301509Y-67750000D01*
X115108311Y-67788429D01*
X114926322Y-67863811D01*
X114762537Y-67973249D01*
X114623249Y-68112537D01*
X114513811Y-68276322D01*
X114438429Y-68458311D01*
X114400000Y-68651509D01*
X97966576Y-68651509D01*
X98004321Y-68626289D01*
X98206289Y-68424321D01*
X98364973Y-68186833D01*
X98474277Y-67922949D01*
X98530000Y-67642813D01*
X98530000Y-67357187D01*
X98474277Y-67077051D01*
X98364973Y-66813167D01*
X98206289Y-66575679D01*
X98004321Y-66373711D01*
X97766833Y-66215027D01*
X97546352Y-66123701D01*
X97722347Y-66057780D01*
X97810509Y-66010655D01*
X97892027Y-65774159D01*
X97080000Y-64962132D01*
X96267973Y-65774159D01*
X96349491Y-66010655D01*
X96605424Y-66127108D01*
X96393167Y-66215027D01*
X96155679Y-66373711D01*
X95953711Y-66575679D01*
X95795027Y-66813167D01*
X95685723Y-67077051D01*
X95630000Y-67357187D01*
X88370000Y-67357187D01*
X88314277Y-67077051D01*
X88204973Y-66813167D01*
X88046289Y-66575679D01*
X87844321Y-66373711D01*
X87606833Y-66215027D01*
X87389488Y-66125000D01*
X87606833Y-66034973D01*
X87844321Y-65876289D01*
X88046289Y-65674321D01*
X88204973Y-65436833D01*
X88314277Y-65172949D01*
X88370000Y-64892813D01*
X88370000Y-64842986D01*
X95625954Y-64842986D01*
X95672033Y-65124870D01*
X95772220Y-65392347D01*
X95819345Y-65480509D01*
X96055841Y-65562027D01*
X96867868Y-64750000D01*
X97292132Y-64750000D01*
X98104159Y-65562027D01*
X98340655Y-65480509D01*
X98458948Y-65220531D01*
X98524248Y-64942471D01*
X98534046Y-64657014D01*
X98487967Y-64375130D01*
X98387780Y-64107653D01*
X98340655Y-64019491D01*
X98104159Y-63937973D01*
X97292132Y-64750000D01*
X96867868Y-64750000D01*
X96055841Y-63937973D01*
X95819345Y-64019491D01*
X95701052Y-64279469D01*
X95635752Y-64557529D01*
X95625954Y-64842986D01*
X88370000Y-64842986D01*
X88370000Y-64607187D01*
X88314277Y-64327051D01*
X88204973Y-64063167D01*
X88046289Y-63825679D01*
X87844321Y-63623711D01*
X87606833Y-63465027D01*
X87389488Y-63375000D01*
X87606833Y-63284973D01*
X87844321Y-63126289D01*
X87946451Y-63024159D01*
X96267973Y-63024159D01*
X96349491Y-63260655D01*
X96608162Y-63378353D01*
X96437653Y-63442220D01*
X96349491Y-63489345D01*
X96267973Y-63725841D01*
X97080000Y-64537868D01*
X97892027Y-63725841D01*
X97810509Y-63489345D01*
X97551838Y-63371647D01*
X97722347Y-63307780D01*
X97810509Y-63260655D01*
X97892027Y-63024159D01*
X97080000Y-62212132D01*
X96267973Y-63024159D01*
X87946451Y-63024159D01*
X88046289Y-62924321D01*
X88204973Y-62686833D01*
X88314277Y-62422949D01*
X88370000Y-62142813D01*
X88370000Y-62092986D01*
X95625954Y-62092986D01*
X95672033Y-62374870D01*
X95772220Y-62642347D01*
X95819345Y-62730509D01*
X96055841Y-62812027D01*
X96867868Y-62000000D01*
X97292132Y-62000000D01*
X98104159Y-62812027D01*
X98340655Y-62730509D01*
X98458948Y-62470531D01*
X98524248Y-62192471D01*
X98534046Y-61907014D01*
X98487967Y-61625130D01*
X98387780Y-61357653D01*
X98340655Y-61269491D01*
X98104159Y-61187973D01*
X97292132Y-62000000D01*
X96867868Y-62000000D01*
X96055841Y-61187973D01*
X95819345Y-61269491D01*
X95701052Y-61529469D01*
X95635752Y-61807529D01*
X95625954Y-62092986D01*
X88370000Y-62092986D01*
X88370000Y-61857187D01*
X88314277Y-61577051D01*
X88204973Y-61313167D01*
X88046289Y-61075679D01*
X87844321Y-60873711D01*
X87606833Y-60715027D01*
X87389488Y-60625000D01*
X87606833Y-60534973D01*
X87844321Y-60376289D01*
X88046289Y-60174321D01*
X88204973Y-59936833D01*
X88314277Y-59672949D01*
X88370000Y-59392813D01*
X88370000Y-59107187D01*
X95630000Y-59107187D01*
X95630000Y-59392813D01*
X95685723Y-59672949D01*
X95795027Y-59936833D01*
X95953711Y-60174321D01*
X96155679Y-60376289D01*
X96393167Y-60534973D01*
X96613648Y-60626299D01*
X96437653Y-60692220D01*
X96349491Y-60739345D01*
X96267973Y-60975841D01*
X97080000Y-61787868D01*
X97680681Y-61187187D01*
X99550000Y-61187187D01*
X99550000Y-61472813D01*
X99605723Y-61752949D01*
X99715027Y-62016833D01*
X99873711Y-62254321D01*
X100075679Y-62456289D01*
X100313167Y-62614973D01*
X100577051Y-62724277D01*
X100706368Y-62750000D01*
X100577051Y-62775723D01*
X100313167Y-62885027D01*
X100075679Y-63043711D01*
X99873711Y-63245679D01*
X99715027Y-63483167D01*
X99605723Y-63747051D01*
X99550000Y-64027187D01*
X99550000Y-64312813D01*
X99605723Y-64592949D01*
X99715027Y-64856833D01*
X99873711Y-65094321D01*
X100075679Y-65296289D01*
X100313167Y-65454973D01*
X100577051Y-65564277D01*
X100857187Y-65620000D01*
X101142813Y-65620000D01*
X101422949Y-65564277D01*
X101686833Y-65454973D01*
X101924321Y-65296289D01*
X102126289Y-65094321D01*
X102284973Y-64856833D01*
X102370020Y-64651509D01*
X103460000Y-64651509D01*
X103460000Y-64848491D01*
X103498429Y-65041689D01*
X103573811Y-65223678D01*
X103683249Y-65387463D01*
X103822537Y-65526751D01*
X103986322Y-65636189D01*
X104168311Y-65711571D01*
X104361509Y-65750000D01*
X104558491Y-65750000D01*
X104751689Y-65711571D01*
X104933678Y-65636189D01*
X105097463Y-65526751D01*
X105236751Y-65387463D01*
X105346189Y-65223678D01*
X105421571Y-65041689D01*
X105460000Y-64848491D01*
X105460000Y-64651509D01*
X108540000Y-64651509D01*
X108540000Y-64848491D01*
X108578429Y-65041689D01*
X108653811Y-65223678D01*
X108763249Y-65387463D01*
X108902537Y-65526751D01*
X109066322Y-65636189D01*
X109248311Y-65711571D01*
X109441509Y-65750000D01*
X109638491Y-65750000D01*
X109831689Y-65711571D01*
X110013678Y-65636189D01*
X110177463Y-65526751D01*
X110316751Y-65387463D01*
X110426189Y-65223678D01*
X110501571Y-65041689D01*
X110540000Y-64848491D01*
X110540000Y-64651509D01*
X110501571Y-64458311D01*
X110426189Y-64276322D01*
X110316751Y-64112537D01*
X110177463Y-63973249D01*
X110013678Y-63863811D01*
X109831689Y-63788429D01*
X109638491Y-63750000D01*
X109441509Y-63750000D01*
X109248311Y-63788429D01*
X109066322Y-63863811D01*
X108902537Y-63973249D01*
X108763249Y-64112537D01*
X108653811Y-64276322D01*
X108578429Y-64458311D01*
X108540000Y-64651509D01*
X105460000Y-64651509D01*
X105421571Y-64458311D01*
X105346189Y-64276322D01*
X105236751Y-64112537D01*
X105097463Y-63973249D01*
X104933678Y-63863811D01*
X104751689Y-63788429D01*
X104558491Y-63750000D01*
X104361509Y-63750000D01*
X104168311Y-63788429D01*
X103986322Y-63863811D01*
X103822537Y-63973249D01*
X103683249Y-64112537D01*
X103573811Y-64276322D01*
X103498429Y-64458311D01*
X103460000Y-64651509D01*
X102370020Y-64651509D01*
X102394277Y-64592949D01*
X102450000Y-64312813D01*
X102450000Y-64027187D01*
X102394277Y-63747051D01*
X102284973Y-63483167D01*
X102126289Y-63245679D01*
X101924321Y-63043711D01*
X101686833Y-62885027D01*
X101422949Y-62775723D01*
X101293632Y-62750000D01*
X101422949Y-62724277D01*
X101686833Y-62614973D01*
X101924321Y-62456289D01*
X102126289Y-62254321D01*
X102284973Y-62016833D01*
X102394277Y-61752949D01*
X102450000Y-61472813D01*
X102450000Y-61187187D01*
X102394277Y-60907051D01*
X102288429Y-60651509D01*
X103460000Y-60651509D01*
X103460000Y-60848491D01*
X103498429Y-61041689D01*
X103573811Y-61223678D01*
X103683249Y-61387463D01*
X103822537Y-61526751D01*
X103986322Y-61636189D01*
X104168311Y-61711571D01*
X104361509Y-61750000D01*
X104558491Y-61750000D01*
X104751689Y-61711571D01*
X104933678Y-61636189D01*
X105097463Y-61526751D01*
X105236751Y-61387463D01*
X105346189Y-61223678D01*
X105421571Y-61041689D01*
X105460000Y-60848491D01*
X105460000Y-60651509D01*
X108540000Y-60651509D01*
X108540000Y-60848491D01*
X108578429Y-61041689D01*
X108653811Y-61223678D01*
X108763249Y-61387463D01*
X108902537Y-61526751D01*
X109066322Y-61636189D01*
X109248311Y-61711571D01*
X109441509Y-61750000D01*
X109638491Y-61750000D01*
X109831689Y-61711571D01*
X110013678Y-61636189D01*
X110177463Y-61526751D01*
X110316751Y-61387463D01*
X110426189Y-61223678D01*
X110501571Y-61041689D01*
X110540000Y-60848491D01*
X110540000Y-60651509D01*
X110501571Y-60458311D01*
X110426189Y-60276322D01*
X110316751Y-60112537D01*
X110177463Y-59973249D01*
X110013678Y-59863811D01*
X109831689Y-59788429D01*
X109638491Y-59750000D01*
X109441509Y-59750000D01*
X109248311Y-59788429D01*
X109066322Y-59863811D01*
X108902537Y-59973249D01*
X108763249Y-60112537D01*
X108653811Y-60276322D01*
X108578429Y-60458311D01*
X108540000Y-60651509D01*
X105460000Y-60651509D01*
X105421571Y-60458311D01*
X105346189Y-60276322D01*
X105236751Y-60112537D01*
X105097463Y-59973249D01*
X104933678Y-59863811D01*
X104751689Y-59788429D01*
X104558491Y-59750000D01*
X104361509Y-59750000D01*
X104168311Y-59788429D01*
X103986322Y-59863811D01*
X103822537Y-59973249D01*
X103683249Y-60112537D01*
X103573811Y-60276322D01*
X103498429Y-60458311D01*
X103460000Y-60651509D01*
X102288429Y-60651509D01*
X102284973Y-60643167D01*
X102126289Y-60405679D01*
X101924321Y-60203711D01*
X101686833Y-60045027D01*
X101422949Y-59935723D01*
X101142813Y-59880000D01*
X100857187Y-59880000D01*
X100577051Y-59935723D01*
X100313167Y-60045027D01*
X100075679Y-60203711D01*
X99873711Y-60405679D01*
X99715027Y-60643167D01*
X99605723Y-60907051D01*
X99550000Y-61187187D01*
X97680681Y-61187187D01*
X97892027Y-60975841D01*
X97810509Y-60739345D01*
X97554576Y-60622892D01*
X97766833Y-60534973D01*
X98004321Y-60376289D01*
X98206289Y-60174321D01*
X98364973Y-59936833D01*
X98474277Y-59672949D01*
X98530000Y-59392813D01*
X98530000Y-59107187D01*
X98474277Y-58827051D01*
X98364973Y-58563167D01*
X98206289Y-58325679D01*
X98004321Y-58123711D01*
X97766833Y-57965027D01*
X97502949Y-57855723D01*
X97222813Y-57800000D01*
X96937187Y-57800000D01*
X96657051Y-57855723D01*
X96393167Y-57965027D01*
X96155679Y-58123711D01*
X95953711Y-58325679D01*
X95795027Y-58563167D01*
X95685723Y-58827051D01*
X95630000Y-59107187D01*
X88370000Y-59107187D01*
X88314277Y-58827051D01*
X88204973Y-58563167D01*
X88046289Y-58325679D01*
X87844321Y-58123711D01*
X87606833Y-57965027D01*
X87342949Y-57855723D01*
X87062813Y-57800000D01*
X86777187Y-57800000D01*
X86497051Y-57855723D01*
X86233167Y-57965027D01*
X85995679Y-58123711D01*
X85793711Y-58325679D01*
X85635027Y-58563167D01*
X85525723Y-58827051D01*
X85470000Y-59107187D01*
X85470000Y-59265087D01*
X85427915Y-59186351D01*
X85259213Y-58980787D01*
X85053649Y-58812085D01*
X84819122Y-58686728D01*
X84763978Y-58670000D01*
X84819122Y-58653272D01*
X85053649Y-58527915D01*
X85259213Y-58359213D01*
X85427915Y-58153649D01*
X85553272Y-57919122D01*
X85630467Y-57664646D01*
X85656532Y-57400000D01*
X85630467Y-57135354D01*
X85553272Y-56880878D01*
X85430673Y-56651509D01*
X114400000Y-56651509D01*
X114400000Y-56848491D01*
X114438429Y-57041689D01*
X114513811Y-57223678D01*
X114623249Y-57387463D01*
X114762537Y-57526751D01*
X114926322Y-57636189D01*
X115108311Y-57711571D01*
X115301509Y-57750000D01*
X115498491Y-57750000D01*
X115691689Y-57711571D01*
X115873678Y-57636189D01*
X116037463Y-57526751D01*
X116176751Y-57387463D01*
X116286189Y-57223678D01*
X116361571Y-57041689D01*
X116400000Y-56848491D01*
X116400000Y-56651509D01*
X116361571Y-56458311D01*
X116286189Y-56276322D01*
X116176751Y-56112537D01*
X116037463Y-55973249D01*
X115873678Y-55863811D01*
X115691689Y-55788429D01*
X115498491Y-55750000D01*
X115301509Y-55750000D01*
X115108311Y-55788429D01*
X114926322Y-55863811D01*
X114762537Y-55973249D01*
X114623249Y-56112537D01*
X114513811Y-56276322D01*
X114438429Y-56458311D01*
X114400000Y-56651509D01*
X85430673Y-56651509D01*
X85427915Y-56646351D01*
X85259213Y-56440787D01*
X85053649Y-56272085D01*
X84819122Y-56146728D01*
X84763978Y-56130000D01*
X84819122Y-56113272D01*
X85053649Y-55987915D01*
X85259213Y-55819213D01*
X85427915Y-55613649D01*
X85553272Y-55379122D01*
X85630467Y-55124646D01*
X85648504Y-54941509D01*
X87250000Y-54941509D01*
X87250000Y-55138491D01*
X87288429Y-55331689D01*
X87363811Y-55513678D01*
X87473249Y-55677463D01*
X87612537Y-55816751D01*
X87776322Y-55926189D01*
X87958311Y-56001571D01*
X88151509Y-56040000D01*
X88348491Y-56040000D01*
X88541689Y-56001571D01*
X88723678Y-55926189D01*
X88887463Y-55816751D01*
X89026751Y-55677463D01*
X89136189Y-55513678D01*
X89211571Y-55331689D01*
X89250000Y-55138491D01*
X89250000Y-54941509D01*
X89211571Y-54748311D01*
X89136189Y-54566322D01*
X89026751Y-54402537D01*
X88887463Y-54263249D01*
X88723678Y-54153811D01*
X88718121Y-54151509D01*
X104250000Y-54151509D01*
X104250000Y-54348491D01*
X104288429Y-54541689D01*
X104363811Y-54723678D01*
X104473249Y-54887463D01*
X104612537Y-55026751D01*
X104776322Y-55136189D01*
X104958311Y-55211571D01*
X105151509Y-55250000D01*
X105348491Y-55250000D01*
X105541689Y-55211571D01*
X105723678Y-55136189D01*
X105887463Y-55026751D01*
X106026751Y-54887463D01*
X106136189Y-54723678D01*
X106211571Y-54541689D01*
X106250000Y-54348491D01*
X106250000Y-54151509D01*
X107750000Y-54151509D01*
X107750000Y-54348491D01*
X107788429Y-54541689D01*
X107863811Y-54723678D01*
X107973249Y-54887463D01*
X108112537Y-55026751D01*
X108276322Y-55136189D01*
X108458311Y-55211571D01*
X108651509Y-55250000D01*
X108848491Y-55250000D01*
X109041689Y-55211571D01*
X109223678Y-55136189D01*
X109387463Y-55026751D01*
X109526751Y-54887463D01*
X109636189Y-54723678D01*
X109711571Y-54541689D01*
X109750000Y-54348491D01*
X109750000Y-54151509D01*
X109711571Y-53958311D01*
X109636189Y-53776322D01*
X109526751Y-53612537D01*
X109387463Y-53473249D01*
X109223678Y-53363811D01*
X109041689Y-53288429D01*
X108848491Y-53250000D01*
X108651509Y-53250000D01*
X108458311Y-53288429D01*
X108276322Y-53363811D01*
X108112537Y-53473249D01*
X107973249Y-53612537D01*
X107863811Y-53776322D01*
X107788429Y-53958311D01*
X107750000Y-54151509D01*
X106250000Y-54151509D01*
X106211571Y-53958311D01*
X106136189Y-53776322D01*
X106026751Y-53612537D01*
X105887463Y-53473249D01*
X105723678Y-53363811D01*
X105541689Y-53288429D01*
X105348491Y-53250000D01*
X105151509Y-53250000D01*
X104958311Y-53288429D01*
X104776322Y-53363811D01*
X104612537Y-53473249D01*
X104473249Y-53612537D01*
X104363811Y-53776322D01*
X104288429Y-53958311D01*
X104250000Y-54151509D01*
X88718121Y-54151509D01*
X88541689Y-54078429D01*
X88348491Y-54040000D01*
X88151509Y-54040000D01*
X87958311Y-54078429D01*
X87776322Y-54153811D01*
X87612537Y-54263249D01*
X87473249Y-54402537D01*
X87363811Y-54566322D01*
X87288429Y-54748311D01*
X87250000Y-54941509D01*
X85648504Y-54941509D01*
X85656532Y-54860000D01*
X85630467Y-54595354D01*
X85553272Y-54340878D01*
X85427915Y-54106351D01*
X85259213Y-53900787D01*
X85053649Y-53732085D01*
X84819122Y-53606728D01*
X84763978Y-53590000D01*
X84819122Y-53573272D01*
X85053649Y-53447915D01*
X85259213Y-53279213D01*
X85427915Y-53073649D01*
X85553272Y-52839122D01*
X85630467Y-52584646D01*
X85648504Y-52401509D01*
X91250000Y-52401509D01*
X91250000Y-52598491D01*
X91288429Y-52791689D01*
X91363811Y-52973678D01*
X91473249Y-53137463D01*
X91612537Y-53276751D01*
X91776322Y-53386189D01*
X91958311Y-53461571D01*
X92151509Y-53500000D01*
X92348491Y-53500000D01*
X92541689Y-53461571D01*
X92723678Y-53386189D01*
X92887463Y-53276751D01*
X93026751Y-53137463D01*
X93136189Y-52973678D01*
X93211571Y-52791689D01*
X93250000Y-52598491D01*
X93250000Y-52401509D01*
X96250000Y-52401509D01*
X96250000Y-52598491D01*
X96288429Y-52791689D01*
X96363811Y-52973678D01*
X96473249Y-53137463D01*
X96612537Y-53276751D01*
X96776322Y-53386189D01*
X96958311Y-53461571D01*
X97151509Y-53500000D01*
X97348491Y-53500000D01*
X97541689Y-53461571D01*
X97723678Y-53386189D01*
X97887463Y-53276751D01*
X98026751Y-53137463D01*
X98136189Y-52973678D01*
X98211571Y-52791689D01*
X98250000Y-52598491D01*
X98250000Y-52401509D01*
X98211571Y-52208311D01*
X98136189Y-52026322D01*
X98026751Y-51862537D01*
X97887463Y-51723249D01*
X97723678Y-51613811D01*
X97541689Y-51538429D01*
X97348491Y-51500000D01*
X97151509Y-51500000D01*
X96958311Y-51538429D01*
X96776322Y-51613811D01*
X96612537Y-51723249D01*
X96473249Y-51862537D01*
X96363811Y-52026322D01*
X96288429Y-52208311D01*
X96250000Y-52401509D01*
X93250000Y-52401509D01*
X93211571Y-52208311D01*
X93136189Y-52026322D01*
X93026751Y-51862537D01*
X92887463Y-51723249D01*
X92723678Y-51613811D01*
X92541689Y-51538429D01*
X92348491Y-51500000D01*
X92151509Y-51500000D01*
X91958311Y-51538429D01*
X91776322Y-51613811D01*
X91612537Y-51723249D01*
X91473249Y-51862537D01*
X91363811Y-52026322D01*
X91288429Y-52208311D01*
X91250000Y-52401509D01*
X85648504Y-52401509D01*
X85656532Y-52320000D01*
X85630467Y-52055354D01*
X85553272Y-51800878D01*
X85427915Y-51566351D01*
X85259213Y-51360787D01*
X85053649Y-51192085D01*
X84819122Y-51066728D01*
X84688774Y-51027187D01*
X99550000Y-51027187D01*
X99550000Y-51312813D01*
X99605723Y-51592949D01*
X99715027Y-51856833D01*
X99873711Y-52094321D01*
X100075679Y-52296289D01*
X100313167Y-52454973D01*
X100577051Y-52564277D01*
X100857187Y-52620000D01*
X101142813Y-52620000D01*
X101422949Y-52564277D01*
X101686833Y-52454973D01*
X101924321Y-52296289D01*
X102126289Y-52094321D01*
X102284973Y-51856833D01*
X102370020Y-51651509D01*
X114400000Y-51651509D01*
X114400000Y-51848491D01*
X114438429Y-52041689D01*
X114513811Y-52223678D01*
X114623249Y-52387463D01*
X114762537Y-52526751D01*
X114926322Y-52636189D01*
X115108311Y-52711571D01*
X115301509Y-52750000D01*
X115498491Y-52750000D01*
X115691689Y-52711571D01*
X115873678Y-52636189D01*
X116037463Y-52526751D01*
X116176751Y-52387463D01*
X116286189Y-52223678D01*
X116361571Y-52041689D01*
X116400000Y-51848491D01*
X116400000Y-51651509D01*
X116361571Y-51458311D01*
X116286189Y-51276322D01*
X116176751Y-51112537D01*
X116037463Y-50973249D01*
X115873678Y-50863811D01*
X115691689Y-50788429D01*
X115498491Y-50750000D01*
X115301509Y-50750000D01*
X115108311Y-50788429D01*
X114926322Y-50863811D01*
X114762537Y-50973249D01*
X114623249Y-51112537D01*
X114513811Y-51276322D01*
X114438429Y-51458311D01*
X114400000Y-51651509D01*
X102370020Y-51651509D01*
X102394277Y-51592949D01*
X102450000Y-51312813D01*
X102450000Y-51027187D01*
X102394277Y-50747051D01*
X102284973Y-50483167D01*
X102126289Y-50245679D01*
X101924321Y-50043711D01*
X101686833Y-49885027D01*
X101422949Y-49775723D01*
X101142813Y-49720000D01*
X100857187Y-49720000D01*
X100577051Y-49775723D01*
X100313167Y-49885027D01*
X100075679Y-50043711D01*
X99873711Y-50245679D01*
X99715027Y-50483167D01*
X99605723Y-50747051D01*
X99550000Y-51027187D01*
X84688774Y-51027187D01*
X84564646Y-50989533D01*
X84366321Y-50970000D01*
X83233679Y-50970000D01*
X83035354Y-50989533D01*
X82780878Y-51066728D01*
X82546351Y-51192085D01*
X82340787Y-51360787D01*
X82172085Y-51566351D01*
X82046728Y-51800878D01*
X81969533Y-52055354D01*
X81943468Y-52320000D01*
X81969533Y-52584646D01*
X82046728Y-52839122D01*
X82172085Y-53073649D01*
X82340787Y-53279213D01*
X82546351Y-53447915D01*
X82780878Y-53573272D01*
X82836022Y-53590000D01*
X82780878Y-53606728D01*
X82546351Y-53732085D01*
X82340787Y-53900787D01*
X82172085Y-54106351D01*
X82046728Y-54340878D01*
X81969533Y-54595354D01*
X81943468Y-54860000D01*
X81969533Y-55124646D01*
X82046728Y-55379122D01*
X82172085Y-55613649D01*
X82340787Y-55819213D01*
X82546351Y-55987915D01*
X82780878Y-56113272D01*
X82836022Y-56130000D01*
X82780878Y-56146728D01*
X82546351Y-56272085D01*
X82340787Y-56440787D01*
X82172085Y-56646351D01*
X82046728Y-56880878D01*
X81969533Y-57135354D01*
X81943468Y-57400000D01*
X81969533Y-57664646D01*
X82046728Y-57919122D01*
X82172085Y-58153649D01*
X82340787Y-58359213D01*
X82546351Y-58527915D01*
X82780878Y-58653272D01*
X82836022Y-58670000D01*
X82780878Y-58686728D01*
X82546351Y-58812085D01*
X82340787Y-58980787D01*
X82172085Y-59186351D01*
X82046728Y-59420878D01*
X81969533Y-59675354D01*
X81943468Y-59940000D01*
X81969533Y-60204646D01*
X82046728Y-60459122D01*
X82172085Y-60693649D01*
X82340787Y-60899213D01*
X82546351Y-61067915D01*
X82780878Y-61193272D01*
X82836022Y-61210000D01*
X82780878Y-61226728D01*
X82546351Y-61352085D01*
X82512336Y-61380000D01*
X81300000Y-61380000D01*
X81300000Y-53954033D01*
X81305322Y-53899999D01*
X81299613Y-53842033D01*
X81284084Y-53684362D01*
X81221184Y-53477012D01*
X81119042Y-53285916D01*
X80981581Y-53118419D01*
X80939606Y-53083971D01*
X79436033Y-51580399D01*
X79401581Y-51538419D01*
X79234084Y-51400958D01*
X79042988Y-51298816D01*
X78835638Y-51235916D01*
X78674036Y-51220000D01*
X78674034Y-51220000D01*
X78620000Y-51214678D01*
X78565966Y-51220000D01*
X77467664Y-51220000D01*
X77433649Y-51192085D01*
X77199122Y-51066728D01*
X76944646Y-50989533D01*
X76746321Y-50970000D01*
X75613679Y-50970000D01*
X75415354Y-50989533D01*
X75160878Y-51066728D01*
X74926351Y-51192085D01*
X74720787Y-51360787D01*
X74552085Y-51566351D01*
X74426728Y-51800878D01*
X74349533Y-52055354D01*
X74323468Y-52320000D01*
X74349533Y-52584646D01*
X74426728Y-52839122D01*
X74552085Y-53073649D01*
X74720787Y-53279213D01*
X74926351Y-53447915D01*
X75160878Y-53573272D01*
X75216022Y-53590000D01*
X75160878Y-53606728D01*
X74926351Y-53732085D01*
X74720787Y-53900787D01*
X74552085Y-54106351D01*
X74426728Y-54340878D01*
X74393193Y-54451428D01*
X74354159Y-54437973D01*
X73542132Y-55250000D01*
X74354159Y-56062027D01*
X74590655Y-55980509D01*
X74684285Y-55774735D01*
X74720787Y-55819213D01*
X74926351Y-55987915D01*
X75160878Y-56113272D01*
X75213489Y-56129231D01*
X75024795Y-56210165D01*
X74805259Y-56360852D01*
X74619339Y-56551472D01*
X74474180Y-56774701D01*
X74390018Y-57009408D01*
X74254321Y-56873711D01*
X74016833Y-56715027D01*
X73796352Y-56623701D01*
X73972347Y-56557780D01*
X74060509Y-56510655D01*
X74142027Y-56274159D01*
X73330000Y-55462132D01*
X72517973Y-56274159D01*
X72599491Y-56510655D01*
X72855424Y-56627108D01*
X72643167Y-56715027D01*
X72405679Y-56873711D01*
X72203711Y-57075679D01*
X72045027Y-57313167D01*
X71935723Y-57577051D01*
X71880000Y-57857187D01*
X64620000Y-57857187D01*
X64564277Y-57577051D01*
X64454973Y-57313167D01*
X64296289Y-57075679D01*
X64094321Y-56873711D01*
X63856833Y-56715027D01*
X63639488Y-56625000D01*
X63856833Y-56534973D01*
X64094321Y-56376289D01*
X64296289Y-56174321D01*
X64454973Y-55936833D01*
X64564277Y-55672949D01*
X64620000Y-55392813D01*
X64620000Y-55342986D01*
X71875954Y-55342986D01*
X71922033Y-55624870D01*
X72022220Y-55892347D01*
X72069345Y-55980509D01*
X72305841Y-56062027D01*
X73117868Y-55250000D01*
X72305841Y-54437973D01*
X72069345Y-54519491D01*
X71951052Y-54779469D01*
X71885752Y-55057529D01*
X71875954Y-55342986D01*
X64620000Y-55342986D01*
X64620000Y-55107187D01*
X64564277Y-54827051D01*
X64454973Y-54563167D01*
X64296289Y-54325679D01*
X64196451Y-54225841D01*
X72517973Y-54225841D01*
X73330000Y-55037868D01*
X74142027Y-54225841D01*
X74060509Y-53989345D01*
X73800531Y-53871052D01*
X73522471Y-53805752D01*
X73237014Y-53795954D01*
X72955130Y-53842033D01*
X72687653Y-53942220D01*
X72599491Y-53989345D01*
X72517973Y-54225841D01*
X64196451Y-54225841D01*
X64094321Y-54123711D01*
X63856833Y-53965027D01*
X63592949Y-53855723D01*
X63312813Y-53800000D01*
X63027187Y-53800000D01*
X62747051Y-53855723D01*
X62483167Y-53965027D01*
X62245679Y-54123711D01*
X62043711Y-54325679D01*
X61885027Y-54563167D01*
X61775723Y-54827051D01*
X61720000Y-55107187D01*
X59852837Y-55107187D01*
X59785359Y-54884744D01*
X59636788Y-54606787D01*
X59436845Y-54363155D01*
X59298965Y-54250000D01*
X59436845Y-54136845D01*
X59636788Y-53893213D01*
X59785359Y-53615256D01*
X59876849Y-53313655D01*
X59907741Y-53000000D01*
X59876849Y-52686345D01*
X59785359Y-52384744D01*
X59636788Y-52106787D01*
X59436845Y-51863155D01*
X59298965Y-51750000D01*
X59436845Y-51636845D01*
X59636788Y-51393213D01*
X59785359Y-51115256D01*
X59876849Y-50813655D01*
X59907741Y-50500000D01*
X59876849Y-50186345D01*
X59785359Y-49884744D01*
X59668589Y-49666282D01*
X65900000Y-49666282D01*
X65900000Y-49833718D01*
X65932665Y-49997936D01*
X65996740Y-50152626D01*
X66089762Y-50291844D01*
X66208156Y-50410238D01*
X66342495Y-50500000D01*
X66208156Y-50589762D01*
X66089762Y-50708156D01*
X65996740Y-50847374D01*
X65932665Y-51002064D01*
X65900000Y-51166282D01*
X65900000Y-51333718D01*
X65932665Y-51497936D01*
X65996740Y-51652626D01*
X66089762Y-51791844D01*
X66208156Y-51910238D01*
X66347374Y-52003260D01*
X66502064Y-52067335D01*
X66666282Y-52100000D01*
X66833718Y-52100000D01*
X66997936Y-52067335D01*
X67152626Y-52003260D01*
X67291844Y-51910238D01*
X67410238Y-51791844D01*
X67503260Y-51652626D01*
X67567335Y-51497936D01*
X67600000Y-51333718D01*
X67600000Y-51166282D01*
X67567335Y-51002064D01*
X67503260Y-50847374D01*
X67410238Y-50708156D01*
X67291844Y-50589762D01*
X67157505Y-50500000D01*
X67291844Y-50410238D01*
X67410238Y-50291844D01*
X67503260Y-50152626D01*
X67567335Y-49997936D01*
X67600000Y-49833718D01*
X67600000Y-49666282D01*
X71400000Y-49666282D01*
X71400000Y-49833718D01*
X71432665Y-49997936D01*
X71496740Y-50152626D01*
X71589762Y-50291844D01*
X71708156Y-50410238D01*
X71842495Y-50500000D01*
X71708156Y-50589762D01*
X71589762Y-50708156D01*
X71496740Y-50847374D01*
X71432665Y-51002064D01*
X71400000Y-51166282D01*
X71400000Y-51333718D01*
X71432665Y-51497936D01*
X71496740Y-51652626D01*
X71589762Y-51791844D01*
X71708156Y-51910238D01*
X71847374Y-52003260D01*
X72002064Y-52067335D01*
X72166282Y-52100000D01*
X72333718Y-52100000D01*
X72497936Y-52067335D01*
X72652626Y-52003260D01*
X72791844Y-51910238D01*
X72910238Y-51791844D01*
X73003260Y-51652626D01*
X73067335Y-51497936D01*
X73100000Y-51333718D01*
X73100000Y-51166282D01*
X73067335Y-51002064D01*
X73003260Y-50847374D01*
X72910238Y-50708156D01*
X72791844Y-50589762D01*
X72657505Y-50500000D01*
X72791844Y-50410238D01*
X72910238Y-50291844D01*
X73003260Y-50152626D01*
X73067335Y-49997936D01*
X73094472Y-49861509D01*
X87250000Y-49861509D01*
X87250000Y-50058491D01*
X87288429Y-50251689D01*
X87363811Y-50433678D01*
X87473249Y-50597463D01*
X87612537Y-50736751D01*
X87776322Y-50846189D01*
X87958311Y-50921571D01*
X88151509Y-50960000D01*
X88348491Y-50960000D01*
X88541689Y-50921571D01*
X88723678Y-50846189D01*
X88887463Y-50736751D01*
X89026751Y-50597463D01*
X89136189Y-50433678D01*
X89211571Y-50251689D01*
X89250000Y-50058491D01*
X89250000Y-49861509D01*
X89211571Y-49668311D01*
X89136189Y-49486322D01*
X89026751Y-49322537D01*
X88887463Y-49183249D01*
X88723678Y-49073811D01*
X88541689Y-48998429D01*
X88348491Y-48960000D01*
X88151509Y-48960000D01*
X87958311Y-48998429D01*
X87776322Y-49073811D01*
X87612537Y-49183249D01*
X87473249Y-49322537D01*
X87363811Y-49486322D01*
X87288429Y-49668311D01*
X87250000Y-49861509D01*
X73094472Y-49861509D01*
X73100000Y-49833718D01*
X73100000Y-49666282D01*
X73067335Y-49502064D01*
X73003260Y-49347374D01*
X72910238Y-49208156D01*
X72791844Y-49089762D01*
X72652626Y-48996740D01*
X72497936Y-48932665D01*
X72333718Y-48900000D01*
X72166282Y-48900000D01*
X72002064Y-48932665D01*
X71847374Y-48996740D01*
X71708156Y-49089762D01*
X71589762Y-49208156D01*
X71496740Y-49347374D01*
X71432665Y-49502064D01*
X71400000Y-49666282D01*
X67600000Y-49666282D01*
X67567335Y-49502064D01*
X67503260Y-49347374D01*
X67410238Y-49208156D01*
X67291844Y-49089762D01*
X67152626Y-48996740D01*
X66997936Y-48932665D01*
X66833718Y-48900000D01*
X66666282Y-48900000D01*
X66502064Y-48932665D01*
X66347374Y-48996740D01*
X66208156Y-49089762D01*
X66089762Y-49208156D01*
X65996740Y-49347374D01*
X65932665Y-49502064D01*
X65900000Y-49666282D01*
X59668589Y-49666282D01*
X59636788Y-49606787D01*
X59436845Y-49363155D01*
X59193213Y-49163212D01*
X58915256Y-49014641D01*
X58613655Y-48923151D01*
X58378597Y-48900000D01*
X57621403Y-48900000D01*
X57386345Y-48923151D01*
X57084744Y-49014641D01*
X56806787Y-49163212D01*
X56563155Y-49363155D01*
X56363212Y-49606787D01*
X56214641Y-49884744D01*
X56123151Y-50186345D01*
X56092259Y-50500000D01*
X47292275Y-50500000D01*
X47522928Y-50218949D01*
X47792214Y-49715151D01*
X47958039Y-49168498D01*
X48000000Y-48742459D01*
X48000000Y-48277187D01*
X52800000Y-48277187D01*
X52800000Y-48562813D01*
X52855723Y-48842949D01*
X52965027Y-49106833D01*
X53123711Y-49344321D01*
X53325679Y-49546289D01*
X53563167Y-49704973D01*
X53827051Y-49814277D01*
X54107187Y-49870000D01*
X54392813Y-49870000D01*
X54672949Y-49814277D01*
X54936833Y-49704973D01*
X55174321Y-49546289D01*
X55376289Y-49344321D01*
X55534973Y-49106833D01*
X55644277Y-48842949D01*
X55700000Y-48562813D01*
X55700000Y-48277187D01*
X55644277Y-47997051D01*
X55534973Y-47733167D01*
X55480412Y-47651509D01*
X76000000Y-47651509D01*
X76000000Y-47848491D01*
X76038429Y-48041689D01*
X76113811Y-48223678D01*
X76223249Y-48387463D01*
X76362537Y-48526751D01*
X76526322Y-48636189D01*
X76708311Y-48711571D01*
X76901509Y-48750000D01*
X77098491Y-48750000D01*
X77291689Y-48711571D01*
X77473678Y-48636189D01*
X77637463Y-48526751D01*
X77722705Y-48441509D01*
X82500000Y-48441509D01*
X82500000Y-48638491D01*
X82538429Y-48831689D01*
X82613811Y-49013678D01*
X82723249Y-49177463D01*
X82862537Y-49316751D01*
X83026322Y-49426189D01*
X83208311Y-49501571D01*
X83401509Y-49540000D01*
X83598491Y-49540000D01*
X83791689Y-49501571D01*
X83973678Y-49426189D01*
X84137463Y-49316751D01*
X84276751Y-49177463D01*
X84386189Y-49013678D01*
X84461571Y-48831689D01*
X84500000Y-48638491D01*
X84500000Y-48441509D01*
X84461571Y-48248311D01*
X84386189Y-48066322D01*
X84276751Y-47902537D01*
X84137463Y-47763249D01*
X83973678Y-47653811D01*
X83791689Y-47578429D01*
X83598491Y-47540000D01*
X83401509Y-47540000D01*
X83208311Y-47578429D01*
X83026322Y-47653811D01*
X82862537Y-47763249D01*
X82723249Y-47902537D01*
X82613811Y-48066322D01*
X82538429Y-48248311D01*
X82500000Y-48441509D01*
X77722705Y-48441509D01*
X77776751Y-48387463D01*
X77886189Y-48223678D01*
X77961571Y-48041689D01*
X78000000Y-47848491D01*
X78000000Y-47651509D01*
X77961571Y-47458311D01*
X77886189Y-47276322D01*
X77776751Y-47112537D01*
X77637463Y-46973249D01*
X77473678Y-46863811D01*
X77291689Y-46788429D01*
X77098491Y-46750000D01*
X76901509Y-46750000D01*
X76708311Y-46788429D01*
X76526322Y-46863811D01*
X76362537Y-46973249D01*
X76223249Y-47112537D01*
X76113811Y-47276322D01*
X76038429Y-47458311D01*
X76000000Y-47651509D01*
X55480412Y-47651509D01*
X55376289Y-47495679D01*
X55174321Y-47293711D01*
X54936833Y-47135027D01*
X54672949Y-47025723D01*
X54392813Y-46970000D01*
X54107187Y-46970000D01*
X53827051Y-47025723D01*
X53563167Y-47135027D01*
X53325679Y-47293711D01*
X53123711Y-47495679D01*
X52965027Y-47733167D01*
X52855723Y-47997051D01*
X52800000Y-48277187D01*
X48000000Y-48277187D01*
X48000000Y-47457540D01*
X47958039Y-47031501D01*
X47792214Y-46484849D01*
X47522928Y-45981051D01*
X47252480Y-45651509D01*
X47980000Y-45651509D01*
X47980000Y-45848491D01*
X48018429Y-46041689D01*
X48093811Y-46223678D01*
X48203249Y-46387463D01*
X48342537Y-46526751D01*
X48506322Y-46636189D01*
X48688311Y-46711571D01*
X48881509Y-46750000D01*
X49078491Y-46750000D01*
X49271689Y-46711571D01*
X49453678Y-46636189D01*
X49617463Y-46526751D01*
X49756751Y-46387463D01*
X49866189Y-46223678D01*
X49941571Y-46041689D01*
X49980000Y-45848491D01*
X49980000Y-45651509D01*
X50520000Y-45651509D01*
X50520000Y-45848491D01*
X50558429Y-46041689D01*
X50633811Y-46223678D01*
X50743249Y-46387463D01*
X50882537Y-46526751D01*
X51046322Y-46636189D01*
X51228311Y-46711571D01*
X51421509Y-46750000D01*
X51618491Y-46750000D01*
X51811689Y-46711571D01*
X51993678Y-46636189D01*
X52157463Y-46526751D01*
X52296751Y-46387463D01*
X52406189Y-46223678D01*
X52481571Y-46041689D01*
X52520000Y-45848491D01*
X52520000Y-45651509D01*
X52511184Y-45607187D01*
X57970000Y-45607187D01*
X57970000Y-45892813D01*
X58025723Y-46172949D01*
X58135027Y-46436833D01*
X58293711Y-46674321D01*
X58495679Y-46876289D01*
X58733167Y-47034973D01*
X58997051Y-47144277D01*
X59277187Y-47200000D01*
X59562813Y-47200000D01*
X59842949Y-47144277D01*
X60106833Y-47034973D01*
X60344321Y-46876289D01*
X60446451Y-46774159D01*
X68767973Y-46774159D01*
X68849491Y-47010655D01*
X69109469Y-47128948D01*
X69387529Y-47194248D01*
X69672986Y-47204046D01*
X69954870Y-47157967D01*
X70222347Y-47057780D01*
X70310509Y-47010655D01*
X70392027Y-46774159D01*
X69580000Y-45962132D01*
X68767973Y-46774159D01*
X60446451Y-46774159D01*
X60546289Y-46674321D01*
X60704973Y-46436833D01*
X60814277Y-46172949D01*
X60870000Y-45892813D01*
X60870000Y-45842986D01*
X68125954Y-45842986D01*
X68172033Y-46124870D01*
X68272220Y-46392347D01*
X68319345Y-46480509D01*
X68555841Y-46562027D01*
X69367868Y-45750000D01*
X69792132Y-45750000D01*
X70604159Y-46562027D01*
X70840655Y-46480509D01*
X70958948Y-46220531D01*
X71024248Y-45942471D01*
X71034046Y-45657014D01*
X70987967Y-45375130D01*
X70887780Y-45107653D01*
X70840655Y-45019491D01*
X70604159Y-44937973D01*
X69792132Y-45750000D01*
X69367868Y-45750000D01*
X68555841Y-44937973D01*
X68319345Y-45019491D01*
X68201052Y-45279469D01*
X68135752Y-45557529D01*
X68125954Y-45842986D01*
X60870000Y-45842986D01*
X60870000Y-45607187D01*
X60814277Y-45327051D01*
X60704973Y-45063167D01*
X60546289Y-44825679D01*
X60446451Y-44725841D01*
X68767973Y-44725841D01*
X69580000Y-45537868D01*
X70392027Y-44725841D01*
X70310509Y-44489345D01*
X70050531Y-44371052D01*
X69772471Y-44305752D01*
X69487014Y-44295954D01*
X69205130Y-44342033D01*
X68937653Y-44442220D01*
X68849491Y-44489345D01*
X68767973Y-44725841D01*
X60446451Y-44725841D01*
X60344321Y-44623711D01*
X60106833Y-44465027D01*
X59842949Y-44355723D01*
X59562813Y-44300000D01*
X59277187Y-44300000D01*
X58997051Y-44355723D01*
X58733167Y-44465027D01*
X58495679Y-44623711D01*
X58293711Y-44825679D01*
X58135027Y-45063167D01*
X58025723Y-45327051D01*
X57970000Y-45607187D01*
X52511184Y-45607187D01*
X52481571Y-45458311D01*
X52406189Y-45276322D01*
X52296751Y-45112537D01*
X52157463Y-44973249D01*
X51993678Y-44863811D01*
X51811689Y-44788429D01*
X51618491Y-44750000D01*
X51421509Y-44750000D01*
X51228311Y-44788429D01*
X51046322Y-44863811D01*
X50882537Y-44973249D01*
X50743249Y-45112537D01*
X50633811Y-45276322D01*
X50558429Y-45458311D01*
X50520000Y-45651509D01*
X49980000Y-45651509D01*
X49941571Y-45458311D01*
X49866189Y-45276322D01*
X49756751Y-45112537D01*
X49617463Y-44973249D01*
X49453678Y-44863811D01*
X49271689Y-44788429D01*
X49078491Y-44750000D01*
X48881509Y-44750000D01*
X48688311Y-44788429D01*
X48506322Y-44863811D01*
X48342537Y-44973249D01*
X48203249Y-45112537D01*
X48093811Y-45276322D01*
X48018429Y-45458311D01*
X47980000Y-45651509D01*
X47252480Y-45651509D01*
X47160530Y-45539469D01*
X46718948Y-45177072D01*
X46215150Y-44907786D01*
X45668498Y-44741961D01*
X45100000Y-44685969D01*
X44531501Y-44741961D01*
X43984849Y-44907786D01*
X43481051Y-45177072D01*
X43039469Y-45539470D01*
X42677072Y-45981052D01*
X42407786Y-46484850D01*
X42241961Y-47031502D01*
X42200000Y-47457541D01*
X42200000Y-48742460D01*
X42241961Y-49168499D01*
X42407786Y-49715151D01*
X42614710Y-50102279D01*
X42600000Y-50100000D01*
X42100000Y-50100000D01*
X41800000Y-50100000D01*
X41300000Y-50100000D01*
X40776138Y-50181143D01*
X40710685Y-50205037D01*
X40795339Y-50113647D01*
X41052297Y-49695291D01*
X41222700Y-49234844D01*
X41300000Y-48750000D01*
X41300000Y-48250000D01*
X38950000Y-48250000D01*
X38950000Y-50945208D01*
X39338535Y-51041307D01*
X39417586Y-51020327D01*
X39121696Y-51424681D01*
X38898122Y-51905337D01*
X38810825Y-52230126D01*
X31650000Y-52230126D01*
X31650000Y-48250000D01*
X36300000Y-48250000D01*
X36300000Y-48750000D01*
X36377300Y-49234844D01*
X36547703Y-49695291D01*
X36804661Y-50113647D01*
X37138299Y-50473834D01*
X37535795Y-50762011D01*
X37981874Y-50967103D01*
X38261465Y-51041307D01*
X38650000Y-50945208D01*
X38650000Y-48250000D01*
X36300000Y-48250000D01*
X31650000Y-48250000D01*
X31650000Y-47450000D01*
X36300000Y-47450000D01*
X36300000Y-47950000D01*
X38650000Y-47950000D01*
X38650000Y-45254792D01*
X38950000Y-45254792D01*
X38950000Y-47950000D01*
X41300000Y-47950000D01*
X41300000Y-47450000D01*
X41222700Y-46965156D01*
X41052297Y-46504709D01*
X40795339Y-46086353D01*
X40461701Y-45726166D01*
X40064205Y-45437989D01*
X39618126Y-45232897D01*
X39338535Y-45158693D01*
X38950000Y-45254792D01*
X38650000Y-45254792D01*
X38261465Y-45158693D01*
X37981874Y-45232897D01*
X37535795Y-45437989D01*
X37138299Y-45726166D01*
X36804661Y-46086353D01*
X36547703Y-46504709D01*
X36377300Y-46965156D01*
X36300000Y-47450000D01*
X31650000Y-47450000D01*
X31650000Y-40768545D01*
X33400000Y-40768545D01*
X33400000Y-41231455D01*
X33490309Y-41685470D01*
X33667457Y-42113143D01*
X33924636Y-42498038D01*
X34251962Y-42825364D01*
X34636857Y-43082543D01*
X35064530Y-43259691D01*
X35518545Y-43350000D01*
X35981455Y-43350000D01*
X36435470Y-43259691D01*
X36863143Y-43082543D01*
X37248038Y-42825364D01*
X37466215Y-42607187D01*
X57970000Y-42607187D01*
X57970000Y-42892813D01*
X58025723Y-43172949D01*
X58135027Y-43436833D01*
X58293711Y-43674321D01*
X58495679Y-43876289D01*
X58733167Y-44034973D01*
X58997051Y-44144277D01*
X59277187Y-44200000D01*
X59562813Y-44200000D01*
X59842949Y-44144277D01*
X60106833Y-44034973D01*
X60344321Y-43876289D01*
X60546289Y-43674321D01*
X60704973Y-43436833D01*
X60814277Y-43172949D01*
X60870000Y-42892813D01*
X60870000Y-42607187D01*
X68130000Y-42607187D01*
X68130000Y-42892813D01*
X68185723Y-43172949D01*
X68295027Y-43436833D01*
X68453711Y-43674321D01*
X68655679Y-43876289D01*
X68893167Y-44034973D01*
X69157051Y-44144277D01*
X69437187Y-44200000D01*
X69722813Y-44200000D01*
X69966591Y-44151509D01*
X76000000Y-44151509D01*
X76000000Y-44348491D01*
X76038429Y-44541689D01*
X76113811Y-44723678D01*
X76223249Y-44887463D01*
X76362537Y-45026751D01*
X76526322Y-45136189D01*
X76708311Y-45211571D01*
X76901509Y-45250000D01*
X77098491Y-45250000D01*
X77291689Y-45211571D01*
X77473678Y-45136189D01*
X77637463Y-45026751D01*
X77776751Y-44887463D01*
X77886189Y-44723678D01*
X77961571Y-44541689D01*
X78000000Y-44348491D01*
X78000000Y-44151509D01*
X77961571Y-43958311D01*
X77886189Y-43776322D01*
X77776751Y-43612537D01*
X77637463Y-43473249D01*
X77473678Y-43363811D01*
X77468121Y-43361509D01*
X82500000Y-43361509D01*
X82500000Y-43558491D01*
X82538429Y-43751689D01*
X82613811Y-43933678D01*
X82723249Y-44097463D01*
X82862537Y-44236751D01*
X83026322Y-44346189D01*
X83208311Y-44421571D01*
X83401509Y-44460000D01*
X83598491Y-44460000D01*
X83791689Y-44421571D01*
X83973678Y-44346189D01*
X84137463Y-44236751D01*
X84276751Y-44097463D01*
X84386189Y-43933678D01*
X84461571Y-43751689D01*
X84500000Y-43558491D01*
X84500000Y-43361509D01*
X84461571Y-43168311D01*
X84386189Y-42986322D01*
X84276751Y-42822537D01*
X84137463Y-42683249D01*
X83973678Y-42573811D01*
X83791689Y-42498429D01*
X83598491Y-42460000D01*
X83401509Y-42460000D01*
X83208311Y-42498429D01*
X83026322Y-42573811D01*
X82862537Y-42683249D01*
X82723249Y-42822537D01*
X82613811Y-42986322D01*
X82538429Y-43168311D01*
X82500000Y-43361509D01*
X77468121Y-43361509D01*
X77291689Y-43288429D01*
X77098491Y-43250000D01*
X76901509Y-43250000D01*
X76708311Y-43288429D01*
X76526322Y-43363811D01*
X76362537Y-43473249D01*
X76223249Y-43612537D01*
X76113811Y-43776322D01*
X76038429Y-43958311D01*
X76000000Y-44151509D01*
X69966591Y-44151509D01*
X70002949Y-44144277D01*
X70266833Y-44034973D01*
X70504321Y-43876289D01*
X70706289Y-43674321D01*
X70864973Y-43436833D01*
X70974277Y-43172949D01*
X71030000Y-42892813D01*
X71030000Y-42607187D01*
X70974277Y-42327051D01*
X70864973Y-42063167D01*
X70706289Y-41825679D01*
X70504321Y-41623711D01*
X70266833Y-41465027D01*
X70002949Y-41355723D01*
X69722813Y-41300000D01*
X69437187Y-41300000D01*
X69157051Y-41355723D01*
X68893167Y-41465027D01*
X68655679Y-41623711D01*
X68453711Y-41825679D01*
X68295027Y-42063167D01*
X68185723Y-42327051D01*
X68130000Y-42607187D01*
X60870000Y-42607187D01*
X60814277Y-42327051D01*
X60704973Y-42063167D01*
X60546289Y-41825679D01*
X60344321Y-41623711D01*
X60106833Y-41465027D01*
X59842949Y-41355723D01*
X59562813Y-41300000D01*
X59277187Y-41300000D01*
X58997051Y-41355723D01*
X58733167Y-41465027D01*
X58495679Y-41623711D01*
X58293711Y-41825679D01*
X58135027Y-42063167D01*
X58025723Y-42327051D01*
X57970000Y-42607187D01*
X37466215Y-42607187D01*
X37575364Y-42498038D01*
X37832543Y-42113143D01*
X38009691Y-41685470D01*
X38100000Y-41231455D01*
X38100000Y-40768545D01*
X112650000Y-40768545D01*
X112650000Y-41231455D01*
X112740309Y-41685470D01*
X112917457Y-42113143D01*
X113174636Y-42498038D01*
X113501962Y-42825364D01*
X113886857Y-43082543D01*
X114314530Y-43259691D01*
X114768545Y-43350000D01*
X115231455Y-43350000D01*
X115685470Y-43259691D01*
X116113143Y-43082543D01*
X116498038Y-42825364D01*
X116825364Y-42498038D01*
X117082543Y-42113143D01*
X117259691Y-41685470D01*
X117350000Y-41231455D01*
X117350000Y-40768545D01*
X117259691Y-40314530D01*
X117082543Y-39886857D01*
X116825364Y-39501962D01*
X116498038Y-39174636D01*
X116113143Y-38917457D01*
X115685470Y-38740309D01*
X115231455Y-38650000D01*
X114768545Y-38650000D01*
X114314530Y-38740309D01*
X113886857Y-38917457D01*
X113501962Y-39174636D01*
X113174636Y-39501962D01*
X112917457Y-39886857D01*
X112740309Y-40314530D01*
X112650000Y-40768545D01*
X38100000Y-40768545D01*
X38009691Y-40314530D01*
X37832543Y-39886857D01*
X37575364Y-39501962D01*
X37248038Y-39174636D01*
X36863143Y-38917457D01*
X36435470Y-38740309D01*
X35981455Y-38650000D01*
X35518545Y-38650000D01*
X35064530Y-38740309D01*
X34636857Y-38917457D01*
X34251962Y-39174636D01*
X33924636Y-39501962D01*
X33667457Y-39886857D01*
X33490309Y-40314530D01*
X33400000Y-40768545D01*
X31650000Y-40768545D01*
X31650000Y-36900000D01*
X119100000Y-36900000D01*
X119100001Y-89600000D01*
M02*
