M48
; DRILL file {KiCad (5.1.5-0-10_14)} date Wednesday, 20 May 2020 at 11:48:22 am
; FORMAT={-:-/ absolute / metric / decimal}
; #@! TF.CreationDate,2020-05-20T11:48:22+12:00
; #@! TF.GenerationSoftware,Kicad,Pcbnew,(5.1.5-0-10_14)
; #@! TF.FileFunction,Plated,1,2,PTH
FMAT,2
METRIC
T1C0.500
T2C0.600
T3C0.800
T4C0.900
T5C1.000
T6C1.100
%
G90
G05
T1
X72.25Y-49.75
X72.25Y-51.25
X71.25Y-76.0
X71.25Y-77.5
X66.75Y-49.75
X66.75Y-51.25
X49.75Y-54.0
X49.75Y-55.5
T2
X55.96Y-64.44
X55.96Y-72.06
X58.5Y-64.44
X58.5Y-72.06
X61.04Y-64.44
X61.04Y-72.06
T3
X65.71Y-65.5
X70.79Y-65.5
X59.42Y-42.75
X69.58Y-42.75
X101.0Y-51.17
X101.0Y-61.33
X105.25Y-54.25
X108.75Y-54.25
X54.25Y-48.42
X54.25Y-58.58
X76.18Y-52.32
X76.18Y-54.86
X76.18Y-57.4
X76.18Y-59.94
X76.18Y-62.48
X76.18Y-65.02
X76.18Y-67.56
X76.18Y-70.1
X76.18Y-72.64
X76.18Y-75.18
X83.8Y-52.32
X83.8Y-54.86
X83.8Y-57.4
X83.8Y-59.94
X83.8Y-62.48
X83.8Y-65.02
X83.8Y-67.56
X83.8Y-70.1
X83.8Y-72.64
X83.8Y-75.18
X65.71Y-62.0
X70.79Y-62.0
X88.25Y-49.96
X88.25Y-55.04
X92.25Y-73.25
X97.25Y-73.25
X104.46Y-60.75
X109.54Y-60.75
X65.71Y-69.0
X70.79Y-69.0
X86.92Y-67.5
X97.08Y-67.5
X86.92Y-59.25
X97.08Y-59.25
X63.17Y-55.25
X73.33Y-55.25
X83.25Y-78.46
X83.25Y-83.54
X65.71Y-72.5
X70.79Y-72.5
X105.25Y-71.25
X108.75Y-71.25
X92.25Y-52.5
X97.25Y-52.5
X86.92Y-64.75
X97.08Y-64.75
X59.42Y-45.75
X69.58Y-45.75
X86.92Y-62.0
X97.08Y-62.0
X115.4Y-68.75
X115.4Y-73.75
X63.17Y-58.0
X73.33Y-58.0
X101.0Y-64.17
X101.0Y-74.33
X77.0Y-44.25
X77.0Y-47.75
X88.25Y-70.5
X88.25Y-75.58
X83.5Y-43.46
X83.5Y-48.54
X76.75Y-79.25
X76.75Y-82.75
X115.4Y-51.75
X115.4Y-56.75
X104.46Y-64.75
X109.54Y-64.75
X48.98Y-45.75
X51.52Y-45.75
T4
X48.35Y-65.75
X48.35Y-68.25
X48.35Y-70.75
X51.65Y-65.75
X51.65Y-68.25
X51.65Y-70.75
T5
X53.5Y-61.75
X63.25Y-69.75
X86.8Y-80.1
X86.8Y-82.7
T6
X58.0Y-50.5
X58.0Y-53.0
X58.0Y-55.5
X37.5Y-74.75
X42.5Y-69.75
X42.5Y-72.25
X42.5Y-77.25
X42.5Y-79.75
X37.5Y-61.75
X42.5Y-56.75
X42.5Y-59.25
X42.5Y-64.25
X42.5Y-66.75
T5
G00X38.8Y-47.3
M15
G01X38.8Y-48.9
M16
G05
G00X40.85Y-52.8
M15
G01X43.05Y-52.8
M16
G05
G00X45.1Y-46.8
M15
G01X45.1Y-49.4
M16
G05
T0
M30
