G04 #@! TF.GenerationSoftware,KiCad,Pcbnew,(5.1.5-0-10_14)*
G04 #@! TF.CreationDate,2020-05-20T11:48:18+12:00*
G04 #@! TF.ProjectId,audio-amplifier,61756469-6f2d-4616-9d70-6c6966696572,B*
G04 #@! TF.SameCoordinates,Original*
G04 #@! TF.FileFunction,Copper,L2,Bot*
G04 #@! TF.FilePolarity,Positive*
%FSLAX46Y46*%
G04 Gerber Fmt 4.6, Leading zero omitted, Abs format (unit mm)*
G04 Created by KiCad (PCBNEW (5.1.5-0-10_14)) date 2020-05-20 11:48:18*
%MOMM*%
%LPD*%
G04 APERTURE LIST*
%ADD10C,0.100000*%
%ADD11O,3.800000X4.800000*%
%ADD12O,4.600000X5.600000*%
%ADD13O,5.200000X4.200000*%
%ADD14O,2.000000X2.000000*%
%ADD15O,2.500000X1.500000*%
%ADD16C,1.700000*%
%ADD17C,1.000000*%
%ADD18C,2.100000*%
%ADD19O,2.600000X2.000000*%
%ADD20C,2.000000*%
%ADD21C,1.300000*%
%ADD22O,1.400000X1.400000*%
%ADD23C,0.500000*%
%ADD24C,1.000000*%
%ADD25C,1.300000*%
%ADD26C,1.150000*%
%ADD27C,0.200000*%
G04 APERTURE END LIST*
D10*
G36*
X86150000Y-82700000D02*
G01*
X86150000Y-80100000D01*
X87450000Y-80100000D01*
X87450000Y-82700000D01*
X86150000Y-82700000D01*
G37*
D11*
X38800000Y-48100000D03*
D12*
X45100000Y-48100000D03*
D13*
X41950000Y-52800000D03*
D14*
X48350000Y-70750000D03*
X48350000Y-68250000D03*
X48350000Y-65750000D03*
X51650000Y-70750000D03*
X51650000Y-68250000D03*
X51650000Y-65750000D03*
D15*
X83800000Y-52320000D03*
X83800000Y-54860000D03*
X83800000Y-59940000D03*
X83800000Y-57400000D03*
X76180000Y-57400000D03*
X76180000Y-59940000D03*
X76180000Y-54860000D03*
X76180000Y-52320000D03*
X76180000Y-62480000D03*
X76180000Y-65020000D03*
X76180000Y-70100000D03*
X76180000Y-67560000D03*
X83800000Y-67560000D03*
X83800000Y-70100000D03*
X83800000Y-65020000D03*
X83800000Y-62480000D03*
X83800000Y-75180000D03*
X83800000Y-72640000D03*
X76180000Y-72640000D03*
X76180000Y-75180000D03*
D16*
X83250000Y-78460000D03*
X83250000Y-83540000D03*
X65710000Y-62000000D03*
X70790000Y-62000000D03*
X65710000Y-65500000D03*
X70790000Y-65500000D03*
X83500000Y-48540000D03*
X83500000Y-43460000D03*
D17*
X71250000Y-76000000D03*
X71250000Y-77500000D03*
X72250000Y-51250000D03*
X72250000Y-49750000D03*
D16*
X109540000Y-60750000D03*
X104460000Y-60750000D03*
X109540000Y-64750000D03*
X104460000Y-64750000D03*
X76750000Y-79250000D03*
X76750000Y-82750000D03*
X105250000Y-54250000D03*
X108750000Y-54250000D03*
X105250000Y-71250000D03*
X108750000Y-71250000D03*
X77000000Y-47750000D03*
X77000000Y-44250000D03*
X88250000Y-49960000D03*
X88250000Y-55040000D03*
X88250000Y-75580000D03*
X88250000Y-70500000D03*
X65710000Y-72500000D03*
X70790000Y-72500000D03*
X65710000Y-69000000D03*
X70790000Y-69000000D03*
X51520000Y-45750000D03*
X48980000Y-45750000D03*
D18*
X37500000Y-61750000D03*
X42500000Y-59250000D03*
X42500000Y-56750000D03*
X42500000Y-64250000D03*
X42500000Y-66750000D03*
X37500000Y-74750000D03*
X42500000Y-72250000D03*
X42500000Y-69750000D03*
X42500000Y-77250000D03*
X42500000Y-79750000D03*
D19*
X58000000Y-53000000D03*
X58000000Y-55500000D03*
X58000000Y-50500000D03*
D16*
X54250000Y-58580000D03*
X54250000Y-48420000D03*
X69580000Y-45750000D03*
X59420000Y-45750000D03*
X97080000Y-67500000D03*
X86920000Y-67500000D03*
X97080000Y-64750000D03*
X86920000Y-64750000D03*
X97080000Y-59250000D03*
X86920000Y-59250000D03*
X97080000Y-62000000D03*
X86920000Y-62000000D03*
X69580000Y-42750000D03*
X59420000Y-42750000D03*
X73330000Y-58000000D03*
X63170000Y-58000000D03*
X73330000Y-55250000D03*
X63170000Y-55250000D03*
X101000000Y-51170000D03*
X101000000Y-61330000D03*
X101000000Y-74330000D03*
X101000000Y-64170000D03*
D20*
X62750000Y-61000000D03*
X51250000Y-50500000D03*
X61500000Y-75250000D03*
X67500000Y-77250000D03*
X63250000Y-52500000D03*
X112750000Y-58250000D03*
X112750000Y-67250000D03*
X76750000Y-86500000D03*
X77000000Y-40500000D03*
D17*
X49750000Y-55500000D03*
X49750000Y-54000000D03*
X66750000Y-51250000D03*
X66750000Y-49750000D03*
D16*
X92250000Y-52500000D03*
X97250000Y-52500000D03*
X92250000Y-73250000D03*
X97250000Y-73250000D03*
X115400000Y-56750000D03*
X115400000Y-51750000D03*
X115400000Y-73750000D03*
X115400000Y-68750000D03*
D21*
X86800000Y-80100000D03*
X86800000Y-82700000D03*
D22*
X61040000Y-72060000D03*
X58500000Y-72060000D03*
X55960000Y-72060000D03*
X61040000Y-64440000D03*
X58500000Y-64440000D03*
X55960000Y-64440000D03*
D20*
X53500000Y-61750000D03*
X63250000Y-69750000D03*
D23*
X66559999Y-62849999D02*
X65710000Y-62000000D01*
X67310001Y-69768001D02*
X67310001Y-63600001D01*
X67310001Y-63600001D02*
X66559999Y-62849999D01*
X66478001Y-70600001D02*
X67310001Y-69768001D01*
X65241997Y-70600001D02*
X66478001Y-70600001D01*
X62331997Y-73510001D02*
X65241997Y-70600001D01*
X58500000Y-72060000D02*
X59950001Y-73510001D01*
X61489999Y-73510001D02*
X61500000Y-73520002D01*
X61500000Y-73520002D02*
X61500000Y-75250000D01*
X59950001Y-73510001D02*
X61489999Y-73510001D01*
X61489999Y-73510001D02*
X62331997Y-73510001D01*
X64860001Y-64650001D02*
X65710000Y-65500000D01*
X63199999Y-62989999D02*
X64860001Y-64650001D01*
X58500000Y-64440000D02*
X59950001Y-62989999D01*
X62750000Y-62979998D02*
X62750000Y-61000000D01*
X62760001Y-62989999D02*
X62750000Y-62979998D01*
X59950001Y-62989999D02*
X62760001Y-62989999D01*
X62760001Y-62989999D02*
X63199999Y-62989999D01*
X42500000Y-64250000D02*
X46850000Y-64250000D01*
X46850000Y-64250000D02*
X48350000Y-65750000D01*
X42500000Y-64250000D02*
X42500000Y-66750000D01*
X51650000Y-64335787D02*
X51650000Y-65750000D01*
X46564213Y-59250000D02*
X51650000Y-64335787D01*
X42500000Y-59250000D02*
X46564213Y-59250000D01*
X42500000Y-56750000D02*
X42500000Y-59250000D01*
X42500000Y-76600000D02*
X42500000Y-77250000D01*
X48350000Y-70750000D02*
X42500000Y-76600000D01*
X42500000Y-77250000D02*
X42500000Y-79750000D01*
X41450001Y-68700001D02*
X42500000Y-69750000D01*
X40699999Y-67949999D02*
X41450001Y-68700001D01*
X40699999Y-63385999D02*
X40699999Y-67949999D01*
X41635999Y-62449999D02*
X40699999Y-63385999D01*
X47196001Y-62449999D02*
X41635999Y-62449999D01*
X50000000Y-65253998D02*
X47196001Y-62449999D01*
X50000000Y-69100000D02*
X50000000Y-65253998D01*
X51650000Y-70750000D02*
X50000000Y-69100000D01*
X42500000Y-69750000D02*
X42500000Y-72250000D01*
X85277919Y-67560000D02*
X85190000Y-67560000D01*
X83800000Y-67560000D02*
X85190000Y-67560000D01*
X86920000Y-64750000D02*
X86920000Y-67500000D01*
X85250000Y-67500000D02*
X86920000Y-67500000D01*
X85190000Y-67560000D02*
X85250000Y-67500000D01*
X86920000Y-62000000D02*
X83900000Y-65020000D01*
X83900000Y-65020000D02*
X83800000Y-65020000D01*
X83800000Y-65020000D02*
X84400000Y-65020000D01*
X83800000Y-65020000D02*
X83881334Y-65020000D01*
X86920000Y-59250000D02*
X86920000Y-62000000D01*
X89250000Y-52301998D02*
X89051998Y-52500000D01*
D24*
X91047919Y-52500000D02*
X92250000Y-52500000D01*
X88121334Y-52500000D02*
X91047919Y-52500000D01*
X85761334Y-54860000D02*
X88121334Y-52500000D01*
X83800000Y-54860000D02*
X85761334Y-54860000D01*
D23*
X88250000Y-52371334D02*
X88250000Y-49960000D01*
X88121334Y-52500000D02*
X88250000Y-52371334D01*
D24*
X48688173Y-56688173D02*
X50580000Y-58580000D01*
D23*
X49750000Y-55650000D02*
X48711827Y-56688173D01*
X48711827Y-56688173D02*
X48688173Y-56688173D01*
D24*
X50580000Y-58580000D02*
X54250000Y-58580000D01*
X54250000Y-58580000D02*
X52680000Y-58580000D01*
X54250000Y-58580000D02*
X56920000Y-58580000D01*
X56920000Y-58580000D02*
X58000000Y-57500000D01*
X58000000Y-57500000D02*
X58000000Y-55500000D01*
X45100000Y-48100000D02*
X45100000Y-48600000D01*
X47600000Y-50600000D02*
X45100000Y-48100000D01*
X47600000Y-55576346D02*
X47600000Y-50600000D01*
X48711827Y-56688173D02*
X47600000Y-55576346D01*
X87929878Y-73250000D02*
X92200000Y-73250000D01*
D23*
X89209878Y-73250000D02*
X89250000Y-73290122D01*
D24*
X87750000Y-73250000D02*
X89209878Y-73250000D01*
X87140000Y-72640000D02*
X87750000Y-73250000D01*
X83800000Y-72640000D02*
X87140000Y-72640000D01*
D23*
X88250000Y-73750000D02*
X87750000Y-73250000D01*
X88250000Y-75580000D02*
X88250000Y-73750000D01*
D24*
X72250001Y-49749999D02*
X72250000Y-49749999D01*
X84300000Y-75180000D02*
X83800000Y-75180000D01*
X84300000Y-52320000D02*
X83800000Y-52320000D01*
X72250000Y-49750000D02*
X73750000Y-49750000D01*
D23*
X67050010Y-73840010D02*
X80090010Y-73840010D01*
X65710000Y-72500000D02*
X67050010Y-73840010D01*
X81430000Y-75180000D02*
X83800000Y-75180000D01*
X80090010Y-73840010D02*
X81430000Y-75180000D01*
D24*
X83800000Y-75180000D02*
X83800000Y-76430000D01*
D25*
X86800000Y-80100000D02*
X86800000Y-78550000D01*
D24*
X84620000Y-77250000D02*
X83800000Y-76430000D01*
X85500000Y-77250000D02*
X84620000Y-77250000D01*
X86800000Y-78550000D02*
X85500000Y-77250000D01*
D23*
X69580000Y-45750000D02*
X66750000Y-48580000D01*
D24*
X75480000Y-57400000D02*
X76180000Y-57400000D01*
X76180000Y-67560000D02*
X76680000Y-67560000D01*
X76680000Y-57400000D02*
X76180000Y-57400000D01*
D25*
X86800000Y-82700000D02*
X86800000Y-86450000D01*
D26*
X86800000Y-86450000D02*
X86500000Y-86750000D01*
X86460000Y-86750000D02*
X86210000Y-87000000D01*
X86500000Y-86750000D02*
X86460000Y-86750000D01*
X86210000Y-87000000D02*
X83250000Y-87000000D01*
D23*
X95330000Y-58830000D02*
X95330000Y-59246174D01*
D24*
X72250000Y-52320000D02*
X72250000Y-51295364D01*
D23*
X67500000Y-77250000D02*
X68750000Y-76000000D01*
X68750000Y-76000000D02*
X71250000Y-76000000D01*
D24*
X76750000Y-79250000D02*
X82460000Y-79250000D01*
X82460000Y-79250000D02*
X83250000Y-78460000D01*
X72249999Y-51250001D02*
X72250000Y-51250001D01*
X76180000Y-52320000D02*
X76180000Y-48570000D01*
X76180000Y-48570000D02*
X77000000Y-47750000D01*
D23*
X94649999Y-58149999D02*
X94969714Y-58469714D01*
X94969714Y-58469714D02*
X95330000Y-58830000D01*
X86321334Y-57500000D02*
X94000000Y-57500000D01*
X94000000Y-57500000D02*
X94969714Y-58469714D01*
X83800000Y-59940000D02*
X83881334Y-59940000D01*
X83881334Y-59940000D02*
X86321334Y-57500000D01*
X83800000Y-59940000D02*
X84300000Y-59940000D01*
D24*
X60300010Y-52984218D02*
X60300010Y-48949990D01*
X60300010Y-48949990D02*
X66500000Y-42750000D01*
X58000000Y-53000000D02*
X60300000Y-53000000D01*
X60300000Y-53000000D02*
X60300010Y-52999990D01*
X60300010Y-55130010D02*
X60300010Y-52984218D01*
X60300010Y-52999990D02*
X60300010Y-52984218D01*
X76750000Y-79250000D02*
X76750000Y-78047919D01*
X76750000Y-78047919D02*
X76180000Y-77477919D01*
X76180000Y-77477919D02*
X76180000Y-75180000D01*
X76180000Y-75180000D02*
X72069999Y-75180000D01*
X72069999Y-75180000D02*
X71250000Y-75999999D01*
X83800000Y-59940000D02*
X83800000Y-62480000D01*
X60300010Y-53550010D02*
X60300010Y-55130010D01*
X60300010Y-55130010D02*
X61264773Y-56094773D01*
X76680000Y-75180000D02*
X76180000Y-75180000D01*
X63170000Y-58000000D02*
X61264773Y-56094773D01*
X66500000Y-42750000D02*
X69580000Y-42750000D01*
X71070000Y-52320000D02*
X72583094Y-52320000D01*
X69500000Y-48568002D02*
X69500000Y-50750000D01*
X71500000Y-43467919D02*
X71500000Y-46568002D01*
X72583094Y-52320000D02*
X76180000Y-52320000D01*
X70782081Y-42750000D02*
X71500000Y-43467919D01*
X71500000Y-46568002D02*
X69500000Y-48568002D01*
X69500000Y-50750000D02*
X71070000Y-52320000D01*
X69580000Y-42750000D02*
X70782081Y-42750000D01*
D23*
X95330000Y-59909758D02*
X95330000Y-59246174D01*
X95330000Y-66952081D02*
X95330000Y-59909758D01*
X95877919Y-67500000D02*
X95330000Y-66952081D01*
X97080000Y-67500000D02*
X95877919Y-67500000D01*
D24*
X79720000Y-52320000D02*
X83500000Y-48540000D01*
X76180000Y-52320000D02*
X79720000Y-52320000D01*
D23*
X95333826Y-59250000D02*
X97080000Y-59250000D01*
X95330000Y-59246174D02*
X95333826Y-59250000D01*
X51250000Y-50500000D02*
X54191901Y-50500000D01*
X54191901Y-50500000D02*
X58000000Y-50500000D01*
X54250000Y-48420000D02*
X54250000Y-50441901D01*
X54250000Y-50441901D02*
X54191901Y-50500000D01*
X49750000Y-53850000D02*
X49750000Y-52000000D01*
X49750000Y-52000000D02*
X51250000Y-50500000D01*
X51250000Y-50500000D02*
X53372081Y-50500000D01*
X54250000Y-48420000D02*
X54250000Y-49622081D01*
X55127919Y-50500000D02*
X56200000Y-50500000D01*
X56200000Y-50500000D02*
X58000000Y-50500000D01*
X59420000Y-45750000D02*
X58000000Y-47170000D01*
X58000000Y-47170000D02*
X58000000Y-50500000D01*
X72810000Y-59940000D02*
X76190000Y-59940000D01*
X70750000Y-62000000D02*
X72810000Y-59940000D01*
X73770000Y-62480000D02*
X76190000Y-62480000D01*
X70750000Y-65500000D02*
X73770000Y-62480000D01*
X67309030Y-55250000D02*
X70328337Y-55250000D01*
X63170000Y-55250000D02*
X66705882Y-55250000D01*
X66705882Y-55250000D02*
X67309030Y-55250000D01*
X66750000Y-51400000D02*
X66750000Y-55205882D01*
X66750000Y-55205882D02*
X66705882Y-55250000D01*
X70328337Y-55250000D02*
X70580000Y-55250000D01*
X76180000Y-54860000D02*
X75860000Y-54860000D01*
X75860000Y-54860000D02*
X74570010Y-53570010D01*
X74570010Y-53570010D02*
X72641988Y-53570010D01*
X72641988Y-53570010D02*
X70961998Y-55250000D01*
X70961998Y-55250000D02*
X70328337Y-55250000D01*
X63170000Y-55250000D02*
X63170000Y-52580000D01*
X63170000Y-52580000D02*
X63250000Y-52500000D01*
X76088002Y-54860000D02*
X76180000Y-54860000D01*
X76050000Y-55000000D02*
X76190000Y-54860000D01*
X72000000Y-56288002D02*
X70961998Y-55250000D01*
X72000000Y-57250000D02*
X72000000Y-56288002D01*
X72750000Y-58000000D02*
X72000000Y-57250000D01*
X73330000Y-58000000D02*
X72750000Y-58000000D01*
D24*
X100944102Y-54250000D02*
X104500000Y-54250000D01*
D23*
X101000000Y-61330000D02*
X101000000Y-54305898D01*
X101000000Y-54305898D02*
X100944102Y-54250000D01*
X102420000Y-61330000D02*
X103000000Y-60750000D01*
X103000000Y-60750000D02*
X104460000Y-60750000D01*
X101000000Y-61330000D02*
X102420000Y-61330000D01*
D24*
X99950000Y-54250000D02*
X99000000Y-54250000D01*
X99000000Y-54250000D02*
X97250000Y-52500000D01*
X99950000Y-54250000D02*
X100944102Y-54250000D01*
X100944091Y-71250000D02*
X104500000Y-71250000D01*
D23*
X100944091Y-71250000D02*
X101000000Y-71194091D01*
X101000000Y-71194091D02*
X101000000Y-64170000D01*
X101000000Y-64170000D02*
X102202081Y-64170000D01*
X102202081Y-64170000D02*
X102782081Y-64750000D01*
X102782081Y-64750000D02*
X104460000Y-64750000D01*
D24*
X99250000Y-71250000D02*
X97250000Y-73250000D01*
X100944091Y-71250000D02*
X99250000Y-71250000D01*
D23*
X108750000Y-56750000D02*
X110250000Y-58250000D01*
X110250000Y-58250000D02*
X112750000Y-58250000D01*
X108750000Y-54250000D02*
X108750000Y-56750000D01*
D24*
X112900000Y-54250000D02*
X115400000Y-56750000D01*
X108750000Y-54250000D02*
X112900000Y-54250000D01*
D23*
X112750000Y-67250000D02*
X110450000Y-67250000D01*
X108750000Y-68950000D02*
X108750000Y-71250000D01*
X110450000Y-67250000D02*
X108750000Y-68950000D01*
D24*
X112900000Y-71250000D02*
X115400000Y-68750000D01*
X108750000Y-71250000D02*
X112900000Y-71250000D01*
D23*
X84839990Y-56360010D02*
X83800000Y-57400000D01*
X86929990Y-56360010D02*
X88250000Y-55040000D01*
X86439990Y-56360010D02*
X86929990Y-56360010D01*
X86439990Y-56360010D02*
X84839990Y-56360010D01*
X86100000Y-70100000D02*
X86500000Y-70500000D01*
X83800000Y-70100000D02*
X86100000Y-70100000D01*
X86500000Y-70500000D02*
X88250000Y-70500000D01*
X70790000Y-72500000D02*
X76040000Y-72500000D01*
X76040000Y-72500000D02*
X76180000Y-72640000D01*
X76050000Y-72500000D02*
X76190000Y-72640000D01*
X73567919Y-65020000D02*
X76180000Y-65020000D01*
X70790000Y-69000000D02*
X70790000Y-67797919D01*
X70790000Y-67797919D02*
X73567919Y-65020000D01*
X51520000Y-45750000D02*
X53232657Y-45750000D01*
X53232657Y-45750000D02*
X54301998Y-45750000D01*
X56420000Y-45750000D02*
X53232657Y-45750000D01*
X56420000Y-45750000D02*
X59420000Y-42750000D01*
X59500000Y-68250000D02*
X61040000Y-66710000D01*
X61040000Y-66710000D02*
X61040000Y-64440000D01*
X51650000Y-68250000D02*
X59500000Y-68250000D01*
X45250000Y-72164002D02*
X45250000Y-71350000D01*
X45250000Y-71350000D02*
X48350000Y-68250000D01*
X42000000Y-74750000D02*
X42664002Y-74750000D01*
X40699999Y-76050001D02*
X42000000Y-74750000D01*
X42664002Y-74750000D02*
X45250000Y-72164002D01*
X40699999Y-80614001D02*
X40699999Y-76050001D01*
X41635999Y-81550001D02*
X40699999Y-80614001D01*
X43364001Y-81550001D02*
X41635999Y-81550001D01*
X54304003Y-70609999D02*
X43364001Y-81550001D01*
X59589999Y-70609999D02*
X54304003Y-70609999D01*
X61040000Y-72060000D02*
X59589999Y-70609999D01*
D27*
G36*
X72200000Y-42612285D02*
G01*
X71598114Y-42010399D01*
X71563662Y-41968419D01*
X71396165Y-41830958D01*
X71205069Y-41728816D01*
X70997719Y-41665916D01*
X70836117Y-41650000D01*
X70836115Y-41650000D01*
X70782081Y-41644678D01*
X70728047Y-41650000D01*
X70530610Y-41650000D01*
X70504321Y-41623711D01*
X70266833Y-41465027D01*
X70002949Y-41355723D01*
X69722813Y-41300000D01*
X69437187Y-41300000D01*
X69157051Y-41355723D01*
X68893167Y-41465027D01*
X68655679Y-41623711D01*
X68629390Y-41650000D01*
X66554034Y-41650000D01*
X66500000Y-41644678D01*
X66445966Y-41650000D01*
X66445964Y-41650000D01*
X66284362Y-41665916D01*
X66077012Y-41728816D01*
X66050848Y-41742801D01*
X65885915Y-41830958D01*
X65806797Y-41895889D01*
X65718419Y-41968419D01*
X65683971Y-42010394D01*
X59560405Y-48133961D01*
X59518430Y-48168409D01*
X59483984Y-48210382D01*
X59380968Y-48335906D01*
X59278827Y-48527002D01*
X59215927Y-48734352D01*
X59214386Y-48750000D01*
X59194688Y-48949990D01*
X59200011Y-49004034D01*
X59200011Y-49168791D01*
X59193213Y-49163212D01*
X58915256Y-49014641D01*
X58850000Y-48994846D01*
X58850000Y-47522080D01*
X59189519Y-47182562D01*
X59277187Y-47200000D01*
X59562813Y-47200000D01*
X59842949Y-47144277D01*
X60106833Y-47034973D01*
X60344321Y-46876289D01*
X60546289Y-46674321D01*
X60704973Y-46436833D01*
X60814277Y-46172949D01*
X60870000Y-45892813D01*
X60870000Y-45607187D01*
X60814277Y-45327051D01*
X60704973Y-45063167D01*
X60546289Y-44825679D01*
X60344321Y-44623711D01*
X60106833Y-44465027D01*
X59842949Y-44355723D01*
X59562813Y-44300000D01*
X59277187Y-44300000D01*
X59021152Y-44350929D01*
X59189519Y-44182562D01*
X59277187Y-44200000D01*
X59562813Y-44200000D01*
X59842949Y-44144277D01*
X60106833Y-44034973D01*
X60344321Y-43876289D01*
X60546289Y-43674321D01*
X60704973Y-43436833D01*
X60814277Y-43172949D01*
X60870000Y-42892813D01*
X60870000Y-42607187D01*
X60814277Y-42327051D01*
X60704973Y-42063167D01*
X60546289Y-41825679D01*
X60344321Y-41623711D01*
X60106833Y-41465027D01*
X59842949Y-41355723D01*
X59562813Y-41300000D01*
X59277187Y-41300000D01*
X58997051Y-41355723D01*
X58733167Y-41465027D01*
X58495679Y-41623711D01*
X58293711Y-41825679D01*
X58135027Y-42063167D01*
X58025723Y-42327051D01*
X57970000Y-42607187D01*
X57970000Y-42892813D01*
X57987438Y-42980481D01*
X56067920Y-44900000D01*
X52695949Y-44900000D01*
X52646289Y-44825679D01*
X52444321Y-44623711D01*
X52206833Y-44465027D01*
X51942949Y-44355723D01*
X51662813Y-44300000D01*
X51377187Y-44300000D01*
X51097051Y-44355723D01*
X50833167Y-44465027D01*
X50595679Y-44623711D01*
X50393711Y-44825679D01*
X50251124Y-45039076D01*
X50240655Y-45019491D01*
X50004159Y-44937973D01*
X49192132Y-45750000D01*
X50004159Y-46562027D01*
X50240655Y-46480509D01*
X50250197Y-46459537D01*
X50393711Y-46674321D01*
X50595679Y-46876289D01*
X50833167Y-47034973D01*
X51097051Y-47144277D01*
X51377187Y-47200000D01*
X51662813Y-47200000D01*
X51942949Y-47144277D01*
X52206833Y-47034973D01*
X52444321Y-46876289D01*
X52646289Y-46674321D01*
X52695949Y-46600000D01*
X56378259Y-46600000D01*
X56420000Y-46604111D01*
X56461741Y-46600000D01*
X56461749Y-46600000D01*
X56586629Y-46587700D01*
X56746855Y-46539097D01*
X56894519Y-46460168D01*
X57023948Y-46353948D01*
X57050566Y-46321514D01*
X58020929Y-45351151D01*
X57970000Y-45607187D01*
X57970000Y-45892813D01*
X57987438Y-45980481D01*
X57428486Y-46539434D01*
X57396052Y-46566052D01*
X57289832Y-46695482D01*
X57217418Y-46830958D01*
X57210903Y-46843146D01*
X57166056Y-46990991D01*
X57162300Y-47003372D01*
X57150000Y-47128252D01*
X57150000Y-47128259D01*
X57145889Y-47170000D01*
X57150000Y-47211741D01*
X57150001Y-48994846D01*
X57084744Y-49014641D01*
X56806787Y-49163212D01*
X56563155Y-49363155D01*
X56363212Y-49606787D01*
X56340114Y-49650000D01*
X55100000Y-49650000D01*
X55100000Y-49595949D01*
X55174321Y-49546289D01*
X55376289Y-49344321D01*
X55534973Y-49106833D01*
X55644277Y-48842949D01*
X55700000Y-48562813D01*
X55700000Y-48277187D01*
X55644277Y-47997051D01*
X55534973Y-47733167D01*
X55376289Y-47495679D01*
X55174321Y-47293711D01*
X54936833Y-47135027D01*
X54672949Y-47025723D01*
X54392813Y-46970000D01*
X54107187Y-46970000D01*
X53827051Y-47025723D01*
X53563167Y-47135027D01*
X53325679Y-47293711D01*
X53123711Y-47495679D01*
X52965027Y-47733167D01*
X52855723Y-47997051D01*
X52800000Y-48277187D01*
X52800000Y-48562813D01*
X52855723Y-48842949D01*
X52965027Y-49106833D01*
X53123711Y-49344321D01*
X53325679Y-49546289D01*
X53400001Y-49595949D01*
X53400001Y-49650000D01*
X52606352Y-49650000D01*
X52492801Y-49480059D01*
X52269941Y-49257199D01*
X52007884Y-49082098D01*
X51716703Y-48961487D01*
X51407586Y-48900000D01*
X51092414Y-48900000D01*
X50783297Y-48961487D01*
X50492116Y-49082098D01*
X50230059Y-49257199D01*
X50007199Y-49480059D01*
X49832098Y-49742116D01*
X49711487Y-50033297D01*
X49650000Y-50342414D01*
X49650000Y-50657586D01*
X49689874Y-50858046D01*
X49178481Y-51369439D01*
X49146053Y-51396052D01*
X49039833Y-51525481D01*
X49015578Y-51570858D01*
X48960903Y-51673146D01*
X48912300Y-51833371D01*
X48895889Y-52000000D01*
X48900001Y-52041751D01*
X48900000Y-53294366D01*
X48895575Y-53298791D01*
X48775193Y-53478955D01*
X48700000Y-53660487D01*
X48700000Y-50654034D01*
X48705322Y-50600000D01*
X48700000Y-50545964D01*
X48684084Y-50384362D01*
X48621184Y-50177012D01*
X48519042Y-49985916D01*
X48381581Y-49818419D01*
X48339606Y-49783971D01*
X47903599Y-49347964D01*
X47958039Y-49168498D01*
X48000000Y-48742459D01*
X48000000Y-47457540D01*
X47958039Y-47031501D01*
X47879976Y-46774159D01*
X48167973Y-46774159D01*
X48249491Y-47010655D01*
X48509469Y-47128948D01*
X48787529Y-47194248D01*
X49072986Y-47204046D01*
X49354870Y-47157967D01*
X49622347Y-47057780D01*
X49710509Y-47010655D01*
X49792027Y-46774159D01*
X48980000Y-45962132D01*
X48167973Y-46774159D01*
X47879976Y-46774159D01*
X47799253Y-46508052D01*
X47955841Y-46562027D01*
X48767868Y-45750000D01*
X47955841Y-44937973D01*
X47719345Y-45019491D01*
X47601052Y-45279469D01*
X47535752Y-45557529D01*
X47525954Y-45842986D01*
X47559799Y-46050033D01*
X47522928Y-45981051D01*
X47160530Y-45539469D01*
X46718948Y-45177072D01*
X46215150Y-44907786D01*
X45668498Y-44741961D01*
X45504829Y-44725841D01*
X48167973Y-44725841D01*
X48980000Y-45537868D01*
X49792027Y-44725841D01*
X49710509Y-44489345D01*
X49450531Y-44371052D01*
X49172471Y-44305752D01*
X48887014Y-44295954D01*
X48605130Y-44342033D01*
X48337653Y-44442220D01*
X48249491Y-44489345D01*
X48167973Y-44725841D01*
X45504829Y-44725841D01*
X45100000Y-44685969D01*
X44531501Y-44741961D01*
X43984849Y-44907786D01*
X43481051Y-45177072D01*
X43039469Y-45539470D01*
X42677072Y-45981052D01*
X42407786Y-46484850D01*
X42241961Y-47031502D01*
X42200000Y-47457541D01*
X42200000Y-48742460D01*
X42241961Y-49168499D01*
X42407786Y-49715151D01*
X42614710Y-50102279D01*
X42600000Y-50100000D01*
X42100000Y-50100000D01*
X42100000Y-52650000D01*
X44995584Y-52650000D01*
X45089175Y-52230126D01*
X45001878Y-51905337D01*
X44806415Y-51485115D01*
X45100000Y-51514031D01*
X45668499Y-51458039D01*
X46215151Y-51292214D01*
X46500001Y-51139958D01*
X46500000Y-55522310D01*
X46494678Y-55576346D01*
X46500000Y-55630380D01*
X46500000Y-55630381D01*
X46515916Y-55791983D01*
X46578816Y-55999333D01*
X46680958Y-56190430D01*
X46818419Y-56357927D01*
X46860399Y-56392379D01*
X47767816Y-57299797D01*
X47769131Y-57302257D01*
X47872147Y-57427781D01*
X49763971Y-59319606D01*
X49798419Y-59361581D01*
X49965916Y-59499042D01*
X50157012Y-59601184D01*
X50364362Y-59664084D01*
X50525964Y-59680000D01*
X50525965Y-59680000D01*
X50579999Y-59685322D01*
X50634033Y-59680000D01*
X53299390Y-59680000D01*
X53325679Y-59706289D01*
X53563167Y-59864973D01*
X53827051Y-59974277D01*
X54107187Y-60030000D01*
X54392813Y-60030000D01*
X54672949Y-59974277D01*
X54936833Y-59864973D01*
X55174321Y-59706289D01*
X55200610Y-59680000D01*
X56865966Y-59680000D01*
X56920000Y-59685322D01*
X56974034Y-59680000D01*
X56974036Y-59680000D01*
X57135638Y-59664084D01*
X57342988Y-59601184D01*
X57534084Y-59499042D01*
X57701581Y-59361581D01*
X57736033Y-59319601D01*
X58739601Y-58316033D01*
X58781581Y-58281581D01*
X58919042Y-58114084D01*
X58959123Y-58039097D01*
X59021184Y-57922989D01*
X59084084Y-57715638D01*
X59105322Y-57500000D01*
X59100000Y-57445964D01*
X59100000Y-56886611D01*
X59193213Y-56836788D01*
X59436845Y-56636845D01*
X59636788Y-56393213D01*
X59765944Y-56151579D01*
X60525164Y-56910799D01*
X60525169Y-56910803D01*
X61720000Y-58105635D01*
X61720000Y-58142813D01*
X61775723Y-58422949D01*
X61885027Y-58686833D01*
X62043711Y-58924321D01*
X62245679Y-59126289D01*
X62483167Y-59284973D01*
X62747051Y-59394277D01*
X62775822Y-59400000D01*
X62592414Y-59400000D01*
X62283297Y-59461487D01*
X61992116Y-59582098D01*
X61730059Y-59757199D01*
X61507199Y-59980059D01*
X61332098Y-60242116D01*
X61211487Y-60533297D01*
X61150000Y-60842414D01*
X61150000Y-61157586D01*
X61211487Y-61466703D01*
X61332098Y-61757884D01*
X61507199Y-62019941D01*
X61627257Y-62139999D01*
X59991741Y-62139999D01*
X59950000Y-62135888D01*
X59908259Y-62139999D01*
X59908252Y-62139999D01*
X59799014Y-62150758D01*
X59783371Y-62152299D01*
X59650940Y-62192471D01*
X59623146Y-62200902D01*
X59475482Y-62279831D01*
X59346053Y-62386051D01*
X59319439Y-62418480D01*
X58597920Y-63140000D01*
X58371961Y-63140000D01*
X58120804Y-63189958D01*
X57884219Y-63287955D01*
X57671298Y-63430224D01*
X57490224Y-63611298D01*
X57347955Y-63824219D01*
X57249958Y-64060804D01*
X57204369Y-64289998D01*
X57100176Y-64289998D01*
X57211954Y-64089840D01*
X57195506Y-64035597D01*
X57092871Y-63802332D01*
X56946700Y-63593573D01*
X56762611Y-63417341D01*
X56547678Y-63280409D01*
X56310161Y-63188040D01*
X56110000Y-63298676D01*
X56110000Y-64290000D01*
X56130000Y-64290000D01*
X56130000Y-64590000D01*
X56110000Y-64590000D01*
X56110000Y-65581324D01*
X56310161Y-65691960D01*
X56547678Y-65599591D01*
X56762611Y-65462659D01*
X56946700Y-65286427D01*
X57092871Y-65077668D01*
X57195506Y-64844403D01*
X57211954Y-64790160D01*
X57100176Y-64590002D01*
X57204369Y-64590002D01*
X57249958Y-64819196D01*
X57347955Y-65055781D01*
X57490224Y-65268702D01*
X57671298Y-65449776D01*
X57884219Y-65592045D01*
X58120804Y-65690042D01*
X58371961Y-65740000D01*
X58628039Y-65740000D01*
X58879196Y-65690042D01*
X59115781Y-65592045D01*
X59328702Y-65449776D01*
X59509776Y-65268702D01*
X59652045Y-65055781D01*
X59750042Y-64819196D01*
X59770000Y-64718860D01*
X59789958Y-64819196D01*
X59887955Y-65055781D01*
X60030224Y-65268702D01*
X60190001Y-65428479D01*
X60190000Y-66357919D01*
X59147920Y-67400000D01*
X53006352Y-67400000D01*
X52892801Y-67230059D01*
X52669941Y-67007199D01*
X52659167Y-67000000D01*
X52669941Y-66992801D01*
X52892801Y-66769941D01*
X53067902Y-66507884D01*
X53188513Y-66216703D01*
X53250000Y-65907586D01*
X53250000Y-65592414D01*
X53188513Y-65283297D01*
X53067902Y-64992116D01*
X52932960Y-64790160D01*
X54708046Y-64790160D01*
X54724494Y-64844403D01*
X54827129Y-65077668D01*
X54973300Y-65286427D01*
X55157389Y-65462659D01*
X55372322Y-65599591D01*
X55609839Y-65691960D01*
X55810000Y-65581324D01*
X55810000Y-64590000D01*
X54819825Y-64590000D01*
X54708046Y-64790160D01*
X52932960Y-64790160D01*
X52892801Y-64730059D01*
X52669941Y-64507199D01*
X52500000Y-64393648D01*
X52500000Y-64377528D01*
X52504111Y-64335787D01*
X52500000Y-64294046D01*
X52500000Y-64294038D01*
X52487700Y-64169158D01*
X52463640Y-64089840D01*
X54708046Y-64089840D01*
X54819825Y-64290000D01*
X55810000Y-64290000D01*
X55810000Y-63298676D01*
X55609839Y-63188040D01*
X55372322Y-63280409D01*
X55157389Y-63417341D01*
X54973300Y-63593573D01*
X54827129Y-63802332D01*
X54724494Y-64035597D01*
X54708046Y-64089840D01*
X52463640Y-64089840D01*
X52439097Y-64008932D01*
X52360168Y-63861268D01*
X52253948Y-63731839D01*
X52221521Y-63705227D01*
X47194779Y-58678486D01*
X47168161Y-58646052D01*
X47038732Y-58539832D01*
X46891068Y-58460903D01*
X46730842Y-58412300D01*
X46605962Y-58400000D01*
X46605954Y-58400000D01*
X46564213Y-58395889D01*
X46522472Y-58400000D01*
X43916486Y-58400000D01*
X43781639Y-58198186D01*
X43583453Y-58000000D01*
X43781639Y-57801814D01*
X43962211Y-57531568D01*
X44086592Y-57231287D01*
X44150000Y-56912511D01*
X44150000Y-56587489D01*
X44086592Y-56268713D01*
X43962211Y-55968432D01*
X43781639Y-55698186D01*
X43551814Y-55468361D01*
X43352701Y-55335318D01*
X43621828Y-55237072D01*
X44074761Y-54961632D01*
X44465255Y-54603122D01*
X44778304Y-54175319D01*
X45001878Y-53694663D01*
X45089175Y-53369874D01*
X44995584Y-52950000D01*
X42100000Y-52950000D01*
X42100000Y-52970000D01*
X41800000Y-52970000D01*
X41800000Y-52950000D01*
X38904416Y-52950000D01*
X38810825Y-53369874D01*
X38898122Y-53694663D01*
X39121696Y-54175319D01*
X39434745Y-54603122D01*
X39825239Y-54961632D01*
X40278172Y-55237072D01*
X40776138Y-55418857D01*
X41300000Y-55500000D01*
X41416547Y-55500000D01*
X41218361Y-55698186D01*
X41037789Y-55968432D01*
X40913408Y-56268713D01*
X40850000Y-56587489D01*
X40850000Y-56912511D01*
X40913408Y-57231287D01*
X41037789Y-57531568D01*
X41218361Y-57801814D01*
X41416547Y-58000000D01*
X41218361Y-58198186D01*
X41037789Y-58468432D01*
X40913408Y-58768713D01*
X40850000Y-59087489D01*
X40850000Y-59412511D01*
X40913408Y-59731287D01*
X41037789Y-60031568D01*
X41218361Y-60301814D01*
X41448186Y-60531639D01*
X41718432Y-60712211D01*
X42018713Y-60836592D01*
X42337489Y-60900000D01*
X42662511Y-60900000D01*
X42981287Y-60836592D01*
X43281568Y-60712211D01*
X43551814Y-60531639D01*
X43781639Y-60301814D01*
X43916486Y-60100000D01*
X46212133Y-60100000D01*
X50624695Y-64512563D01*
X50542671Y-64594587D01*
X47826567Y-61878485D01*
X47799949Y-61846051D01*
X47670520Y-61739831D01*
X47522856Y-61660902D01*
X47362630Y-61612299D01*
X47237750Y-61599999D01*
X47237742Y-61599999D01*
X47196001Y-61595888D01*
X47154260Y-61599999D01*
X41677740Y-61599999D01*
X41635999Y-61595888D01*
X41594258Y-61599999D01*
X41594250Y-61599999D01*
X41469370Y-61612299D01*
X41309144Y-61660902D01*
X41161480Y-61739831D01*
X41032051Y-61846051D01*
X41005437Y-61878480D01*
X40128485Y-62755433D01*
X40096051Y-62782051D01*
X39989831Y-62911481D01*
X39919152Y-63043711D01*
X39910902Y-63059145D01*
X39876061Y-63174004D01*
X39862299Y-63219371D01*
X39849999Y-63344251D01*
X39849999Y-63344258D01*
X39845888Y-63385999D01*
X39849999Y-63427740D01*
X39850000Y-67908248D01*
X39845888Y-67949999D01*
X39862299Y-68116628D01*
X39910902Y-68276853D01*
X39937713Y-68327012D01*
X39989832Y-68424518D01*
X40096052Y-68553947D01*
X40128480Y-68580560D01*
X40878481Y-69330562D01*
X40878486Y-69330566D01*
X40897352Y-69349432D01*
X40850000Y-69587489D01*
X40850000Y-69912511D01*
X40913408Y-70231287D01*
X41037789Y-70531568D01*
X41218361Y-70801814D01*
X41416547Y-71000000D01*
X41218361Y-71198186D01*
X41037789Y-71468432D01*
X40913408Y-71768713D01*
X40850000Y-72087489D01*
X40850000Y-72412511D01*
X40913408Y-72731287D01*
X41037789Y-73031568D01*
X41218361Y-73301814D01*
X41448186Y-73531639D01*
X41718432Y-73712211D01*
X42018713Y-73836592D01*
X42316164Y-73895758D01*
X42311922Y-73900000D01*
X42041740Y-73900000D01*
X41999999Y-73895889D01*
X41958258Y-73900000D01*
X41958251Y-73900000D01*
X41849013Y-73910759D01*
X41833370Y-73912300D01*
X41709088Y-73950000D01*
X41673145Y-73960903D01*
X41525481Y-74039832D01*
X41396052Y-74146052D01*
X41369438Y-74178481D01*
X40128480Y-75419440D01*
X40096052Y-75446053D01*
X39989832Y-75575482D01*
X39950845Y-75648420D01*
X39910902Y-75723147D01*
X39862299Y-75883372D01*
X39845888Y-76050001D01*
X39850000Y-76091752D01*
X39849999Y-80572260D01*
X39845888Y-80614001D01*
X39849999Y-80655742D01*
X39849999Y-80655749D01*
X39854358Y-80700001D01*
X39862299Y-80780630D01*
X39868725Y-80801814D01*
X39910902Y-80940855D01*
X39989831Y-81088519D01*
X40096051Y-81217949D01*
X40128485Y-81244567D01*
X41005437Y-82121520D01*
X41032051Y-82153949D01*
X41161480Y-82260169D01*
X41309144Y-82339098D01*
X41469370Y-82387701D01*
X41594250Y-82400001D01*
X41594258Y-82400001D01*
X41635999Y-82404112D01*
X41677740Y-82400001D01*
X43322260Y-82400001D01*
X43364001Y-82404112D01*
X43405742Y-82400001D01*
X43405750Y-82400001D01*
X43530630Y-82387701D01*
X43690856Y-82339098D01*
X43838520Y-82260169D01*
X43967949Y-82153949D01*
X43994567Y-82121515D01*
X53705922Y-72410160D01*
X54708046Y-72410160D01*
X54724494Y-72464403D01*
X54827129Y-72697668D01*
X54973300Y-72906427D01*
X55157389Y-73082659D01*
X55372322Y-73219591D01*
X55609839Y-73311960D01*
X55810000Y-73201324D01*
X55810000Y-72210000D01*
X54819825Y-72210000D01*
X54708046Y-72410160D01*
X53705922Y-72410160D01*
X54656084Y-71459999D01*
X54810556Y-71459999D01*
X54724494Y-71655597D01*
X54708046Y-71709840D01*
X54819825Y-71910000D01*
X55810000Y-71910000D01*
X55810000Y-71890000D01*
X56110000Y-71890000D01*
X56110000Y-71910000D01*
X56130000Y-71910000D01*
X56130000Y-72210000D01*
X56110000Y-72210000D01*
X56110000Y-73201324D01*
X56310161Y-73311960D01*
X56547678Y-73219591D01*
X56762611Y-73082659D01*
X56946700Y-72906427D01*
X57092871Y-72697668D01*
X57195506Y-72464403D01*
X57211954Y-72410160D01*
X57100176Y-72210002D01*
X57204369Y-72210002D01*
X57249958Y-72439196D01*
X57347955Y-72675781D01*
X57490224Y-72888702D01*
X57671298Y-73069776D01*
X57884219Y-73212045D01*
X58120804Y-73310042D01*
X58371961Y-73360000D01*
X58597920Y-73360000D01*
X59319439Y-74081520D01*
X59346053Y-74113949D01*
X59475482Y-74220169D01*
X59615530Y-74295027D01*
X59623146Y-74299098D01*
X59783371Y-74347701D01*
X59799014Y-74349242D01*
X59908252Y-74360001D01*
X59908259Y-74360001D01*
X59950000Y-74364112D01*
X59991741Y-74360001D01*
X60170374Y-74360001D01*
X60082098Y-74492116D01*
X59961487Y-74783297D01*
X59900000Y-75092414D01*
X59900000Y-75407586D01*
X59961487Y-75716703D01*
X60082098Y-76007884D01*
X60257199Y-76269941D01*
X60480059Y-76492801D01*
X60742116Y-76667902D01*
X61033297Y-76788513D01*
X61342414Y-76850000D01*
X61657586Y-76850000D01*
X61966703Y-76788513D01*
X62257884Y-76667902D01*
X62519941Y-76492801D01*
X62742801Y-76269941D01*
X62917902Y-76007884D01*
X63038513Y-75716703D01*
X63100000Y-75407586D01*
X63100000Y-75092414D01*
X63038513Y-74783297D01*
X62917902Y-74492116D01*
X62754699Y-74247866D01*
X62806516Y-74220169D01*
X62935945Y-74113949D01*
X62962563Y-74081515D01*
X64283438Y-72760641D01*
X64315723Y-72922949D01*
X64425027Y-73186833D01*
X64583711Y-73424321D01*
X64785679Y-73626289D01*
X65023167Y-73784973D01*
X65287051Y-73894277D01*
X65567187Y-73950000D01*
X65852813Y-73950000D01*
X65940481Y-73932562D01*
X66419448Y-74411529D01*
X66446062Y-74443958D01*
X66575491Y-74550178D01*
X66723155Y-74629107D01*
X66883381Y-74677710D01*
X67008261Y-74690010D01*
X67008271Y-74690010D01*
X67050009Y-74694121D01*
X67091747Y-74690010D01*
X71004354Y-74690010D01*
X70544365Y-75150000D01*
X68791741Y-75150000D01*
X68750000Y-75145889D01*
X68708259Y-75150000D01*
X68708251Y-75150000D01*
X68583371Y-75162300D01*
X68423145Y-75210903D01*
X68275481Y-75289832D01*
X68146052Y-75396052D01*
X68119438Y-75428481D01*
X67858045Y-75689874D01*
X67657586Y-75650000D01*
X67342414Y-75650000D01*
X67033297Y-75711487D01*
X66742116Y-75832098D01*
X66480059Y-76007199D01*
X66257199Y-76230059D01*
X66082098Y-76492116D01*
X65961487Y-76783297D01*
X65900000Y-77092414D01*
X65900000Y-77407586D01*
X65961487Y-77716703D01*
X66082098Y-78007884D01*
X66257199Y-78269941D01*
X66480059Y-78492801D01*
X66742116Y-78667902D01*
X67033297Y-78788513D01*
X67342414Y-78850000D01*
X67657586Y-78850000D01*
X67966703Y-78788513D01*
X68257884Y-78667902D01*
X68519941Y-78492801D01*
X68739541Y-78273201D01*
X70688931Y-78273201D01*
X70727671Y-78474119D01*
X70927748Y-78557304D01*
X71140210Y-78599856D01*
X71356891Y-78600141D01*
X71569464Y-78558149D01*
X71769760Y-78475492D01*
X71772329Y-78474119D01*
X71811069Y-78273201D01*
X71250000Y-77712132D01*
X70688931Y-78273201D01*
X68739541Y-78273201D01*
X68742801Y-78269941D01*
X68917902Y-78007884D01*
X69038513Y-77716703D01*
X69100000Y-77407586D01*
X69100000Y-77092414D01*
X69060126Y-76891955D01*
X69102081Y-76850000D01*
X70387865Y-76850000D01*
X70476796Y-76938931D01*
X70275881Y-76977671D01*
X70192696Y-77177748D01*
X70150144Y-77390210D01*
X70149859Y-77606891D01*
X70191851Y-77819464D01*
X70274508Y-78019760D01*
X70275881Y-78022329D01*
X70476799Y-78061069D01*
X71037868Y-77500000D01*
X71023726Y-77485858D01*
X71235858Y-77273726D01*
X71250000Y-77287868D01*
X71264143Y-77273726D01*
X71476275Y-77485858D01*
X71462132Y-77500000D01*
X72023201Y-78061069D01*
X72224119Y-78022329D01*
X72307304Y-77822252D01*
X72349856Y-77609790D01*
X72350141Y-77393109D01*
X72308149Y-77180536D01*
X72225492Y-76980240D01*
X72224119Y-76977671D01*
X72023204Y-76938931D01*
X72137307Y-76824828D01*
X72059057Y-76746578D01*
X72104425Y-76701209D01*
X72104427Y-76701206D01*
X72525634Y-76280000D01*
X73200000Y-76280000D01*
X73200000Y-81700000D01*
X73211529Y-81817054D01*
X73245672Y-81929610D01*
X73301118Y-82033342D01*
X73375736Y-82124264D01*
X73466658Y-82198882D01*
X73570390Y-82254328D01*
X73682946Y-82288471D01*
X73800000Y-82300000D01*
X75366230Y-82300000D01*
X75305752Y-82557529D01*
X75295954Y-82842986D01*
X75342033Y-83124870D01*
X75442220Y-83392347D01*
X75489345Y-83480509D01*
X75725841Y-83562027D01*
X76537868Y-82750000D01*
X76523726Y-82735858D01*
X76735858Y-82523726D01*
X76750000Y-82537868D01*
X76764143Y-82523726D01*
X76976275Y-82735858D01*
X76962132Y-82750000D01*
X77774159Y-83562027D01*
X78010655Y-83480509D01*
X78128948Y-83220531D01*
X78194248Y-82942471D01*
X78204046Y-82657014D01*
X78157967Y-82375130D01*
X78129826Y-82300000D01*
X82512371Y-82300000D01*
X82437973Y-82515841D01*
X83250000Y-83327868D01*
X84062027Y-82515841D01*
X83987629Y-82300000D01*
X85550000Y-82300000D01*
X85550000Y-82700000D01*
X85555515Y-82756244D01*
X85560628Y-82812429D01*
X85561222Y-82814446D01*
X85561427Y-82816541D01*
X85577765Y-82870656D01*
X85593690Y-82924764D01*
X85594663Y-82926626D01*
X85595272Y-82928642D01*
X85621792Y-82978519D01*
X85647941Y-83028538D01*
X85649260Y-83030178D01*
X85650247Y-83032035D01*
X85685914Y-83075767D01*
X85721316Y-83119798D01*
X85722929Y-83121151D01*
X85724258Y-83122781D01*
X85767795Y-83158799D01*
X85811020Y-83195068D01*
X85812860Y-83196080D01*
X85814484Y-83197423D01*
X85864211Y-83224310D01*
X85913635Y-83251481D01*
X85915639Y-83252117D01*
X85917491Y-83253118D01*
X85971413Y-83269809D01*
X86025253Y-83286889D01*
X86027346Y-83287124D01*
X86029353Y-83287745D01*
X86085413Y-83293637D01*
X86141623Y-83299942D01*
X86145668Y-83299970D01*
X86145811Y-83299985D01*
X86145954Y-83299972D01*
X86150000Y-83300000D01*
X87450000Y-83300000D01*
X87506244Y-83294485D01*
X87562429Y-83289372D01*
X87564446Y-83288778D01*
X87566541Y-83288573D01*
X87620656Y-83272235D01*
X87674764Y-83256310D01*
X87676626Y-83255337D01*
X87678642Y-83254728D01*
X87728519Y-83228208D01*
X87778538Y-83202059D01*
X87780178Y-83200740D01*
X87782035Y-83199753D01*
X87825767Y-83164086D01*
X87869798Y-83128684D01*
X87871151Y-83127071D01*
X87872781Y-83125742D01*
X87908799Y-83082205D01*
X87945068Y-83038980D01*
X87946080Y-83037140D01*
X87947423Y-83035516D01*
X87974310Y-82985789D01*
X88001481Y-82936365D01*
X88002117Y-82934361D01*
X88003118Y-82932509D01*
X88019809Y-82878587D01*
X88036889Y-82824747D01*
X88037124Y-82822654D01*
X88037745Y-82820647D01*
X88043637Y-82764587D01*
X88049942Y-82708377D01*
X88049970Y-82704332D01*
X88049985Y-82704189D01*
X88049972Y-82704046D01*
X88050000Y-82700000D01*
X88050000Y-82300000D01*
X119100001Y-82300000D01*
X119100001Y-89600000D01*
X31650000Y-89600000D01*
X31650000Y-85268545D01*
X33400000Y-85268545D01*
X33400000Y-85731455D01*
X33490309Y-86185470D01*
X33667457Y-86613143D01*
X33924636Y-86998038D01*
X34251962Y-87325364D01*
X34636857Y-87582543D01*
X35064530Y-87759691D01*
X35518545Y-87850000D01*
X35981455Y-87850000D01*
X36435470Y-87759691D01*
X36745254Y-87631374D01*
X75830758Y-87631374D01*
X75930467Y-87883184D01*
X76216061Y-88016489D01*
X76522172Y-88091517D01*
X76837040Y-88105383D01*
X77148562Y-88057555D01*
X77444768Y-87949872D01*
X77569533Y-87883184D01*
X77669242Y-87631374D01*
X76750000Y-86712132D01*
X75830758Y-87631374D01*
X36745254Y-87631374D01*
X36863143Y-87582543D01*
X37248038Y-87325364D01*
X37575364Y-86998038D01*
X37832543Y-86613143D01*
X37843355Y-86587040D01*
X75144617Y-86587040D01*
X75192445Y-86898562D01*
X75300128Y-87194768D01*
X75366816Y-87319533D01*
X75618626Y-87419242D01*
X76537868Y-86500000D01*
X76962132Y-86500000D01*
X77881374Y-87419242D01*
X78133184Y-87319533D01*
X78266489Y-87033939D01*
X78341517Y-86727828D01*
X78355383Y-86412960D01*
X78307555Y-86101438D01*
X78199872Y-85805232D01*
X78133184Y-85680467D01*
X77881374Y-85580758D01*
X76962132Y-86500000D01*
X76537868Y-86500000D01*
X75618626Y-85580758D01*
X75366816Y-85680467D01*
X75233511Y-85966061D01*
X75158483Y-86272172D01*
X75144617Y-86587040D01*
X37843355Y-86587040D01*
X38009691Y-86185470D01*
X38100000Y-85731455D01*
X38100000Y-85368626D01*
X75830758Y-85368626D01*
X76750000Y-86287868D01*
X77669242Y-85368626D01*
X77629614Y-85268545D01*
X112650000Y-85268545D01*
X112650000Y-85731455D01*
X112740309Y-86185470D01*
X112917457Y-86613143D01*
X113174636Y-86998038D01*
X113501962Y-87325364D01*
X113886857Y-87582543D01*
X114314530Y-87759691D01*
X114768545Y-87850000D01*
X115231455Y-87850000D01*
X115685470Y-87759691D01*
X116113143Y-87582543D01*
X116498038Y-87325364D01*
X116825364Y-86998038D01*
X117082543Y-86613143D01*
X117259691Y-86185470D01*
X117350000Y-85731455D01*
X117350000Y-85268545D01*
X117259691Y-84814530D01*
X117082543Y-84386857D01*
X116825364Y-84001962D01*
X116498038Y-83674636D01*
X116113143Y-83417457D01*
X115685470Y-83240309D01*
X115231455Y-83150000D01*
X114768545Y-83150000D01*
X114314530Y-83240309D01*
X113886857Y-83417457D01*
X113501962Y-83674636D01*
X113174636Y-84001962D01*
X112917457Y-84386857D01*
X112740309Y-84814530D01*
X112650000Y-85268545D01*
X77629614Y-85268545D01*
X77569533Y-85116816D01*
X77283939Y-84983511D01*
X76977828Y-84908483D01*
X76662960Y-84894617D01*
X76351438Y-84942445D01*
X76055232Y-85050128D01*
X75930467Y-85116816D01*
X75830758Y-85368626D01*
X38100000Y-85368626D01*
X38100000Y-85268545D01*
X38009691Y-84814530D01*
X37905984Y-84564159D01*
X82437973Y-84564159D01*
X82519491Y-84800655D01*
X82779469Y-84918948D01*
X83057529Y-84984248D01*
X83342986Y-84994046D01*
X83624870Y-84947967D01*
X83892347Y-84847780D01*
X83980509Y-84800655D01*
X84062027Y-84564159D01*
X83250000Y-83752132D01*
X82437973Y-84564159D01*
X37905984Y-84564159D01*
X37832543Y-84386857D01*
X37575364Y-84001962D01*
X37347561Y-83774159D01*
X75937973Y-83774159D01*
X76019491Y-84010655D01*
X76279469Y-84128948D01*
X76557529Y-84194248D01*
X76842986Y-84204046D01*
X77124870Y-84157967D01*
X77392347Y-84057780D01*
X77480509Y-84010655D01*
X77562027Y-83774159D01*
X77420854Y-83632986D01*
X81795954Y-83632986D01*
X81842033Y-83914870D01*
X81942220Y-84182347D01*
X81989345Y-84270509D01*
X82225841Y-84352027D01*
X83037868Y-83540000D01*
X83462132Y-83540000D01*
X84274159Y-84352027D01*
X84510655Y-84270509D01*
X84628948Y-84010531D01*
X84694248Y-83732471D01*
X84704046Y-83447014D01*
X84657967Y-83165130D01*
X84557780Y-82897653D01*
X84510655Y-82809491D01*
X84274159Y-82727973D01*
X83462132Y-83540000D01*
X83037868Y-83540000D01*
X82225841Y-82727973D01*
X81989345Y-82809491D01*
X81871052Y-83069469D01*
X81805752Y-83347529D01*
X81795954Y-83632986D01*
X77420854Y-83632986D01*
X76750000Y-82962132D01*
X75937973Y-83774159D01*
X37347561Y-83774159D01*
X37248038Y-83674636D01*
X36863143Y-83417457D01*
X36435470Y-83240309D01*
X35981455Y-83150000D01*
X35518545Y-83150000D01*
X35064530Y-83240309D01*
X34636857Y-83417457D01*
X34251962Y-83674636D01*
X33924636Y-84001962D01*
X33667457Y-84386857D01*
X33490309Y-84814530D01*
X33400000Y-85268545D01*
X31650000Y-85268545D01*
X31650000Y-75917083D01*
X36545049Y-75917083D01*
X36650810Y-76174004D01*
X36944937Y-76312311D01*
X37260394Y-76390580D01*
X37585059Y-76405801D01*
X37906456Y-76357390D01*
X38212232Y-76247210D01*
X38349190Y-76174004D01*
X38454951Y-75917083D01*
X37500000Y-74962132D01*
X36545049Y-75917083D01*
X31650000Y-75917083D01*
X31650000Y-74835059D01*
X35844199Y-74835059D01*
X35892610Y-75156456D01*
X36002790Y-75462232D01*
X36075996Y-75599190D01*
X36332917Y-75704951D01*
X37287868Y-74750000D01*
X37712132Y-74750000D01*
X38667083Y-75704951D01*
X38924004Y-75599190D01*
X39062311Y-75305063D01*
X39140580Y-74989606D01*
X39155801Y-74664941D01*
X39107390Y-74343544D01*
X38997210Y-74037768D01*
X38924004Y-73900810D01*
X38667083Y-73795049D01*
X37712132Y-74750000D01*
X37287868Y-74750000D01*
X36332917Y-73795049D01*
X36075996Y-73900810D01*
X35937689Y-74194937D01*
X35859420Y-74510394D01*
X35844199Y-74835059D01*
X31650000Y-74835059D01*
X31650000Y-73582917D01*
X36545049Y-73582917D01*
X37500000Y-74537868D01*
X38454951Y-73582917D01*
X38349190Y-73325996D01*
X38055063Y-73187689D01*
X37739606Y-73109420D01*
X37414941Y-73094199D01*
X37093544Y-73142610D01*
X36787768Y-73252790D01*
X36650810Y-73325996D01*
X36545049Y-73582917D01*
X31650000Y-73582917D01*
X31650000Y-62917083D01*
X36545049Y-62917083D01*
X36650810Y-63174004D01*
X36944937Y-63312311D01*
X37260394Y-63390580D01*
X37585059Y-63405801D01*
X37906456Y-63357390D01*
X38212232Y-63247210D01*
X38349190Y-63174004D01*
X38454951Y-62917083D01*
X37500000Y-61962132D01*
X36545049Y-62917083D01*
X31650000Y-62917083D01*
X31650000Y-61835059D01*
X35844199Y-61835059D01*
X35892610Y-62156456D01*
X36002790Y-62462232D01*
X36075996Y-62599190D01*
X36332917Y-62704951D01*
X37287868Y-61750000D01*
X37712132Y-61750000D01*
X38667083Y-62704951D01*
X38924004Y-62599190D01*
X39062311Y-62305063D01*
X39140580Y-61989606D01*
X39155801Y-61664941D01*
X39107390Y-61343544D01*
X38997210Y-61037768D01*
X38924004Y-60900810D01*
X38667083Y-60795049D01*
X37712132Y-61750000D01*
X37287868Y-61750000D01*
X36332917Y-60795049D01*
X36075996Y-60900810D01*
X35937689Y-61194937D01*
X35859420Y-61510394D01*
X35844199Y-61835059D01*
X31650000Y-61835059D01*
X31650000Y-60582917D01*
X36545049Y-60582917D01*
X37500000Y-61537868D01*
X38454951Y-60582917D01*
X38349190Y-60325996D01*
X38055063Y-60187689D01*
X37739606Y-60109420D01*
X37414941Y-60094199D01*
X37093544Y-60142610D01*
X36787768Y-60252790D01*
X36650810Y-60325996D01*
X36545049Y-60582917D01*
X31650000Y-60582917D01*
X31650000Y-52230126D01*
X38810825Y-52230126D01*
X38904416Y-52650000D01*
X41800000Y-52650000D01*
X41800000Y-50100000D01*
X41300000Y-50100000D01*
X40776138Y-50181143D01*
X40710685Y-50205037D01*
X40795339Y-50113647D01*
X41052297Y-49695291D01*
X41222700Y-49234844D01*
X41300000Y-48750000D01*
X41300000Y-48250000D01*
X38950000Y-48250000D01*
X38950000Y-50945208D01*
X39338535Y-51041307D01*
X39417586Y-51020327D01*
X39121696Y-51424681D01*
X38898122Y-51905337D01*
X38810825Y-52230126D01*
X31650000Y-52230126D01*
X31650000Y-48250000D01*
X36300000Y-48250000D01*
X36300000Y-48750000D01*
X36377300Y-49234844D01*
X36547703Y-49695291D01*
X36804661Y-50113647D01*
X37138299Y-50473834D01*
X37535795Y-50762011D01*
X37981874Y-50967103D01*
X38261465Y-51041307D01*
X38650000Y-50945208D01*
X38650000Y-48250000D01*
X36300000Y-48250000D01*
X31650000Y-48250000D01*
X31650000Y-47450000D01*
X36300000Y-47450000D01*
X36300000Y-47950000D01*
X38650000Y-47950000D01*
X38650000Y-45254792D01*
X38950000Y-45254792D01*
X38950000Y-47950000D01*
X41300000Y-47950000D01*
X41300000Y-47450000D01*
X41222700Y-46965156D01*
X41052297Y-46504709D01*
X40795339Y-46086353D01*
X40461701Y-45726166D01*
X40064205Y-45437989D01*
X39618126Y-45232897D01*
X39338535Y-45158693D01*
X38950000Y-45254792D01*
X38650000Y-45254792D01*
X38261465Y-45158693D01*
X37981874Y-45232897D01*
X37535795Y-45437989D01*
X37138299Y-45726166D01*
X36804661Y-46086353D01*
X36547703Y-46504709D01*
X36377300Y-46965156D01*
X36300000Y-47450000D01*
X31650000Y-47450000D01*
X31650000Y-40768545D01*
X33400000Y-40768545D01*
X33400000Y-41231455D01*
X33490309Y-41685470D01*
X33667457Y-42113143D01*
X33924636Y-42498038D01*
X34251962Y-42825364D01*
X34636857Y-43082543D01*
X35064530Y-43259691D01*
X35518545Y-43350000D01*
X35981455Y-43350000D01*
X36435470Y-43259691D01*
X36863143Y-43082543D01*
X37248038Y-42825364D01*
X37575364Y-42498038D01*
X37832543Y-42113143D01*
X38009691Y-41685470D01*
X38100000Y-41231455D01*
X38100000Y-40768545D01*
X38009691Y-40314530D01*
X37832543Y-39886857D01*
X37575364Y-39501962D01*
X37248038Y-39174636D01*
X36863143Y-38917457D01*
X36435470Y-38740309D01*
X35981455Y-38650000D01*
X35518545Y-38650000D01*
X35064530Y-38740309D01*
X34636857Y-38917457D01*
X34251962Y-39174636D01*
X33924636Y-39501962D01*
X33667457Y-39886857D01*
X33490309Y-40314530D01*
X33400000Y-40768545D01*
X31650000Y-40768545D01*
X31650000Y-36900000D01*
X72200000Y-36900000D01*
X72200000Y-42612285D01*
G37*
X72200000Y-42612285D02*
X71598114Y-42010399D01*
X71563662Y-41968419D01*
X71396165Y-41830958D01*
X71205069Y-41728816D01*
X70997719Y-41665916D01*
X70836117Y-41650000D01*
X70836115Y-41650000D01*
X70782081Y-41644678D01*
X70728047Y-41650000D01*
X70530610Y-41650000D01*
X70504321Y-41623711D01*
X70266833Y-41465027D01*
X70002949Y-41355723D01*
X69722813Y-41300000D01*
X69437187Y-41300000D01*
X69157051Y-41355723D01*
X68893167Y-41465027D01*
X68655679Y-41623711D01*
X68629390Y-41650000D01*
X66554034Y-41650000D01*
X66500000Y-41644678D01*
X66445966Y-41650000D01*
X66445964Y-41650000D01*
X66284362Y-41665916D01*
X66077012Y-41728816D01*
X66050848Y-41742801D01*
X65885915Y-41830958D01*
X65806797Y-41895889D01*
X65718419Y-41968419D01*
X65683971Y-42010394D01*
X59560405Y-48133961D01*
X59518430Y-48168409D01*
X59483984Y-48210382D01*
X59380968Y-48335906D01*
X59278827Y-48527002D01*
X59215927Y-48734352D01*
X59214386Y-48750000D01*
X59194688Y-48949990D01*
X59200011Y-49004034D01*
X59200011Y-49168791D01*
X59193213Y-49163212D01*
X58915256Y-49014641D01*
X58850000Y-48994846D01*
X58850000Y-47522080D01*
X59189519Y-47182562D01*
X59277187Y-47200000D01*
X59562813Y-47200000D01*
X59842949Y-47144277D01*
X60106833Y-47034973D01*
X60344321Y-46876289D01*
X60546289Y-46674321D01*
X60704973Y-46436833D01*
X60814277Y-46172949D01*
X60870000Y-45892813D01*
X60870000Y-45607187D01*
X60814277Y-45327051D01*
X60704973Y-45063167D01*
X60546289Y-44825679D01*
X60344321Y-44623711D01*
X60106833Y-44465027D01*
X59842949Y-44355723D01*
X59562813Y-44300000D01*
X59277187Y-44300000D01*
X59021152Y-44350929D01*
X59189519Y-44182562D01*
X59277187Y-44200000D01*
X59562813Y-44200000D01*
X59842949Y-44144277D01*
X60106833Y-44034973D01*
X60344321Y-43876289D01*
X60546289Y-43674321D01*
X60704973Y-43436833D01*
X60814277Y-43172949D01*
X60870000Y-42892813D01*
X60870000Y-42607187D01*
X60814277Y-42327051D01*
X60704973Y-42063167D01*
X60546289Y-41825679D01*
X60344321Y-41623711D01*
X60106833Y-41465027D01*
X59842949Y-41355723D01*
X59562813Y-41300000D01*
X59277187Y-41300000D01*
X58997051Y-41355723D01*
X58733167Y-41465027D01*
X58495679Y-41623711D01*
X58293711Y-41825679D01*
X58135027Y-42063167D01*
X58025723Y-42327051D01*
X57970000Y-42607187D01*
X57970000Y-42892813D01*
X57987438Y-42980481D01*
X56067920Y-44900000D01*
X52695949Y-44900000D01*
X52646289Y-44825679D01*
X52444321Y-44623711D01*
X52206833Y-44465027D01*
X51942949Y-44355723D01*
X51662813Y-44300000D01*
X51377187Y-44300000D01*
X51097051Y-44355723D01*
X50833167Y-44465027D01*
X50595679Y-44623711D01*
X50393711Y-44825679D01*
X50251124Y-45039076D01*
X50240655Y-45019491D01*
X50004159Y-44937973D01*
X49192132Y-45750000D01*
X50004159Y-46562027D01*
X50240655Y-46480509D01*
X50250197Y-46459537D01*
X50393711Y-46674321D01*
X50595679Y-46876289D01*
X50833167Y-47034973D01*
X51097051Y-47144277D01*
X51377187Y-47200000D01*
X51662813Y-47200000D01*
X51942949Y-47144277D01*
X52206833Y-47034973D01*
X52444321Y-46876289D01*
X52646289Y-46674321D01*
X52695949Y-46600000D01*
X56378259Y-46600000D01*
X56420000Y-46604111D01*
X56461741Y-46600000D01*
X56461749Y-46600000D01*
X56586629Y-46587700D01*
X56746855Y-46539097D01*
X56894519Y-46460168D01*
X57023948Y-46353948D01*
X57050566Y-46321514D01*
X58020929Y-45351151D01*
X57970000Y-45607187D01*
X57970000Y-45892813D01*
X57987438Y-45980481D01*
X57428486Y-46539434D01*
X57396052Y-46566052D01*
X57289832Y-46695482D01*
X57217418Y-46830958D01*
X57210903Y-46843146D01*
X57166056Y-46990991D01*
X57162300Y-47003372D01*
X57150000Y-47128252D01*
X57150000Y-47128259D01*
X57145889Y-47170000D01*
X57150000Y-47211741D01*
X57150001Y-48994846D01*
X57084744Y-49014641D01*
X56806787Y-49163212D01*
X56563155Y-49363155D01*
X56363212Y-49606787D01*
X56340114Y-49650000D01*
X55100000Y-49650000D01*
X55100000Y-49595949D01*
X55174321Y-49546289D01*
X55376289Y-49344321D01*
X55534973Y-49106833D01*
X55644277Y-48842949D01*
X55700000Y-48562813D01*
X55700000Y-48277187D01*
X55644277Y-47997051D01*
X55534973Y-47733167D01*
X55376289Y-47495679D01*
X55174321Y-47293711D01*
X54936833Y-47135027D01*
X54672949Y-47025723D01*
X54392813Y-46970000D01*
X54107187Y-46970000D01*
X53827051Y-47025723D01*
X53563167Y-47135027D01*
X53325679Y-47293711D01*
X53123711Y-47495679D01*
X52965027Y-47733167D01*
X52855723Y-47997051D01*
X52800000Y-48277187D01*
X52800000Y-48562813D01*
X52855723Y-48842949D01*
X52965027Y-49106833D01*
X53123711Y-49344321D01*
X53325679Y-49546289D01*
X53400001Y-49595949D01*
X53400001Y-49650000D01*
X52606352Y-49650000D01*
X52492801Y-49480059D01*
X52269941Y-49257199D01*
X52007884Y-49082098D01*
X51716703Y-48961487D01*
X51407586Y-48900000D01*
X51092414Y-48900000D01*
X50783297Y-48961487D01*
X50492116Y-49082098D01*
X50230059Y-49257199D01*
X50007199Y-49480059D01*
X49832098Y-49742116D01*
X49711487Y-50033297D01*
X49650000Y-50342414D01*
X49650000Y-50657586D01*
X49689874Y-50858046D01*
X49178481Y-51369439D01*
X49146053Y-51396052D01*
X49039833Y-51525481D01*
X49015578Y-51570858D01*
X48960903Y-51673146D01*
X48912300Y-51833371D01*
X48895889Y-52000000D01*
X48900001Y-52041751D01*
X48900000Y-53294366D01*
X48895575Y-53298791D01*
X48775193Y-53478955D01*
X48700000Y-53660487D01*
X48700000Y-50654034D01*
X48705322Y-50600000D01*
X48700000Y-50545964D01*
X48684084Y-50384362D01*
X48621184Y-50177012D01*
X48519042Y-49985916D01*
X48381581Y-49818419D01*
X48339606Y-49783971D01*
X47903599Y-49347964D01*
X47958039Y-49168498D01*
X48000000Y-48742459D01*
X48000000Y-47457540D01*
X47958039Y-47031501D01*
X47879976Y-46774159D01*
X48167973Y-46774159D01*
X48249491Y-47010655D01*
X48509469Y-47128948D01*
X48787529Y-47194248D01*
X49072986Y-47204046D01*
X49354870Y-47157967D01*
X49622347Y-47057780D01*
X49710509Y-47010655D01*
X49792027Y-46774159D01*
X48980000Y-45962132D01*
X48167973Y-46774159D01*
X47879976Y-46774159D01*
X47799253Y-46508052D01*
X47955841Y-46562027D01*
X48767868Y-45750000D01*
X47955841Y-44937973D01*
X47719345Y-45019491D01*
X47601052Y-45279469D01*
X47535752Y-45557529D01*
X47525954Y-45842986D01*
X47559799Y-46050033D01*
X47522928Y-45981051D01*
X47160530Y-45539469D01*
X46718948Y-45177072D01*
X46215150Y-44907786D01*
X45668498Y-44741961D01*
X45504829Y-44725841D01*
X48167973Y-44725841D01*
X48980000Y-45537868D01*
X49792027Y-44725841D01*
X49710509Y-44489345D01*
X49450531Y-44371052D01*
X49172471Y-44305752D01*
X48887014Y-44295954D01*
X48605130Y-44342033D01*
X48337653Y-44442220D01*
X48249491Y-44489345D01*
X48167973Y-44725841D01*
X45504829Y-44725841D01*
X45100000Y-44685969D01*
X44531501Y-44741961D01*
X43984849Y-44907786D01*
X43481051Y-45177072D01*
X43039469Y-45539470D01*
X42677072Y-45981052D01*
X42407786Y-46484850D01*
X42241961Y-47031502D01*
X42200000Y-47457541D01*
X42200000Y-48742460D01*
X42241961Y-49168499D01*
X42407786Y-49715151D01*
X42614710Y-50102279D01*
X42600000Y-50100000D01*
X42100000Y-50100000D01*
X42100000Y-52650000D01*
X44995584Y-52650000D01*
X45089175Y-52230126D01*
X45001878Y-51905337D01*
X44806415Y-51485115D01*
X45100000Y-51514031D01*
X45668499Y-51458039D01*
X46215151Y-51292214D01*
X46500001Y-51139958D01*
X46500000Y-55522310D01*
X46494678Y-55576346D01*
X46500000Y-55630380D01*
X46500000Y-55630381D01*
X46515916Y-55791983D01*
X46578816Y-55999333D01*
X46680958Y-56190430D01*
X46818419Y-56357927D01*
X46860399Y-56392379D01*
X47767816Y-57299797D01*
X47769131Y-57302257D01*
X47872147Y-57427781D01*
X49763971Y-59319606D01*
X49798419Y-59361581D01*
X49965916Y-59499042D01*
X50157012Y-59601184D01*
X50364362Y-59664084D01*
X50525964Y-59680000D01*
X50525965Y-59680000D01*
X50579999Y-59685322D01*
X50634033Y-59680000D01*
X53299390Y-59680000D01*
X53325679Y-59706289D01*
X53563167Y-59864973D01*
X53827051Y-59974277D01*
X54107187Y-60030000D01*
X54392813Y-60030000D01*
X54672949Y-59974277D01*
X54936833Y-59864973D01*
X55174321Y-59706289D01*
X55200610Y-59680000D01*
X56865966Y-59680000D01*
X56920000Y-59685322D01*
X56974034Y-59680000D01*
X56974036Y-59680000D01*
X57135638Y-59664084D01*
X57342988Y-59601184D01*
X57534084Y-59499042D01*
X57701581Y-59361581D01*
X57736033Y-59319601D01*
X58739601Y-58316033D01*
X58781581Y-58281581D01*
X58919042Y-58114084D01*
X58959123Y-58039097D01*
X59021184Y-57922989D01*
X59084084Y-57715638D01*
X59105322Y-57500000D01*
X59100000Y-57445964D01*
X59100000Y-56886611D01*
X59193213Y-56836788D01*
X59436845Y-56636845D01*
X59636788Y-56393213D01*
X59765944Y-56151579D01*
X60525164Y-56910799D01*
X60525169Y-56910803D01*
X61720000Y-58105635D01*
X61720000Y-58142813D01*
X61775723Y-58422949D01*
X61885027Y-58686833D01*
X62043711Y-58924321D01*
X62245679Y-59126289D01*
X62483167Y-59284973D01*
X62747051Y-59394277D01*
X62775822Y-59400000D01*
X62592414Y-59400000D01*
X62283297Y-59461487D01*
X61992116Y-59582098D01*
X61730059Y-59757199D01*
X61507199Y-59980059D01*
X61332098Y-60242116D01*
X61211487Y-60533297D01*
X61150000Y-60842414D01*
X61150000Y-61157586D01*
X61211487Y-61466703D01*
X61332098Y-61757884D01*
X61507199Y-62019941D01*
X61627257Y-62139999D01*
X59991741Y-62139999D01*
X59950000Y-62135888D01*
X59908259Y-62139999D01*
X59908252Y-62139999D01*
X59799014Y-62150758D01*
X59783371Y-62152299D01*
X59650940Y-62192471D01*
X59623146Y-62200902D01*
X59475482Y-62279831D01*
X59346053Y-62386051D01*
X59319439Y-62418480D01*
X58597920Y-63140000D01*
X58371961Y-63140000D01*
X58120804Y-63189958D01*
X57884219Y-63287955D01*
X57671298Y-63430224D01*
X57490224Y-63611298D01*
X57347955Y-63824219D01*
X57249958Y-64060804D01*
X57204369Y-64289998D01*
X57100176Y-64289998D01*
X57211954Y-64089840D01*
X57195506Y-64035597D01*
X57092871Y-63802332D01*
X56946700Y-63593573D01*
X56762611Y-63417341D01*
X56547678Y-63280409D01*
X56310161Y-63188040D01*
X56110000Y-63298676D01*
X56110000Y-64290000D01*
X56130000Y-64290000D01*
X56130000Y-64590000D01*
X56110000Y-64590000D01*
X56110000Y-65581324D01*
X56310161Y-65691960D01*
X56547678Y-65599591D01*
X56762611Y-65462659D01*
X56946700Y-65286427D01*
X57092871Y-65077668D01*
X57195506Y-64844403D01*
X57211954Y-64790160D01*
X57100176Y-64590002D01*
X57204369Y-64590002D01*
X57249958Y-64819196D01*
X57347955Y-65055781D01*
X57490224Y-65268702D01*
X57671298Y-65449776D01*
X57884219Y-65592045D01*
X58120804Y-65690042D01*
X58371961Y-65740000D01*
X58628039Y-65740000D01*
X58879196Y-65690042D01*
X59115781Y-65592045D01*
X59328702Y-65449776D01*
X59509776Y-65268702D01*
X59652045Y-65055781D01*
X59750042Y-64819196D01*
X59770000Y-64718860D01*
X59789958Y-64819196D01*
X59887955Y-65055781D01*
X60030224Y-65268702D01*
X60190001Y-65428479D01*
X60190000Y-66357919D01*
X59147920Y-67400000D01*
X53006352Y-67400000D01*
X52892801Y-67230059D01*
X52669941Y-67007199D01*
X52659167Y-67000000D01*
X52669941Y-66992801D01*
X52892801Y-66769941D01*
X53067902Y-66507884D01*
X53188513Y-66216703D01*
X53250000Y-65907586D01*
X53250000Y-65592414D01*
X53188513Y-65283297D01*
X53067902Y-64992116D01*
X52932960Y-64790160D01*
X54708046Y-64790160D01*
X54724494Y-64844403D01*
X54827129Y-65077668D01*
X54973300Y-65286427D01*
X55157389Y-65462659D01*
X55372322Y-65599591D01*
X55609839Y-65691960D01*
X55810000Y-65581324D01*
X55810000Y-64590000D01*
X54819825Y-64590000D01*
X54708046Y-64790160D01*
X52932960Y-64790160D01*
X52892801Y-64730059D01*
X52669941Y-64507199D01*
X52500000Y-64393648D01*
X52500000Y-64377528D01*
X52504111Y-64335787D01*
X52500000Y-64294046D01*
X52500000Y-64294038D01*
X52487700Y-64169158D01*
X52463640Y-64089840D01*
X54708046Y-64089840D01*
X54819825Y-64290000D01*
X55810000Y-64290000D01*
X55810000Y-63298676D01*
X55609839Y-63188040D01*
X55372322Y-63280409D01*
X55157389Y-63417341D01*
X54973300Y-63593573D01*
X54827129Y-63802332D01*
X54724494Y-64035597D01*
X54708046Y-64089840D01*
X52463640Y-64089840D01*
X52439097Y-64008932D01*
X52360168Y-63861268D01*
X52253948Y-63731839D01*
X52221521Y-63705227D01*
X47194779Y-58678486D01*
X47168161Y-58646052D01*
X47038732Y-58539832D01*
X46891068Y-58460903D01*
X46730842Y-58412300D01*
X46605962Y-58400000D01*
X46605954Y-58400000D01*
X46564213Y-58395889D01*
X46522472Y-58400000D01*
X43916486Y-58400000D01*
X43781639Y-58198186D01*
X43583453Y-58000000D01*
X43781639Y-57801814D01*
X43962211Y-57531568D01*
X44086592Y-57231287D01*
X44150000Y-56912511D01*
X44150000Y-56587489D01*
X44086592Y-56268713D01*
X43962211Y-55968432D01*
X43781639Y-55698186D01*
X43551814Y-55468361D01*
X43352701Y-55335318D01*
X43621828Y-55237072D01*
X44074761Y-54961632D01*
X44465255Y-54603122D01*
X44778304Y-54175319D01*
X45001878Y-53694663D01*
X45089175Y-53369874D01*
X44995584Y-52950000D01*
X42100000Y-52950000D01*
X42100000Y-52970000D01*
X41800000Y-52970000D01*
X41800000Y-52950000D01*
X38904416Y-52950000D01*
X38810825Y-53369874D01*
X38898122Y-53694663D01*
X39121696Y-54175319D01*
X39434745Y-54603122D01*
X39825239Y-54961632D01*
X40278172Y-55237072D01*
X40776138Y-55418857D01*
X41300000Y-55500000D01*
X41416547Y-55500000D01*
X41218361Y-55698186D01*
X41037789Y-55968432D01*
X40913408Y-56268713D01*
X40850000Y-56587489D01*
X40850000Y-56912511D01*
X40913408Y-57231287D01*
X41037789Y-57531568D01*
X41218361Y-57801814D01*
X41416547Y-58000000D01*
X41218361Y-58198186D01*
X41037789Y-58468432D01*
X40913408Y-58768713D01*
X40850000Y-59087489D01*
X40850000Y-59412511D01*
X40913408Y-59731287D01*
X41037789Y-60031568D01*
X41218361Y-60301814D01*
X41448186Y-60531639D01*
X41718432Y-60712211D01*
X42018713Y-60836592D01*
X42337489Y-60900000D01*
X42662511Y-60900000D01*
X42981287Y-60836592D01*
X43281568Y-60712211D01*
X43551814Y-60531639D01*
X43781639Y-60301814D01*
X43916486Y-60100000D01*
X46212133Y-60100000D01*
X50624695Y-64512563D01*
X50542671Y-64594587D01*
X47826567Y-61878485D01*
X47799949Y-61846051D01*
X47670520Y-61739831D01*
X47522856Y-61660902D01*
X47362630Y-61612299D01*
X47237750Y-61599999D01*
X47237742Y-61599999D01*
X47196001Y-61595888D01*
X47154260Y-61599999D01*
X41677740Y-61599999D01*
X41635999Y-61595888D01*
X41594258Y-61599999D01*
X41594250Y-61599999D01*
X41469370Y-61612299D01*
X41309144Y-61660902D01*
X41161480Y-61739831D01*
X41032051Y-61846051D01*
X41005437Y-61878480D01*
X40128485Y-62755433D01*
X40096051Y-62782051D01*
X39989831Y-62911481D01*
X39919152Y-63043711D01*
X39910902Y-63059145D01*
X39876061Y-63174004D01*
X39862299Y-63219371D01*
X39849999Y-63344251D01*
X39849999Y-63344258D01*
X39845888Y-63385999D01*
X39849999Y-63427740D01*
X39850000Y-67908248D01*
X39845888Y-67949999D01*
X39862299Y-68116628D01*
X39910902Y-68276853D01*
X39937713Y-68327012D01*
X39989832Y-68424518D01*
X40096052Y-68553947D01*
X40128480Y-68580560D01*
X40878481Y-69330562D01*
X40878486Y-69330566D01*
X40897352Y-69349432D01*
X40850000Y-69587489D01*
X40850000Y-69912511D01*
X40913408Y-70231287D01*
X41037789Y-70531568D01*
X41218361Y-70801814D01*
X41416547Y-71000000D01*
X41218361Y-71198186D01*
X41037789Y-71468432D01*
X40913408Y-71768713D01*
X40850000Y-72087489D01*
X40850000Y-72412511D01*
X40913408Y-72731287D01*
X41037789Y-73031568D01*
X41218361Y-73301814D01*
X41448186Y-73531639D01*
X41718432Y-73712211D01*
X42018713Y-73836592D01*
X42316164Y-73895758D01*
X42311922Y-73900000D01*
X42041740Y-73900000D01*
X41999999Y-73895889D01*
X41958258Y-73900000D01*
X41958251Y-73900000D01*
X41849013Y-73910759D01*
X41833370Y-73912300D01*
X41709088Y-73950000D01*
X41673145Y-73960903D01*
X41525481Y-74039832D01*
X41396052Y-74146052D01*
X41369438Y-74178481D01*
X40128480Y-75419440D01*
X40096052Y-75446053D01*
X39989832Y-75575482D01*
X39950845Y-75648420D01*
X39910902Y-75723147D01*
X39862299Y-75883372D01*
X39845888Y-76050001D01*
X39850000Y-76091752D01*
X39849999Y-80572260D01*
X39845888Y-80614001D01*
X39849999Y-80655742D01*
X39849999Y-80655749D01*
X39854358Y-80700001D01*
X39862299Y-80780630D01*
X39868725Y-80801814D01*
X39910902Y-80940855D01*
X39989831Y-81088519D01*
X40096051Y-81217949D01*
X40128485Y-81244567D01*
X41005437Y-82121520D01*
X41032051Y-82153949D01*
X41161480Y-82260169D01*
X41309144Y-82339098D01*
X41469370Y-82387701D01*
X41594250Y-82400001D01*
X41594258Y-82400001D01*
X41635999Y-82404112D01*
X41677740Y-82400001D01*
X43322260Y-82400001D01*
X43364001Y-82404112D01*
X43405742Y-82400001D01*
X43405750Y-82400001D01*
X43530630Y-82387701D01*
X43690856Y-82339098D01*
X43838520Y-82260169D01*
X43967949Y-82153949D01*
X43994567Y-82121515D01*
X53705922Y-72410160D01*
X54708046Y-72410160D01*
X54724494Y-72464403D01*
X54827129Y-72697668D01*
X54973300Y-72906427D01*
X55157389Y-73082659D01*
X55372322Y-73219591D01*
X55609839Y-73311960D01*
X55810000Y-73201324D01*
X55810000Y-72210000D01*
X54819825Y-72210000D01*
X54708046Y-72410160D01*
X53705922Y-72410160D01*
X54656084Y-71459999D01*
X54810556Y-71459999D01*
X54724494Y-71655597D01*
X54708046Y-71709840D01*
X54819825Y-71910000D01*
X55810000Y-71910000D01*
X55810000Y-71890000D01*
X56110000Y-71890000D01*
X56110000Y-71910000D01*
X56130000Y-71910000D01*
X56130000Y-72210000D01*
X56110000Y-72210000D01*
X56110000Y-73201324D01*
X56310161Y-73311960D01*
X56547678Y-73219591D01*
X56762611Y-73082659D01*
X56946700Y-72906427D01*
X57092871Y-72697668D01*
X57195506Y-72464403D01*
X57211954Y-72410160D01*
X57100176Y-72210002D01*
X57204369Y-72210002D01*
X57249958Y-72439196D01*
X57347955Y-72675781D01*
X57490224Y-72888702D01*
X57671298Y-73069776D01*
X57884219Y-73212045D01*
X58120804Y-73310042D01*
X58371961Y-73360000D01*
X58597920Y-73360000D01*
X59319439Y-74081520D01*
X59346053Y-74113949D01*
X59475482Y-74220169D01*
X59615530Y-74295027D01*
X59623146Y-74299098D01*
X59783371Y-74347701D01*
X59799014Y-74349242D01*
X59908252Y-74360001D01*
X59908259Y-74360001D01*
X59950000Y-74364112D01*
X59991741Y-74360001D01*
X60170374Y-74360001D01*
X60082098Y-74492116D01*
X59961487Y-74783297D01*
X59900000Y-75092414D01*
X59900000Y-75407586D01*
X59961487Y-75716703D01*
X60082098Y-76007884D01*
X60257199Y-76269941D01*
X60480059Y-76492801D01*
X60742116Y-76667902D01*
X61033297Y-76788513D01*
X61342414Y-76850000D01*
X61657586Y-76850000D01*
X61966703Y-76788513D01*
X62257884Y-76667902D01*
X62519941Y-76492801D01*
X62742801Y-76269941D01*
X62917902Y-76007884D01*
X63038513Y-75716703D01*
X63100000Y-75407586D01*
X63100000Y-75092414D01*
X63038513Y-74783297D01*
X62917902Y-74492116D01*
X62754699Y-74247866D01*
X62806516Y-74220169D01*
X62935945Y-74113949D01*
X62962563Y-74081515D01*
X64283438Y-72760641D01*
X64315723Y-72922949D01*
X64425027Y-73186833D01*
X64583711Y-73424321D01*
X64785679Y-73626289D01*
X65023167Y-73784973D01*
X65287051Y-73894277D01*
X65567187Y-73950000D01*
X65852813Y-73950000D01*
X65940481Y-73932562D01*
X66419448Y-74411529D01*
X66446062Y-74443958D01*
X66575491Y-74550178D01*
X66723155Y-74629107D01*
X66883381Y-74677710D01*
X67008261Y-74690010D01*
X67008271Y-74690010D01*
X67050009Y-74694121D01*
X67091747Y-74690010D01*
X71004354Y-74690010D01*
X70544365Y-75150000D01*
X68791741Y-75150000D01*
X68750000Y-75145889D01*
X68708259Y-75150000D01*
X68708251Y-75150000D01*
X68583371Y-75162300D01*
X68423145Y-75210903D01*
X68275481Y-75289832D01*
X68146052Y-75396052D01*
X68119438Y-75428481D01*
X67858045Y-75689874D01*
X67657586Y-75650000D01*
X67342414Y-75650000D01*
X67033297Y-75711487D01*
X66742116Y-75832098D01*
X66480059Y-76007199D01*
X66257199Y-76230059D01*
X66082098Y-76492116D01*
X65961487Y-76783297D01*
X65900000Y-77092414D01*
X65900000Y-77407586D01*
X65961487Y-77716703D01*
X66082098Y-78007884D01*
X66257199Y-78269941D01*
X66480059Y-78492801D01*
X66742116Y-78667902D01*
X67033297Y-78788513D01*
X67342414Y-78850000D01*
X67657586Y-78850000D01*
X67966703Y-78788513D01*
X68257884Y-78667902D01*
X68519941Y-78492801D01*
X68739541Y-78273201D01*
X70688931Y-78273201D01*
X70727671Y-78474119D01*
X70927748Y-78557304D01*
X71140210Y-78599856D01*
X71356891Y-78600141D01*
X71569464Y-78558149D01*
X71769760Y-78475492D01*
X71772329Y-78474119D01*
X71811069Y-78273201D01*
X71250000Y-77712132D01*
X70688931Y-78273201D01*
X68739541Y-78273201D01*
X68742801Y-78269941D01*
X68917902Y-78007884D01*
X69038513Y-77716703D01*
X69100000Y-77407586D01*
X69100000Y-77092414D01*
X69060126Y-76891955D01*
X69102081Y-76850000D01*
X70387865Y-76850000D01*
X70476796Y-76938931D01*
X70275881Y-76977671D01*
X70192696Y-77177748D01*
X70150144Y-77390210D01*
X70149859Y-77606891D01*
X70191851Y-77819464D01*
X70274508Y-78019760D01*
X70275881Y-78022329D01*
X70476799Y-78061069D01*
X71037868Y-77500000D01*
X71023726Y-77485858D01*
X71235858Y-77273726D01*
X71250000Y-77287868D01*
X71264143Y-77273726D01*
X71476275Y-77485858D01*
X71462132Y-77500000D01*
X72023201Y-78061069D01*
X72224119Y-78022329D01*
X72307304Y-77822252D01*
X72349856Y-77609790D01*
X72350141Y-77393109D01*
X72308149Y-77180536D01*
X72225492Y-76980240D01*
X72224119Y-76977671D01*
X72023204Y-76938931D01*
X72137307Y-76824828D01*
X72059057Y-76746578D01*
X72104425Y-76701209D01*
X72104427Y-76701206D01*
X72525634Y-76280000D01*
X73200000Y-76280000D01*
X73200000Y-81700000D01*
X73211529Y-81817054D01*
X73245672Y-81929610D01*
X73301118Y-82033342D01*
X73375736Y-82124264D01*
X73466658Y-82198882D01*
X73570390Y-82254328D01*
X73682946Y-82288471D01*
X73800000Y-82300000D01*
X75366230Y-82300000D01*
X75305752Y-82557529D01*
X75295954Y-82842986D01*
X75342033Y-83124870D01*
X75442220Y-83392347D01*
X75489345Y-83480509D01*
X75725841Y-83562027D01*
X76537868Y-82750000D01*
X76523726Y-82735858D01*
X76735858Y-82523726D01*
X76750000Y-82537868D01*
X76764143Y-82523726D01*
X76976275Y-82735858D01*
X76962132Y-82750000D01*
X77774159Y-83562027D01*
X78010655Y-83480509D01*
X78128948Y-83220531D01*
X78194248Y-82942471D01*
X78204046Y-82657014D01*
X78157967Y-82375130D01*
X78129826Y-82300000D01*
X82512371Y-82300000D01*
X82437973Y-82515841D01*
X83250000Y-83327868D01*
X84062027Y-82515841D01*
X83987629Y-82300000D01*
X85550000Y-82300000D01*
X85550000Y-82700000D01*
X85555515Y-82756244D01*
X85560628Y-82812429D01*
X85561222Y-82814446D01*
X85561427Y-82816541D01*
X85577765Y-82870656D01*
X85593690Y-82924764D01*
X85594663Y-82926626D01*
X85595272Y-82928642D01*
X85621792Y-82978519D01*
X85647941Y-83028538D01*
X85649260Y-83030178D01*
X85650247Y-83032035D01*
X85685914Y-83075767D01*
X85721316Y-83119798D01*
X85722929Y-83121151D01*
X85724258Y-83122781D01*
X85767795Y-83158799D01*
X85811020Y-83195068D01*
X85812860Y-83196080D01*
X85814484Y-83197423D01*
X85864211Y-83224310D01*
X85913635Y-83251481D01*
X85915639Y-83252117D01*
X85917491Y-83253118D01*
X85971413Y-83269809D01*
X86025253Y-83286889D01*
X86027346Y-83287124D01*
X86029353Y-83287745D01*
X86085413Y-83293637D01*
X86141623Y-83299942D01*
X86145668Y-83299970D01*
X86145811Y-83299985D01*
X86145954Y-83299972D01*
X86150000Y-83300000D01*
X87450000Y-83300000D01*
X87506244Y-83294485D01*
X87562429Y-83289372D01*
X87564446Y-83288778D01*
X87566541Y-83288573D01*
X87620656Y-83272235D01*
X87674764Y-83256310D01*
X87676626Y-83255337D01*
X87678642Y-83254728D01*
X87728519Y-83228208D01*
X87778538Y-83202059D01*
X87780178Y-83200740D01*
X87782035Y-83199753D01*
X87825767Y-83164086D01*
X87869798Y-83128684D01*
X87871151Y-83127071D01*
X87872781Y-83125742D01*
X87908799Y-83082205D01*
X87945068Y-83038980D01*
X87946080Y-83037140D01*
X87947423Y-83035516D01*
X87974310Y-82985789D01*
X88001481Y-82936365D01*
X88002117Y-82934361D01*
X88003118Y-82932509D01*
X88019809Y-82878587D01*
X88036889Y-82824747D01*
X88037124Y-82822654D01*
X88037745Y-82820647D01*
X88043637Y-82764587D01*
X88049942Y-82708377D01*
X88049970Y-82704332D01*
X88049985Y-82704189D01*
X88049972Y-82704046D01*
X88050000Y-82700000D01*
X88050000Y-82300000D01*
X119100001Y-82300000D01*
X119100001Y-89600000D01*
X31650000Y-89600000D01*
X31650000Y-85268545D01*
X33400000Y-85268545D01*
X33400000Y-85731455D01*
X33490309Y-86185470D01*
X33667457Y-86613143D01*
X33924636Y-86998038D01*
X34251962Y-87325364D01*
X34636857Y-87582543D01*
X35064530Y-87759691D01*
X35518545Y-87850000D01*
X35981455Y-87850000D01*
X36435470Y-87759691D01*
X36745254Y-87631374D01*
X75830758Y-87631374D01*
X75930467Y-87883184D01*
X76216061Y-88016489D01*
X76522172Y-88091517D01*
X76837040Y-88105383D01*
X77148562Y-88057555D01*
X77444768Y-87949872D01*
X77569533Y-87883184D01*
X77669242Y-87631374D01*
X76750000Y-86712132D01*
X75830758Y-87631374D01*
X36745254Y-87631374D01*
X36863143Y-87582543D01*
X37248038Y-87325364D01*
X37575364Y-86998038D01*
X37832543Y-86613143D01*
X37843355Y-86587040D01*
X75144617Y-86587040D01*
X75192445Y-86898562D01*
X75300128Y-87194768D01*
X75366816Y-87319533D01*
X75618626Y-87419242D01*
X76537868Y-86500000D01*
X76962132Y-86500000D01*
X77881374Y-87419242D01*
X78133184Y-87319533D01*
X78266489Y-87033939D01*
X78341517Y-86727828D01*
X78355383Y-86412960D01*
X78307555Y-86101438D01*
X78199872Y-85805232D01*
X78133184Y-85680467D01*
X77881374Y-85580758D01*
X76962132Y-86500000D01*
X76537868Y-86500000D01*
X75618626Y-85580758D01*
X75366816Y-85680467D01*
X75233511Y-85966061D01*
X75158483Y-86272172D01*
X75144617Y-86587040D01*
X37843355Y-86587040D01*
X38009691Y-86185470D01*
X38100000Y-85731455D01*
X38100000Y-85368626D01*
X75830758Y-85368626D01*
X76750000Y-86287868D01*
X77669242Y-85368626D01*
X77629614Y-85268545D01*
X112650000Y-85268545D01*
X112650000Y-85731455D01*
X112740309Y-86185470D01*
X112917457Y-86613143D01*
X113174636Y-86998038D01*
X113501962Y-87325364D01*
X113886857Y-87582543D01*
X114314530Y-87759691D01*
X114768545Y-87850000D01*
X115231455Y-87850000D01*
X115685470Y-87759691D01*
X116113143Y-87582543D01*
X116498038Y-87325364D01*
X116825364Y-86998038D01*
X117082543Y-86613143D01*
X117259691Y-86185470D01*
X117350000Y-85731455D01*
X117350000Y-85268545D01*
X117259691Y-84814530D01*
X117082543Y-84386857D01*
X116825364Y-84001962D01*
X116498038Y-83674636D01*
X116113143Y-83417457D01*
X115685470Y-83240309D01*
X115231455Y-83150000D01*
X114768545Y-83150000D01*
X114314530Y-83240309D01*
X113886857Y-83417457D01*
X113501962Y-83674636D01*
X113174636Y-84001962D01*
X112917457Y-84386857D01*
X112740309Y-84814530D01*
X112650000Y-85268545D01*
X77629614Y-85268545D01*
X77569533Y-85116816D01*
X77283939Y-84983511D01*
X76977828Y-84908483D01*
X76662960Y-84894617D01*
X76351438Y-84942445D01*
X76055232Y-85050128D01*
X75930467Y-85116816D01*
X75830758Y-85368626D01*
X38100000Y-85368626D01*
X38100000Y-85268545D01*
X38009691Y-84814530D01*
X37905984Y-84564159D01*
X82437973Y-84564159D01*
X82519491Y-84800655D01*
X82779469Y-84918948D01*
X83057529Y-84984248D01*
X83342986Y-84994046D01*
X83624870Y-84947967D01*
X83892347Y-84847780D01*
X83980509Y-84800655D01*
X84062027Y-84564159D01*
X83250000Y-83752132D01*
X82437973Y-84564159D01*
X37905984Y-84564159D01*
X37832543Y-84386857D01*
X37575364Y-84001962D01*
X37347561Y-83774159D01*
X75937973Y-83774159D01*
X76019491Y-84010655D01*
X76279469Y-84128948D01*
X76557529Y-84194248D01*
X76842986Y-84204046D01*
X77124870Y-84157967D01*
X77392347Y-84057780D01*
X77480509Y-84010655D01*
X77562027Y-83774159D01*
X77420854Y-83632986D01*
X81795954Y-83632986D01*
X81842033Y-83914870D01*
X81942220Y-84182347D01*
X81989345Y-84270509D01*
X82225841Y-84352027D01*
X83037868Y-83540000D01*
X83462132Y-83540000D01*
X84274159Y-84352027D01*
X84510655Y-84270509D01*
X84628948Y-84010531D01*
X84694248Y-83732471D01*
X84704046Y-83447014D01*
X84657967Y-83165130D01*
X84557780Y-82897653D01*
X84510655Y-82809491D01*
X84274159Y-82727973D01*
X83462132Y-83540000D01*
X83037868Y-83540000D01*
X82225841Y-82727973D01*
X81989345Y-82809491D01*
X81871052Y-83069469D01*
X81805752Y-83347529D01*
X81795954Y-83632986D01*
X77420854Y-83632986D01*
X76750000Y-82962132D01*
X75937973Y-83774159D01*
X37347561Y-83774159D01*
X37248038Y-83674636D01*
X36863143Y-83417457D01*
X36435470Y-83240309D01*
X35981455Y-83150000D01*
X35518545Y-83150000D01*
X35064530Y-83240309D01*
X34636857Y-83417457D01*
X34251962Y-83674636D01*
X33924636Y-84001962D01*
X33667457Y-84386857D01*
X33490309Y-84814530D01*
X33400000Y-85268545D01*
X31650000Y-85268545D01*
X31650000Y-75917083D01*
X36545049Y-75917083D01*
X36650810Y-76174004D01*
X36944937Y-76312311D01*
X37260394Y-76390580D01*
X37585059Y-76405801D01*
X37906456Y-76357390D01*
X38212232Y-76247210D01*
X38349190Y-76174004D01*
X38454951Y-75917083D01*
X37500000Y-74962132D01*
X36545049Y-75917083D01*
X31650000Y-75917083D01*
X31650000Y-74835059D01*
X35844199Y-74835059D01*
X35892610Y-75156456D01*
X36002790Y-75462232D01*
X36075996Y-75599190D01*
X36332917Y-75704951D01*
X37287868Y-74750000D01*
X37712132Y-74750000D01*
X38667083Y-75704951D01*
X38924004Y-75599190D01*
X39062311Y-75305063D01*
X39140580Y-74989606D01*
X39155801Y-74664941D01*
X39107390Y-74343544D01*
X38997210Y-74037768D01*
X38924004Y-73900810D01*
X38667083Y-73795049D01*
X37712132Y-74750000D01*
X37287868Y-74750000D01*
X36332917Y-73795049D01*
X36075996Y-73900810D01*
X35937689Y-74194937D01*
X35859420Y-74510394D01*
X35844199Y-74835059D01*
X31650000Y-74835059D01*
X31650000Y-73582917D01*
X36545049Y-73582917D01*
X37500000Y-74537868D01*
X38454951Y-73582917D01*
X38349190Y-73325996D01*
X38055063Y-73187689D01*
X37739606Y-73109420D01*
X37414941Y-73094199D01*
X37093544Y-73142610D01*
X36787768Y-73252790D01*
X36650810Y-73325996D01*
X36545049Y-73582917D01*
X31650000Y-73582917D01*
X31650000Y-62917083D01*
X36545049Y-62917083D01*
X36650810Y-63174004D01*
X36944937Y-63312311D01*
X37260394Y-63390580D01*
X37585059Y-63405801D01*
X37906456Y-63357390D01*
X38212232Y-63247210D01*
X38349190Y-63174004D01*
X38454951Y-62917083D01*
X37500000Y-61962132D01*
X36545049Y-62917083D01*
X31650000Y-62917083D01*
X31650000Y-61835059D01*
X35844199Y-61835059D01*
X35892610Y-62156456D01*
X36002790Y-62462232D01*
X36075996Y-62599190D01*
X36332917Y-62704951D01*
X37287868Y-61750000D01*
X37712132Y-61750000D01*
X38667083Y-62704951D01*
X38924004Y-62599190D01*
X39062311Y-62305063D01*
X39140580Y-61989606D01*
X39155801Y-61664941D01*
X39107390Y-61343544D01*
X38997210Y-61037768D01*
X38924004Y-60900810D01*
X38667083Y-60795049D01*
X37712132Y-61750000D01*
X37287868Y-61750000D01*
X36332917Y-60795049D01*
X36075996Y-60900810D01*
X35937689Y-61194937D01*
X35859420Y-61510394D01*
X35844199Y-61835059D01*
X31650000Y-61835059D01*
X31650000Y-60582917D01*
X36545049Y-60582917D01*
X37500000Y-61537868D01*
X38454951Y-60582917D01*
X38349190Y-60325996D01*
X38055063Y-60187689D01*
X37739606Y-60109420D01*
X37414941Y-60094199D01*
X37093544Y-60142610D01*
X36787768Y-60252790D01*
X36650810Y-60325996D01*
X36545049Y-60582917D01*
X31650000Y-60582917D01*
X31650000Y-52230126D01*
X38810825Y-52230126D01*
X38904416Y-52650000D01*
X41800000Y-52650000D01*
X41800000Y-50100000D01*
X41300000Y-50100000D01*
X40776138Y-50181143D01*
X40710685Y-50205037D01*
X40795339Y-50113647D01*
X41052297Y-49695291D01*
X41222700Y-49234844D01*
X41300000Y-48750000D01*
X41300000Y-48250000D01*
X38950000Y-48250000D01*
X38950000Y-50945208D01*
X39338535Y-51041307D01*
X39417586Y-51020327D01*
X39121696Y-51424681D01*
X38898122Y-51905337D01*
X38810825Y-52230126D01*
X31650000Y-52230126D01*
X31650000Y-48250000D01*
X36300000Y-48250000D01*
X36300000Y-48750000D01*
X36377300Y-49234844D01*
X36547703Y-49695291D01*
X36804661Y-50113647D01*
X37138299Y-50473834D01*
X37535795Y-50762011D01*
X37981874Y-50967103D01*
X38261465Y-51041307D01*
X38650000Y-50945208D01*
X38650000Y-48250000D01*
X36300000Y-48250000D01*
X31650000Y-48250000D01*
X31650000Y-47450000D01*
X36300000Y-47450000D01*
X36300000Y-47950000D01*
X38650000Y-47950000D01*
X38650000Y-45254792D01*
X38950000Y-45254792D01*
X38950000Y-47950000D01*
X41300000Y-47950000D01*
X41300000Y-47450000D01*
X41222700Y-46965156D01*
X41052297Y-46504709D01*
X40795339Y-46086353D01*
X40461701Y-45726166D01*
X40064205Y-45437989D01*
X39618126Y-45232897D01*
X39338535Y-45158693D01*
X38950000Y-45254792D01*
X38650000Y-45254792D01*
X38261465Y-45158693D01*
X37981874Y-45232897D01*
X37535795Y-45437989D01*
X37138299Y-45726166D01*
X36804661Y-46086353D01*
X36547703Y-46504709D01*
X36377300Y-46965156D01*
X36300000Y-47450000D01*
X31650000Y-47450000D01*
X31650000Y-40768545D01*
X33400000Y-40768545D01*
X33400000Y-41231455D01*
X33490309Y-41685470D01*
X33667457Y-42113143D01*
X33924636Y-42498038D01*
X34251962Y-42825364D01*
X34636857Y-43082543D01*
X35064530Y-43259691D01*
X35518545Y-43350000D01*
X35981455Y-43350000D01*
X36435470Y-43259691D01*
X36863143Y-43082543D01*
X37248038Y-42825364D01*
X37575364Y-42498038D01*
X37832543Y-42113143D01*
X38009691Y-41685470D01*
X38100000Y-41231455D01*
X38100000Y-40768545D01*
X38009691Y-40314530D01*
X37832543Y-39886857D01*
X37575364Y-39501962D01*
X37248038Y-39174636D01*
X36863143Y-38917457D01*
X36435470Y-38740309D01*
X35981455Y-38650000D01*
X35518545Y-38650000D01*
X35064530Y-38740309D01*
X34636857Y-38917457D01*
X34251962Y-39174636D01*
X33924636Y-39501962D01*
X33667457Y-39886857D01*
X33490309Y-40314530D01*
X33400000Y-40768545D01*
X31650000Y-40768545D01*
X31650000Y-36900000D01*
X72200000Y-36900000D01*
X72200000Y-42612285D01*
G36*
X82046728Y-54340878D02*
G01*
X81969533Y-54595354D01*
X81943468Y-54860000D01*
X81969533Y-55124646D01*
X82046728Y-55379122D01*
X82172085Y-55613649D01*
X82340787Y-55819213D01*
X82546351Y-55987915D01*
X82780878Y-56113272D01*
X82836022Y-56130000D01*
X82780878Y-56146728D01*
X82546351Y-56272085D01*
X82340787Y-56440787D01*
X82172085Y-56646351D01*
X82046728Y-56880878D01*
X81969533Y-57135354D01*
X81943468Y-57400000D01*
X81969533Y-57664646D01*
X82046728Y-57919122D01*
X82172085Y-58153649D01*
X82340787Y-58359213D01*
X82546351Y-58527915D01*
X82780878Y-58653272D01*
X82836022Y-58670000D01*
X82780878Y-58686728D01*
X82546351Y-58812085D01*
X82340787Y-58980787D01*
X82172085Y-59186351D01*
X82046728Y-59420878D01*
X81969533Y-59675354D01*
X81943468Y-59940000D01*
X81969533Y-60204646D01*
X82046728Y-60459122D01*
X82172085Y-60693649D01*
X82340787Y-60899213D01*
X82546351Y-61067915D01*
X82700000Y-61150042D01*
X82700001Y-61269958D01*
X82546351Y-61352085D01*
X82340787Y-61520787D01*
X82172085Y-61726351D01*
X82046728Y-61960878D01*
X81969533Y-62215354D01*
X81943468Y-62480000D01*
X81969533Y-62744646D01*
X82046728Y-62999122D01*
X82172085Y-63233649D01*
X82340787Y-63439213D01*
X82546351Y-63607915D01*
X82780878Y-63733272D01*
X82836022Y-63750000D01*
X82780878Y-63766728D01*
X82546351Y-63892085D01*
X82340787Y-64060787D01*
X82172085Y-64266351D01*
X82046728Y-64500878D01*
X81969533Y-64755354D01*
X81943468Y-65020000D01*
X81969533Y-65284646D01*
X82046728Y-65539122D01*
X82172085Y-65773649D01*
X82340787Y-65979213D01*
X82546351Y-66147915D01*
X82780878Y-66273272D01*
X82836022Y-66290000D01*
X82780878Y-66306728D01*
X82546351Y-66432085D01*
X82340787Y-66600787D01*
X82172085Y-66806351D01*
X82046728Y-67040878D01*
X81969533Y-67295354D01*
X81943468Y-67560000D01*
X81969533Y-67824646D01*
X82046728Y-68079122D01*
X82172085Y-68313649D01*
X82340787Y-68519213D01*
X82546351Y-68687915D01*
X82780878Y-68813272D01*
X82836022Y-68830000D01*
X82780878Y-68846728D01*
X82546351Y-68972085D01*
X82340787Y-69140787D01*
X82172085Y-69346351D01*
X82046728Y-69580878D01*
X81969533Y-69835354D01*
X81943468Y-70100000D01*
X81969533Y-70364646D01*
X82046728Y-70619122D01*
X82172085Y-70853649D01*
X82340787Y-71059213D01*
X82546351Y-71227915D01*
X82780878Y-71353272D01*
X82836022Y-71370000D01*
X82780878Y-71386728D01*
X82546351Y-71512085D01*
X82340787Y-71680787D01*
X82172085Y-71886351D01*
X82046728Y-72120878D01*
X81969533Y-72375354D01*
X81943468Y-72640000D01*
X81969533Y-72904646D01*
X82046728Y-73159122D01*
X82172085Y-73393649D01*
X82340787Y-73599213D01*
X82546351Y-73767915D01*
X82780878Y-73893272D01*
X82836022Y-73910000D01*
X82780878Y-73926728D01*
X82546351Y-74052085D01*
X82340787Y-74220787D01*
X82251158Y-74330000D01*
X81782081Y-74330000D01*
X80720576Y-73268496D01*
X80693958Y-73236062D01*
X80564529Y-73129842D01*
X80416865Y-73050913D01*
X80256639Y-73002310D01*
X80131759Y-72990010D01*
X80131751Y-72990010D01*
X80090010Y-72985899D01*
X80048269Y-72990010D01*
X77984572Y-72990010D01*
X78010467Y-72904646D01*
X78036532Y-72640000D01*
X78010467Y-72375354D01*
X77933272Y-72120878D01*
X77807915Y-71886351D01*
X77639213Y-71680787D01*
X77433649Y-71512085D01*
X77199122Y-71386728D01*
X77146511Y-71370769D01*
X77335205Y-71289835D01*
X77554741Y-71139148D01*
X77740661Y-70948528D01*
X77885820Y-70725299D01*
X77981658Y-70458032D01*
X77870588Y-70250000D01*
X76330000Y-70250000D01*
X76330000Y-70270000D01*
X76030000Y-70270000D01*
X76030000Y-70250000D01*
X74489412Y-70250000D01*
X74378342Y-70458032D01*
X74474180Y-70725299D01*
X74619339Y-70948528D01*
X74805259Y-71139148D01*
X75024795Y-71289835D01*
X75213489Y-71370769D01*
X75160878Y-71386728D01*
X74926351Y-71512085D01*
X74758301Y-71650000D01*
X71965949Y-71650000D01*
X71916289Y-71575679D01*
X71714321Y-71373711D01*
X71476833Y-71215027D01*
X71212949Y-71105723D01*
X70932813Y-71050000D01*
X70647187Y-71050000D01*
X70367051Y-71105723D01*
X70103167Y-71215027D01*
X69865679Y-71373711D01*
X69663711Y-71575679D01*
X69505027Y-71813167D01*
X69395723Y-72077051D01*
X69340000Y-72357187D01*
X69340000Y-72642813D01*
X69395723Y-72922949D01*
X69423500Y-72990010D01*
X67402091Y-72990010D01*
X67142562Y-72730481D01*
X67160000Y-72642813D01*
X67160000Y-72357187D01*
X67104277Y-72077051D01*
X66994973Y-71813167D01*
X66836289Y-71575679D01*
X66685817Y-71425207D01*
X66804856Y-71389098D01*
X66952520Y-71310169D01*
X67081949Y-71203949D01*
X67108567Y-71171515D01*
X67881521Y-70398562D01*
X67913949Y-70371949D01*
X68020169Y-70242520D01*
X68099098Y-70094856D01*
X68147701Y-69934630D01*
X68160001Y-69809750D01*
X68160001Y-69809742D01*
X68164112Y-69768001D01*
X68160001Y-69726260D01*
X68160001Y-63641741D01*
X68164112Y-63600000D01*
X68160001Y-63558259D01*
X68160001Y-63558252D01*
X68148772Y-63444248D01*
X68147701Y-63433371D01*
X68099098Y-63273146D01*
X68084416Y-63245679D01*
X68020169Y-63125482D01*
X67913949Y-62996053D01*
X67881520Y-62969439D01*
X67190564Y-62278484D01*
X67190560Y-62278479D01*
X67142562Y-62230481D01*
X67160000Y-62142813D01*
X67160000Y-61857187D01*
X67104277Y-61577051D01*
X66994973Y-61313167D01*
X66836289Y-61075679D01*
X66634321Y-60873711D01*
X66396833Y-60715027D01*
X66132949Y-60605723D01*
X65852813Y-60550000D01*
X65567187Y-60550000D01*
X65287051Y-60605723D01*
X65023167Y-60715027D01*
X64785679Y-60873711D01*
X64583711Y-61075679D01*
X64425027Y-61313167D01*
X64315723Y-61577051D01*
X64260000Y-61857187D01*
X64260000Y-62142813D01*
X64315723Y-62422949D01*
X64425027Y-62686833D01*
X64583711Y-62924321D01*
X64785679Y-63126289D01*
X65023167Y-63284973D01*
X65287051Y-63394277D01*
X65567187Y-63450000D01*
X65852813Y-63450000D01*
X65940481Y-63432562D01*
X65988479Y-63480560D01*
X65988484Y-63480564D01*
X66460002Y-63952083D01*
X66460002Y-64257235D01*
X66396833Y-64215027D01*
X66132949Y-64105723D01*
X65852813Y-64050000D01*
X65567187Y-64050000D01*
X65479520Y-64067438D01*
X63830565Y-62418485D01*
X63803947Y-62386051D01*
X63692471Y-62294565D01*
X63769941Y-62242801D01*
X63992801Y-62019941D01*
X64167902Y-61757884D01*
X64288513Y-61466703D01*
X64350000Y-61157586D01*
X64350000Y-60842414D01*
X64288513Y-60533297D01*
X64167902Y-60242116D01*
X63992801Y-59980059D01*
X63769941Y-59757199D01*
X63507884Y-59582098D01*
X63216703Y-59461487D01*
X63158954Y-59450000D01*
X63312813Y-59450000D01*
X63592949Y-59394277D01*
X63856833Y-59284973D01*
X64094321Y-59126289D01*
X64296289Y-58924321D01*
X64454973Y-58686833D01*
X64564277Y-58422949D01*
X64620000Y-58142813D01*
X64620000Y-57857187D01*
X64564277Y-57577051D01*
X64454973Y-57313167D01*
X64296289Y-57075679D01*
X64094321Y-56873711D01*
X63856833Y-56715027D01*
X63639488Y-56625000D01*
X63856833Y-56534973D01*
X64094321Y-56376289D01*
X64296289Y-56174321D01*
X64345949Y-56100000D01*
X66664141Y-56100000D01*
X66705882Y-56104111D01*
X66747623Y-56100000D01*
X70609917Y-56100000D01*
X71150001Y-56640084D01*
X71150000Y-57208258D01*
X71145889Y-57250000D01*
X71150000Y-57291741D01*
X71150000Y-57291748D01*
X71157125Y-57364084D01*
X71162300Y-57416629D01*
X71201559Y-57546051D01*
X71210903Y-57576854D01*
X71289832Y-57724518D01*
X71396052Y-57853948D01*
X71428486Y-57880566D01*
X71926996Y-58379077D01*
X71935723Y-58422949D01*
X72045027Y-58686833D01*
X72203711Y-58924321D01*
X72405679Y-59126289D01*
X72460573Y-59162968D01*
X72335481Y-59229832D01*
X72206052Y-59336052D01*
X72179439Y-59368481D01*
X70987118Y-60560802D01*
X70932813Y-60550000D01*
X70647187Y-60550000D01*
X70367051Y-60605723D01*
X70103167Y-60715027D01*
X69865679Y-60873711D01*
X69663711Y-61075679D01*
X69505027Y-61313167D01*
X69395723Y-61577051D01*
X69340000Y-61857187D01*
X69340000Y-62142813D01*
X69395723Y-62422949D01*
X69505027Y-62686833D01*
X69663711Y-62924321D01*
X69865679Y-63126289D01*
X70103167Y-63284973D01*
X70367051Y-63394277D01*
X70647187Y-63450000D01*
X70932813Y-63450000D01*
X71212949Y-63394277D01*
X71476833Y-63284973D01*
X71714321Y-63126289D01*
X71916289Y-62924321D01*
X72074973Y-62686833D01*
X72184277Y-62422949D01*
X72240000Y-62142813D01*
X72240000Y-61857187D01*
X72215925Y-61736155D01*
X73162081Y-60790000D01*
X74631158Y-60790000D01*
X74720787Y-60899213D01*
X74926351Y-61067915D01*
X75160878Y-61193272D01*
X75216022Y-61210000D01*
X75160878Y-61226728D01*
X74926351Y-61352085D01*
X74720787Y-61520787D01*
X74631158Y-61630000D01*
X73811741Y-61630000D01*
X73770000Y-61625889D01*
X73728259Y-61630000D01*
X73728251Y-61630000D01*
X73603371Y-61642300D01*
X73443145Y-61690903D01*
X73295481Y-61769832D01*
X73166052Y-61876052D01*
X73139439Y-61908480D01*
X70987118Y-64060802D01*
X70932813Y-64050000D01*
X70647187Y-64050000D01*
X70367051Y-64105723D01*
X70103167Y-64215027D01*
X69865679Y-64373711D01*
X69663711Y-64575679D01*
X69505027Y-64813167D01*
X69395723Y-65077051D01*
X69340000Y-65357187D01*
X69340000Y-65642813D01*
X69395723Y-65922949D01*
X69505027Y-66186833D01*
X69663711Y-66424321D01*
X69865679Y-66626289D01*
X70103167Y-66784973D01*
X70367051Y-66894277D01*
X70470904Y-66914935D01*
X70218481Y-67167358D01*
X70186053Y-67193971D01*
X70079833Y-67323400D01*
X70042432Y-67393371D01*
X70000903Y-67471065D01*
X69952300Y-67631290D01*
X69935889Y-67797919D01*
X69938558Y-67825015D01*
X69865679Y-67873711D01*
X69663711Y-68075679D01*
X69505027Y-68313167D01*
X69395723Y-68577051D01*
X69340000Y-68857187D01*
X69340000Y-69142813D01*
X69395723Y-69422949D01*
X69505027Y-69686833D01*
X69663711Y-69924321D01*
X69865679Y-70126289D01*
X70103167Y-70284973D01*
X70367051Y-70394277D01*
X70647187Y-70450000D01*
X70932813Y-70450000D01*
X71212949Y-70394277D01*
X71476833Y-70284973D01*
X71714321Y-70126289D01*
X71916289Y-69924321D01*
X72074973Y-69686833D01*
X72184277Y-69422949D01*
X72240000Y-69142813D01*
X72240000Y-68857187D01*
X72184277Y-68577051D01*
X72074973Y-68313167D01*
X71916289Y-68075679D01*
X71815305Y-67974695D01*
X71871968Y-67918032D01*
X74378342Y-67918032D01*
X74474180Y-68185299D01*
X74619339Y-68408528D01*
X74805259Y-68599148D01*
X75024795Y-68749835D01*
X75211697Y-68830000D01*
X75024795Y-68910165D01*
X74805259Y-69060852D01*
X74619339Y-69251472D01*
X74474180Y-69474701D01*
X74378342Y-69741968D01*
X74489412Y-69950000D01*
X76030000Y-69950000D01*
X76030000Y-67710000D01*
X76330000Y-67710000D01*
X76330000Y-69950000D01*
X77870588Y-69950000D01*
X77981658Y-69741968D01*
X77885820Y-69474701D01*
X77740661Y-69251472D01*
X77554741Y-69060852D01*
X77335205Y-68910165D01*
X77148303Y-68830000D01*
X77335205Y-68749835D01*
X77554741Y-68599148D01*
X77740661Y-68408528D01*
X77885820Y-68185299D01*
X77981658Y-67918032D01*
X77870588Y-67710000D01*
X76330000Y-67710000D01*
X76030000Y-67710000D01*
X74489412Y-67710000D01*
X74378342Y-67918032D01*
X71871968Y-67918032D01*
X73920000Y-65870000D01*
X74631158Y-65870000D01*
X74720787Y-65979213D01*
X74926351Y-66147915D01*
X75160878Y-66273272D01*
X75213489Y-66289231D01*
X75024795Y-66370165D01*
X74805259Y-66520852D01*
X74619339Y-66711472D01*
X74474180Y-66934701D01*
X74378342Y-67201968D01*
X74489412Y-67410000D01*
X76030000Y-67410000D01*
X76030000Y-67390000D01*
X76330000Y-67390000D01*
X76330000Y-67410000D01*
X77870588Y-67410000D01*
X77981658Y-67201968D01*
X77885820Y-66934701D01*
X77740661Y-66711472D01*
X77554741Y-66520852D01*
X77335205Y-66370165D01*
X77146511Y-66289231D01*
X77199122Y-66273272D01*
X77433649Y-66147915D01*
X77639213Y-65979213D01*
X77807915Y-65773649D01*
X77933272Y-65539122D01*
X78010467Y-65284646D01*
X78036532Y-65020000D01*
X78010467Y-64755354D01*
X77933272Y-64500878D01*
X77807915Y-64266351D01*
X77639213Y-64060787D01*
X77433649Y-63892085D01*
X77199122Y-63766728D01*
X77143978Y-63750000D01*
X77199122Y-63733272D01*
X77433649Y-63607915D01*
X77639213Y-63439213D01*
X77807915Y-63233649D01*
X77933272Y-62999122D01*
X78010467Y-62744646D01*
X78036532Y-62480000D01*
X78010467Y-62215354D01*
X77933272Y-61960878D01*
X77807915Y-61726351D01*
X77639213Y-61520787D01*
X77433649Y-61352085D01*
X77199122Y-61226728D01*
X77143978Y-61210000D01*
X77199122Y-61193272D01*
X77433649Y-61067915D01*
X77639213Y-60899213D01*
X77807915Y-60693649D01*
X77933272Y-60459122D01*
X78010467Y-60204646D01*
X78036532Y-59940000D01*
X78010467Y-59675354D01*
X77933272Y-59420878D01*
X77807915Y-59186351D01*
X77639213Y-58980787D01*
X77433649Y-58812085D01*
X77199122Y-58686728D01*
X77146511Y-58670769D01*
X77335205Y-58589835D01*
X77554741Y-58439148D01*
X77740661Y-58248528D01*
X77885820Y-58025299D01*
X77981658Y-57758032D01*
X77870588Y-57550000D01*
X76330000Y-57550000D01*
X76330000Y-57570000D01*
X76030000Y-57570000D01*
X76030000Y-57550000D01*
X76010000Y-57550000D01*
X76010000Y-57250000D01*
X76030000Y-57250000D01*
X76030000Y-57230000D01*
X76330000Y-57230000D01*
X76330000Y-57250000D01*
X77870588Y-57250000D01*
X77981658Y-57041968D01*
X77885820Y-56774701D01*
X77740661Y-56551472D01*
X77554741Y-56360852D01*
X77335205Y-56210165D01*
X77146511Y-56129231D01*
X77199122Y-56113272D01*
X77433649Y-55987915D01*
X77639213Y-55819213D01*
X77807915Y-55613649D01*
X77933272Y-55379122D01*
X78010467Y-55124646D01*
X78036532Y-54860000D01*
X78010467Y-54595354D01*
X77933272Y-54340878D01*
X77911422Y-54300000D01*
X82068578Y-54300000D01*
X82046728Y-54340878D01*
G37*
X82046728Y-54340878D02*
X81969533Y-54595354D01*
X81943468Y-54860000D01*
X81969533Y-55124646D01*
X82046728Y-55379122D01*
X82172085Y-55613649D01*
X82340787Y-55819213D01*
X82546351Y-55987915D01*
X82780878Y-56113272D01*
X82836022Y-56130000D01*
X82780878Y-56146728D01*
X82546351Y-56272085D01*
X82340787Y-56440787D01*
X82172085Y-56646351D01*
X82046728Y-56880878D01*
X81969533Y-57135354D01*
X81943468Y-57400000D01*
X81969533Y-57664646D01*
X82046728Y-57919122D01*
X82172085Y-58153649D01*
X82340787Y-58359213D01*
X82546351Y-58527915D01*
X82780878Y-58653272D01*
X82836022Y-58670000D01*
X82780878Y-58686728D01*
X82546351Y-58812085D01*
X82340787Y-58980787D01*
X82172085Y-59186351D01*
X82046728Y-59420878D01*
X81969533Y-59675354D01*
X81943468Y-59940000D01*
X81969533Y-60204646D01*
X82046728Y-60459122D01*
X82172085Y-60693649D01*
X82340787Y-60899213D01*
X82546351Y-61067915D01*
X82700000Y-61150042D01*
X82700001Y-61269958D01*
X82546351Y-61352085D01*
X82340787Y-61520787D01*
X82172085Y-61726351D01*
X82046728Y-61960878D01*
X81969533Y-62215354D01*
X81943468Y-62480000D01*
X81969533Y-62744646D01*
X82046728Y-62999122D01*
X82172085Y-63233649D01*
X82340787Y-63439213D01*
X82546351Y-63607915D01*
X82780878Y-63733272D01*
X82836022Y-63750000D01*
X82780878Y-63766728D01*
X82546351Y-63892085D01*
X82340787Y-64060787D01*
X82172085Y-64266351D01*
X82046728Y-64500878D01*
X81969533Y-64755354D01*
X81943468Y-65020000D01*
X81969533Y-65284646D01*
X82046728Y-65539122D01*
X82172085Y-65773649D01*
X82340787Y-65979213D01*
X82546351Y-66147915D01*
X82780878Y-66273272D01*
X82836022Y-66290000D01*
X82780878Y-66306728D01*
X82546351Y-66432085D01*
X82340787Y-66600787D01*
X82172085Y-66806351D01*
X82046728Y-67040878D01*
X81969533Y-67295354D01*
X81943468Y-67560000D01*
X81969533Y-67824646D01*
X82046728Y-68079122D01*
X82172085Y-68313649D01*
X82340787Y-68519213D01*
X82546351Y-68687915D01*
X82780878Y-68813272D01*
X82836022Y-68830000D01*
X82780878Y-68846728D01*
X82546351Y-68972085D01*
X82340787Y-69140787D01*
X82172085Y-69346351D01*
X82046728Y-69580878D01*
X81969533Y-69835354D01*
X81943468Y-70100000D01*
X81969533Y-70364646D01*
X82046728Y-70619122D01*
X82172085Y-70853649D01*
X82340787Y-71059213D01*
X82546351Y-71227915D01*
X82780878Y-71353272D01*
X82836022Y-71370000D01*
X82780878Y-71386728D01*
X82546351Y-71512085D01*
X82340787Y-71680787D01*
X82172085Y-71886351D01*
X82046728Y-72120878D01*
X81969533Y-72375354D01*
X81943468Y-72640000D01*
X81969533Y-72904646D01*
X82046728Y-73159122D01*
X82172085Y-73393649D01*
X82340787Y-73599213D01*
X82546351Y-73767915D01*
X82780878Y-73893272D01*
X82836022Y-73910000D01*
X82780878Y-73926728D01*
X82546351Y-74052085D01*
X82340787Y-74220787D01*
X82251158Y-74330000D01*
X81782081Y-74330000D01*
X80720576Y-73268496D01*
X80693958Y-73236062D01*
X80564529Y-73129842D01*
X80416865Y-73050913D01*
X80256639Y-73002310D01*
X80131759Y-72990010D01*
X80131751Y-72990010D01*
X80090010Y-72985899D01*
X80048269Y-72990010D01*
X77984572Y-72990010D01*
X78010467Y-72904646D01*
X78036532Y-72640000D01*
X78010467Y-72375354D01*
X77933272Y-72120878D01*
X77807915Y-71886351D01*
X77639213Y-71680787D01*
X77433649Y-71512085D01*
X77199122Y-71386728D01*
X77146511Y-71370769D01*
X77335205Y-71289835D01*
X77554741Y-71139148D01*
X77740661Y-70948528D01*
X77885820Y-70725299D01*
X77981658Y-70458032D01*
X77870588Y-70250000D01*
X76330000Y-70250000D01*
X76330000Y-70270000D01*
X76030000Y-70270000D01*
X76030000Y-70250000D01*
X74489412Y-70250000D01*
X74378342Y-70458032D01*
X74474180Y-70725299D01*
X74619339Y-70948528D01*
X74805259Y-71139148D01*
X75024795Y-71289835D01*
X75213489Y-71370769D01*
X75160878Y-71386728D01*
X74926351Y-71512085D01*
X74758301Y-71650000D01*
X71965949Y-71650000D01*
X71916289Y-71575679D01*
X71714321Y-71373711D01*
X71476833Y-71215027D01*
X71212949Y-71105723D01*
X70932813Y-71050000D01*
X70647187Y-71050000D01*
X70367051Y-71105723D01*
X70103167Y-71215027D01*
X69865679Y-71373711D01*
X69663711Y-71575679D01*
X69505027Y-71813167D01*
X69395723Y-72077051D01*
X69340000Y-72357187D01*
X69340000Y-72642813D01*
X69395723Y-72922949D01*
X69423500Y-72990010D01*
X67402091Y-72990010D01*
X67142562Y-72730481D01*
X67160000Y-72642813D01*
X67160000Y-72357187D01*
X67104277Y-72077051D01*
X66994973Y-71813167D01*
X66836289Y-71575679D01*
X66685817Y-71425207D01*
X66804856Y-71389098D01*
X66952520Y-71310169D01*
X67081949Y-71203949D01*
X67108567Y-71171515D01*
X67881521Y-70398562D01*
X67913949Y-70371949D01*
X68020169Y-70242520D01*
X68099098Y-70094856D01*
X68147701Y-69934630D01*
X68160001Y-69809750D01*
X68160001Y-69809742D01*
X68164112Y-69768001D01*
X68160001Y-69726260D01*
X68160001Y-63641741D01*
X68164112Y-63600000D01*
X68160001Y-63558259D01*
X68160001Y-63558252D01*
X68148772Y-63444248D01*
X68147701Y-63433371D01*
X68099098Y-63273146D01*
X68084416Y-63245679D01*
X68020169Y-63125482D01*
X67913949Y-62996053D01*
X67881520Y-62969439D01*
X67190564Y-62278484D01*
X67190560Y-62278479D01*
X67142562Y-62230481D01*
X67160000Y-62142813D01*
X67160000Y-61857187D01*
X67104277Y-61577051D01*
X66994973Y-61313167D01*
X66836289Y-61075679D01*
X66634321Y-60873711D01*
X66396833Y-60715027D01*
X66132949Y-60605723D01*
X65852813Y-60550000D01*
X65567187Y-60550000D01*
X65287051Y-60605723D01*
X65023167Y-60715027D01*
X64785679Y-60873711D01*
X64583711Y-61075679D01*
X64425027Y-61313167D01*
X64315723Y-61577051D01*
X64260000Y-61857187D01*
X64260000Y-62142813D01*
X64315723Y-62422949D01*
X64425027Y-62686833D01*
X64583711Y-62924321D01*
X64785679Y-63126289D01*
X65023167Y-63284973D01*
X65287051Y-63394277D01*
X65567187Y-63450000D01*
X65852813Y-63450000D01*
X65940481Y-63432562D01*
X65988479Y-63480560D01*
X65988484Y-63480564D01*
X66460002Y-63952083D01*
X66460002Y-64257235D01*
X66396833Y-64215027D01*
X66132949Y-64105723D01*
X65852813Y-64050000D01*
X65567187Y-64050000D01*
X65479520Y-64067438D01*
X63830565Y-62418485D01*
X63803947Y-62386051D01*
X63692471Y-62294565D01*
X63769941Y-62242801D01*
X63992801Y-62019941D01*
X64167902Y-61757884D01*
X64288513Y-61466703D01*
X64350000Y-61157586D01*
X64350000Y-60842414D01*
X64288513Y-60533297D01*
X64167902Y-60242116D01*
X63992801Y-59980059D01*
X63769941Y-59757199D01*
X63507884Y-59582098D01*
X63216703Y-59461487D01*
X63158954Y-59450000D01*
X63312813Y-59450000D01*
X63592949Y-59394277D01*
X63856833Y-59284973D01*
X64094321Y-59126289D01*
X64296289Y-58924321D01*
X64454973Y-58686833D01*
X64564277Y-58422949D01*
X64620000Y-58142813D01*
X64620000Y-57857187D01*
X64564277Y-57577051D01*
X64454973Y-57313167D01*
X64296289Y-57075679D01*
X64094321Y-56873711D01*
X63856833Y-56715027D01*
X63639488Y-56625000D01*
X63856833Y-56534973D01*
X64094321Y-56376289D01*
X64296289Y-56174321D01*
X64345949Y-56100000D01*
X66664141Y-56100000D01*
X66705882Y-56104111D01*
X66747623Y-56100000D01*
X70609917Y-56100000D01*
X71150001Y-56640084D01*
X71150000Y-57208258D01*
X71145889Y-57250000D01*
X71150000Y-57291741D01*
X71150000Y-57291748D01*
X71157125Y-57364084D01*
X71162300Y-57416629D01*
X71201559Y-57546051D01*
X71210903Y-57576854D01*
X71289832Y-57724518D01*
X71396052Y-57853948D01*
X71428486Y-57880566D01*
X71926996Y-58379077D01*
X71935723Y-58422949D01*
X72045027Y-58686833D01*
X72203711Y-58924321D01*
X72405679Y-59126289D01*
X72460573Y-59162968D01*
X72335481Y-59229832D01*
X72206052Y-59336052D01*
X72179439Y-59368481D01*
X70987118Y-60560802D01*
X70932813Y-60550000D01*
X70647187Y-60550000D01*
X70367051Y-60605723D01*
X70103167Y-60715027D01*
X69865679Y-60873711D01*
X69663711Y-61075679D01*
X69505027Y-61313167D01*
X69395723Y-61577051D01*
X69340000Y-61857187D01*
X69340000Y-62142813D01*
X69395723Y-62422949D01*
X69505027Y-62686833D01*
X69663711Y-62924321D01*
X69865679Y-63126289D01*
X70103167Y-63284973D01*
X70367051Y-63394277D01*
X70647187Y-63450000D01*
X70932813Y-63450000D01*
X71212949Y-63394277D01*
X71476833Y-63284973D01*
X71714321Y-63126289D01*
X71916289Y-62924321D01*
X72074973Y-62686833D01*
X72184277Y-62422949D01*
X72240000Y-62142813D01*
X72240000Y-61857187D01*
X72215925Y-61736155D01*
X73162081Y-60790000D01*
X74631158Y-60790000D01*
X74720787Y-60899213D01*
X74926351Y-61067915D01*
X75160878Y-61193272D01*
X75216022Y-61210000D01*
X75160878Y-61226728D01*
X74926351Y-61352085D01*
X74720787Y-61520787D01*
X74631158Y-61630000D01*
X73811741Y-61630000D01*
X73770000Y-61625889D01*
X73728259Y-61630000D01*
X73728251Y-61630000D01*
X73603371Y-61642300D01*
X73443145Y-61690903D01*
X73295481Y-61769832D01*
X73166052Y-61876052D01*
X73139439Y-61908480D01*
X70987118Y-64060802D01*
X70932813Y-64050000D01*
X70647187Y-64050000D01*
X70367051Y-64105723D01*
X70103167Y-64215027D01*
X69865679Y-64373711D01*
X69663711Y-64575679D01*
X69505027Y-64813167D01*
X69395723Y-65077051D01*
X69340000Y-65357187D01*
X69340000Y-65642813D01*
X69395723Y-65922949D01*
X69505027Y-66186833D01*
X69663711Y-66424321D01*
X69865679Y-66626289D01*
X70103167Y-66784973D01*
X70367051Y-66894277D01*
X70470904Y-66914935D01*
X70218481Y-67167358D01*
X70186053Y-67193971D01*
X70079833Y-67323400D01*
X70042432Y-67393371D01*
X70000903Y-67471065D01*
X69952300Y-67631290D01*
X69935889Y-67797919D01*
X69938558Y-67825015D01*
X69865679Y-67873711D01*
X69663711Y-68075679D01*
X69505027Y-68313167D01*
X69395723Y-68577051D01*
X69340000Y-68857187D01*
X69340000Y-69142813D01*
X69395723Y-69422949D01*
X69505027Y-69686833D01*
X69663711Y-69924321D01*
X69865679Y-70126289D01*
X70103167Y-70284973D01*
X70367051Y-70394277D01*
X70647187Y-70450000D01*
X70932813Y-70450000D01*
X71212949Y-70394277D01*
X71476833Y-70284973D01*
X71714321Y-70126289D01*
X71916289Y-69924321D01*
X72074973Y-69686833D01*
X72184277Y-69422949D01*
X72240000Y-69142813D01*
X72240000Y-68857187D01*
X72184277Y-68577051D01*
X72074973Y-68313167D01*
X71916289Y-68075679D01*
X71815305Y-67974695D01*
X71871968Y-67918032D01*
X74378342Y-67918032D01*
X74474180Y-68185299D01*
X74619339Y-68408528D01*
X74805259Y-68599148D01*
X75024795Y-68749835D01*
X75211697Y-68830000D01*
X75024795Y-68910165D01*
X74805259Y-69060852D01*
X74619339Y-69251472D01*
X74474180Y-69474701D01*
X74378342Y-69741968D01*
X74489412Y-69950000D01*
X76030000Y-69950000D01*
X76030000Y-67710000D01*
X76330000Y-67710000D01*
X76330000Y-69950000D01*
X77870588Y-69950000D01*
X77981658Y-69741968D01*
X77885820Y-69474701D01*
X77740661Y-69251472D01*
X77554741Y-69060852D01*
X77335205Y-68910165D01*
X77148303Y-68830000D01*
X77335205Y-68749835D01*
X77554741Y-68599148D01*
X77740661Y-68408528D01*
X77885820Y-68185299D01*
X77981658Y-67918032D01*
X77870588Y-67710000D01*
X76330000Y-67710000D01*
X76030000Y-67710000D01*
X74489412Y-67710000D01*
X74378342Y-67918032D01*
X71871968Y-67918032D01*
X73920000Y-65870000D01*
X74631158Y-65870000D01*
X74720787Y-65979213D01*
X74926351Y-66147915D01*
X75160878Y-66273272D01*
X75213489Y-66289231D01*
X75024795Y-66370165D01*
X74805259Y-66520852D01*
X74619339Y-66711472D01*
X74474180Y-66934701D01*
X74378342Y-67201968D01*
X74489412Y-67410000D01*
X76030000Y-67410000D01*
X76030000Y-67390000D01*
X76330000Y-67390000D01*
X76330000Y-67410000D01*
X77870588Y-67410000D01*
X77981658Y-67201968D01*
X77885820Y-66934701D01*
X77740661Y-66711472D01*
X77554741Y-66520852D01*
X77335205Y-66370165D01*
X77146511Y-66289231D01*
X77199122Y-66273272D01*
X77433649Y-66147915D01*
X77639213Y-65979213D01*
X77807915Y-65773649D01*
X77933272Y-65539122D01*
X78010467Y-65284646D01*
X78036532Y-65020000D01*
X78010467Y-64755354D01*
X77933272Y-64500878D01*
X77807915Y-64266351D01*
X77639213Y-64060787D01*
X77433649Y-63892085D01*
X77199122Y-63766728D01*
X77143978Y-63750000D01*
X77199122Y-63733272D01*
X77433649Y-63607915D01*
X77639213Y-63439213D01*
X77807915Y-63233649D01*
X77933272Y-62999122D01*
X78010467Y-62744646D01*
X78036532Y-62480000D01*
X78010467Y-62215354D01*
X77933272Y-61960878D01*
X77807915Y-61726351D01*
X77639213Y-61520787D01*
X77433649Y-61352085D01*
X77199122Y-61226728D01*
X77143978Y-61210000D01*
X77199122Y-61193272D01*
X77433649Y-61067915D01*
X77639213Y-60899213D01*
X77807915Y-60693649D01*
X77933272Y-60459122D01*
X78010467Y-60204646D01*
X78036532Y-59940000D01*
X78010467Y-59675354D01*
X77933272Y-59420878D01*
X77807915Y-59186351D01*
X77639213Y-58980787D01*
X77433649Y-58812085D01*
X77199122Y-58686728D01*
X77146511Y-58670769D01*
X77335205Y-58589835D01*
X77554741Y-58439148D01*
X77740661Y-58248528D01*
X77885820Y-58025299D01*
X77981658Y-57758032D01*
X77870588Y-57550000D01*
X76330000Y-57550000D01*
X76330000Y-57570000D01*
X76030000Y-57570000D01*
X76030000Y-57550000D01*
X76010000Y-57550000D01*
X76010000Y-57250000D01*
X76030000Y-57250000D01*
X76030000Y-57230000D01*
X76330000Y-57230000D01*
X76330000Y-57250000D01*
X77870588Y-57250000D01*
X77981658Y-57041968D01*
X77885820Y-56774701D01*
X77740661Y-56551472D01*
X77554741Y-56360852D01*
X77335205Y-56210165D01*
X77146511Y-56129231D01*
X77199122Y-56113272D01*
X77433649Y-55987915D01*
X77639213Y-55819213D01*
X77807915Y-55613649D01*
X77933272Y-55379122D01*
X78010467Y-55124646D01*
X78036532Y-54860000D01*
X78010467Y-54595354D01*
X77933272Y-54340878D01*
X77911422Y-54300000D01*
X82068578Y-54300000D01*
X82046728Y-54340878D01*
G36*
X62760001Y-63844110D02*
G01*
X62801742Y-63839999D01*
X62847919Y-63839999D01*
X64277438Y-65269520D01*
X64260000Y-65357187D01*
X64260000Y-65642813D01*
X64315723Y-65922949D01*
X64425027Y-66186833D01*
X64583711Y-66424321D01*
X64785679Y-66626289D01*
X65023167Y-66784973D01*
X65287051Y-66894277D01*
X65567187Y-66950000D01*
X65852813Y-66950000D01*
X66132949Y-66894277D01*
X66396833Y-66784973D01*
X66460001Y-66742765D01*
X66460001Y-67795895D01*
X66440509Y-67739345D01*
X66180531Y-67621052D01*
X65902471Y-67555752D01*
X65617014Y-67545954D01*
X65335130Y-67592033D01*
X65067653Y-67692220D01*
X64979491Y-67739345D01*
X64897973Y-67975841D01*
X65710000Y-68787868D01*
X65724143Y-68773726D01*
X65936275Y-68985858D01*
X65922132Y-69000000D01*
X65936275Y-69014143D01*
X65724143Y-69226275D01*
X65710000Y-69212132D01*
X65695858Y-69226275D01*
X65483726Y-69014143D01*
X65497868Y-69000000D01*
X64685841Y-68187973D01*
X64449345Y-68269491D01*
X64331052Y-68529469D01*
X64265752Y-68807529D01*
X64255954Y-69092986D01*
X64302033Y-69374870D01*
X64402220Y-69642347D01*
X64449345Y-69730509D01*
X64685839Y-69812026D01*
X64574009Y-69923856D01*
X64642529Y-69992376D01*
X64638049Y-69996053D01*
X64611440Y-70028476D01*
X62312220Y-72327697D01*
X62340000Y-72188039D01*
X62340000Y-71931961D01*
X62290042Y-71680804D01*
X62192045Y-71444219D01*
X62049776Y-71231298D01*
X61868702Y-71050224D01*
X61655781Y-70907955D01*
X61419196Y-70809958D01*
X61168039Y-70760000D01*
X60942081Y-70760000D01*
X60220565Y-70038485D01*
X60193947Y-70006051D01*
X60064518Y-69899831D01*
X59916854Y-69820902D01*
X59756628Y-69772299D01*
X59631748Y-69759999D01*
X59631740Y-69759999D01*
X59589999Y-69755888D01*
X59548258Y-69759999D01*
X54345743Y-69759999D01*
X54304002Y-69755888D01*
X54262261Y-69759999D01*
X54262254Y-69759999D01*
X54153016Y-69770758D01*
X54137373Y-69772299D01*
X54002647Y-69813167D01*
X53977148Y-69820902D01*
X53829484Y-69899831D01*
X53700055Y-70006051D01*
X53673442Y-70038479D01*
X53228350Y-70483571D01*
X53188513Y-70283297D01*
X53067902Y-69992116D01*
X52892801Y-69730059D01*
X52669941Y-69507199D01*
X52659167Y-69500000D01*
X52669941Y-69492801D01*
X52892801Y-69269941D01*
X53006352Y-69100000D01*
X59458259Y-69100000D01*
X59500000Y-69104111D01*
X59541741Y-69100000D01*
X59541749Y-69100000D01*
X59666629Y-69087700D01*
X59826855Y-69039097D01*
X59974519Y-68960168D01*
X60103948Y-68853948D01*
X60130566Y-68821514D01*
X61611521Y-67340560D01*
X61643948Y-67313948D01*
X61750168Y-67184519D01*
X61829097Y-67036855D01*
X61877700Y-66876629D01*
X61890000Y-66751749D01*
X61890000Y-66751741D01*
X61894111Y-66710000D01*
X61890000Y-66668259D01*
X61890000Y-65428478D01*
X62049776Y-65268702D01*
X62192045Y-65055781D01*
X62290042Y-64819196D01*
X62340000Y-64568039D01*
X62340000Y-64311961D01*
X62290042Y-64060804D01*
X62198581Y-63839999D01*
X62718260Y-63839999D01*
X62760001Y-63844110D01*
G37*
X62760001Y-63844110D02*
X62801742Y-63839999D01*
X62847919Y-63839999D01*
X64277438Y-65269520D01*
X64260000Y-65357187D01*
X64260000Y-65642813D01*
X64315723Y-65922949D01*
X64425027Y-66186833D01*
X64583711Y-66424321D01*
X64785679Y-66626289D01*
X65023167Y-66784973D01*
X65287051Y-66894277D01*
X65567187Y-66950000D01*
X65852813Y-66950000D01*
X66132949Y-66894277D01*
X66396833Y-66784973D01*
X66460001Y-66742765D01*
X66460001Y-67795895D01*
X66440509Y-67739345D01*
X66180531Y-67621052D01*
X65902471Y-67555752D01*
X65617014Y-67545954D01*
X65335130Y-67592033D01*
X65067653Y-67692220D01*
X64979491Y-67739345D01*
X64897973Y-67975841D01*
X65710000Y-68787868D01*
X65724143Y-68773726D01*
X65936275Y-68985858D01*
X65922132Y-69000000D01*
X65936275Y-69014143D01*
X65724143Y-69226275D01*
X65710000Y-69212132D01*
X65695858Y-69226275D01*
X65483726Y-69014143D01*
X65497868Y-69000000D01*
X64685841Y-68187973D01*
X64449345Y-68269491D01*
X64331052Y-68529469D01*
X64265752Y-68807529D01*
X64255954Y-69092986D01*
X64302033Y-69374870D01*
X64402220Y-69642347D01*
X64449345Y-69730509D01*
X64685839Y-69812026D01*
X64574009Y-69923856D01*
X64642529Y-69992376D01*
X64638049Y-69996053D01*
X64611440Y-70028476D01*
X62312220Y-72327697D01*
X62340000Y-72188039D01*
X62340000Y-71931961D01*
X62290042Y-71680804D01*
X62192045Y-71444219D01*
X62049776Y-71231298D01*
X61868702Y-71050224D01*
X61655781Y-70907955D01*
X61419196Y-70809958D01*
X61168039Y-70760000D01*
X60942081Y-70760000D01*
X60220565Y-70038485D01*
X60193947Y-70006051D01*
X60064518Y-69899831D01*
X59916854Y-69820902D01*
X59756628Y-69772299D01*
X59631748Y-69759999D01*
X59631740Y-69759999D01*
X59589999Y-69755888D01*
X59548258Y-69759999D01*
X54345743Y-69759999D01*
X54304002Y-69755888D01*
X54262261Y-69759999D01*
X54262254Y-69759999D01*
X54153016Y-69770758D01*
X54137373Y-69772299D01*
X54002647Y-69813167D01*
X53977148Y-69820902D01*
X53829484Y-69899831D01*
X53700055Y-70006051D01*
X53673442Y-70038479D01*
X53228350Y-70483571D01*
X53188513Y-70283297D01*
X53067902Y-69992116D01*
X52892801Y-69730059D01*
X52669941Y-69507199D01*
X52659167Y-69500000D01*
X52669941Y-69492801D01*
X52892801Y-69269941D01*
X53006352Y-69100000D01*
X59458259Y-69100000D01*
X59500000Y-69104111D01*
X59541741Y-69100000D01*
X59541749Y-69100000D01*
X59666629Y-69087700D01*
X59826855Y-69039097D01*
X59974519Y-68960168D01*
X60103948Y-68853948D01*
X60130566Y-68821514D01*
X61611521Y-67340560D01*
X61643948Y-67313948D01*
X61750168Y-67184519D01*
X61829097Y-67036855D01*
X61877700Y-66876629D01*
X61890000Y-66751749D01*
X61890000Y-66751741D01*
X61894111Y-66710000D01*
X61890000Y-66668259D01*
X61890000Y-65428478D01*
X62049776Y-65268702D01*
X62192045Y-65055781D01*
X62290042Y-64819196D01*
X62340000Y-64568039D01*
X62340000Y-64311961D01*
X62290042Y-64060804D01*
X62198581Y-63839999D01*
X62718260Y-63839999D01*
X62760001Y-63844110D01*
G36*
X98200000Y-61221009D02*
G01*
X98104159Y-61187973D01*
X97292132Y-62000000D01*
X98104159Y-62812027D01*
X98200000Y-62778991D01*
X98200000Y-63971009D01*
X98104159Y-63937973D01*
X97292132Y-64750000D01*
X98104159Y-65562027D01*
X98200000Y-65528991D01*
X98200000Y-66569390D01*
X98004321Y-66373711D01*
X97766833Y-66215027D01*
X97546352Y-66123701D01*
X97722347Y-66057780D01*
X97810509Y-66010655D01*
X97892027Y-65774159D01*
X97080000Y-64962132D01*
X97065858Y-64976275D01*
X96853726Y-64764143D01*
X96867868Y-64750000D01*
X96853726Y-64735858D01*
X97065858Y-64523726D01*
X97080000Y-64537868D01*
X97892027Y-63725841D01*
X97810509Y-63489345D01*
X97551838Y-63371647D01*
X97722347Y-63307780D01*
X97810509Y-63260655D01*
X97892027Y-63024159D01*
X97080000Y-62212132D01*
X97065858Y-62226275D01*
X96853726Y-62014143D01*
X96867868Y-62000000D01*
X96853726Y-61985858D01*
X97065858Y-61773726D01*
X97080000Y-61787868D01*
X97892027Y-60975841D01*
X97810509Y-60739345D01*
X97554576Y-60622892D01*
X97766833Y-60534973D01*
X98004321Y-60376289D01*
X98200000Y-60180610D01*
X98200000Y-61221009D01*
G37*
X98200000Y-61221009D02*
X98104159Y-61187973D01*
X97292132Y-62000000D01*
X98104159Y-62812027D01*
X98200000Y-62778991D01*
X98200000Y-63971009D01*
X98104159Y-63937973D01*
X97292132Y-64750000D01*
X98104159Y-65562027D01*
X98200000Y-65528991D01*
X98200000Y-66569390D01*
X98004321Y-66373711D01*
X97766833Y-66215027D01*
X97546352Y-66123701D01*
X97722347Y-66057780D01*
X97810509Y-66010655D01*
X97892027Y-65774159D01*
X97080000Y-64962132D01*
X97065858Y-64976275D01*
X96853726Y-64764143D01*
X96867868Y-64750000D01*
X96853726Y-64735858D01*
X97065858Y-64523726D01*
X97080000Y-64537868D01*
X97892027Y-63725841D01*
X97810509Y-63489345D01*
X97551838Y-63371647D01*
X97722347Y-63307780D01*
X97810509Y-63260655D01*
X97892027Y-63024159D01*
X97080000Y-62212132D01*
X97065858Y-62226275D01*
X96853726Y-62014143D01*
X96867868Y-62000000D01*
X96853726Y-61985858D01*
X97065858Y-61773726D01*
X97080000Y-61787868D01*
X97892027Y-60975841D01*
X97810509Y-60739345D01*
X97554576Y-60622892D01*
X97766833Y-60534973D01*
X98004321Y-60376289D01*
X98200000Y-60180610D01*
X98200000Y-61221009D01*
G36*
X73556275Y-55235858D02*
G01*
X73542132Y-55250000D01*
X74354159Y-56062027D01*
X74590655Y-55980509D01*
X74684285Y-55774735D01*
X74720787Y-55819213D01*
X74926351Y-55987915D01*
X75160878Y-56113272D01*
X75213489Y-56129231D01*
X75024795Y-56210165D01*
X74805259Y-56360852D01*
X74619339Y-56551472D01*
X74474180Y-56774701D01*
X74390018Y-57009408D01*
X74254321Y-56873711D01*
X74016833Y-56715027D01*
X73796352Y-56623701D01*
X73972347Y-56557780D01*
X74060509Y-56510655D01*
X74142027Y-56274159D01*
X73330000Y-55462132D01*
X73315858Y-55476275D01*
X73103726Y-55264143D01*
X73117868Y-55250000D01*
X73103726Y-55235858D01*
X73315858Y-55023726D01*
X73330000Y-55037868D01*
X73344143Y-55023726D01*
X73556275Y-55235858D01*
G37*
X73556275Y-55235858D02*
X73542132Y-55250000D01*
X74354159Y-56062027D01*
X74590655Y-55980509D01*
X74684285Y-55774735D01*
X74720787Y-55819213D01*
X74926351Y-55987915D01*
X75160878Y-56113272D01*
X75213489Y-56129231D01*
X75024795Y-56210165D01*
X74805259Y-56360852D01*
X74619339Y-56551472D01*
X74474180Y-56774701D01*
X74390018Y-57009408D01*
X74254321Y-56873711D01*
X74016833Y-56715027D01*
X73796352Y-56623701D01*
X73972347Y-56557780D01*
X74060509Y-56510655D01*
X74142027Y-56274159D01*
X73330000Y-55462132D01*
X73315858Y-55476275D01*
X73103726Y-55264143D01*
X73117868Y-55250000D01*
X73103726Y-55235858D01*
X73315858Y-55023726D01*
X73330000Y-55037868D01*
X73344143Y-55023726D01*
X73556275Y-55235858D01*
G36*
X68655679Y-43876289D02*
G01*
X68893167Y-44034973D01*
X69157051Y-44144277D01*
X69437187Y-44200000D01*
X69722813Y-44200000D01*
X70002949Y-44144277D01*
X70266833Y-44034973D01*
X70400000Y-43945994D01*
X70400001Y-44717864D01*
X70392026Y-44725839D01*
X70310509Y-44489345D01*
X70050531Y-44371052D01*
X69772471Y-44305752D01*
X69487014Y-44295954D01*
X69205130Y-44342033D01*
X68937653Y-44442220D01*
X68849491Y-44489345D01*
X68767973Y-44725841D01*
X69580000Y-45537868D01*
X69594143Y-45523726D01*
X69806275Y-45735858D01*
X69792132Y-45750000D01*
X69806275Y-45764143D01*
X69594143Y-45976275D01*
X69580000Y-45962132D01*
X68767973Y-46774159D01*
X68849491Y-47010655D01*
X69109469Y-47128948D01*
X69331320Y-47181048D01*
X68760399Y-47751969D01*
X68718419Y-47786421D01*
X68580958Y-47953918D01*
X68478816Y-48145015D01*
X68415916Y-48352365D01*
X68411502Y-48397187D01*
X68394678Y-48568002D01*
X68400000Y-48622036D01*
X68400001Y-50695957D01*
X68394678Y-50750000D01*
X68413905Y-50945208D01*
X68415917Y-50965638D01*
X68448530Y-51073146D01*
X68478817Y-51172988D01*
X68580958Y-51364084D01*
X68633808Y-51428481D01*
X68718420Y-51531581D01*
X68760394Y-51566028D01*
X70253971Y-53059606D01*
X70288419Y-53101581D01*
X70340933Y-53144678D01*
X70455915Y-53239042D01*
X70549563Y-53289097D01*
X70647012Y-53341184D01*
X70854362Y-53404084D01*
X71015964Y-53420000D01*
X71015965Y-53420000D01*
X71069999Y-53425322D01*
X71124033Y-53420000D01*
X71589917Y-53420000D01*
X70609918Y-54400000D01*
X67600000Y-54400000D01*
X67600000Y-51955634D01*
X67604425Y-51951209D01*
X67724807Y-51771045D01*
X67807727Y-51570858D01*
X67850000Y-51358341D01*
X67850000Y-51141659D01*
X67807727Y-50929142D01*
X67724807Y-50728955D01*
X67604425Y-50548791D01*
X67559057Y-50503423D01*
X67637307Y-50425172D01*
X67523204Y-50311069D01*
X67724119Y-50272329D01*
X67807304Y-50072252D01*
X67849856Y-49859790D01*
X67850141Y-49643109D01*
X67808149Y-49430536D01*
X67725492Y-49230240D01*
X67724119Y-49227671D01*
X67523201Y-49188931D01*
X66962132Y-49750000D01*
X66976275Y-49764143D01*
X66764143Y-49976275D01*
X66750000Y-49962132D01*
X66735858Y-49976275D01*
X66523726Y-49764143D01*
X66537868Y-49750000D01*
X65976799Y-49188931D01*
X65775881Y-49227671D01*
X65692696Y-49427748D01*
X65650144Y-49640210D01*
X65649859Y-49856891D01*
X65691851Y-50069464D01*
X65774508Y-50269760D01*
X65775881Y-50272329D01*
X65976796Y-50311069D01*
X65862693Y-50425172D01*
X65940944Y-50503423D01*
X65895575Y-50548791D01*
X65775193Y-50728955D01*
X65692273Y-50929142D01*
X65650000Y-51141659D01*
X65650000Y-51358341D01*
X65692273Y-51570858D01*
X65775193Y-51771045D01*
X65895575Y-51951209D01*
X65900000Y-51955634D01*
X65900001Y-54400000D01*
X64345949Y-54400000D01*
X64296289Y-54325679D01*
X64094321Y-54123711D01*
X64020000Y-54074051D01*
X64020000Y-53909806D01*
X64269941Y-53742801D01*
X64492801Y-53519941D01*
X64667902Y-53257884D01*
X64788513Y-52966703D01*
X64850000Y-52657586D01*
X64850000Y-52342414D01*
X64788513Y-52033297D01*
X64667902Y-51742116D01*
X64492801Y-51480059D01*
X64269941Y-51257199D01*
X64007884Y-51082098D01*
X63716703Y-50961487D01*
X63407586Y-50900000D01*
X63092414Y-50900000D01*
X62783297Y-50961487D01*
X62492116Y-51082098D01*
X62230059Y-51257199D01*
X62007199Y-51480059D01*
X61832098Y-51742116D01*
X61711487Y-52033297D01*
X61650000Y-52342414D01*
X61650000Y-52657586D01*
X61711487Y-52966703D01*
X61832098Y-53257884D01*
X62007199Y-53519941D01*
X62230059Y-53742801D01*
X62320001Y-53802898D01*
X62320000Y-54074051D01*
X62245679Y-54123711D01*
X62043711Y-54325679D01*
X61885027Y-54563167D01*
X61775723Y-54827051D01*
X61738718Y-55013084D01*
X61400010Y-54674376D01*
X61400010Y-53054024D01*
X61405332Y-52999991D01*
X61400010Y-52945957D01*
X61400010Y-49405624D01*
X61828835Y-48976799D01*
X66188931Y-48976799D01*
X66750000Y-49537868D01*
X67311069Y-48976799D01*
X67272329Y-48775881D01*
X67072252Y-48692696D01*
X66859790Y-48650144D01*
X66643109Y-48649859D01*
X66430536Y-48691851D01*
X66230240Y-48774508D01*
X66227671Y-48775881D01*
X66188931Y-48976799D01*
X61828835Y-48976799D01*
X64962648Y-45842986D01*
X68125954Y-45842986D01*
X68172033Y-46124870D01*
X68272220Y-46392347D01*
X68319345Y-46480509D01*
X68555841Y-46562027D01*
X69367868Y-45750000D01*
X68555841Y-44937973D01*
X68319345Y-45019491D01*
X68201052Y-45279469D01*
X68135752Y-45557529D01*
X68125954Y-45842986D01*
X64962648Y-45842986D01*
X66955635Y-43850000D01*
X68629390Y-43850000D01*
X68655679Y-43876289D01*
G37*
X68655679Y-43876289D02*
X68893167Y-44034973D01*
X69157051Y-44144277D01*
X69437187Y-44200000D01*
X69722813Y-44200000D01*
X70002949Y-44144277D01*
X70266833Y-44034973D01*
X70400000Y-43945994D01*
X70400001Y-44717864D01*
X70392026Y-44725839D01*
X70310509Y-44489345D01*
X70050531Y-44371052D01*
X69772471Y-44305752D01*
X69487014Y-44295954D01*
X69205130Y-44342033D01*
X68937653Y-44442220D01*
X68849491Y-44489345D01*
X68767973Y-44725841D01*
X69580000Y-45537868D01*
X69594143Y-45523726D01*
X69806275Y-45735858D01*
X69792132Y-45750000D01*
X69806275Y-45764143D01*
X69594143Y-45976275D01*
X69580000Y-45962132D01*
X68767973Y-46774159D01*
X68849491Y-47010655D01*
X69109469Y-47128948D01*
X69331320Y-47181048D01*
X68760399Y-47751969D01*
X68718419Y-47786421D01*
X68580958Y-47953918D01*
X68478816Y-48145015D01*
X68415916Y-48352365D01*
X68411502Y-48397187D01*
X68394678Y-48568002D01*
X68400000Y-48622036D01*
X68400001Y-50695957D01*
X68394678Y-50750000D01*
X68413905Y-50945208D01*
X68415917Y-50965638D01*
X68448530Y-51073146D01*
X68478817Y-51172988D01*
X68580958Y-51364084D01*
X68633808Y-51428481D01*
X68718420Y-51531581D01*
X68760394Y-51566028D01*
X70253971Y-53059606D01*
X70288419Y-53101581D01*
X70340933Y-53144678D01*
X70455915Y-53239042D01*
X70549563Y-53289097D01*
X70647012Y-53341184D01*
X70854362Y-53404084D01*
X71015964Y-53420000D01*
X71015965Y-53420000D01*
X71069999Y-53425322D01*
X71124033Y-53420000D01*
X71589917Y-53420000D01*
X70609918Y-54400000D01*
X67600000Y-54400000D01*
X67600000Y-51955634D01*
X67604425Y-51951209D01*
X67724807Y-51771045D01*
X67807727Y-51570858D01*
X67850000Y-51358341D01*
X67850000Y-51141659D01*
X67807727Y-50929142D01*
X67724807Y-50728955D01*
X67604425Y-50548791D01*
X67559057Y-50503423D01*
X67637307Y-50425172D01*
X67523204Y-50311069D01*
X67724119Y-50272329D01*
X67807304Y-50072252D01*
X67849856Y-49859790D01*
X67850141Y-49643109D01*
X67808149Y-49430536D01*
X67725492Y-49230240D01*
X67724119Y-49227671D01*
X67523201Y-49188931D01*
X66962132Y-49750000D01*
X66976275Y-49764143D01*
X66764143Y-49976275D01*
X66750000Y-49962132D01*
X66735858Y-49976275D01*
X66523726Y-49764143D01*
X66537868Y-49750000D01*
X65976799Y-49188931D01*
X65775881Y-49227671D01*
X65692696Y-49427748D01*
X65650144Y-49640210D01*
X65649859Y-49856891D01*
X65691851Y-50069464D01*
X65774508Y-50269760D01*
X65775881Y-50272329D01*
X65976796Y-50311069D01*
X65862693Y-50425172D01*
X65940944Y-50503423D01*
X65895575Y-50548791D01*
X65775193Y-50728955D01*
X65692273Y-50929142D01*
X65650000Y-51141659D01*
X65650000Y-51358341D01*
X65692273Y-51570858D01*
X65775193Y-51771045D01*
X65895575Y-51951209D01*
X65900000Y-51955634D01*
X65900001Y-54400000D01*
X64345949Y-54400000D01*
X64296289Y-54325679D01*
X64094321Y-54123711D01*
X64020000Y-54074051D01*
X64020000Y-53909806D01*
X64269941Y-53742801D01*
X64492801Y-53519941D01*
X64667902Y-53257884D01*
X64788513Y-52966703D01*
X64850000Y-52657586D01*
X64850000Y-52342414D01*
X64788513Y-52033297D01*
X64667902Y-51742116D01*
X64492801Y-51480059D01*
X64269941Y-51257199D01*
X64007884Y-51082098D01*
X63716703Y-50961487D01*
X63407586Y-50900000D01*
X63092414Y-50900000D01*
X62783297Y-50961487D01*
X62492116Y-51082098D01*
X62230059Y-51257199D01*
X62007199Y-51480059D01*
X61832098Y-51742116D01*
X61711487Y-52033297D01*
X61650000Y-52342414D01*
X61650000Y-52657586D01*
X61711487Y-52966703D01*
X61832098Y-53257884D01*
X62007199Y-53519941D01*
X62230059Y-53742801D01*
X62320001Y-53802898D01*
X62320000Y-54074051D01*
X62245679Y-54123711D01*
X62043711Y-54325679D01*
X61885027Y-54563167D01*
X61775723Y-54827051D01*
X61738718Y-55013084D01*
X61400010Y-54674376D01*
X61400010Y-53054024D01*
X61405332Y-52999991D01*
X61400010Y-52945957D01*
X61400010Y-49405624D01*
X61828835Y-48976799D01*
X66188931Y-48976799D01*
X66750000Y-49537868D01*
X67311069Y-48976799D01*
X67272329Y-48775881D01*
X67072252Y-48692696D01*
X66859790Y-48650144D01*
X66643109Y-48649859D01*
X66430536Y-48691851D01*
X66230240Y-48774508D01*
X66227671Y-48775881D01*
X66188931Y-48976799D01*
X61828835Y-48976799D01*
X64962648Y-45842986D01*
X68125954Y-45842986D01*
X68172033Y-46124870D01*
X68272220Y-46392347D01*
X68319345Y-46480509D01*
X68555841Y-46562027D01*
X69367868Y-45750000D01*
X68555841Y-44937973D01*
X68319345Y-45019491D01*
X68201052Y-45279469D01*
X68135752Y-45557529D01*
X68125954Y-45842986D01*
X64962648Y-45842986D01*
X66955635Y-43850000D01*
X68629390Y-43850000D01*
X68655679Y-43876289D01*
G36*
X119100001Y-81600000D02*
G01*
X88050000Y-81600000D01*
X88050000Y-80100000D01*
X88044485Y-80043756D01*
X88039372Y-79987571D01*
X88038778Y-79985554D01*
X88038573Y-79983459D01*
X88022235Y-79929344D01*
X88006310Y-79875236D01*
X88005337Y-79873374D01*
X88004728Y-79871358D01*
X87978208Y-79821481D01*
X87952059Y-79771462D01*
X87950740Y-79769822D01*
X87949753Y-79767965D01*
X87914086Y-79724233D01*
X87878684Y-79680202D01*
X87877071Y-79678849D01*
X87875742Y-79677219D01*
X87832205Y-79641201D01*
X87788980Y-79604932D01*
X87787140Y-79603920D01*
X87785516Y-79602577D01*
X87735789Y-79575690D01*
X87686365Y-79548519D01*
X87684361Y-79547883D01*
X87682509Y-79546882D01*
X87628587Y-79530191D01*
X87574747Y-79513111D01*
X87572654Y-79512876D01*
X87570647Y-79512255D01*
X87514587Y-79506363D01*
X87458377Y-79500058D01*
X87454332Y-79500030D01*
X87454189Y-79500015D01*
X87454046Y-79500028D01*
X87450000Y-79500000D01*
X86150000Y-79500000D01*
X86093756Y-79505515D01*
X86037571Y-79510628D01*
X86035554Y-79511222D01*
X86033459Y-79511427D01*
X85979344Y-79527765D01*
X85925236Y-79543690D01*
X85923374Y-79544663D01*
X85921358Y-79545272D01*
X85871481Y-79571792D01*
X85821462Y-79597941D01*
X85819822Y-79599260D01*
X85817965Y-79600247D01*
X85774233Y-79635914D01*
X85730202Y-79671316D01*
X85728849Y-79672929D01*
X85727219Y-79674258D01*
X85691201Y-79717795D01*
X85654932Y-79761020D01*
X85653920Y-79762860D01*
X85652577Y-79764484D01*
X85625690Y-79814211D01*
X85598519Y-79863635D01*
X85597883Y-79865639D01*
X85596882Y-79867491D01*
X85580191Y-79921413D01*
X85563111Y-79975253D01*
X85562876Y-79977346D01*
X85562255Y-79979353D01*
X85556363Y-80035413D01*
X85550058Y-80091623D01*
X85550030Y-80095668D01*
X85550015Y-80095811D01*
X85550028Y-80095954D01*
X85550000Y-80100000D01*
X85550000Y-81600000D01*
X77638835Y-81600000D01*
X77436833Y-81465027D01*
X77172949Y-81355723D01*
X76892813Y-81300000D01*
X76607187Y-81300000D01*
X76327051Y-81355723D01*
X76063167Y-81465027D01*
X75861165Y-81600000D01*
X73900000Y-81600000D01*
X73900000Y-76280000D01*
X74892336Y-76280000D01*
X74926351Y-76307915D01*
X75080000Y-76390042D01*
X75080000Y-77423885D01*
X75074678Y-77477919D01*
X75080000Y-77531953D01*
X75080000Y-77531954D01*
X75095916Y-77693556D01*
X75158816Y-77900906D01*
X75260958Y-78092003D01*
X75398419Y-78259500D01*
X75440399Y-78293952D01*
X75562995Y-78416548D01*
X75465027Y-78563167D01*
X75355723Y-78827051D01*
X75300000Y-79107187D01*
X75300000Y-79392813D01*
X75355723Y-79672949D01*
X75465027Y-79936833D01*
X75623711Y-80174321D01*
X75825679Y-80376289D01*
X76063167Y-80534973D01*
X76327051Y-80644277D01*
X76607187Y-80700000D01*
X76892813Y-80700000D01*
X77172949Y-80644277D01*
X77436833Y-80534973D01*
X77674321Y-80376289D01*
X77700610Y-80350000D01*
X82405966Y-80350000D01*
X82460000Y-80355322D01*
X82514034Y-80350000D01*
X82514036Y-80350000D01*
X82675638Y-80334084D01*
X82882988Y-80271184D01*
X83074084Y-80169042D01*
X83241581Y-80031581D01*
X83276033Y-79989601D01*
X83355634Y-79910000D01*
X83392813Y-79910000D01*
X83672949Y-79854277D01*
X83936833Y-79744973D01*
X84174321Y-79586289D01*
X84376289Y-79384321D01*
X84534973Y-79146833D01*
X84644277Y-78882949D01*
X84700000Y-78602813D01*
X84700000Y-78317187D01*
X84644277Y-78037051D01*
X84534973Y-77773167D01*
X84376289Y-77535679D01*
X84174321Y-77333711D01*
X83936833Y-77175027D01*
X83672949Y-77065723D01*
X83392813Y-77010000D01*
X83107187Y-77010000D01*
X82827051Y-77065723D01*
X82563167Y-77175027D01*
X82325679Y-77333711D01*
X82123711Y-77535679D01*
X81965027Y-77773167D01*
X81855723Y-78037051D01*
X81833256Y-78150000D01*
X77850000Y-78150000D01*
X77850000Y-78101953D01*
X77855322Y-78047919D01*
X77847158Y-77965027D01*
X77834084Y-77832281D01*
X77771184Y-77624931D01*
X77771184Y-77624930D01*
X77671704Y-77438816D01*
X77669042Y-77433835D01*
X77531581Y-77266338D01*
X77489601Y-77231886D01*
X77280000Y-77022285D01*
X77280000Y-76390042D01*
X77433649Y-76307915D01*
X77639213Y-76139213D01*
X77807915Y-75933649D01*
X77879352Y-75800000D01*
X82092280Y-75800000D01*
X82094180Y-75805299D01*
X82239339Y-76028528D01*
X82425259Y-76219148D01*
X82644795Y-76369835D01*
X82889510Y-76474797D01*
X83150000Y-76530000D01*
X83650000Y-76530000D01*
X83650000Y-75800000D01*
X83950000Y-75800000D01*
X83950000Y-76530000D01*
X84450000Y-76530000D01*
X84710490Y-76474797D01*
X84955205Y-76369835D01*
X85174741Y-76219148D01*
X85360661Y-76028528D01*
X85505820Y-75805299D01*
X85507720Y-75800000D01*
X86815354Y-75800000D01*
X86855723Y-76002949D01*
X86965027Y-76266833D01*
X87123711Y-76504321D01*
X87325679Y-76706289D01*
X87563167Y-76864973D01*
X87827051Y-76974277D01*
X88107187Y-77030000D01*
X88392813Y-77030000D01*
X88672949Y-76974277D01*
X88936833Y-76864973D01*
X89174321Y-76706289D01*
X89376289Y-76504321D01*
X89534973Y-76266833D01*
X89644277Y-76002949D01*
X89684646Y-75800000D01*
X98800000Y-75800000D01*
X98819509Y-75798079D01*
X98838268Y-75792388D01*
X98855557Y-75783147D01*
X98870711Y-75770711D01*
X98883147Y-75755557D01*
X98892388Y-75738268D01*
X98898079Y-75719509D01*
X98900000Y-75700000D01*
X98900000Y-75354159D01*
X100187973Y-75354159D01*
X100269491Y-75590655D01*
X100529469Y-75708948D01*
X100807529Y-75774248D01*
X101092986Y-75784046D01*
X101374870Y-75737967D01*
X101642347Y-75637780D01*
X101730509Y-75590655D01*
X101812027Y-75354159D01*
X101000000Y-74542132D01*
X100187973Y-75354159D01*
X98900000Y-75354159D01*
X98900000Y-74422986D01*
X99545954Y-74422986D01*
X99592033Y-74704870D01*
X99692220Y-74972347D01*
X99739345Y-75060509D01*
X99975841Y-75142027D01*
X100787868Y-74330000D01*
X101212132Y-74330000D01*
X102024159Y-75142027D01*
X102260655Y-75060509D01*
X102378948Y-74800531D01*
X102385141Y-74774159D01*
X114587973Y-74774159D01*
X114669491Y-75010655D01*
X114929469Y-75128948D01*
X115207529Y-75194248D01*
X115492986Y-75204046D01*
X115774870Y-75157967D01*
X116042347Y-75057780D01*
X116130509Y-75010655D01*
X116212027Y-74774159D01*
X115400000Y-73962132D01*
X114587973Y-74774159D01*
X102385141Y-74774159D01*
X102444248Y-74522471D01*
X102454046Y-74237014D01*
X102407967Y-73955130D01*
X102365963Y-73842986D01*
X113945954Y-73842986D01*
X113992033Y-74124870D01*
X114092220Y-74392347D01*
X114139345Y-74480509D01*
X114375841Y-74562027D01*
X115187868Y-73750000D01*
X115612132Y-73750000D01*
X116424159Y-74562027D01*
X116660655Y-74480509D01*
X116778948Y-74220531D01*
X116844248Y-73942471D01*
X116854046Y-73657014D01*
X116807967Y-73375130D01*
X116707780Y-73107653D01*
X116660655Y-73019491D01*
X116424159Y-72937973D01*
X115612132Y-73750000D01*
X115187868Y-73750000D01*
X114375841Y-72937973D01*
X114139345Y-73019491D01*
X114021052Y-73279469D01*
X113955752Y-73557529D01*
X113945954Y-73842986D01*
X102365963Y-73842986D01*
X102307780Y-73687653D01*
X102260655Y-73599491D01*
X102024159Y-73517973D01*
X101212132Y-74330000D01*
X100787868Y-74330000D01*
X99975841Y-73517973D01*
X99739345Y-73599491D01*
X99621052Y-73859469D01*
X99555752Y-74137529D01*
X99545954Y-74422986D01*
X98900000Y-74422986D01*
X98900000Y-73305841D01*
X100187973Y-73305841D01*
X101000000Y-74117868D01*
X101812027Y-73305841D01*
X101730509Y-73069345D01*
X101470531Y-72951052D01*
X101192471Y-72885752D01*
X100907014Y-72875954D01*
X100625130Y-72922033D01*
X100357653Y-73022220D01*
X100269491Y-73069345D01*
X100187973Y-73305841D01*
X98900000Y-73305841D01*
X98900000Y-73155634D01*
X99329793Y-72725841D01*
X114587973Y-72725841D01*
X115400000Y-73537868D01*
X116212027Y-72725841D01*
X116130509Y-72489345D01*
X115870531Y-72371052D01*
X115592471Y-72305752D01*
X115307014Y-72295954D01*
X115025130Y-72342033D01*
X114757653Y-72442220D01*
X114669491Y-72489345D01*
X114587973Y-72725841D01*
X99329793Y-72725841D01*
X99705635Y-72350000D01*
X104299390Y-72350000D01*
X104325679Y-72376289D01*
X104563167Y-72534973D01*
X104827051Y-72644277D01*
X105107187Y-72700000D01*
X105392813Y-72700000D01*
X105672949Y-72644277D01*
X105936833Y-72534973D01*
X106174321Y-72376289D01*
X106376289Y-72174321D01*
X106534973Y-71936833D01*
X106644277Y-71672949D01*
X106700000Y-71392813D01*
X106700000Y-71107187D01*
X107300000Y-71107187D01*
X107300000Y-71392813D01*
X107355723Y-71672949D01*
X107465027Y-71936833D01*
X107623711Y-72174321D01*
X107825679Y-72376289D01*
X108063167Y-72534973D01*
X108327051Y-72644277D01*
X108607187Y-72700000D01*
X108892813Y-72700000D01*
X109172949Y-72644277D01*
X109436833Y-72534973D01*
X109674321Y-72376289D01*
X109700610Y-72350000D01*
X112845966Y-72350000D01*
X112900000Y-72355322D01*
X112954034Y-72350000D01*
X112954036Y-72350000D01*
X113115638Y-72334084D01*
X113322988Y-72271184D01*
X113514084Y-72169042D01*
X113681581Y-72031581D01*
X113716033Y-71989601D01*
X115505635Y-70200000D01*
X115542813Y-70200000D01*
X115822949Y-70144277D01*
X116086833Y-70034973D01*
X116324321Y-69876289D01*
X116526289Y-69674321D01*
X116684973Y-69436833D01*
X116794277Y-69172949D01*
X116850000Y-68892813D01*
X116850000Y-68607187D01*
X116794277Y-68327051D01*
X116684973Y-68063167D01*
X116526289Y-67825679D01*
X116324321Y-67623711D01*
X116086833Y-67465027D01*
X115822949Y-67355723D01*
X115542813Y-67300000D01*
X115257187Y-67300000D01*
X114977051Y-67355723D01*
X114713167Y-67465027D01*
X114475679Y-67623711D01*
X114273711Y-67825679D01*
X114193894Y-67945134D01*
X114288513Y-67716703D01*
X114350000Y-67407586D01*
X114350000Y-67092414D01*
X114288513Y-66783297D01*
X114167902Y-66492116D01*
X113992801Y-66230059D01*
X113769941Y-66007199D01*
X113507884Y-65832098D01*
X113216703Y-65711487D01*
X112907586Y-65650000D01*
X112592414Y-65650000D01*
X112283297Y-65711487D01*
X111992116Y-65832098D01*
X111730059Y-66007199D01*
X111507199Y-66230059D01*
X111393648Y-66400000D01*
X110491740Y-66400000D01*
X110449999Y-66395889D01*
X110408258Y-66400000D01*
X110408251Y-66400000D01*
X110299013Y-66410759D01*
X110283370Y-66412300D01*
X110218147Y-66432085D01*
X110123145Y-66460903D01*
X109975481Y-66539832D01*
X109846052Y-66646052D01*
X109819438Y-66678481D01*
X108178486Y-68319434D01*
X108146052Y-68346052D01*
X108039832Y-68475482D01*
X107960903Y-68623146D01*
X107912300Y-68783372D01*
X107900000Y-68908252D01*
X107900000Y-68908259D01*
X107895889Y-68950000D01*
X107900000Y-68991741D01*
X107900000Y-70074051D01*
X107825679Y-70123711D01*
X107623711Y-70325679D01*
X107465027Y-70563167D01*
X107355723Y-70827051D01*
X107300000Y-71107187D01*
X106700000Y-71107187D01*
X106644277Y-70827051D01*
X106534973Y-70563167D01*
X106376289Y-70325679D01*
X106174321Y-70123711D01*
X105936833Y-69965027D01*
X105672949Y-69855723D01*
X105392813Y-69800000D01*
X105107187Y-69800000D01*
X104827051Y-69855723D01*
X104563167Y-69965027D01*
X104325679Y-70123711D01*
X104299390Y-70150000D01*
X101850000Y-70150000D01*
X101850000Y-65345949D01*
X101924321Y-65296289D01*
X102025305Y-65195305D01*
X102151519Y-65321519D01*
X102178133Y-65353948D01*
X102307562Y-65460168D01*
X102455226Y-65539097D01*
X102615452Y-65587700D01*
X102740332Y-65600000D01*
X102740340Y-65600000D01*
X102782081Y-65604111D01*
X102823822Y-65600000D01*
X103284051Y-65600000D01*
X103333711Y-65674321D01*
X103535679Y-65876289D01*
X103773167Y-66034973D01*
X104037051Y-66144277D01*
X104317187Y-66200000D01*
X104602813Y-66200000D01*
X104882949Y-66144277D01*
X105146833Y-66034973D01*
X105384321Y-65876289D01*
X105486451Y-65774159D01*
X108727973Y-65774159D01*
X108809491Y-66010655D01*
X109069469Y-66128948D01*
X109347529Y-66194248D01*
X109632986Y-66204046D01*
X109914870Y-66157967D01*
X110182347Y-66057780D01*
X110270509Y-66010655D01*
X110352027Y-65774159D01*
X109540000Y-64962132D01*
X108727973Y-65774159D01*
X105486451Y-65774159D01*
X105586289Y-65674321D01*
X105744973Y-65436833D01*
X105854277Y-65172949D01*
X105910000Y-64892813D01*
X105910000Y-64842986D01*
X108085954Y-64842986D01*
X108132033Y-65124870D01*
X108232220Y-65392347D01*
X108279345Y-65480509D01*
X108515841Y-65562027D01*
X109327868Y-64750000D01*
X109752132Y-64750000D01*
X110564159Y-65562027D01*
X110800655Y-65480509D01*
X110918948Y-65220531D01*
X110984248Y-64942471D01*
X110994046Y-64657014D01*
X110947967Y-64375130D01*
X110847780Y-64107653D01*
X110800655Y-64019491D01*
X110564159Y-63937973D01*
X109752132Y-64750000D01*
X109327868Y-64750000D01*
X108515841Y-63937973D01*
X108279345Y-64019491D01*
X108161052Y-64279469D01*
X108095752Y-64557529D01*
X108085954Y-64842986D01*
X105910000Y-64842986D01*
X105910000Y-64607187D01*
X105854277Y-64327051D01*
X105744973Y-64063167D01*
X105586289Y-63825679D01*
X105486451Y-63725841D01*
X108727973Y-63725841D01*
X109540000Y-64537868D01*
X110352027Y-63725841D01*
X110270509Y-63489345D01*
X110010531Y-63371052D01*
X109732471Y-63305752D01*
X109447014Y-63295954D01*
X109165130Y-63342033D01*
X108897653Y-63442220D01*
X108809491Y-63489345D01*
X108727973Y-63725841D01*
X105486451Y-63725841D01*
X105384321Y-63623711D01*
X105146833Y-63465027D01*
X104882949Y-63355723D01*
X104602813Y-63300000D01*
X104317187Y-63300000D01*
X104037051Y-63355723D01*
X103773167Y-63465027D01*
X103535679Y-63623711D01*
X103333711Y-63825679D01*
X103284051Y-63900000D01*
X103134162Y-63900000D01*
X102832647Y-63598485D01*
X102806029Y-63566052D01*
X102676600Y-63459832D01*
X102528936Y-63380903D01*
X102368710Y-63332300D01*
X102243830Y-63320000D01*
X102243822Y-63320000D01*
X102202081Y-63315889D01*
X102174985Y-63318558D01*
X102126289Y-63245679D01*
X101924321Y-63043711D01*
X101686833Y-62885027D01*
X101422949Y-62775723D01*
X101293632Y-62750000D01*
X101422949Y-62724277D01*
X101686833Y-62614973D01*
X101924321Y-62456289D01*
X102126289Y-62254321D01*
X102175949Y-62180000D01*
X102378259Y-62180000D01*
X102420000Y-62184111D01*
X102461741Y-62180000D01*
X102461749Y-62180000D01*
X102586629Y-62167700D01*
X102746855Y-62119097D01*
X102894519Y-62040168D01*
X103023948Y-61933948D01*
X103050566Y-61901515D01*
X103311300Y-61640780D01*
X103333711Y-61674321D01*
X103535679Y-61876289D01*
X103773167Y-62034973D01*
X104037051Y-62144277D01*
X104317187Y-62200000D01*
X104602813Y-62200000D01*
X104882949Y-62144277D01*
X105146833Y-62034973D01*
X105384321Y-61876289D01*
X105486451Y-61774159D01*
X108727973Y-61774159D01*
X108809491Y-62010655D01*
X109069469Y-62128948D01*
X109347529Y-62194248D01*
X109632986Y-62204046D01*
X109914870Y-62157967D01*
X110182347Y-62057780D01*
X110270509Y-62010655D01*
X110352027Y-61774159D01*
X109540000Y-60962132D01*
X108727973Y-61774159D01*
X105486451Y-61774159D01*
X105586289Y-61674321D01*
X105744973Y-61436833D01*
X105854277Y-61172949D01*
X105910000Y-60892813D01*
X105910000Y-60842986D01*
X108085954Y-60842986D01*
X108132033Y-61124870D01*
X108232220Y-61392347D01*
X108279345Y-61480509D01*
X108515841Y-61562027D01*
X109327868Y-60750000D01*
X109752132Y-60750000D01*
X110564159Y-61562027D01*
X110800655Y-61480509D01*
X110918948Y-61220531D01*
X110984248Y-60942471D01*
X110994046Y-60657014D01*
X110947967Y-60375130D01*
X110847780Y-60107653D01*
X110800655Y-60019491D01*
X110564159Y-59937973D01*
X109752132Y-60750000D01*
X109327868Y-60750000D01*
X108515841Y-59937973D01*
X108279345Y-60019491D01*
X108161052Y-60279469D01*
X108095752Y-60557529D01*
X108085954Y-60842986D01*
X105910000Y-60842986D01*
X105910000Y-60607187D01*
X105854277Y-60327051D01*
X105744973Y-60063167D01*
X105586289Y-59825679D01*
X105486451Y-59725841D01*
X108727973Y-59725841D01*
X109540000Y-60537868D01*
X110352027Y-59725841D01*
X110270509Y-59489345D01*
X110010531Y-59371052D01*
X109732471Y-59305752D01*
X109447014Y-59295954D01*
X109165130Y-59342033D01*
X108897653Y-59442220D01*
X108809491Y-59489345D01*
X108727973Y-59725841D01*
X105486451Y-59725841D01*
X105384321Y-59623711D01*
X105146833Y-59465027D01*
X104882949Y-59355723D01*
X104602813Y-59300000D01*
X104317187Y-59300000D01*
X104037051Y-59355723D01*
X103773167Y-59465027D01*
X103535679Y-59623711D01*
X103333711Y-59825679D01*
X103284051Y-59900000D01*
X103041741Y-59900000D01*
X103000000Y-59895889D01*
X102958259Y-59900000D01*
X102958251Y-59900000D01*
X102833371Y-59912300D01*
X102673145Y-59960903D01*
X102525481Y-60039832D01*
X102396052Y-60146052D01*
X102369438Y-60178481D01*
X102132678Y-60415241D01*
X102126289Y-60405679D01*
X101924321Y-60203711D01*
X101850000Y-60154051D01*
X101850000Y-55350000D01*
X104299390Y-55350000D01*
X104325679Y-55376289D01*
X104563167Y-55534973D01*
X104827051Y-55644277D01*
X105107187Y-55700000D01*
X105392813Y-55700000D01*
X105672949Y-55644277D01*
X105936833Y-55534973D01*
X106174321Y-55376289D01*
X106376289Y-55174321D01*
X106534973Y-54936833D01*
X106644277Y-54672949D01*
X106700000Y-54392813D01*
X106700000Y-54107187D01*
X107300000Y-54107187D01*
X107300000Y-54392813D01*
X107355723Y-54672949D01*
X107465027Y-54936833D01*
X107623711Y-55174321D01*
X107825679Y-55376289D01*
X107900000Y-55425949D01*
X107900001Y-56708249D01*
X107895889Y-56750000D01*
X107912300Y-56916629D01*
X107960903Y-57076854D01*
X107992173Y-57135354D01*
X108039833Y-57224519D01*
X108146053Y-57353948D01*
X108178481Y-57380561D01*
X109619443Y-58821525D01*
X109646052Y-58853948D01*
X109678475Y-58880557D01*
X109678479Y-58880561D01*
X109731801Y-58924321D01*
X109775481Y-58960168D01*
X109923145Y-59039097D01*
X110083371Y-59087700D01*
X110208251Y-59100000D01*
X110208261Y-59100000D01*
X110249999Y-59104111D01*
X110291737Y-59100000D01*
X111393648Y-59100000D01*
X111507199Y-59269941D01*
X111730059Y-59492801D01*
X111992116Y-59667902D01*
X112283297Y-59788513D01*
X112592414Y-59850000D01*
X112907586Y-59850000D01*
X113216703Y-59788513D01*
X113507884Y-59667902D01*
X113769941Y-59492801D01*
X113992801Y-59269941D01*
X114167902Y-59007884D01*
X114288513Y-58716703D01*
X114350000Y-58407586D01*
X114350000Y-58092414D01*
X114288513Y-57783297D01*
X114193894Y-57554866D01*
X114273711Y-57674321D01*
X114475679Y-57876289D01*
X114713167Y-58034973D01*
X114977051Y-58144277D01*
X115257187Y-58200000D01*
X115542813Y-58200000D01*
X115822949Y-58144277D01*
X116086833Y-58034973D01*
X116324321Y-57876289D01*
X116526289Y-57674321D01*
X116684973Y-57436833D01*
X116794277Y-57172949D01*
X116850000Y-56892813D01*
X116850000Y-56607187D01*
X116794277Y-56327051D01*
X116684973Y-56063167D01*
X116526289Y-55825679D01*
X116324321Y-55623711D01*
X116086833Y-55465027D01*
X115822949Y-55355723D01*
X115542813Y-55300000D01*
X115505635Y-55300000D01*
X113716033Y-53510399D01*
X113681581Y-53468419D01*
X113514084Y-53330958D01*
X113322988Y-53228816D01*
X113115638Y-53165916D01*
X112954036Y-53150000D01*
X112954034Y-53150000D01*
X112900000Y-53144678D01*
X112845966Y-53150000D01*
X109700610Y-53150000D01*
X109674321Y-53123711D01*
X109436833Y-52965027D01*
X109172949Y-52855723D01*
X108892813Y-52800000D01*
X108607187Y-52800000D01*
X108327051Y-52855723D01*
X108063167Y-52965027D01*
X107825679Y-53123711D01*
X107623711Y-53325679D01*
X107465027Y-53563167D01*
X107355723Y-53827051D01*
X107300000Y-54107187D01*
X106700000Y-54107187D01*
X106644277Y-53827051D01*
X106534973Y-53563167D01*
X106376289Y-53325679D01*
X106174321Y-53123711D01*
X105936833Y-52965027D01*
X105672949Y-52855723D01*
X105392813Y-52800000D01*
X105107187Y-52800000D01*
X104827051Y-52855723D01*
X104563167Y-52965027D01*
X104325679Y-53123711D01*
X104299390Y-53150000D01*
X99455635Y-53150000D01*
X99079794Y-52774159D01*
X114587973Y-52774159D01*
X114669491Y-53010655D01*
X114929469Y-53128948D01*
X115207529Y-53194248D01*
X115492986Y-53204046D01*
X115774870Y-53157967D01*
X116042347Y-53057780D01*
X116130509Y-53010655D01*
X116212027Y-52774159D01*
X115400000Y-51962132D01*
X114587973Y-52774159D01*
X99079794Y-52774159D01*
X98700000Y-52394366D01*
X98700000Y-52357187D01*
X98667572Y-52194159D01*
X100187973Y-52194159D01*
X100269491Y-52430655D01*
X100529469Y-52548948D01*
X100807529Y-52614248D01*
X101092986Y-52624046D01*
X101374870Y-52577967D01*
X101642347Y-52477780D01*
X101730509Y-52430655D01*
X101812027Y-52194159D01*
X101000000Y-51382132D01*
X100187973Y-52194159D01*
X98667572Y-52194159D01*
X98644277Y-52077051D01*
X98534973Y-51813167D01*
X98376289Y-51575679D01*
X98174321Y-51373711D01*
X98008609Y-51262986D01*
X99545954Y-51262986D01*
X99592033Y-51544870D01*
X99692220Y-51812347D01*
X99739345Y-51900509D01*
X99975841Y-51982027D01*
X100787868Y-51170000D01*
X101212132Y-51170000D01*
X102024159Y-51982027D01*
X102260655Y-51900509D01*
X102286828Y-51842986D01*
X113945954Y-51842986D01*
X113992033Y-52124870D01*
X114092220Y-52392347D01*
X114139345Y-52480509D01*
X114375841Y-52562027D01*
X115187868Y-51750000D01*
X115612132Y-51750000D01*
X116424159Y-52562027D01*
X116660655Y-52480509D01*
X116778948Y-52220531D01*
X116844248Y-51942471D01*
X116854046Y-51657014D01*
X116807967Y-51375130D01*
X116707780Y-51107653D01*
X116660655Y-51019491D01*
X116424159Y-50937973D01*
X115612132Y-51750000D01*
X115187868Y-51750000D01*
X114375841Y-50937973D01*
X114139345Y-51019491D01*
X114021052Y-51279469D01*
X113955752Y-51557529D01*
X113945954Y-51842986D01*
X102286828Y-51842986D01*
X102378948Y-51640531D01*
X102444248Y-51362471D01*
X102454046Y-51077014D01*
X102407967Y-50795130D01*
X102382014Y-50725841D01*
X114587973Y-50725841D01*
X115400000Y-51537868D01*
X116212027Y-50725841D01*
X116130509Y-50489345D01*
X115870531Y-50371052D01*
X115592471Y-50305752D01*
X115307014Y-50295954D01*
X115025130Y-50342033D01*
X114757653Y-50442220D01*
X114669491Y-50489345D01*
X114587973Y-50725841D01*
X102382014Y-50725841D01*
X102307780Y-50527653D01*
X102260655Y-50439491D01*
X102024159Y-50357973D01*
X101212132Y-51170000D01*
X100787868Y-51170000D01*
X99975841Y-50357973D01*
X99739345Y-50439491D01*
X99621052Y-50699469D01*
X99555752Y-50977529D01*
X99545954Y-51262986D01*
X98008609Y-51262986D01*
X97936833Y-51215027D01*
X97672949Y-51105723D01*
X97392813Y-51050000D01*
X97107187Y-51050000D01*
X96827051Y-51105723D01*
X96563167Y-51215027D01*
X96325679Y-51373711D01*
X96123711Y-51575679D01*
X95965027Y-51813167D01*
X95855723Y-52077051D01*
X95800000Y-52357187D01*
X95800000Y-52642813D01*
X95855723Y-52922949D01*
X95965027Y-53186833D01*
X96123711Y-53424321D01*
X96299390Y-53600000D01*
X93200610Y-53600000D01*
X93376289Y-53424321D01*
X93534973Y-53186833D01*
X93644277Y-52922949D01*
X93700000Y-52642813D01*
X93700000Y-52357187D01*
X93644277Y-52077051D01*
X93534973Y-51813167D01*
X93376289Y-51575679D01*
X93174321Y-51373711D01*
X92936833Y-51215027D01*
X92672949Y-51105723D01*
X92392813Y-51050000D01*
X92107187Y-51050000D01*
X91827051Y-51105723D01*
X91563167Y-51215027D01*
X91325679Y-51373711D01*
X91299390Y-51400000D01*
X89100000Y-51400000D01*
X89100000Y-51135949D01*
X89174321Y-51086289D01*
X89376289Y-50884321D01*
X89534973Y-50646833D01*
X89644277Y-50382949D01*
X89691441Y-50145841D01*
X100187973Y-50145841D01*
X101000000Y-50957868D01*
X101812027Y-50145841D01*
X101730509Y-49909345D01*
X101470531Y-49791052D01*
X101192471Y-49725752D01*
X100907014Y-49715954D01*
X100625130Y-49762033D01*
X100357653Y-49862220D01*
X100269491Y-49909345D01*
X100187973Y-50145841D01*
X89691441Y-50145841D01*
X89700000Y-50102813D01*
X89700000Y-49817187D01*
X89644277Y-49537051D01*
X89534973Y-49273167D01*
X89376289Y-49035679D01*
X89174321Y-48833711D01*
X88936833Y-48675027D01*
X88672949Y-48565723D01*
X88392813Y-48510000D01*
X88107187Y-48510000D01*
X87827051Y-48565723D01*
X87563167Y-48675027D01*
X87325679Y-48833711D01*
X87123711Y-49035679D01*
X86965027Y-49273167D01*
X86855723Y-49537051D01*
X86800000Y-49817187D01*
X86800000Y-50102813D01*
X86855723Y-50382949D01*
X86965027Y-50646833D01*
X87123711Y-50884321D01*
X87325679Y-51086289D01*
X87400001Y-51135949D01*
X87400000Y-51668975D01*
X87339753Y-51718419D01*
X87305305Y-51760394D01*
X85465700Y-53600000D01*
X84796942Y-53600000D01*
X84766511Y-53590769D01*
X84955205Y-53509835D01*
X85174741Y-53359148D01*
X85360661Y-53168528D01*
X85505820Y-52945299D01*
X85601658Y-52678032D01*
X85490588Y-52470000D01*
X83950000Y-52470000D01*
X83950000Y-52490000D01*
X83650000Y-52490000D01*
X83650000Y-52470000D01*
X82109412Y-52470000D01*
X81998342Y-52678032D01*
X82094180Y-52945299D01*
X82239339Y-53168528D01*
X82425259Y-53359148D01*
X82644795Y-53509835D01*
X82833489Y-53590769D01*
X82803058Y-53600000D01*
X77176943Y-53600000D01*
X77143978Y-53590000D01*
X77199122Y-53573272D01*
X77433649Y-53447915D01*
X77467664Y-53420000D01*
X79665966Y-53420000D01*
X79720000Y-53425322D01*
X79774034Y-53420000D01*
X79774036Y-53420000D01*
X79935638Y-53404084D01*
X80142988Y-53341184D01*
X80334084Y-53239042D01*
X80501581Y-53101581D01*
X80536033Y-53059601D01*
X81633666Y-51961968D01*
X81998342Y-51961968D01*
X82109412Y-52170000D01*
X83650000Y-52170000D01*
X83650000Y-50970000D01*
X83950000Y-50970000D01*
X83950000Y-52170000D01*
X85490588Y-52170000D01*
X85601658Y-51961968D01*
X85505820Y-51694701D01*
X85360661Y-51471472D01*
X85174741Y-51280852D01*
X84955205Y-51130165D01*
X84710490Y-51025203D01*
X84450000Y-50970000D01*
X83950000Y-50970000D01*
X83650000Y-50970000D01*
X83150000Y-50970000D01*
X82889510Y-51025203D01*
X82644795Y-51130165D01*
X82425259Y-51280852D01*
X82239339Y-51471472D01*
X82094180Y-51694701D01*
X81998342Y-51961968D01*
X81633666Y-51961968D01*
X83605635Y-49990000D01*
X83642813Y-49990000D01*
X83922949Y-49934277D01*
X84186833Y-49824973D01*
X84424321Y-49666289D01*
X84626289Y-49464321D01*
X84784973Y-49226833D01*
X84894277Y-48962949D01*
X84950000Y-48682813D01*
X84950000Y-48397187D01*
X84894277Y-48117051D01*
X84784973Y-47853167D01*
X84626289Y-47615679D01*
X84424321Y-47413711D01*
X84186833Y-47255027D01*
X83922949Y-47145723D01*
X83642813Y-47090000D01*
X83357187Y-47090000D01*
X83077051Y-47145723D01*
X82813167Y-47255027D01*
X82575679Y-47413711D01*
X82373711Y-47615679D01*
X82215027Y-47853167D01*
X82105723Y-48117051D01*
X82050000Y-48397187D01*
X82050000Y-48434365D01*
X79264366Y-51220000D01*
X77467664Y-51220000D01*
X77433649Y-51192085D01*
X77280000Y-51109958D01*
X77280000Y-49172712D01*
X77422949Y-49144277D01*
X77686833Y-49034973D01*
X77924321Y-48876289D01*
X78126289Y-48674321D01*
X78284973Y-48436833D01*
X78394277Y-48172949D01*
X78450000Y-47892813D01*
X78450000Y-47607187D01*
X78394277Y-47327051D01*
X78284973Y-47063167D01*
X78126289Y-46825679D01*
X77924321Y-46623711D01*
X77686833Y-46465027D01*
X77422949Y-46355723D01*
X77142813Y-46300000D01*
X76857187Y-46300000D01*
X76577051Y-46355723D01*
X76313167Y-46465027D01*
X76075679Y-46623711D01*
X75873711Y-46825679D01*
X75715027Y-47063167D01*
X75605723Y-47327051D01*
X75550000Y-47607187D01*
X75550000Y-47644366D01*
X75440394Y-47753972D01*
X75398420Y-47788419D01*
X75363974Y-47830392D01*
X75260958Y-47955916D01*
X75174852Y-48117012D01*
X75158817Y-48147012D01*
X75105018Y-48324363D01*
X75095917Y-48354363D01*
X75074678Y-48570000D01*
X75080001Y-48624043D01*
X75080000Y-51109958D01*
X74926351Y-51192085D01*
X74892336Y-51220000D01*
X73352367Y-51220000D01*
X73350000Y-51195965D01*
X73350000Y-51141659D01*
X73339406Y-51088401D01*
X73334084Y-51034363D01*
X73318321Y-50982399D01*
X73307727Y-50929142D01*
X73286946Y-50878971D01*
X73271184Y-50827013D01*
X73245590Y-50779129D01*
X73224807Y-50728955D01*
X73194637Y-50683803D01*
X73169042Y-50635917D01*
X73134594Y-50593942D01*
X73104425Y-50548791D01*
X73066029Y-50510395D01*
X73059743Y-50502736D01*
X73137307Y-50425172D01*
X73023204Y-50311069D01*
X73224119Y-50272329D01*
X73307304Y-50072252D01*
X73349856Y-49859790D01*
X73350141Y-49643109D01*
X73308149Y-49430536D01*
X73225492Y-49230240D01*
X73224119Y-49227671D01*
X73023201Y-49188931D01*
X72900000Y-49312132D01*
X72900000Y-45274159D01*
X76187973Y-45274159D01*
X76269491Y-45510655D01*
X76529469Y-45628948D01*
X76807529Y-45694248D01*
X77092986Y-45704046D01*
X77374870Y-45657967D01*
X77642347Y-45557780D01*
X77730509Y-45510655D01*
X77812027Y-45274159D01*
X77000000Y-44462132D01*
X76187973Y-45274159D01*
X72900000Y-45274159D01*
X72900000Y-44342986D01*
X75545954Y-44342986D01*
X75592033Y-44624870D01*
X75692220Y-44892347D01*
X75739345Y-44980509D01*
X75975841Y-45062027D01*
X76787868Y-44250000D01*
X77212132Y-44250000D01*
X78024159Y-45062027D01*
X78260655Y-44980509D01*
X78378948Y-44720531D01*
X78434457Y-44484159D01*
X82687973Y-44484159D01*
X82769491Y-44720655D01*
X83029469Y-44838948D01*
X83307529Y-44904248D01*
X83592986Y-44914046D01*
X83874870Y-44867967D01*
X84142347Y-44767780D01*
X84230509Y-44720655D01*
X84312027Y-44484159D01*
X83500000Y-43672132D01*
X82687973Y-44484159D01*
X78434457Y-44484159D01*
X78444248Y-44442471D01*
X78454046Y-44157014D01*
X78407967Y-43875130D01*
X78307780Y-43607653D01*
X78278559Y-43552986D01*
X82045954Y-43552986D01*
X82092033Y-43834870D01*
X82192220Y-44102347D01*
X82239345Y-44190509D01*
X82475841Y-44272027D01*
X83287868Y-43460000D01*
X83712132Y-43460000D01*
X84524159Y-44272027D01*
X84760655Y-44190509D01*
X84878948Y-43930531D01*
X84944248Y-43652471D01*
X84954046Y-43367014D01*
X84907967Y-43085130D01*
X84807780Y-42817653D01*
X84760655Y-42729491D01*
X84524159Y-42647973D01*
X83712132Y-43460000D01*
X83287868Y-43460000D01*
X82475841Y-42647973D01*
X82239345Y-42729491D01*
X82121052Y-42989469D01*
X82055752Y-43267529D01*
X82045954Y-43552986D01*
X78278559Y-43552986D01*
X78260655Y-43519491D01*
X78024159Y-43437973D01*
X77212132Y-44250000D01*
X76787868Y-44250000D01*
X75975841Y-43437973D01*
X75739345Y-43519491D01*
X75621052Y-43779469D01*
X75555752Y-44057529D01*
X75545954Y-44342986D01*
X72900000Y-44342986D01*
X72900000Y-43225841D01*
X76187973Y-43225841D01*
X77000000Y-44037868D01*
X77812027Y-43225841D01*
X77730509Y-42989345D01*
X77470531Y-42871052D01*
X77192471Y-42805752D01*
X76907014Y-42795954D01*
X76625130Y-42842033D01*
X76357653Y-42942220D01*
X76269491Y-42989345D01*
X76187973Y-43225841D01*
X72900000Y-43225841D01*
X72900000Y-42435841D01*
X82687973Y-42435841D01*
X83500000Y-43247868D01*
X84312027Y-42435841D01*
X84230509Y-42199345D01*
X83970531Y-42081052D01*
X83692471Y-42015752D01*
X83407014Y-42005954D01*
X83125130Y-42052033D01*
X82857653Y-42152220D01*
X82769491Y-42199345D01*
X82687973Y-42435841D01*
X72900000Y-42435841D01*
X72900000Y-41631374D01*
X76080758Y-41631374D01*
X76180467Y-41883184D01*
X76466061Y-42016489D01*
X76772172Y-42091517D01*
X77087040Y-42105383D01*
X77398562Y-42057555D01*
X77694768Y-41949872D01*
X77819533Y-41883184D01*
X77919242Y-41631374D01*
X77000000Y-40712132D01*
X76080758Y-41631374D01*
X72900000Y-41631374D01*
X72900000Y-40587040D01*
X75394617Y-40587040D01*
X75442445Y-40898562D01*
X75550128Y-41194768D01*
X75616816Y-41319533D01*
X75868626Y-41419242D01*
X76787868Y-40500000D01*
X77212132Y-40500000D01*
X78131374Y-41419242D01*
X78383184Y-41319533D01*
X78516489Y-41033939D01*
X78581537Y-40768545D01*
X112650000Y-40768545D01*
X112650000Y-41231455D01*
X112740309Y-41685470D01*
X112917457Y-42113143D01*
X113174636Y-42498038D01*
X113501962Y-42825364D01*
X113886857Y-43082543D01*
X114314530Y-43259691D01*
X114768545Y-43350000D01*
X115231455Y-43350000D01*
X115685470Y-43259691D01*
X116113143Y-43082543D01*
X116498038Y-42825364D01*
X116825364Y-42498038D01*
X117082543Y-42113143D01*
X117259691Y-41685470D01*
X117350000Y-41231455D01*
X117350000Y-40768545D01*
X117259691Y-40314530D01*
X117082543Y-39886857D01*
X116825364Y-39501962D01*
X116498038Y-39174636D01*
X116113143Y-38917457D01*
X115685470Y-38740309D01*
X115231455Y-38650000D01*
X114768545Y-38650000D01*
X114314530Y-38740309D01*
X113886857Y-38917457D01*
X113501962Y-39174636D01*
X113174636Y-39501962D01*
X112917457Y-39886857D01*
X112740309Y-40314530D01*
X112650000Y-40768545D01*
X78581537Y-40768545D01*
X78591517Y-40727828D01*
X78605383Y-40412960D01*
X78557555Y-40101438D01*
X78449872Y-39805232D01*
X78383184Y-39680467D01*
X78131374Y-39580758D01*
X77212132Y-40500000D01*
X76787868Y-40500000D01*
X75868626Y-39580758D01*
X75616816Y-39680467D01*
X75483511Y-39966061D01*
X75408483Y-40272172D01*
X75394617Y-40587040D01*
X72900000Y-40587040D01*
X72900000Y-39368626D01*
X76080758Y-39368626D01*
X77000000Y-40287868D01*
X77919242Y-39368626D01*
X77819533Y-39116816D01*
X77533939Y-38983511D01*
X77227828Y-38908483D01*
X76912960Y-38894617D01*
X76601438Y-38942445D01*
X76305232Y-39050128D01*
X76180467Y-39116816D01*
X76080758Y-39368626D01*
X72900000Y-39368626D01*
X72900000Y-36900000D01*
X119100000Y-36900000D01*
X119100001Y-81600000D01*
G37*
X119100001Y-81600000D02*
X88050000Y-81600000D01*
X88050000Y-80100000D01*
X88044485Y-80043756D01*
X88039372Y-79987571D01*
X88038778Y-79985554D01*
X88038573Y-79983459D01*
X88022235Y-79929344D01*
X88006310Y-79875236D01*
X88005337Y-79873374D01*
X88004728Y-79871358D01*
X87978208Y-79821481D01*
X87952059Y-79771462D01*
X87950740Y-79769822D01*
X87949753Y-79767965D01*
X87914086Y-79724233D01*
X87878684Y-79680202D01*
X87877071Y-79678849D01*
X87875742Y-79677219D01*
X87832205Y-79641201D01*
X87788980Y-79604932D01*
X87787140Y-79603920D01*
X87785516Y-79602577D01*
X87735789Y-79575690D01*
X87686365Y-79548519D01*
X87684361Y-79547883D01*
X87682509Y-79546882D01*
X87628587Y-79530191D01*
X87574747Y-79513111D01*
X87572654Y-79512876D01*
X87570647Y-79512255D01*
X87514587Y-79506363D01*
X87458377Y-79500058D01*
X87454332Y-79500030D01*
X87454189Y-79500015D01*
X87454046Y-79500028D01*
X87450000Y-79500000D01*
X86150000Y-79500000D01*
X86093756Y-79505515D01*
X86037571Y-79510628D01*
X86035554Y-79511222D01*
X86033459Y-79511427D01*
X85979344Y-79527765D01*
X85925236Y-79543690D01*
X85923374Y-79544663D01*
X85921358Y-79545272D01*
X85871481Y-79571792D01*
X85821462Y-79597941D01*
X85819822Y-79599260D01*
X85817965Y-79600247D01*
X85774233Y-79635914D01*
X85730202Y-79671316D01*
X85728849Y-79672929D01*
X85727219Y-79674258D01*
X85691201Y-79717795D01*
X85654932Y-79761020D01*
X85653920Y-79762860D01*
X85652577Y-79764484D01*
X85625690Y-79814211D01*
X85598519Y-79863635D01*
X85597883Y-79865639D01*
X85596882Y-79867491D01*
X85580191Y-79921413D01*
X85563111Y-79975253D01*
X85562876Y-79977346D01*
X85562255Y-79979353D01*
X85556363Y-80035413D01*
X85550058Y-80091623D01*
X85550030Y-80095668D01*
X85550015Y-80095811D01*
X85550028Y-80095954D01*
X85550000Y-80100000D01*
X85550000Y-81600000D01*
X77638835Y-81600000D01*
X77436833Y-81465027D01*
X77172949Y-81355723D01*
X76892813Y-81300000D01*
X76607187Y-81300000D01*
X76327051Y-81355723D01*
X76063167Y-81465027D01*
X75861165Y-81600000D01*
X73900000Y-81600000D01*
X73900000Y-76280000D01*
X74892336Y-76280000D01*
X74926351Y-76307915D01*
X75080000Y-76390042D01*
X75080000Y-77423885D01*
X75074678Y-77477919D01*
X75080000Y-77531953D01*
X75080000Y-77531954D01*
X75095916Y-77693556D01*
X75158816Y-77900906D01*
X75260958Y-78092003D01*
X75398419Y-78259500D01*
X75440399Y-78293952D01*
X75562995Y-78416548D01*
X75465027Y-78563167D01*
X75355723Y-78827051D01*
X75300000Y-79107187D01*
X75300000Y-79392813D01*
X75355723Y-79672949D01*
X75465027Y-79936833D01*
X75623711Y-80174321D01*
X75825679Y-80376289D01*
X76063167Y-80534973D01*
X76327051Y-80644277D01*
X76607187Y-80700000D01*
X76892813Y-80700000D01*
X77172949Y-80644277D01*
X77436833Y-80534973D01*
X77674321Y-80376289D01*
X77700610Y-80350000D01*
X82405966Y-80350000D01*
X82460000Y-80355322D01*
X82514034Y-80350000D01*
X82514036Y-80350000D01*
X82675638Y-80334084D01*
X82882988Y-80271184D01*
X83074084Y-80169042D01*
X83241581Y-80031581D01*
X83276033Y-79989601D01*
X83355634Y-79910000D01*
X83392813Y-79910000D01*
X83672949Y-79854277D01*
X83936833Y-79744973D01*
X84174321Y-79586289D01*
X84376289Y-79384321D01*
X84534973Y-79146833D01*
X84644277Y-78882949D01*
X84700000Y-78602813D01*
X84700000Y-78317187D01*
X84644277Y-78037051D01*
X84534973Y-77773167D01*
X84376289Y-77535679D01*
X84174321Y-77333711D01*
X83936833Y-77175027D01*
X83672949Y-77065723D01*
X83392813Y-77010000D01*
X83107187Y-77010000D01*
X82827051Y-77065723D01*
X82563167Y-77175027D01*
X82325679Y-77333711D01*
X82123711Y-77535679D01*
X81965027Y-77773167D01*
X81855723Y-78037051D01*
X81833256Y-78150000D01*
X77850000Y-78150000D01*
X77850000Y-78101953D01*
X77855322Y-78047919D01*
X77847158Y-77965027D01*
X77834084Y-77832281D01*
X77771184Y-77624931D01*
X77771184Y-77624930D01*
X77671704Y-77438816D01*
X77669042Y-77433835D01*
X77531581Y-77266338D01*
X77489601Y-77231886D01*
X77280000Y-77022285D01*
X77280000Y-76390042D01*
X77433649Y-76307915D01*
X77639213Y-76139213D01*
X77807915Y-75933649D01*
X77879352Y-75800000D01*
X82092280Y-75800000D01*
X82094180Y-75805299D01*
X82239339Y-76028528D01*
X82425259Y-76219148D01*
X82644795Y-76369835D01*
X82889510Y-76474797D01*
X83150000Y-76530000D01*
X83650000Y-76530000D01*
X83650000Y-75800000D01*
X83950000Y-75800000D01*
X83950000Y-76530000D01*
X84450000Y-76530000D01*
X84710490Y-76474797D01*
X84955205Y-76369835D01*
X85174741Y-76219148D01*
X85360661Y-76028528D01*
X85505820Y-75805299D01*
X85507720Y-75800000D01*
X86815354Y-75800000D01*
X86855723Y-76002949D01*
X86965027Y-76266833D01*
X87123711Y-76504321D01*
X87325679Y-76706289D01*
X87563167Y-76864973D01*
X87827051Y-76974277D01*
X88107187Y-77030000D01*
X88392813Y-77030000D01*
X88672949Y-76974277D01*
X88936833Y-76864973D01*
X89174321Y-76706289D01*
X89376289Y-76504321D01*
X89534973Y-76266833D01*
X89644277Y-76002949D01*
X89684646Y-75800000D01*
X98800000Y-75800000D01*
X98819509Y-75798079D01*
X98838268Y-75792388D01*
X98855557Y-75783147D01*
X98870711Y-75770711D01*
X98883147Y-75755557D01*
X98892388Y-75738268D01*
X98898079Y-75719509D01*
X98900000Y-75700000D01*
X98900000Y-75354159D01*
X100187973Y-75354159D01*
X100269491Y-75590655D01*
X100529469Y-75708948D01*
X100807529Y-75774248D01*
X101092986Y-75784046D01*
X101374870Y-75737967D01*
X101642347Y-75637780D01*
X101730509Y-75590655D01*
X101812027Y-75354159D01*
X101000000Y-74542132D01*
X100187973Y-75354159D01*
X98900000Y-75354159D01*
X98900000Y-74422986D01*
X99545954Y-74422986D01*
X99592033Y-74704870D01*
X99692220Y-74972347D01*
X99739345Y-75060509D01*
X99975841Y-75142027D01*
X100787868Y-74330000D01*
X101212132Y-74330000D01*
X102024159Y-75142027D01*
X102260655Y-75060509D01*
X102378948Y-74800531D01*
X102385141Y-74774159D01*
X114587973Y-74774159D01*
X114669491Y-75010655D01*
X114929469Y-75128948D01*
X115207529Y-75194248D01*
X115492986Y-75204046D01*
X115774870Y-75157967D01*
X116042347Y-75057780D01*
X116130509Y-75010655D01*
X116212027Y-74774159D01*
X115400000Y-73962132D01*
X114587973Y-74774159D01*
X102385141Y-74774159D01*
X102444248Y-74522471D01*
X102454046Y-74237014D01*
X102407967Y-73955130D01*
X102365963Y-73842986D01*
X113945954Y-73842986D01*
X113992033Y-74124870D01*
X114092220Y-74392347D01*
X114139345Y-74480509D01*
X114375841Y-74562027D01*
X115187868Y-73750000D01*
X115612132Y-73750000D01*
X116424159Y-74562027D01*
X116660655Y-74480509D01*
X116778948Y-74220531D01*
X116844248Y-73942471D01*
X116854046Y-73657014D01*
X116807967Y-73375130D01*
X116707780Y-73107653D01*
X116660655Y-73019491D01*
X116424159Y-72937973D01*
X115612132Y-73750000D01*
X115187868Y-73750000D01*
X114375841Y-72937973D01*
X114139345Y-73019491D01*
X114021052Y-73279469D01*
X113955752Y-73557529D01*
X113945954Y-73842986D01*
X102365963Y-73842986D01*
X102307780Y-73687653D01*
X102260655Y-73599491D01*
X102024159Y-73517973D01*
X101212132Y-74330000D01*
X100787868Y-74330000D01*
X99975841Y-73517973D01*
X99739345Y-73599491D01*
X99621052Y-73859469D01*
X99555752Y-74137529D01*
X99545954Y-74422986D01*
X98900000Y-74422986D01*
X98900000Y-73305841D01*
X100187973Y-73305841D01*
X101000000Y-74117868D01*
X101812027Y-73305841D01*
X101730509Y-73069345D01*
X101470531Y-72951052D01*
X101192471Y-72885752D01*
X100907014Y-72875954D01*
X100625130Y-72922033D01*
X100357653Y-73022220D01*
X100269491Y-73069345D01*
X100187973Y-73305841D01*
X98900000Y-73305841D01*
X98900000Y-73155634D01*
X99329793Y-72725841D01*
X114587973Y-72725841D01*
X115400000Y-73537868D01*
X116212027Y-72725841D01*
X116130509Y-72489345D01*
X115870531Y-72371052D01*
X115592471Y-72305752D01*
X115307014Y-72295954D01*
X115025130Y-72342033D01*
X114757653Y-72442220D01*
X114669491Y-72489345D01*
X114587973Y-72725841D01*
X99329793Y-72725841D01*
X99705635Y-72350000D01*
X104299390Y-72350000D01*
X104325679Y-72376289D01*
X104563167Y-72534973D01*
X104827051Y-72644277D01*
X105107187Y-72700000D01*
X105392813Y-72700000D01*
X105672949Y-72644277D01*
X105936833Y-72534973D01*
X106174321Y-72376289D01*
X106376289Y-72174321D01*
X106534973Y-71936833D01*
X106644277Y-71672949D01*
X106700000Y-71392813D01*
X106700000Y-71107187D01*
X107300000Y-71107187D01*
X107300000Y-71392813D01*
X107355723Y-71672949D01*
X107465027Y-71936833D01*
X107623711Y-72174321D01*
X107825679Y-72376289D01*
X108063167Y-72534973D01*
X108327051Y-72644277D01*
X108607187Y-72700000D01*
X108892813Y-72700000D01*
X109172949Y-72644277D01*
X109436833Y-72534973D01*
X109674321Y-72376289D01*
X109700610Y-72350000D01*
X112845966Y-72350000D01*
X112900000Y-72355322D01*
X112954034Y-72350000D01*
X112954036Y-72350000D01*
X113115638Y-72334084D01*
X113322988Y-72271184D01*
X113514084Y-72169042D01*
X113681581Y-72031581D01*
X113716033Y-71989601D01*
X115505635Y-70200000D01*
X115542813Y-70200000D01*
X115822949Y-70144277D01*
X116086833Y-70034973D01*
X116324321Y-69876289D01*
X116526289Y-69674321D01*
X116684973Y-69436833D01*
X116794277Y-69172949D01*
X116850000Y-68892813D01*
X116850000Y-68607187D01*
X116794277Y-68327051D01*
X116684973Y-68063167D01*
X116526289Y-67825679D01*
X116324321Y-67623711D01*
X116086833Y-67465027D01*
X115822949Y-67355723D01*
X115542813Y-67300000D01*
X115257187Y-67300000D01*
X114977051Y-67355723D01*
X114713167Y-67465027D01*
X114475679Y-67623711D01*
X114273711Y-67825679D01*
X114193894Y-67945134D01*
X114288513Y-67716703D01*
X114350000Y-67407586D01*
X114350000Y-67092414D01*
X114288513Y-66783297D01*
X114167902Y-66492116D01*
X113992801Y-66230059D01*
X113769941Y-66007199D01*
X113507884Y-65832098D01*
X113216703Y-65711487D01*
X112907586Y-65650000D01*
X112592414Y-65650000D01*
X112283297Y-65711487D01*
X111992116Y-65832098D01*
X111730059Y-66007199D01*
X111507199Y-66230059D01*
X111393648Y-66400000D01*
X110491740Y-66400000D01*
X110449999Y-66395889D01*
X110408258Y-66400000D01*
X110408251Y-66400000D01*
X110299013Y-66410759D01*
X110283370Y-66412300D01*
X110218147Y-66432085D01*
X110123145Y-66460903D01*
X109975481Y-66539832D01*
X109846052Y-66646052D01*
X109819438Y-66678481D01*
X108178486Y-68319434D01*
X108146052Y-68346052D01*
X108039832Y-68475482D01*
X107960903Y-68623146D01*
X107912300Y-68783372D01*
X107900000Y-68908252D01*
X107900000Y-68908259D01*
X107895889Y-68950000D01*
X107900000Y-68991741D01*
X107900000Y-70074051D01*
X107825679Y-70123711D01*
X107623711Y-70325679D01*
X107465027Y-70563167D01*
X107355723Y-70827051D01*
X107300000Y-71107187D01*
X106700000Y-71107187D01*
X106644277Y-70827051D01*
X106534973Y-70563167D01*
X106376289Y-70325679D01*
X106174321Y-70123711D01*
X105936833Y-69965027D01*
X105672949Y-69855723D01*
X105392813Y-69800000D01*
X105107187Y-69800000D01*
X104827051Y-69855723D01*
X104563167Y-69965027D01*
X104325679Y-70123711D01*
X104299390Y-70150000D01*
X101850000Y-70150000D01*
X101850000Y-65345949D01*
X101924321Y-65296289D01*
X102025305Y-65195305D01*
X102151519Y-65321519D01*
X102178133Y-65353948D01*
X102307562Y-65460168D01*
X102455226Y-65539097D01*
X102615452Y-65587700D01*
X102740332Y-65600000D01*
X102740340Y-65600000D01*
X102782081Y-65604111D01*
X102823822Y-65600000D01*
X103284051Y-65600000D01*
X103333711Y-65674321D01*
X103535679Y-65876289D01*
X103773167Y-66034973D01*
X104037051Y-66144277D01*
X104317187Y-66200000D01*
X104602813Y-66200000D01*
X104882949Y-66144277D01*
X105146833Y-66034973D01*
X105384321Y-65876289D01*
X105486451Y-65774159D01*
X108727973Y-65774159D01*
X108809491Y-66010655D01*
X109069469Y-66128948D01*
X109347529Y-66194248D01*
X109632986Y-66204046D01*
X109914870Y-66157967D01*
X110182347Y-66057780D01*
X110270509Y-66010655D01*
X110352027Y-65774159D01*
X109540000Y-64962132D01*
X108727973Y-65774159D01*
X105486451Y-65774159D01*
X105586289Y-65674321D01*
X105744973Y-65436833D01*
X105854277Y-65172949D01*
X105910000Y-64892813D01*
X105910000Y-64842986D01*
X108085954Y-64842986D01*
X108132033Y-65124870D01*
X108232220Y-65392347D01*
X108279345Y-65480509D01*
X108515841Y-65562027D01*
X109327868Y-64750000D01*
X109752132Y-64750000D01*
X110564159Y-65562027D01*
X110800655Y-65480509D01*
X110918948Y-65220531D01*
X110984248Y-64942471D01*
X110994046Y-64657014D01*
X110947967Y-64375130D01*
X110847780Y-64107653D01*
X110800655Y-64019491D01*
X110564159Y-63937973D01*
X109752132Y-64750000D01*
X109327868Y-64750000D01*
X108515841Y-63937973D01*
X108279345Y-64019491D01*
X108161052Y-64279469D01*
X108095752Y-64557529D01*
X108085954Y-64842986D01*
X105910000Y-64842986D01*
X105910000Y-64607187D01*
X105854277Y-64327051D01*
X105744973Y-64063167D01*
X105586289Y-63825679D01*
X105486451Y-63725841D01*
X108727973Y-63725841D01*
X109540000Y-64537868D01*
X110352027Y-63725841D01*
X110270509Y-63489345D01*
X110010531Y-63371052D01*
X109732471Y-63305752D01*
X109447014Y-63295954D01*
X109165130Y-63342033D01*
X108897653Y-63442220D01*
X108809491Y-63489345D01*
X108727973Y-63725841D01*
X105486451Y-63725841D01*
X105384321Y-63623711D01*
X105146833Y-63465027D01*
X104882949Y-63355723D01*
X104602813Y-63300000D01*
X104317187Y-63300000D01*
X104037051Y-63355723D01*
X103773167Y-63465027D01*
X103535679Y-63623711D01*
X103333711Y-63825679D01*
X103284051Y-63900000D01*
X103134162Y-63900000D01*
X102832647Y-63598485D01*
X102806029Y-63566052D01*
X102676600Y-63459832D01*
X102528936Y-63380903D01*
X102368710Y-63332300D01*
X102243830Y-63320000D01*
X102243822Y-63320000D01*
X102202081Y-63315889D01*
X102174985Y-63318558D01*
X102126289Y-63245679D01*
X101924321Y-63043711D01*
X101686833Y-62885027D01*
X101422949Y-62775723D01*
X101293632Y-62750000D01*
X101422949Y-62724277D01*
X101686833Y-62614973D01*
X101924321Y-62456289D01*
X102126289Y-62254321D01*
X102175949Y-62180000D01*
X102378259Y-62180000D01*
X102420000Y-62184111D01*
X102461741Y-62180000D01*
X102461749Y-62180000D01*
X102586629Y-62167700D01*
X102746855Y-62119097D01*
X102894519Y-62040168D01*
X103023948Y-61933948D01*
X103050566Y-61901515D01*
X103311300Y-61640780D01*
X103333711Y-61674321D01*
X103535679Y-61876289D01*
X103773167Y-62034973D01*
X104037051Y-62144277D01*
X104317187Y-62200000D01*
X104602813Y-62200000D01*
X104882949Y-62144277D01*
X105146833Y-62034973D01*
X105384321Y-61876289D01*
X105486451Y-61774159D01*
X108727973Y-61774159D01*
X108809491Y-62010655D01*
X109069469Y-62128948D01*
X109347529Y-62194248D01*
X109632986Y-62204046D01*
X109914870Y-62157967D01*
X110182347Y-62057780D01*
X110270509Y-62010655D01*
X110352027Y-61774159D01*
X109540000Y-60962132D01*
X108727973Y-61774159D01*
X105486451Y-61774159D01*
X105586289Y-61674321D01*
X105744973Y-61436833D01*
X105854277Y-61172949D01*
X105910000Y-60892813D01*
X105910000Y-60842986D01*
X108085954Y-60842986D01*
X108132033Y-61124870D01*
X108232220Y-61392347D01*
X108279345Y-61480509D01*
X108515841Y-61562027D01*
X109327868Y-60750000D01*
X109752132Y-60750000D01*
X110564159Y-61562027D01*
X110800655Y-61480509D01*
X110918948Y-61220531D01*
X110984248Y-60942471D01*
X110994046Y-60657014D01*
X110947967Y-60375130D01*
X110847780Y-60107653D01*
X110800655Y-60019491D01*
X110564159Y-59937973D01*
X109752132Y-60750000D01*
X109327868Y-60750000D01*
X108515841Y-59937973D01*
X108279345Y-60019491D01*
X108161052Y-60279469D01*
X108095752Y-60557529D01*
X108085954Y-60842986D01*
X105910000Y-60842986D01*
X105910000Y-60607187D01*
X105854277Y-60327051D01*
X105744973Y-60063167D01*
X105586289Y-59825679D01*
X105486451Y-59725841D01*
X108727973Y-59725841D01*
X109540000Y-60537868D01*
X110352027Y-59725841D01*
X110270509Y-59489345D01*
X110010531Y-59371052D01*
X109732471Y-59305752D01*
X109447014Y-59295954D01*
X109165130Y-59342033D01*
X108897653Y-59442220D01*
X108809491Y-59489345D01*
X108727973Y-59725841D01*
X105486451Y-59725841D01*
X105384321Y-59623711D01*
X105146833Y-59465027D01*
X104882949Y-59355723D01*
X104602813Y-59300000D01*
X104317187Y-59300000D01*
X104037051Y-59355723D01*
X103773167Y-59465027D01*
X103535679Y-59623711D01*
X103333711Y-59825679D01*
X103284051Y-59900000D01*
X103041741Y-59900000D01*
X103000000Y-59895889D01*
X102958259Y-59900000D01*
X102958251Y-59900000D01*
X102833371Y-59912300D01*
X102673145Y-59960903D01*
X102525481Y-60039832D01*
X102396052Y-60146052D01*
X102369438Y-60178481D01*
X102132678Y-60415241D01*
X102126289Y-60405679D01*
X101924321Y-60203711D01*
X101850000Y-60154051D01*
X101850000Y-55350000D01*
X104299390Y-55350000D01*
X104325679Y-55376289D01*
X104563167Y-55534973D01*
X104827051Y-55644277D01*
X105107187Y-55700000D01*
X105392813Y-55700000D01*
X105672949Y-55644277D01*
X105936833Y-55534973D01*
X106174321Y-55376289D01*
X106376289Y-55174321D01*
X106534973Y-54936833D01*
X106644277Y-54672949D01*
X106700000Y-54392813D01*
X106700000Y-54107187D01*
X107300000Y-54107187D01*
X107300000Y-54392813D01*
X107355723Y-54672949D01*
X107465027Y-54936833D01*
X107623711Y-55174321D01*
X107825679Y-55376289D01*
X107900000Y-55425949D01*
X107900001Y-56708249D01*
X107895889Y-56750000D01*
X107912300Y-56916629D01*
X107960903Y-57076854D01*
X107992173Y-57135354D01*
X108039833Y-57224519D01*
X108146053Y-57353948D01*
X108178481Y-57380561D01*
X109619443Y-58821525D01*
X109646052Y-58853948D01*
X109678475Y-58880557D01*
X109678479Y-58880561D01*
X109731801Y-58924321D01*
X109775481Y-58960168D01*
X109923145Y-59039097D01*
X110083371Y-59087700D01*
X110208251Y-59100000D01*
X110208261Y-59100000D01*
X110249999Y-59104111D01*
X110291737Y-59100000D01*
X111393648Y-59100000D01*
X111507199Y-59269941D01*
X111730059Y-59492801D01*
X111992116Y-59667902D01*
X112283297Y-59788513D01*
X112592414Y-59850000D01*
X112907586Y-59850000D01*
X113216703Y-59788513D01*
X113507884Y-59667902D01*
X113769941Y-59492801D01*
X113992801Y-59269941D01*
X114167902Y-59007884D01*
X114288513Y-58716703D01*
X114350000Y-58407586D01*
X114350000Y-58092414D01*
X114288513Y-57783297D01*
X114193894Y-57554866D01*
X114273711Y-57674321D01*
X114475679Y-57876289D01*
X114713167Y-58034973D01*
X114977051Y-58144277D01*
X115257187Y-58200000D01*
X115542813Y-58200000D01*
X115822949Y-58144277D01*
X116086833Y-58034973D01*
X116324321Y-57876289D01*
X116526289Y-57674321D01*
X116684973Y-57436833D01*
X116794277Y-57172949D01*
X116850000Y-56892813D01*
X116850000Y-56607187D01*
X116794277Y-56327051D01*
X116684973Y-56063167D01*
X116526289Y-55825679D01*
X116324321Y-55623711D01*
X116086833Y-55465027D01*
X115822949Y-55355723D01*
X115542813Y-55300000D01*
X115505635Y-55300000D01*
X113716033Y-53510399D01*
X113681581Y-53468419D01*
X113514084Y-53330958D01*
X113322988Y-53228816D01*
X113115638Y-53165916D01*
X112954036Y-53150000D01*
X112954034Y-53150000D01*
X112900000Y-53144678D01*
X112845966Y-53150000D01*
X109700610Y-53150000D01*
X109674321Y-53123711D01*
X109436833Y-52965027D01*
X109172949Y-52855723D01*
X108892813Y-52800000D01*
X108607187Y-52800000D01*
X108327051Y-52855723D01*
X108063167Y-52965027D01*
X107825679Y-53123711D01*
X107623711Y-53325679D01*
X107465027Y-53563167D01*
X107355723Y-53827051D01*
X107300000Y-54107187D01*
X106700000Y-54107187D01*
X106644277Y-53827051D01*
X106534973Y-53563167D01*
X106376289Y-53325679D01*
X106174321Y-53123711D01*
X105936833Y-52965027D01*
X105672949Y-52855723D01*
X105392813Y-52800000D01*
X105107187Y-52800000D01*
X104827051Y-52855723D01*
X104563167Y-52965027D01*
X104325679Y-53123711D01*
X104299390Y-53150000D01*
X99455635Y-53150000D01*
X99079794Y-52774159D01*
X114587973Y-52774159D01*
X114669491Y-53010655D01*
X114929469Y-53128948D01*
X115207529Y-53194248D01*
X115492986Y-53204046D01*
X115774870Y-53157967D01*
X116042347Y-53057780D01*
X116130509Y-53010655D01*
X116212027Y-52774159D01*
X115400000Y-51962132D01*
X114587973Y-52774159D01*
X99079794Y-52774159D01*
X98700000Y-52394366D01*
X98700000Y-52357187D01*
X98667572Y-52194159D01*
X100187973Y-52194159D01*
X100269491Y-52430655D01*
X100529469Y-52548948D01*
X100807529Y-52614248D01*
X101092986Y-52624046D01*
X101374870Y-52577967D01*
X101642347Y-52477780D01*
X101730509Y-52430655D01*
X101812027Y-52194159D01*
X101000000Y-51382132D01*
X100187973Y-52194159D01*
X98667572Y-52194159D01*
X98644277Y-52077051D01*
X98534973Y-51813167D01*
X98376289Y-51575679D01*
X98174321Y-51373711D01*
X98008609Y-51262986D01*
X99545954Y-51262986D01*
X99592033Y-51544870D01*
X99692220Y-51812347D01*
X99739345Y-51900509D01*
X99975841Y-51982027D01*
X100787868Y-51170000D01*
X101212132Y-51170000D01*
X102024159Y-51982027D01*
X102260655Y-51900509D01*
X102286828Y-51842986D01*
X113945954Y-51842986D01*
X113992033Y-52124870D01*
X114092220Y-52392347D01*
X114139345Y-52480509D01*
X114375841Y-52562027D01*
X115187868Y-51750000D01*
X115612132Y-51750000D01*
X116424159Y-52562027D01*
X116660655Y-52480509D01*
X116778948Y-52220531D01*
X116844248Y-51942471D01*
X116854046Y-51657014D01*
X116807967Y-51375130D01*
X116707780Y-51107653D01*
X116660655Y-51019491D01*
X116424159Y-50937973D01*
X115612132Y-51750000D01*
X115187868Y-51750000D01*
X114375841Y-50937973D01*
X114139345Y-51019491D01*
X114021052Y-51279469D01*
X113955752Y-51557529D01*
X113945954Y-51842986D01*
X102286828Y-51842986D01*
X102378948Y-51640531D01*
X102444248Y-51362471D01*
X102454046Y-51077014D01*
X102407967Y-50795130D01*
X102382014Y-50725841D01*
X114587973Y-50725841D01*
X115400000Y-51537868D01*
X116212027Y-50725841D01*
X116130509Y-50489345D01*
X115870531Y-50371052D01*
X115592471Y-50305752D01*
X115307014Y-50295954D01*
X115025130Y-50342033D01*
X114757653Y-50442220D01*
X114669491Y-50489345D01*
X114587973Y-50725841D01*
X102382014Y-50725841D01*
X102307780Y-50527653D01*
X102260655Y-50439491D01*
X102024159Y-50357973D01*
X101212132Y-51170000D01*
X100787868Y-51170000D01*
X99975841Y-50357973D01*
X99739345Y-50439491D01*
X99621052Y-50699469D01*
X99555752Y-50977529D01*
X99545954Y-51262986D01*
X98008609Y-51262986D01*
X97936833Y-51215027D01*
X97672949Y-51105723D01*
X97392813Y-51050000D01*
X97107187Y-51050000D01*
X96827051Y-51105723D01*
X96563167Y-51215027D01*
X96325679Y-51373711D01*
X96123711Y-51575679D01*
X95965027Y-51813167D01*
X95855723Y-52077051D01*
X95800000Y-52357187D01*
X95800000Y-52642813D01*
X95855723Y-52922949D01*
X95965027Y-53186833D01*
X96123711Y-53424321D01*
X96299390Y-53600000D01*
X93200610Y-53600000D01*
X93376289Y-53424321D01*
X93534973Y-53186833D01*
X93644277Y-52922949D01*
X93700000Y-52642813D01*
X93700000Y-52357187D01*
X93644277Y-52077051D01*
X93534973Y-51813167D01*
X93376289Y-51575679D01*
X93174321Y-51373711D01*
X92936833Y-51215027D01*
X92672949Y-51105723D01*
X92392813Y-51050000D01*
X92107187Y-51050000D01*
X91827051Y-51105723D01*
X91563167Y-51215027D01*
X91325679Y-51373711D01*
X91299390Y-51400000D01*
X89100000Y-51400000D01*
X89100000Y-51135949D01*
X89174321Y-51086289D01*
X89376289Y-50884321D01*
X89534973Y-50646833D01*
X89644277Y-50382949D01*
X89691441Y-50145841D01*
X100187973Y-50145841D01*
X101000000Y-50957868D01*
X101812027Y-50145841D01*
X101730509Y-49909345D01*
X101470531Y-49791052D01*
X101192471Y-49725752D01*
X100907014Y-49715954D01*
X100625130Y-49762033D01*
X100357653Y-49862220D01*
X100269491Y-49909345D01*
X100187973Y-50145841D01*
X89691441Y-50145841D01*
X89700000Y-50102813D01*
X89700000Y-49817187D01*
X89644277Y-49537051D01*
X89534973Y-49273167D01*
X89376289Y-49035679D01*
X89174321Y-48833711D01*
X88936833Y-48675027D01*
X88672949Y-48565723D01*
X88392813Y-48510000D01*
X88107187Y-48510000D01*
X87827051Y-48565723D01*
X87563167Y-48675027D01*
X87325679Y-48833711D01*
X87123711Y-49035679D01*
X86965027Y-49273167D01*
X86855723Y-49537051D01*
X86800000Y-49817187D01*
X86800000Y-50102813D01*
X86855723Y-50382949D01*
X86965027Y-50646833D01*
X87123711Y-50884321D01*
X87325679Y-51086289D01*
X87400001Y-51135949D01*
X87400000Y-51668975D01*
X87339753Y-51718419D01*
X87305305Y-51760394D01*
X85465700Y-53600000D01*
X84796942Y-53600000D01*
X84766511Y-53590769D01*
X84955205Y-53509835D01*
X85174741Y-53359148D01*
X85360661Y-53168528D01*
X85505820Y-52945299D01*
X85601658Y-52678032D01*
X85490588Y-52470000D01*
X83950000Y-52470000D01*
X83950000Y-52490000D01*
X83650000Y-52490000D01*
X83650000Y-52470000D01*
X82109412Y-52470000D01*
X81998342Y-52678032D01*
X82094180Y-52945299D01*
X82239339Y-53168528D01*
X82425259Y-53359148D01*
X82644795Y-53509835D01*
X82833489Y-53590769D01*
X82803058Y-53600000D01*
X77176943Y-53600000D01*
X77143978Y-53590000D01*
X77199122Y-53573272D01*
X77433649Y-53447915D01*
X77467664Y-53420000D01*
X79665966Y-53420000D01*
X79720000Y-53425322D01*
X79774034Y-53420000D01*
X79774036Y-53420000D01*
X79935638Y-53404084D01*
X80142988Y-53341184D01*
X80334084Y-53239042D01*
X80501581Y-53101581D01*
X80536033Y-53059601D01*
X81633666Y-51961968D01*
X81998342Y-51961968D01*
X82109412Y-52170000D01*
X83650000Y-52170000D01*
X83650000Y-50970000D01*
X83950000Y-50970000D01*
X83950000Y-52170000D01*
X85490588Y-52170000D01*
X85601658Y-51961968D01*
X85505820Y-51694701D01*
X85360661Y-51471472D01*
X85174741Y-51280852D01*
X84955205Y-51130165D01*
X84710490Y-51025203D01*
X84450000Y-50970000D01*
X83950000Y-50970000D01*
X83650000Y-50970000D01*
X83150000Y-50970000D01*
X82889510Y-51025203D01*
X82644795Y-51130165D01*
X82425259Y-51280852D01*
X82239339Y-51471472D01*
X82094180Y-51694701D01*
X81998342Y-51961968D01*
X81633666Y-51961968D01*
X83605635Y-49990000D01*
X83642813Y-49990000D01*
X83922949Y-49934277D01*
X84186833Y-49824973D01*
X84424321Y-49666289D01*
X84626289Y-49464321D01*
X84784973Y-49226833D01*
X84894277Y-48962949D01*
X84950000Y-48682813D01*
X84950000Y-48397187D01*
X84894277Y-48117051D01*
X84784973Y-47853167D01*
X84626289Y-47615679D01*
X84424321Y-47413711D01*
X84186833Y-47255027D01*
X83922949Y-47145723D01*
X83642813Y-47090000D01*
X83357187Y-47090000D01*
X83077051Y-47145723D01*
X82813167Y-47255027D01*
X82575679Y-47413711D01*
X82373711Y-47615679D01*
X82215027Y-47853167D01*
X82105723Y-48117051D01*
X82050000Y-48397187D01*
X82050000Y-48434365D01*
X79264366Y-51220000D01*
X77467664Y-51220000D01*
X77433649Y-51192085D01*
X77280000Y-51109958D01*
X77280000Y-49172712D01*
X77422949Y-49144277D01*
X77686833Y-49034973D01*
X77924321Y-48876289D01*
X78126289Y-48674321D01*
X78284973Y-48436833D01*
X78394277Y-48172949D01*
X78450000Y-47892813D01*
X78450000Y-47607187D01*
X78394277Y-47327051D01*
X78284973Y-47063167D01*
X78126289Y-46825679D01*
X77924321Y-46623711D01*
X77686833Y-46465027D01*
X77422949Y-46355723D01*
X77142813Y-46300000D01*
X76857187Y-46300000D01*
X76577051Y-46355723D01*
X76313167Y-46465027D01*
X76075679Y-46623711D01*
X75873711Y-46825679D01*
X75715027Y-47063167D01*
X75605723Y-47327051D01*
X75550000Y-47607187D01*
X75550000Y-47644366D01*
X75440394Y-47753972D01*
X75398420Y-47788419D01*
X75363974Y-47830392D01*
X75260958Y-47955916D01*
X75174852Y-48117012D01*
X75158817Y-48147012D01*
X75105018Y-48324363D01*
X75095917Y-48354363D01*
X75074678Y-48570000D01*
X75080001Y-48624043D01*
X75080000Y-51109958D01*
X74926351Y-51192085D01*
X74892336Y-51220000D01*
X73352367Y-51220000D01*
X73350000Y-51195965D01*
X73350000Y-51141659D01*
X73339406Y-51088401D01*
X73334084Y-51034363D01*
X73318321Y-50982399D01*
X73307727Y-50929142D01*
X73286946Y-50878971D01*
X73271184Y-50827013D01*
X73245590Y-50779129D01*
X73224807Y-50728955D01*
X73194637Y-50683803D01*
X73169042Y-50635917D01*
X73134594Y-50593942D01*
X73104425Y-50548791D01*
X73066029Y-50510395D01*
X73059743Y-50502736D01*
X73137307Y-50425172D01*
X73023204Y-50311069D01*
X73224119Y-50272329D01*
X73307304Y-50072252D01*
X73349856Y-49859790D01*
X73350141Y-49643109D01*
X73308149Y-49430536D01*
X73225492Y-49230240D01*
X73224119Y-49227671D01*
X73023201Y-49188931D01*
X72900000Y-49312132D01*
X72900000Y-45274159D01*
X76187973Y-45274159D01*
X76269491Y-45510655D01*
X76529469Y-45628948D01*
X76807529Y-45694248D01*
X77092986Y-45704046D01*
X77374870Y-45657967D01*
X77642347Y-45557780D01*
X77730509Y-45510655D01*
X77812027Y-45274159D01*
X77000000Y-44462132D01*
X76187973Y-45274159D01*
X72900000Y-45274159D01*
X72900000Y-44342986D01*
X75545954Y-44342986D01*
X75592033Y-44624870D01*
X75692220Y-44892347D01*
X75739345Y-44980509D01*
X75975841Y-45062027D01*
X76787868Y-44250000D01*
X77212132Y-44250000D01*
X78024159Y-45062027D01*
X78260655Y-44980509D01*
X78378948Y-44720531D01*
X78434457Y-44484159D01*
X82687973Y-44484159D01*
X82769491Y-44720655D01*
X83029469Y-44838948D01*
X83307529Y-44904248D01*
X83592986Y-44914046D01*
X83874870Y-44867967D01*
X84142347Y-44767780D01*
X84230509Y-44720655D01*
X84312027Y-44484159D01*
X83500000Y-43672132D01*
X82687973Y-44484159D01*
X78434457Y-44484159D01*
X78444248Y-44442471D01*
X78454046Y-44157014D01*
X78407967Y-43875130D01*
X78307780Y-43607653D01*
X78278559Y-43552986D01*
X82045954Y-43552986D01*
X82092033Y-43834870D01*
X82192220Y-44102347D01*
X82239345Y-44190509D01*
X82475841Y-44272027D01*
X83287868Y-43460000D01*
X83712132Y-43460000D01*
X84524159Y-44272027D01*
X84760655Y-44190509D01*
X84878948Y-43930531D01*
X84944248Y-43652471D01*
X84954046Y-43367014D01*
X84907967Y-43085130D01*
X84807780Y-42817653D01*
X84760655Y-42729491D01*
X84524159Y-42647973D01*
X83712132Y-43460000D01*
X83287868Y-43460000D01*
X82475841Y-42647973D01*
X82239345Y-42729491D01*
X82121052Y-42989469D01*
X82055752Y-43267529D01*
X82045954Y-43552986D01*
X78278559Y-43552986D01*
X78260655Y-43519491D01*
X78024159Y-43437973D01*
X77212132Y-44250000D01*
X76787868Y-44250000D01*
X75975841Y-43437973D01*
X75739345Y-43519491D01*
X75621052Y-43779469D01*
X75555752Y-44057529D01*
X75545954Y-44342986D01*
X72900000Y-44342986D01*
X72900000Y-43225841D01*
X76187973Y-43225841D01*
X77000000Y-44037868D01*
X77812027Y-43225841D01*
X77730509Y-42989345D01*
X77470531Y-42871052D01*
X77192471Y-42805752D01*
X76907014Y-42795954D01*
X76625130Y-42842033D01*
X76357653Y-42942220D01*
X76269491Y-42989345D01*
X76187973Y-43225841D01*
X72900000Y-43225841D01*
X72900000Y-42435841D01*
X82687973Y-42435841D01*
X83500000Y-43247868D01*
X84312027Y-42435841D01*
X84230509Y-42199345D01*
X83970531Y-42081052D01*
X83692471Y-42015752D01*
X83407014Y-42005954D01*
X83125130Y-42052033D01*
X82857653Y-42152220D01*
X82769491Y-42199345D01*
X82687973Y-42435841D01*
X72900000Y-42435841D01*
X72900000Y-41631374D01*
X76080758Y-41631374D01*
X76180467Y-41883184D01*
X76466061Y-42016489D01*
X76772172Y-42091517D01*
X77087040Y-42105383D01*
X77398562Y-42057555D01*
X77694768Y-41949872D01*
X77819533Y-41883184D01*
X77919242Y-41631374D01*
X77000000Y-40712132D01*
X76080758Y-41631374D01*
X72900000Y-41631374D01*
X72900000Y-40587040D01*
X75394617Y-40587040D01*
X75442445Y-40898562D01*
X75550128Y-41194768D01*
X75616816Y-41319533D01*
X75868626Y-41419242D01*
X76787868Y-40500000D01*
X77212132Y-40500000D01*
X78131374Y-41419242D01*
X78383184Y-41319533D01*
X78516489Y-41033939D01*
X78581537Y-40768545D01*
X112650000Y-40768545D01*
X112650000Y-41231455D01*
X112740309Y-41685470D01*
X112917457Y-42113143D01*
X113174636Y-42498038D01*
X113501962Y-42825364D01*
X113886857Y-43082543D01*
X114314530Y-43259691D01*
X114768545Y-43350000D01*
X115231455Y-43350000D01*
X115685470Y-43259691D01*
X116113143Y-43082543D01*
X116498038Y-42825364D01*
X116825364Y-42498038D01*
X117082543Y-42113143D01*
X117259691Y-41685470D01*
X117350000Y-41231455D01*
X117350000Y-40768545D01*
X117259691Y-40314530D01*
X117082543Y-39886857D01*
X116825364Y-39501962D01*
X116498038Y-39174636D01*
X116113143Y-38917457D01*
X115685470Y-38740309D01*
X115231455Y-38650000D01*
X114768545Y-38650000D01*
X114314530Y-38740309D01*
X113886857Y-38917457D01*
X113501962Y-39174636D01*
X113174636Y-39501962D01*
X112917457Y-39886857D01*
X112740309Y-40314530D01*
X112650000Y-40768545D01*
X78581537Y-40768545D01*
X78591517Y-40727828D01*
X78605383Y-40412960D01*
X78557555Y-40101438D01*
X78449872Y-39805232D01*
X78383184Y-39680467D01*
X78131374Y-39580758D01*
X77212132Y-40500000D01*
X76787868Y-40500000D01*
X75868626Y-39580758D01*
X75616816Y-39680467D01*
X75483511Y-39966061D01*
X75408483Y-40272172D01*
X75394617Y-40587040D01*
X72900000Y-40587040D01*
X72900000Y-39368626D01*
X76080758Y-39368626D01*
X77000000Y-40287868D01*
X77919242Y-39368626D01*
X77819533Y-39116816D01*
X77533939Y-38983511D01*
X77227828Y-38908483D01*
X76912960Y-38894617D01*
X76601438Y-38942445D01*
X76305232Y-39050128D01*
X76180467Y-39116816D01*
X76080758Y-39368626D01*
X72900000Y-39368626D01*
X72900000Y-36900000D01*
X119100000Y-36900000D01*
X119100001Y-81600000D01*
M02*
